<svg width="27" height="27" viewBox="0 0 27 27" fill="none" xmlns="http://www.w3.org/2000/svg">
<path d="M19.5001 7.16C19.4401 7.15 19.3701 7.15 19.3101 7.16C17.9301 7.11 16.8301 5.98 16.8301 4.58C16.8301 3.15 17.9801 2 19.4101 2C20.8401 2 21.9901 3.16 21.9901 4.58C21.9801 5.98 20.8801 7.11 19.5001 7.16Z" fill="#2A92F4" stroke="#2A92F4" stroke-width="1.5" stroke-linecap="round" stroke-linejoin="round"/>
<mask id="path-3-inside-1_3063_26730" fill="white">
<path d="M18.4702 14.4399C19.8402 14.6699 21.3502 14.4299 22.4102 13.7199C23.8202 12.7799 23.8202 11.2399 22.4102 10.2999C21.3402 9.58992 19.8102 9.34991 18.4402 9.58991"/>
</mask>
<path d="M18.4702 14.4399C19.8402 14.6699 21.3502 14.4299 22.4102 13.7199C23.8202 12.7799 23.8202 11.2399 22.4102 10.2999C21.3402 9.58992 19.8102 9.34991 18.4402 9.58991" fill="#2A92F4"/>
<path d="M18.7185 12.9606C17.9015 12.8235 17.128 13.3746 16.9909 14.1916C16.8537 15.0086 17.4048 15.7821 18.2218 15.9192L18.7185 12.9606ZM22.4102 13.7199L21.5781 12.4718L21.5754 12.4737L22.4102 13.7199ZM22.4102 10.2999L23.2422 9.05184L23.2395 9.05005L22.4102 10.2999ZM18.1814 8.11241C17.3654 8.25536 16.8197 9.03274 16.9627 9.84874C17.1056 10.6647 17.883 11.2104 18.699 11.0674L18.1814 8.11241ZM18.2218 15.9192C19.8859 16.1986 21.8029 15.9321 23.245 14.9662L21.5754 12.4737C20.8975 12.9278 19.7945 13.1412 18.7185 12.9606L18.2218 15.9192ZM23.2422 14.968C24.26 14.2895 24.9677 13.2453 24.9677 12.0099C24.9677 10.7746 24.26 9.73036 23.2422 9.05184L21.5781 11.548C21.9704 11.8095 21.9677 12.0053 21.9677 12.0099C21.9677 12.0146 21.9704 12.2104 21.5781 12.4718L23.2422 14.968ZM23.2395 9.05005C21.7891 8.08757 19.852 7.81975 18.1814 8.11241L18.699 11.0674C19.7684 10.8801 20.8913 11.0923 21.5808 11.5498L23.2395 9.05005Z" fill="#2A92F4" mask="url(#path-3-inside-1_3063_26730)"/>
<path d="M7.46998 7.16C7.52998 7.15 7.59998 7.15 7.65998 7.16C9.03998 7.11 10.14 5.98 10.14 4.58C10.14 3.15 8.98998 2 7.55998 2C6.12998 2 4.97998 3.16 4.97998 4.58C4.98998 5.98 6.08998 7.11 7.46998 7.16Z" fill="#2A92F4" stroke="#2A92F4" stroke-width="1.5" stroke-linecap="round" stroke-linejoin="round"/>
<mask id="path-6-inside-2_3063_26730" fill="white">
<path d="M8.49994 14.4399C7.12994 14.6699 5.61994 14.4299 4.55994 13.7199C3.14994 12.7799 3.14994 11.2399 4.55994 10.2999C5.62994 9.58992 7.15994 9.34991 8.52994 9.58991"/>
</mask>
<path d="M8.49994 14.4399C7.12994 14.6699 5.61994 14.4299 4.55994 13.7199C3.14994 12.7799 3.14994 11.2399 4.55994 10.2999C5.62994 9.58992 7.15994 9.34991 8.52994 9.58991" fill="#2A92F4"/>
<path d="M8.74829 15.9192C9.56528 15.7821 10.1164 15.0086 9.97924 14.1916C9.84208 13.3746 9.06858 12.8235 8.25159 12.9606L8.74829 15.9192ZM4.55994 13.7199L5.3947 12.4736L5.39199 12.4718L4.55994 13.7199ZM4.55994 10.2999L3.73059 9.05005L3.72789 9.05184L4.55994 10.2999ZM8.27111 11.0674C9.08711 11.2104 9.86449 10.6647 10.0074 9.84874C10.1504 9.03274 9.60477 8.25536 8.78877 8.11241L8.27111 11.0674ZM8.25159 12.9606C7.17566 13.1412 6.07265 12.9278 5.3947 12.4737L3.72518 14.9662C5.16723 15.9321 7.08422 16.1986 8.74829 15.9192L8.25159 12.9606ZM5.39199 12.4718C4.99976 12.2104 5.00244 12.0146 5.00244 12.0099C5.00244 12.0053 4.99976 11.8095 5.39199 11.548L3.72789 9.05184C2.71012 9.73036 2.00244 10.7746 2.00244 12.0099C2.00244 13.2453 2.71012 14.2895 3.72789 14.968L5.39199 12.4718ZM5.38929 11.5498C6.07881 11.0923 7.20174 10.8801 8.27111 11.0674L8.78877 8.11241C7.11814 7.81975 5.18108 8.08758 3.73059 9.05005L5.38929 11.5498Z" fill="#2A92F4" mask="url(#path-6-inside-2_3063_26730)"/>
<path d="M13.5001 14.63C13.4401 14.62 13.3701 14.62 13.3101 14.63C11.9301 14.58 10.8301 13.45 10.8301 12.05C10.8301 10.62 11.9801 9.46997 13.4101 9.46997C14.8401 9.46997 15.9901 10.63 15.9901 12.05C15.9801 13.45 14.8801 14.59 13.5001 14.63Z" fill="#2A92F4" stroke="#2A92F4" stroke-width="1.5" stroke-linecap="round" stroke-linejoin="round"/>
<path d="M10.59 17.7799C9.17997 18.7199 9.17997 20.2599 10.59 21.1999C12.19 22.2699 14.81 22.2699 16.41 21.1999C17.82 20.2599 17.82 18.7199 16.41 17.7799C14.82 16.7199 12.19 16.7199 10.59 17.7799Z" fill="#2A92F4" stroke="#2A92F4" stroke-width="1.5" stroke-linecap="round" stroke-linejoin="round"/>
<rect x="11" y="24" width="5" height="3" rx="1.5" fill="#2A92F4"/>
</svg>
