<svg width="27" height="27" viewBox="0 0 27 27" fill="none" xmlns="http://www.w3.org/2000/svg">
<path d="M8.00008 6.99991C9.46143 5.53856 11.0936 4.4189 12.1976 3.74078C13.0022 3.24656 13.998 3.24656 14.8026 3.74078C15.9065 4.4189 17.5387 5.53856 19.0001 6.99991C22.1685 10.1683 22.0001 11.9999 22.0001 14.9999C22.0001 16.4097 21.8897 17.5987 21.7726 18.4631C21.6494 19.3725 20.8563 19.9999 19.9385 19.9999H18.5001C17.3955 19.9999 16.5001 19.1045 16.5001 17.9999V15.9999C16.5001 15.2043 16.184 14.4412 15.6214 13.8786C15.0588 13.316 14.2957 12.9999 13.5001 12.9999C12.7044 12.9999 11.9414 13.316 11.3788 13.8786C10.8162 14.4412 10.5001 15.2043 10.5001 15.9999V17.9999C10.5001 19.1045 9.60466 19.9999 8.50009 19.9999H7.06164C6.14391 19.9999 5.35074 19.3725 5.22757 18.4631C5.11051 17.5987 5.00009 16.4097 5.00009 14.9999C5.00009 11.9999 4.83169 10.1683 8.00008 6.99991Z" fill="#2A92F4" stroke="#2A92F4" stroke-width="1.5" stroke-linecap="round" stroke-linejoin="round"/>
<rect x="11" y="24" width="5" height="3" rx="1.5" fill="#2A92F4"/>
</svg>
