<svg width="27" height="27" viewBox="0 0 27 27" fill="none" xmlns="http://www.w3.org/2000/svg">
<path d="M13.5 15C15.1569 15 16.5 13.6569 16.5 12C16.5 10.3431 15.1569 9 13.5 9C11.8431 9 10.5 10.3431 10.5 12C10.5 13.6569 11.8431 15 13.5 15Z" stroke="#C6C6C6" stroke-width="1.5" stroke-miterlimit="10" stroke-linecap="round" stroke-linejoin="round"/>
<path d="M3.5 12.8799V11.1199C3.5 10.0799 4.35 9.21994 5.4 9.21994C7.21 9.21994 7.95 7.93994 7.04 6.36994C6.52 5.46994 6.83 4.29994 7.74 3.77994L9.47 2.78994C10.26 2.31994 11.28 2.59994 11.75 3.38994L11.86 3.57994C12.76 5.14994 14.24 5.14994 15.15 3.57994L15.26 3.38994C15.73 2.59994 16.75 2.31994 17.54 2.78994L19.27 3.77994C20.18 4.29994 20.49 5.46994 19.97 6.36994C19.06 7.93994 19.8 9.21994 21.61 9.21994C22.65 9.21994 23.51 10.0699 23.51 11.1199V12.8799C23.51 13.9199 22.66 14.7799 21.61 14.7799C19.8 14.7799 19.06 16.0599 19.97 17.6299C20.49 18.5399 20.18 19.6999 19.27 20.2199L17.54 21.2099C16.75 21.6799 15.73 21.3999 15.26 20.6099L15.15 20.4199C14.25 18.8499 12.77 18.8499 11.86 20.4199L11.75 20.6099C11.28 21.3999 10.26 21.6799 9.47 21.2099L7.74 20.2199C6.83 19.6999 6.52 18.5299 7.04 17.6299C7.95 16.0599 7.21 14.7799 5.4 14.7799C4.35 14.7799 3.5 13.9199 3.5 12.8799Z" fill="#2A92F4" stroke="#2A92F4" stroke-width="1.5" stroke-miterlimit="10" stroke-linecap="round" stroke-linejoin="round"/>
<rect x="11" y="24" width="5" height="3" rx="1.5" fill="#2A92F4"/>
</svg>
