<svg width="27" height="27" viewBox="0 0 27 27" fill="none" xmlns="http://www.w3.org/2000/svg">
<path d="M20.5701 19.0699C24.4801 15.1599 24.4801 8.82993 20.5701 4.92993" stroke="#2A92F4" stroke-width="1.5" stroke-linecap="round" stroke-linejoin="round"/>
<path d="M6.43006 4.92993C2.52006 8.83993 2.52006 15.1699 6.43006 19.0699" stroke="#2A92F4" stroke-width="1.5" stroke-linecap="round" stroke-linejoin="round"/>
<path d="M10.2 21.4099C11.27 21.7799 12.3799 21.96 13.4999 21.96C14.6199 21.95 15.7299 21.7799 16.7999 21.4099" stroke="#2A92F4" stroke-width="1.5" stroke-linecap="round" stroke-linejoin="round"/>
<path d="M10.2 2.59009C11.27 2.22009 12.3799 2.04004 13.4999 2.04004C14.6199 2.04004 15.7299 2.22009 16.7999 2.59009" stroke="#2A92F4" stroke-width="1.5" stroke-linecap="round" stroke-linejoin="round"/>
<path d="M10.24 12.0001V10.3302C10.24 8.25016 11.71 7.40014 13.51 8.44014L14.96 9.28017L16.41 10.1201C18.21 11.1601 18.21 12.8602 16.41 13.9002L14.96 14.7401L13.51 15.5802C11.71 16.6202 10.24 15.7701 10.24 13.6901V12.0001Z" fill="#2A92F4" stroke="#2A92F4" stroke-width="1.5" stroke-miterlimit="10" stroke-linecap="round" stroke-linejoin="round"/>
<rect x="11" y="24" width="5" height="3" rx="1.5" fill="#2A92F4"/>
</svg>
