<svg width="28" height="27" viewBox="0 0 28 27" fill="none" xmlns="http://www.w3.org/2000/svg">
<path d="M27.2157 22.1816L22.308 13.1058C22.8087 11.9695 23.0888 10.7136 23.0888 9.39234C23.0888 4.30013 18.9606 0.172363 13.8688 0.172363C8.7758 0.172363 4.64802 4.30055 4.64802 9.39234C4.64802 10.7455 4.94197 12.0294 5.46528 13.1868L0.535767 22.1774C0.376819 22.4663 0.403236 22.8227 0.601993 23.0864C0.80117 23.3494 1.13746 23.4731 1.45864 23.3976L5.66817 22.4319L7.10895 26.4448C7.22133 26.7568 7.50605 26.9731 7.83605 26.9975C7.85746 26.9991 7.87798 27 7.89811 27C8.04975 26.9999 8.19854 26.9587 8.32864 26.8808C8.45875 26.8029 8.56529 26.6912 8.63695 26.5576L12.927 18.565C13.2398 18.5967 13.554 18.6125 13.8684 18.6124C14.1598 18.6124 14.4474 18.5973 14.7317 18.5704L19.1149 26.5639C19.1924 26.7056 19.3093 26.8219 19.4514 26.8987C19.5935 26.9755 19.7547 27.0097 19.9158 26.997C20.2449 26.9706 20.5284 26.7547 20.6399 26.4444L22.0807 22.4315L26.2902 23.3972C26.6131 23.4752 26.946 23.3498 27.1452 23.0877C27.3452 22.826 27.3721 22.4713 27.2157 22.1816ZM8.05069 24.1045L6.99563 21.1651C6.85139 20.7655 6.43293 20.5328 6.01862 20.6313L2.90518 21.3454L6.45392 14.8728C7.62257 16.4515 9.28307 17.6424 11.209 18.2219L8.05069 24.1045ZM21.7301 20.6313C21.3141 20.5332 20.8973 20.7655 20.7531 21.165L19.6909 24.1259L16.4634 18.2407C18.4405 17.6616 20.1413 16.4394 21.325 14.8145L24.8591 21.3487L21.7301 20.6313Z" fill="#FCC417"/>
<path d="M12.8454 12.8398C12.6836 12.8398 12.556 12.7963 12.4626 12.7092C12.3755 12.6158 12.332 12.4913 12.332 12.3358C12.332 12.174 12.3755 12.0526 12.4626 11.9717C12.556 11.8908 12.6836 11.8504 12.8454 11.8504H13.8909V7.267H14.4696L13.0974 8.09779C12.9792 8.16625 12.8671 8.19425 12.7614 8.18181C12.6618 8.16314 12.5747 8.11957 12.5 8.05112C12.4315 7.97644 12.3848 7.88932 12.36 7.78975C12.3351 7.69018 12.3413 7.5906 12.3786 7.49103C12.4222 7.38524 12.5031 7.29812 12.6213 7.22966L13.9095 6.45488C14.034 6.3802 14.1585 6.31797 14.2829 6.26818C14.4074 6.21217 14.5225 6.18417 14.6283 6.18417C14.759 6.18417 14.8679 6.22151 14.955 6.29619C15.0421 6.36464 15.0857 6.47977 15.0857 6.64157V11.8504H16.0378C16.1996 11.8504 16.3241 11.8908 16.4112 11.9717C16.5046 12.0526 16.5513 12.174 16.5513 12.3358C16.5513 12.4976 16.5046 12.622 16.4112 12.7092C16.3241 12.7963 16.1996 12.8398 16.0378 12.8398H12.8454Z" fill="white"/>
</svg>
