<svg width="27" height="28" viewBox="0 0 27 28" fill="none" xmlns="http://www.w3.org/2000/svg">
<path d="M26.7378 22.4032L21.8929 13.4436C22.3872 12.3218 22.6637 11.0821 22.6637 9.77771C22.6637 4.7507 18.5884 0.675781 13.5618 0.675781C8.53396 0.675781 4.45904 4.75112 4.45904 9.77771C4.45904 11.1135 4.74922 12.381 5.26583 13.5235L0.399435 22.399C0.242522 22.6842 0.268601 23.0361 0.464814 23.2965C0.66144 23.5561 0.993427 23.6781 1.31049 23.6037L5.46613 22.6503L6.88846 26.6118C6.9994 26.9198 7.28047 27.1334 7.60625 27.1574C7.62739 27.1591 7.64764 27.1599 7.66751 27.1599C7.81721 27.1598 7.9641 27.1192 8.09254 27.0423C8.22097 26.9654 8.32616 26.8551 8.39689 26.7232L12.632 18.8329C12.9408 18.8642 13.251 18.8798 13.5613 18.8797C13.849 18.8797 14.133 18.8648 14.4136 18.8383L18.7406 26.7294C18.8172 26.8693 18.9326 26.9841 19.0728 27.0599C19.2131 27.1358 19.3723 27.1695 19.5313 27.157C19.8562 27.1309 20.1361 26.9177 20.2462 26.6114L21.6685 22.6499L25.8241 23.6032C26.1429 23.6802 26.4715 23.5564 26.6682 23.2977C26.8656 23.0394 26.8922 22.6892 26.7378 22.4032ZM7.81814 24.3015L6.77659 21.3997C6.63419 21.0052 6.2211 20.7755 5.81209 20.8728L2.73851 21.5777L6.24182 15.188C7.3955 16.7465 9.03474 17.9221 10.936 18.4942L7.81814 24.3015ZM21.3224 20.8728C20.9118 20.7759 20.5003 21.0052 20.3579 21.3997L19.3093 24.3226L16.1232 18.5128C18.0749 17.9411 19.7539 16.7345 20.9225 15.1304L24.4113 21.581L21.3224 20.8728Z" fill="#CECDD2"/>
<path d="M11.5316 13.2832C11.335 13.2832 11.1906 13.2402 11.0985 13.1542C11.0125 13.062 10.9695 12.93 10.9695 12.7579C10.9695 12.6535 10.9971 12.5521 11.0524 12.4538C11.1077 12.3555 11.1875 12.2511 11.292 12.1405L13.1442 10.1685C13.4268 9.87357 13.6296 9.60633 13.7525 9.36673C13.8753 9.12099 13.9368 8.87525 13.9368 8.62951C13.9368 8.32234 13.8385 8.08889 13.6419 7.92916C13.4514 7.76943 13.1719 7.68956 12.8033 7.68956C12.5944 7.68956 12.3855 7.72028 12.1766 7.78171C11.9678 7.837 11.7558 7.9353 11.5408 8.0766C11.4302 8.15032 11.3258 8.18104 11.2275 8.16875C11.1353 8.15646 11.0524 8.11653 10.9787 8.04895C10.9111 7.98138 10.865 7.89844 10.8404 7.80014C10.8159 7.70185 10.8189 7.60355 10.8497 7.50526C10.8865 7.40082 10.9602 7.31174 11.0708 7.23801C11.335 7.05985 11.6299 6.9247 11.9555 6.83254C12.2872 6.74039 12.619 6.69432 12.9507 6.69432C13.4176 6.69432 13.8108 6.76497 14.1303 6.90627C14.4497 7.04757 14.6924 7.25337 14.8583 7.52369C15.0242 7.794 15.1071 8.12268 15.1071 8.50972C15.1071 8.76774 15.0641 9.01962 14.9781 9.26536C14.8982 9.5111 14.7723 9.75991 14.6003 10.0118C14.4344 10.2637 14.2163 10.5309 13.946 10.8135L12.2135 12.6197V12.3064H14.9228C15.0887 12.3064 15.2146 12.3463 15.3006 12.4262C15.3866 12.5061 15.4296 12.6259 15.4296 12.7856C15.4296 12.9453 15.3866 13.0682 15.3006 13.1542C15.2146 13.2402 15.0887 13.2832 14.9228 13.2832H11.5316Z" fill="white"/>
</svg>
