<svg width="26" height="27" viewBox="0 0 26 27" fill="none" xmlns="http://www.w3.org/2000/svg">
<path d="M25.9054 21.4489L21.2479 12.8358C21.723 11.7574 21.9889 10.5655 21.9889 9.31157C21.9889 4.47891 18.0711 0.561523 13.2388 0.561523C8.40536 0.561523 4.48798 4.47931 4.48798 9.31157C4.48798 10.5957 4.76694 11.8143 5.26357 12.9126L0.585313 21.445C0.434467 21.7191 0.459537 22.0574 0.648164 22.3077C0.837189 22.5572 1.15634 22.6746 1.46114 22.603L5.45613 21.6865L6.82347 25.4949C6.93012 25.791 7.20033 25.9963 7.51351 26.0194C7.53383 26.021 7.55331 26.0218 7.57241 26.0218C7.71632 26.0217 7.85753 25.9826 7.981 25.9087C8.10447 25.8348 8.20559 25.7288 8.27359 25.6019L12.345 18.0167C12.6418 18.0468 12.94 18.0618 13.2384 18.0617C13.5149 18.0617 13.7879 18.0473 14.0577 18.0219L18.2175 25.6079C18.2911 25.7424 18.402 25.8527 18.5368 25.9257C18.6717 25.9986 18.8247 26.031 18.9775 26.019C19.2899 25.9939 19.5589 25.789 19.6648 25.4945L21.0321 21.6861L25.0271 22.6026C25.3335 22.6766 25.6495 22.5576 25.8385 22.3089C26.0283 22.0606 26.0538 21.7239 25.9054 21.4489ZM7.71721 23.2739L6.71593 20.4843C6.57904 20.1051 6.18191 19.8842 5.78871 19.9777L2.83396 20.6554L6.20183 14.5127C7.31091 16.011 8.88678 17.1411 10.7145 17.6911L7.71721 23.2739ZM20.6994 19.9777C20.3046 19.8846 19.9091 20.105 19.7722 20.4842L18.7642 23.2941L15.7012 17.709C17.5775 17.1594 19.1916 15.9994 20.315 14.4574L23.6689 20.6586L20.6994 19.9777Z" fill="#F79429"/>
<path d="M13.1839 12.0798C12.8649 12.0798 12.5342 12.0385 12.1917 11.9558C11.8491 11.8731 11.5509 11.7491 11.2969 11.5837C11.1788 11.5069 11.099 11.4183 11.0577 11.3179C11.0164 11.2175 11.0046 11.123 11.0223 11.0344C11.0459 10.9399 11.0902 10.8602 11.1552 10.7953C11.226 10.7303 11.3117 10.6919 11.4121 10.6801C11.5184 10.6683 11.6335 10.6948 11.7576 10.7598C11.9997 10.8897 12.233 10.9842 12.4574 11.0433C12.6818 11.0965 12.9122 11.123 13.1484 11.123C13.4083 11.123 13.6268 11.0876 13.804 11.0167C13.9812 10.9459 14.114 10.8395 14.2026 10.6978C14.2971 10.5561 14.3444 10.3848 14.3444 10.184C14.3444 9.88868 14.244 9.67016 14.0432 9.52842C13.8483 9.38077 13.5618 9.30694 13.1839 9.30694H12.6169C12.4515 9.30694 12.3245 9.2656 12.2359 9.18292C12.1533 9.10023 12.1119 8.98507 12.1119 8.83742C12.1119 8.68977 12.1533 8.5746 12.2359 8.49192C12.3245 8.40923 12.4515 8.36789 12.6169 8.36789H13.0775C13.302 8.36789 13.4939 8.33246 13.6534 8.26158C13.8128 8.18481 13.9369 8.0785 14.0255 7.94266C14.114 7.80682 14.1583 7.64146 14.1583 7.44656C14.1583 7.17488 14.0668 6.96818 13.8837 6.82643C13.7065 6.68469 13.4467 6.61382 13.1041 6.61382C12.8856 6.61382 12.6789 6.64039 12.484 6.69355C12.295 6.7408 12.0853 6.83234 11.855 6.96818C11.7487 7.03314 11.6453 7.05972 11.5449 7.04791C11.4505 7.03609 11.3707 6.99771 11.3058 6.93274C11.2408 6.86777 11.1965 6.791 11.1729 6.70241C11.1492 6.60791 11.1552 6.51342 11.1906 6.41892C11.226 6.31852 11.2998 6.23288 11.4121 6.16201C11.666 5.99664 11.9466 5.87262 12.2537 5.78993C12.5608 5.70134 12.8767 5.65705 13.2016 5.65705C13.6327 5.65705 14.0018 5.72497 14.3089 5.8608C14.6161 5.99074 14.8493 6.17973 15.0088 6.42778C15.1742 6.66992 15.2569 6.96522 15.2569 7.31368C15.2569 7.56173 15.2096 7.78911 15.1151 7.99582C15.0206 8.19662 14.8877 8.36789 14.7165 8.50964C14.5452 8.65138 14.3385 8.75178 14.0963 8.81084V8.70453C14.5216 8.77541 14.8523 8.95258 15.0885 9.23607C15.3248 9.51365 15.4429 9.86211 15.4429 10.2814C15.4429 10.6476 15.3514 10.9665 15.1683 11.2382C14.9852 11.5099 14.7253 11.7195 14.3887 11.8672C14.052 12.0089 13.6504 12.0798 13.1839 12.0798Z" fill="white"/>
</svg>
