<svg width="31" height="30" viewBox="0 0 31 30" fill="none" xmlns="http://www.w3.org/2000/svg">
<g clip-path="url(#clip0_543_23733)">
<path d="M21.9036 0.0150131C21.8399 -0.0562368 19.543 0.0431382 17.5442 2.21251C15.5455 4.38001 15.853 6.86626 15.898 6.93001C15.943 6.99376 18.748 7.09314 20.5386 4.57126C22.3292 2.04939 21.9674 0.0881381 21.9036 0.0150131ZM28.1174 22.0144C28.0274 21.8344 23.758 19.7006 24.1555 15.5981C24.553 11.4956 27.2961 10.3688 27.3392 10.2469C27.3824 10.125 26.2199 8.76564 24.988 8.07751C24.0833 7.59283 23.0824 7.3149 22.0574 7.26376C21.8549 7.25814 21.1517 7.08564 19.7061 7.48126C18.7536 7.74189 16.6067 8.58564 16.0161 8.61939C15.4236 8.65314 13.6611 7.64064 11.7655 7.37251C10.5524 7.13814 9.26611 7.61814 8.34549 7.98751C7.42674 8.35501 5.67924 9.40126 4.45674 12.1819C3.23424 14.9606 3.87361 19.3631 4.33111 20.7319C4.78861 22.1006 5.50299 24.3394 6.71799 25.9744C7.79799 27.8194 9.23049 29.1 9.82861 29.535C10.4267 29.97 12.1142 30.2588 13.2842 29.6606C14.2255 29.0831 15.9242 28.7513 16.5955 28.7756C17.2649 28.8 18.5849 29.0644 19.9367 29.7863C21.0074 30.1556 22.0199 30.0019 23.0342 29.5894C24.0486 29.175 25.5167 27.6038 27.2305 24.4181C27.8805 22.9369 28.1761 22.1356 28.1174 22.0144Z" fill="#0E1720"/>
<path d="M21.9036 0.0150131C21.8399 -0.0562368 19.543 0.0431382 17.5442 2.21251C15.5455 4.38001 15.853 6.86626 15.898 6.93001C15.943 6.99376 18.748 7.09314 20.5386 4.57126C22.3292 2.04939 21.9674 0.0881381 21.9036 0.0150131ZM28.1174 22.0144C28.0274 21.8344 23.758 19.7006 24.1555 15.5981C24.553 11.4956 27.2961 10.3688 27.3392 10.2469C27.3824 10.125 26.2199 8.76564 24.988 8.07751C24.0833 7.59283 23.0824 7.3149 22.0574 7.26376C21.8549 7.25814 21.1517 7.08564 19.7061 7.48126C18.7536 7.74189 16.6067 8.58564 16.0161 8.61939C15.4236 8.65314 13.6611 7.64064 11.7655 7.37251C10.5524 7.13814 9.26611 7.61814 8.34549 7.98751C7.42674 8.35501 5.67924 9.40126 4.45674 12.1819C3.23424 14.9606 3.87361 19.3631 4.33111 20.7319C4.78861 22.1006 5.50299 24.3394 6.71799 25.9744C7.79799 27.8194 9.23049 29.1 9.82861 29.535C10.4267 29.97 12.1142 30.2588 13.2842 29.6606C14.2255 29.0831 15.9242 28.7513 16.5955 28.7756C17.2649 28.8 18.5849 29.0644 19.9367 29.7863C21.0074 30.1556 22.0199 30.0019 23.0342 29.5894C24.0486 29.175 25.5167 27.6038 27.2305 24.4181C27.8805 22.9369 28.1761 22.1356 28.1174 22.0144Z" fill="#0E1720"/>
</g>
<defs>
<clipPath id="clip0_543_23733">
<rect width="30" height="30" fill="white" transform="translate(0.875)"/>
</clipPath>
</defs>
</svg>
