<svg width="15" height="15" viewBox="0 0 15 15" fill="none" xmlns="http://www.w3.org/2000/svg">
<g clip-path="url(#clip0_5842_40244)">
<path d="M9.11936 5.63051L4.21936 10.443C4.13753 10.5235 4.02735 10.5686 3.91257 10.5686C3.79778 10.5686 3.6876 10.5235 3.60577 10.443L1.50577 8.38074C1.4648 8.34045 1.43216 8.29249 1.40973 8.23958C1.38729 8.18668 1.3755 8.12988 1.37502 8.07242C1.37453 8.01496 1.38537 7.95797 1.40692 7.9047C1.42846 7.85143 1.46028 7.80292 1.50057 7.76195C1.54086 7.72098 1.58883 7.68834 1.64173 7.66591C1.69463 7.64348 1.75143 7.63168 1.80889 7.6312C1.86635 7.63072 1.92334 7.64155 1.97661 7.6631C2.02989 7.68464 2.07839 7.71647 2.11936 7.75675L3.91257 9.51769L8.50631 5.00597C8.58913 4.92461 8.70088 4.87947 8.81698 4.8805C8.87446 4.881 8.93129 4.89283 8.9842 4.9153C9.03712 4.93776 9.08509 4.97044 9.12538 5.01144C9.16567 5.05245 9.19748 5.10099 9.21901 5.1543C9.24054 5.2076 9.25136 5.26462 9.25086 5.32211C9.25035 5.37959 9.23852 5.43641 9.21605 5.48933C9.19359 5.54224 9.16092 5.59022 9.11991 5.63051H9.11936ZM14.3748 5.01144C14.3346 4.9704 14.2866 4.93771 14.2337 4.91522C14.1808 4.89273 14.1239 4.8809 14.0664 4.88039C14.0089 4.87988 13.9519 4.89071 13.8986 4.91226C13.8453 4.93381 13.7968 4.96565 13.7558 5.00597L9.16202 9.51769L8.13225 8.50597C8.04943 8.42468 7.93771 8.37961 7.82167 8.38069C7.70562 8.38177 7.59476 8.4289 7.51346 8.51172C7.43217 8.59453 7.3871 8.70625 7.38818 8.8223C7.38926 8.93835 7.43639 9.04921 7.51921 9.13051L8.85522 10.443C8.93705 10.5235 9.04724 10.5686 9.16202 10.5686C9.2768 10.5686 9.38698 10.5235 9.46881 10.443L14.3688 5.63051C14.4099 5.59027 14.4426 5.54233 14.4652 5.48943C14.4877 5.43654 14.4996 5.37972 14.5001 5.32222C14.5007 5.26473 14.4899 5.20768 14.4684 5.15436C14.4469 5.10103 14.4151 5.05247 14.3748 5.01144Z" fill="#8D8C8E"/>
</g>
<defs>
<clipPath id="clip0_5842_40244">
<rect width="14" height="14" fill="white" transform="translate(0.5 0.5)"/>
</clipPath>
</defs>
</svg>
