<svg width="24" height="20" viewBox="0 0 24 20" fill="none" xmlns="http://www.w3.org/2000/svg">
<path fill-rule="evenodd" clip-rule="evenodd" d="M17.3235 16.5203V8.75562C17.3235 8.06918 17.0508 7.41085 16.5655 6.92547C16.0801 6.44008 15.4217 6.16739 14.7353 6.16739H3.08824C2.40179 6.16739 1.74346 6.44008 1.25808 6.92547C0.772688 7.41085 0.5 8.06918 0.5 8.75562V16.5203C0.5 17.2068 0.772688 17.8651 1.25808 18.3505C1.74346 18.8359 2.40179 19.1086 3.08824 19.1086H14.7353C15.4217 19.1086 16.0801 18.8359 16.5655 18.3505C17.0508 17.8651 17.3235 17.2068 17.3235 16.5203Z" stroke="white" stroke-width="1.5" stroke-linecap="round" stroke-linejoin="round"/>
<path d="M19.9116 16.5203V7.46799C19.9116 6.43832 19.5026 5.45083 18.7745 4.72275C18.0464 3.99466 17.0589 3.58563 16.0293 3.58563H16.0228L4.3822 3.60634" stroke="white" stroke-width="1.5" stroke-linecap="round" stroke-linejoin="round"/>
<path d="M22.5001 13.9321V6.17647C22.5001 4.80358 21.9547 3.48693 20.984 2.51615C20.0132 1.54538 18.6965 1 17.3236 1H17.3146L6.9707 1.01682" stroke="white" stroke-width="1.5" stroke-linecap="round" stroke-linejoin="round"/>
</svg>
