<svg width="32" height="32" viewBox="0 0 32 32" fill="none" xmlns="http://www.w3.org/2000/svg">
<path d="M18.64 5.95995L16 2.66666" stroke="white" stroke-width="1.5" stroke-linecap="round" stroke-linejoin="round"/>
<path d="M25.4533 10.4C26.9333 12.3733 27.8533 14.8133 27.8533 17.48C27.8533 24.0266 22.5466 29.3333 16 29.3333C9.45329 29.3333 4.14661 24.0266 4.14661 17.48C4.14661 10.9333 9.45329 5.62662 16 5.62662C16.9066 5.62662 17.7866 5.74669 18.64 5.94669" stroke="white" stroke-width="1.5" stroke-linecap="round" stroke-linejoin="round"/>
<path d="M12.72 21.2266V14.1067L10.72 16.3333" stroke="white" stroke-width="1.5" stroke-linecap="round" stroke-linejoin="round"/>
<path d="M18.6667 14.1067C20.1333 14.1067 21.3333 15.3067 21.3333 16.7734V18.5733C21.3333 20.04 20.1333 21.24 18.6667 21.24C17.2 21.24 16 20.04 16 18.5733V16.7734C16 15.2934 17.2 14.1067 18.6667 14.1067Z" stroke="white" stroke-width="1.5" stroke-linecap="round" stroke-linejoin="round"/>
</svg>
