<svg width="35" height="34" viewBox="0 0 35 34" fill="none" xmlns="http://www.w3.org/2000/svg">
<path fill-rule="evenodd" clip-rule="evenodd" d="M23.7747 32.445C21.7814 33.2533 19.6506 33.6682 17.4997 33.6667C10.563 33.6667 4.61634 29.43 2.10634 23.4017C2.20134 19.4183 5.66967 13.125 12.8463 11.0417C11.6528 11.9952 10.7443 13.2586 10.2202 14.6936C9.69612 16.1285 9.57659 17.68 9.87467 19.1783C10.0797 21.5683 10.9747 24.615 13.1013 27.2017C15.2613 29.8317 18.6563 31.945 23.7747 32.445ZM25.8197 31.445C19.848 31.365 16.1663 29.1817 13.9597 26.4967C13.1775 25.5409 12.5355 24.4786 12.053 23.3417C13.0388 24.3642 14.2696 25.1178 15.6286 25.5309C16.9876 25.944 18.4295 26.0029 19.8177 25.702C21.2058 25.4011 22.4939 24.7504 23.5599 23.8116C24.6258 22.8729 25.4341 21.6773 25.908 20.3383C27.0997 20.35 28.748 20.5367 30.078 21.1783C30.7563 21.505 31.328 21.9417 31.7213 22.5117C32.0947 23.0483 32.3297 23.7383 32.3163 24.6383C30.8456 27.4814 28.5911 29.8435 25.8197 31.445ZM33.1247 22.8117C33.815 20.9519 34.1678 18.9838 34.1663 17C34.1663 15 32.183 13.6633 30.183 13.6633H24.7163V13.6667H18.893C17.5113 13.6667 16.5997 14.2883 16.5997 15.6717C16.5997 17.9717 18.258 19.2217 20.5597 19.2217H26.2163L26.2147 19.2333C27.4597 19.2717 29.1363 19.49 30.558 20.1767C31.358 20.5633 32.103 21.11 32.6363 21.8767C32.833 22.1622 32.9958 22.4733 33.1247 22.81M17.3513 9.24334L17.7163 9.22001H25.278C27.635 9.22001 29.8956 8.28379 31.5624 6.61727C33.2293 4.95074 34.1659 2.69039 34.1663 0.333344H17.4997C8.29467 0.333344 0.833008 7.79501 0.833008 17C0.833008 18.405 1.00634 19.7717 1.33301 21.075C2.66967 15.9117 7.94134 9.49334 17.3513 9.24334ZM20.828 15.3333C20.828 15.1859 20.8866 15.0445 20.9908 14.9403C21.095 14.8361 21.2364 14.7775 21.3838 14.7775C21.5313 14.7775 21.6726 14.8361 21.7769 14.9403C21.8811 15.0445 21.9397 15.1859 21.9397 15.3333V15.8883H22.4947C22.6421 15.8883 22.7835 15.9469 22.8877 16.0511C22.9919 16.1554 23.0505 16.2968 23.0505 16.4442C23.0505 16.5916 22.9919 16.733 22.8877 16.8372C22.7835 16.9414 22.6421 17 22.4947 17H21.9397V17.555C21.9397 17.7024 21.8811 17.8438 21.7769 17.948C21.6726 18.0523 21.5313 18.1108 21.3838 18.1108C21.2364 18.1108 21.095 18.0523 20.9908 17.948C20.8866 17.8438 20.828 17.7024 20.828 17.555V17H20.273C20.1256 17 19.9842 16.9414 19.88 16.8372C19.7757 16.733 19.7172 16.5916 19.7172 16.4442C19.7172 16.2968 19.7757 16.1554 19.88 16.0511C19.9842 15.9469 20.1256 15.8883 20.273 15.8883H20.828V15.3333ZM29.718 15.3333C29.718 15.4808 29.6594 15.6221 29.5552 15.7264C29.451 15.8306 29.3096 15.8892 29.1622 15.8892C29.0148 15.8892 28.8734 15.8306 28.7691 15.7264C28.6649 15.6221 28.6063 15.4808 28.6063 15.3333C28.6063 15.1859 28.6649 15.0445 28.7691 14.9403C28.8734 14.8361 29.0148 14.7775 29.1622 14.7775C29.3096 14.7775 29.451 14.8361 29.5552 14.9403C29.6594 15.0445 29.718 15.1859 29.718 15.3333ZM28.6063 16.445C28.6063 16.5926 28.5477 16.7342 28.4433 16.8386C28.3389 16.943 28.1973 17.0017 28.0497 17.0017C27.902 17.0017 27.7604 16.943 27.6561 16.8386C27.5517 16.7342 27.493 16.5926 27.493 16.445C27.493 16.2974 27.5517 16.1558 27.6561 16.0514C27.7604 15.947 27.902 15.8883 28.0497 15.8883C28.1973 15.8883 28.3389 15.947 28.4433 16.0514C28.5477 16.1558 28.6063 16.2974 28.6063 16.445ZM30.273 17C30.4204 17 30.5618 16.9414 30.666 16.8372C30.7703 16.733 30.8288 16.5916 30.8288 16.4442C30.8288 16.2968 30.7703 16.1554 30.666 16.0511C30.5618 15.9469 30.4204 15.8883 30.273 15.8883C30.1256 15.8883 29.9842 15.9469 29.88 16.0511C29.7757 16.1554 29.7172 16.2968 29.7172 16.4442C29.7172 16.5916 29.7757 16.733 29.88 16.8372C29.9842 16.9414 30.1256 17 30.273 17ZM29.718 17.555C29.718 17.7024 29.6594 17.8438 29.5552 17.948C29.451 18.0523 29.3096 18.1108 29.1622 18.1108C29.0148 18.1108 28.8734 18.0523 28.7691 17.948C28.6649 17.8438 28.6063 17.7024 28.6063 17.555C28.6063 17.4076 28.6649 17.2662 28.7691 17.162C28.8734 17.0577 29.0148 16.9992 29.1622 16.9992C29.3096 16.9992 29.451 17.0577 29.5552 17.162C29.6594 17.2662 29.718 17.4076 29.718 17.555Z" fill="url(#paint0_linear_4412_17657)"/>
<defs>
<linearGradient id="paint0_linear_4412_17657" x1="17.4997" y1="-4.66666" x2="17.4997" y2="33.6667" gradientUnits="userSpaceOnUse">
<stop stop-color="#FA9043"/>
<stop offset="1" stop-color="#2A92F4"/>
</linearGradient>
</defs>
</svg>
