<svg width="25" height="24" viewBox="0 0 25 24" fill="none" xmlns="http://www.w3.org/2000/svg">
<path d="M7.00008 6.99991C8.46143 5.53856 10.0936 4.4189 11.1976 3.74078C12.0022 3.24656 12.998 3.24656 13.8026 3.74078C14.9065 4.4189 16.5387 5.53856 18.0001 6.99991C21.1685 10.1683 21.0001 11.9999 21.0001 14.9999C21.0001 16.4097 20.8897 17.5987 20.7726 18.4631C20.6494 19.3725 19.8563 19.9999 18.9385 19.9999H17.5001C16.3955 19.9999 15.5001 19.1045 15.5001 17.9999V15.9999C15.5001 15.2043 15.184 14.4412 14.6214 13.8786C14.0588 13.316 13.2957 12.9999 12.5001 12.9999C11.7044 12.9999 10.9414 13.316 10.3788 13.8786C9.81616 14.4412 9.50009 15.2043 9.50009 15.9999V17.9999C9.50009 19.1045 8.60466 19.9999 7.50009 19.9999H6.06164C5.14391 19.9999 4.35074 19.3725 4.22757 18.4631C4.11051 17.5987 4.00009 16.4097 4.00009 14.9999C4.00009 11.9999 3.83169 10.1683 7.00008 6.99991Z" stroke="#C6C6C6" stroke-width="1.5" stroke-linecap="round" stroke-linejoin="round"/>
</svg>
