<svg width="145" height="95" viewBox="0 0 145 95" fill="none" xmlns="http://www.w3.org/2000/svg">
<path d="M141.528 23.0362L139.291 33.8688L137.851 32.4642L135.402 34.2124L133.53 31.8869L129.332 34.9392L125.745 28.9398L121.744 31.2839L120.157 29.0964L115.076 31.9594L113.547 28.685L117.109 11.4346L136.204 15.3773L141.528 23.0362Z" fill="#EBEBEB"/>
<path d="M136.204 15.3774L141.528 23.0363L134.904 21.669L136.204 15.3774Z" fill="url(#paint0_linear_234_8849)" fill-opacity="0.6"/>
<path d="M138.814 36.033L135.535 51.9256L109.815 46.6156L113.071 30.8516L114.599 34.1236L119.682 31.2606L121.267 33.4481L125.27 31.1063L128.856 37.1058L133.056 34.0534L134.925 36.3766L137.377 34.6307L138.814 36.033Z" fill="#EBEBEB"/>
<path d="M102.002 34.1704L75.7914 35.7924L73.709 2.14688L93.1727 0.940918L100.317 6.93569L102.002 34.1704Z" fill="#EBEBEB"/>
<path d="M93.1724 0.940918L100.317 6.93569L93.5673 7.35404L93.1724 0.940918Z" fill="url(#paint1_linear_234_8849)" fill-opacity="0.6"/>
<path d="M85.9154 23.5808L85.8126 22.8212C85.5485 21.2483 85.9785 19.4884 87.3458 17.6491C88.5798 16.0131 89.2482 14.8445 89.1734 13.517C89.0893 12.0213 88.096 11.0771 86.2473 11.1518C85.1908 11.2067 84.176 11.5817 83.3376 12.2269L82.5312 10.4203C83.4661 9.66074 85.1021 9.09983 86.6563 9.01803C90.0288 8.83106 91.6695 10.827 91.798 13.0543C91.9102 15.0479 90.8772 16.546 89.5637 18.2965C88.3577 19.8928 87.9628 21.2086 88.1334 22.6973L88.2058 23.4592L85.9154 23.5808ZM85.4994 27.7198C85.4387 26.6354 86.1281 25.8314 87.1541 25.7753C88.1801 25.7193 88.928 26.4391 88.9888 27.5259C89.0449 28.5519 88.4162 29.3792 87.3317 29.44C86.2964 29.4984 85.5485 28.7459 85.4901 27.7198H85.4994Z" fill="url(#paint2_linear_234_8849)" fill-opacity="0.6"/>
<path d="M20.3537 17.8574L17.7174 16.6631L17.3505 17.4694C17.2963 17.5846 17.2117 17.6829 17.1059 17.7538C17.0001 17.8246 16.877 17.8652 16.7498 17.8714C16.6049 17.8761 16.4605 17.8902 16.3174 17.9135C16.1919 17.9321 16.0636 17.9163 15.9462 17.8677C15.8289 17.8192 15.727 17.7396 15.6514 17.6377L15.1349 16.9155L12.7813 18.6029L13.2979 19.3251C13.3697 19.4293 13.412 19.5511 13.4202 19.6774C13.4284 19.8037 13.4023 19.9299 13.3446 20.0426C13.278 20.1711 13.2179 20.3029 13.1646 20.4376C13.1183 20.5563 13.0406 20.6601 12.9397 20.738C12.8388 20.8158 12.7186 20.8646 12.592 20.8793L11.7109 20.9658L11.9937 23.8475L12.8795 23.7587C13.0065 23.7485 13.1339 23.7732 13.248 23.83C13.3621 23.8868 13.4585 23.9737 13.5269 24.0812C13.5643 24.1419 13.604 24.2004 13.6461 24.2588C13.6882 24.3172 13.7302 24.3733 13.7746 24.4294C13.8553 24.5275 13.9072 24.6461 13.9245 24.772C13.9418 24.8978 13.9239 25.026 13.8728 25.1422L13.5035 25.9556L16.1422 27.1522L16.5091 26.3412C16.5638 26.2261 16.6488 26.128 16.7551 26.0576C16.8613 25.9872 16.9847 25.9471 17.1121 25.9415C17.2553 25.9356 17.3981 25.9216 17.5398 25.8995C17.6654 25.8808 17.7937 25.8966 17.911 25.9452C18.0283 25.9938 18.1302 26.0733 18.2059 26.1753L18.7224 26.8974L21.0782 25.21L20.5617 24.4878C20.4876 24.3846 20.444 24.2626 20.4358 24.1358C20.4275 24.009 20.4549 23.8824 20.515 23.7703C20.5801 23.6425 20.6386 23.5115 20.6902 23.3777C20.7352 23.2581 20.8126 23.1534 20.9137 23.0754C21.0149 22.9974 21.1358 22.9491 21.2628 22.936L22.1486 22.8472L21.8635 19.9655L20.9777 20.0519C20.8515 20.063 20.7246 20.039 20.6112 19.9825C20.4978 19.926 20.4022 19.8392 20.335 19.7318C20.2953 19.671 20.2555 19.6126 20.2135 19.5541C20.1714 19.4957 20.1293 19.4373 20.0849 19.3835C20.0048 19.2842 19.9533 19.1649 19.936 19.0384C19.9187 18.912 19.9363 18.7832 19.9868 18.666L20.3537 17.8574ZM18.8579 20.524C19.1312 20.9054 19.2853 21.3593 19.3006 21.8283C19.316 22.2972 19.1919 22.7602 18.9441 23.1586C18.6963 23.5571 18.3359 23.8731 17.9085 24.0667C17.4811 24.2603 17.0059 24.3228 16.5429 24.2463C16.08 24.1698 15.6501 23.9577 15.3077 23.6369C14.9654 23.3161 14.7258 22.9009 14.6193 22.444C14.5129 21.987 14.5444 21.5087 14.7098 21.0696C14.8752 20.6305 15.167 20.2503 15.5485 19.9772C16.0599 19.6109 16.6959 19.4628 17.3165 19.5654C17.9371 19.6679 18.4915 20.0128 18.8579 20.524Z" fill="#EBEBEB"/>
<path d="M139.525 56.0928L137.767 57.1071L138.078 57.6446C138.125 57.7218 138.148 57.8107 138.145 57.9006C138.142 57.9906 138.113 58.0778 138.062 58.1518C138.008 58.2359 137.957 58.3224 137.91 58.4136C137.872 58.4942 137.811 58.5621 137.735 58.6093C137.659 58.6566 137.572 58.6811 137.482 58.68H136.865V60.711H137.487C137.576 60.7099 137.664 60.7344 137.74 60.7816C137.816 60.8288 137.876 60.8968 137.915 60.9774C137.961 61.0686 138.013 61.155 138.067 61.2392C138.118 61.3132 138.147 61.4004 138.15 61.4903C138.152 61.5803 138.129 61.6692 138.083 61.7463L137.772 62.2839L139.53 63.2982L139.843 62.7583C139.888 62.6817 139.954 62.6193 140.033 62.578C140.112 62.5368 140.2 62.5182 140.289 62.5246H140.588C140.677 62.5185 140.766 62.5371 140.845 62.5784C140.923 62.6196 140.989 62.6819 141.035 62.7583L141.348 63.3005L143.103 62.2862L142.792 61.7463C142.748 61.6688 142.726 61.5804 142.73 61.4912C142.733 61.4021 142.761 61.3156 142.811 61.2415C142.865 61.1574 142.916 61.0686 142.963 60.9797C143.001 60.8991 143.062 60.8312 143.138 60.784C143.214 60.7367 143.301 60.7122 143.391 60.7133H144.012V58.6823H143.386C143.297 58.6834 143.209 58.6589 143.133 58.6117C143.057 58.5645 142.997 58.4965 142.958 58.4159C142.911 58.3271 142.86 58.2383 142.806 58.1541C142.756 58.0801 142.728 57.9936 142.725 57.9044C142.722 57.8152 142.743 57.7268 142.788 57.6493L143.098 57.1094L141.343 56.0951L141.03 56.628C140.985 56.7046 140.919 56.767 140.84 56.8083C140.761 56.8495 140.672 56.868 140.584 56.8617H140.434H140.284C140.195 56.8677 140.106 56.849 140.027 56.8078C139.948 56.7666 139.882 56.7044 139.836 56.628L139.525 56.0928ZM140.434 58.0326C140.763 58.0321 141.085 58.1294 141.359 58.3121C141.633 58.4947 141.847 58.7546 141.973 59.0588C142.1 59.3629 142.133 59.6977 142.069 60.0207C142.004 60.3437 141.846 60.6404 141.613 60.8733C141.38 61.1062 141.083 61.2647 140.76 61.3288C140.437 61.393 140.103 61.3598 139.799 61.2336C139.494 61.1073 139.234 60.8937 139.052 60.6197C138.869 60.3457 138.772 60.0236 138.772 59.6943C138.772 59.4759 138.815 59.2596 138.898 59.0577C138.982 58.8558 139.104 58.6723 139.258 58.5178C139.413 58.3632 139.596 58.2406 139.798 58.157C139.999 58.0733 140.216 58.0303 140.434 58.0303V58.0326Z" fill="#EBEBEB"/>
<path d="M25.6868 9.22154L24.0765 10.4556L24.4481 10.9487C24.5036 11.019 24.5377 11.1037 24.5464 11.1927C24.5551 11.2818 24.538 11.3715 24.4972 11.4512C24.4525 11.5421 24.4135 11.6358 24.3804 11.7316C24.3516 11.816 24.2998 11.8907 24.2308 11.9473C24.1618 12.0039 24.0785 12.0401 23.9901 12.0518L23.373 12.1313L23.6348 14.1436L24.2518 14.0641C24.3416 14.0516 24.4332 14.0647 24.5158 14.1019C24.5985 14.1391 24.669 14.1989 24.7192 14.2744C24.7755 14.3557 24.8364 14.4338 24.9015 14.5082C24.9618 14.5744 25.0017 14.6565 25.0166 14.7447C25.0315 14.833 25.0208 14.9236 24.9857 15.006L24.752 15.5809L26.6217 16.3592L26.8554 15.7842C26.8902 15.7018 26.9474 15.6307 27.0205 15.579C27.0936 15.5274 27.1797 15.4973 27.2691 15.4921L27.4186 15.4757L27.5659 15.4524C27.6524 15.4361 27.7417 15.4438 27.8241 15.4747C27.9065 15.5056 27.9789 15.5585 28.0333 15.6277L28.4143 16.1255L30.0246 14.8914L29.6483 14.3983C29.5939 14.3271 29.5605 14.2421 29.5519 14.1529C29.5432 14.0637 29.5596 13.9739 29.5992 13.8935C29.6435 13.8031 29.6825 13.7103 29.7161 13.6154C29.7449 13.531 29.7967 13.4563 29.8656 13.3997C29.9346 13.3431 30.0179 13.3069 30.1064 13.2952L30.7234 13.2157L30.4616 11.2034L29.8446 11.2829C29.755 11.2957 29.6636 11.2829 29.581 11.2461C29.4983 11.2093 29.4277 11.15 29.3772 11.0749C29.3187 10.9908 29.258 10.9113 29.1925 10.8412C29.1381 10.7735 29.1029 10.6925 29.0905 10.6066C29.0782 10.5206 29.0892 10.4329 29.1224 10.3527L29.3561 9.77778L27.4864 8.99951L27.2527 9.57445C27.2175 9.65661 27.1602 9.7274 27.0871 9.77897C27.0141 9.83054 26.9282 9.86087 26.839 9.86659L26.6895 9.88062L26.5516 9.88529C26.4651 9.90159 26.3758 9.89387 26.2934 9.86296C26.2109 9.83206 26.1386 9.77916 26.0841 9.71L25.6868 9.22154ZM26.839 11.0282C27.1646 10.9863 27.4953 11.0418 27.7893 11.1877C28.0834 11.3335 28.3276 11.5632 28.4913 11.8477C28.655 12.1322 28.7307 12.4589 28.709 12.7864C28.6872 13.1139 28.569 13.4276 28.3691 13.688C28.1693 13.9484 27.8968 14.1438 27.586 14.2495C27.2753 14.3552 26.9402 14.3665 26.623 14.282C26.3058 14.1975 26.0208 14.0209 25.8039 13.7746C25.5869 13.5282 25.4478 13.2232 25.404 12.8979C25.3748 12.6808 25.3888 12.4601 25.4452 12.2484C25.5016 12.0368 25.5993 11.8383 25.7327 11.6646C25.866 11.4908 26.0324 11.3451 26.2223 11.2359C26.4122 11.1267 26.6218 11.0561 26.839 11.0282Z" fill="#EBEBEB"/>
<path d="M13.6555 61.9518C13.7433 59.6925 13.7121 57.4301 13.5621 55.1741C13.2277 50.5155 12.5172 45.8916 11.4376 41.3476C10.844 38.7907 10.1148 36.276 9.35287 33.7635C9.3295 33.6864 9.20796 33.7074 9.229 33.7869C11.5825 42.6447 13.513 51.7829 13.3798 60.9913C13.3424 63.5621 13.0432 66.0979 12.8002 68.6594C12.8002 68.7272 12.9053 68.7552 12.9217 68.6851C13.4055 66.4859 13.5644 64.1908 13.6555 61.9518Z" fill="#EBEBEB"/>
<path d="M9.22875 33.7803C9.22875 33.7803 5.66694 42.825 6.46391 44.9425C7.26087 47.0599 8.90622 47.5133 8.90622 47.5133C8.90622 47.5133 6.72567 50.6264 8.24949 53.5455C9.7733 56.4646 13.1575 56.3267 13.3912 59.6361C13.3842 59.6524 13.5712 45.8142 9.22875 33.7803Z" fill="#EBEBEB"/>
<path d="M12.997 53.938C13.0027 53.923 13.0027 53.9063 12.997 53.8913C12.5295 47.7163 11.3708 41.6133 9.54266 35.6966C9.54266 35.6803 9.5076 35.6849 9.51227 35.6966C10.2181 38.3454 10.8413 41.0051 11.382 43.6756C10.9031 43.222 10.3181 42.8957 9.68055 42.7268C9.68055 42.7268 9.66185 42.7408 9.68055 42.7454C10.3504 42.9909 10.9526 43.3913 11.4381 43.914C11.5409 44.4399 11.6437 44.9634 11.7396 45.4893C10.9426 44.5988 9.83947 44.1571 8.73401 43.7364C8.7315 43.7375 8.72937 43.7393 8.72788 43.7416C8.72638 43.7438 8.72559 43.7465 8.72559 43.7493C8.72559 43.752 8.72638 43.7547 8.72788 43.7569C8.72937 43.7592 8.7315 43.761 8.73401 43.7621C9.88622 44.2295 11.0314 44.8325 11.812 45.8258C12.0831 47.3262 12.3215 48.8321 12.5272 50.3435C11.9517 49.7406 11.2138 49.3177 10.4027 49.1258C10.377 49.1258 10.363 49.1562 10.3887 49.1632C11.2218 49.4086 11.9656 49.8909 12.5295 50.5515H12.5435C12.6137 51.0813 12.6807 51.6133 12.7445 52.1478C12.2994 51.7711 11.7968 51.4681 11.2558 51.2503C11.2418 51.2503 11.2324 51.2667 11.2558 51.2713C11.8079 51.5105 12.3134 51.8452 12.7492 52.26C12.7492 52.26 12.7609 52.26 12.7679 52.26C12.8263 52.7671 12.8848 53.2743 12.9362 53.7814C12.1336 52.8112 11.0921 52.0669 9.91426 51.6219C9.9093 51.6219 9.90455 51.6239 9.90104 51.6274C9.89754 51.6309 9.89557 51.6357 9.89557 51.6406C9.89557 51.6456 9.89754 51.6503 9.90104 51.6538C9.90455 51.6573 9.9093 51.6593 9.91426 51.6593C11.0773 52.172 12.0989 52.9586 12.8918 53.952C12.9005 53.9629 12.9123 53.971 12.9256 53.9752C12.9389 53.9793 12.9532 53.9794 12.9666 53.9754C13.0437 54.7537 13.1138 55.532 13.1699 56.3126C13.1699 56.3242 13.1886 56.3242 13.1886 56.3126C13.1278 55.5288 13.064 54.7373 12.997 53.938Z" fill="white" fill-opacity="0.32"/>
<path d="M10.1334 41.8364C9.48831 41.4349 8.75142 41.2049 7.99254 41.168C7.98882 41.168 7.98525 41.1694 7.98262 41.1721C7.97999 41.1747 7.97852 41.1783 7.97852 41.182C7.97852 41.1857 7.97999 41.1893 7.98262 41.1919C7.98525 41.1945 7.98882 41.196 7.99254 41.196C8.72623 41.3351 9.43825 41.5709 10.11 41.8972C10.138 41.9042 10.1591 41.8551 10.1334 41.8364Z" fill="white" fill-opacity="0.32"/>
<path d="M10.5662 51.4115C10.0704 51.127 9.52453 50.9405 8.95827 50.8623C8.93957 50.8623 8.93724 50.888 8.95827 50.8927C9.51123 51.0036 10.0461 51.1908 10.5475 51.4489C10.5686 51.4606 10.5873 51.4232 10.5662 51.4115Z" fill="white" fill-opacity="0.32"/>
<path d="M23.0226 45.0987C21.5159 46.1402 20.132 47.3493 18.8976 48.7026C17.6245 50.1355 16.6426 51.8025 16.0065 53.6106C14.6528 57.3776 13.9249 61.3408 13.8517 65.343C13.8063 67.5594 14.0188 69.7735 14.4851 71.9408C14.4888 71.9565 14.4985 71.9702 14.5121 71.979C14.5257 71.9878 14.5422 71.9911 14.5581 71.9881C14.574 71.9851 14.5882 71.976 14.5977 71.9629C14.6071 71.9497 14.6112 71.9335 14.6089 71.9174C14.0288 68.0929 14.0509 64.2012 14.6744 60.3836C15.2867 56.6442 16.2473 52.5729 18.6265 49.5323C19.9213 47.8752 21.5362 46.5734 23.1325 45.2272C23.2166 45.1524 23.1091 45.0379 23.0226 45.0987Z" fill="#EBEBEB"/>
<path d="M14.375 62.646C15.2327 61.2588 16.2406 59.9703 17.3806 58.8038C19.1638 57.0205 20.6643 55.7538 20.898 54.5759C21.1317 53.398 19.1124 52.5285 19.1124 52.5285C19.1124 52.5285 21.5781 52.9726 22.2535 51.9372C22.9289 50.9019 23.2538 44.9048 23.2538 44.9048C23.2538 44.9048 18.7665 48.109 16.6748 52.601C14.583 57.093 14.375 62.646 14.375 62.646Z" fill="#EBEBEB"/>
<path d="M21.6438 50.5302C21.3483 50.4862 21.0488 50.476 20.751 50.4998C20.716 50.4998 20.7183 50.5606 20.751 50.5629C21.0455 50.5629 21.3423 50.5489 21.6368 50.5629C21.6402 50.562 21.6432 50.5603 21.6456 50.5577C21.648 50.5552 21.6497 50.5521 21.6504 50.5487C21.6511 50.5453 21.6509 50.5418 21.6497 50.5385C21.6486 50.5352 21.6465 50.5324 21.6438 50.5302Z" fill="white" fill-opacity="0.32"/>
<path d="M18.4207 56.3477C17.9469 56.3573 17.4784 56.4507 17.0371 56.6234C17.0371 56.6234 17.0371 56.6468 17.0371 56.6445C17.5045 56.5346 17.9556 56.4902 18.4184 56.4108C18.4244 56.4081 18.4296 56.4038 18.4333 56.3984C18.437 56.3929 18.4391 56.3865 18.4393 56.3799C18.4396 56.3734 18.438 56.3668 18.4347 56.3611C18.4314 56.3554 18.4265 56.3507 18.4207 56.3477Z" fill="white" fill-opacity="0.32"/>
<path d="M17.4533 54.3375C17.2566 54.3359 17.0601 54.3532 16.8667 54.3889C16.8631 54.3902 16.86 54.3926 16.8578 54.3958C16.8557 54.3989 16.8545 54.4026 16.8545 54.4064C16.8545 54.4103 16.8557 54.414 16.8578 54.4171C16.86 54.4203 16.8631 54.4226 16.8667 54.424C17.0626 54.4353 17.2591 54.4267 17.4533 54.3983C17.4614 54.3983 17.4691 54.3951 17.4748 54.3894C17.4805 54.3837 17.4837 54.3759 17.4837 54.3679C17.4837 54.3598 17.4805 54.3521 17.4748 54.3464C17.4691 54.3407 17.4614 54.3375 17.4533 54.3375Z" fill="white" fill-opacity="0.32"/>
<path d="M1.21952 51.4608C2.68005 51.9559 4.07962 52.6153 5.39132 53.4263C6.75233 54.2912 7.93259 55.4119 8.86665 56.7264C10.832 59.4621 12.3367 62.5007 13.3212 65.722C13.8704 67.5057 14.2092 69.3474 14.3309 71.2096C14.3283 71.2217 14.3217 71.2325 14.3122 71.2403C14.3026 71.248 14.2906 71.2522 14.2783 71.2522C14.266 71.2522 14.254 71.248 14.2445 71.2403C14.2349 71.2325 14.2283 71.2217 14.2257 71.2096C13.8132 67.9807 12.8968 64.8364 11.51 61.8914C10.1474 59.0051 8.42961 55.9341 5.80266 54.0223C4.37233 52.9823 2.76437 52.2998 1.16109 51.58C1.07695 51.5519 1.13538 51.4327 1.21952 51.4608Z" fill="#EBEBEB"/>
<path d="M12.2743 63.6631C11.259 62.7393 10.1453 61.9296 8.95327 61.2488C7.09757 60.2181 5.59012 59.5404 5.1297 58.6406C4.66928 57.7408 6.10195 56.5722 6.10195 56.5722C6.10195 56.5722 4.20886 57.507 3.42358 56.8176C2.6383 56.1281 0.988281 51.3604 0.988281 51.3604C0.988281 51.3604 5.36108 52.9146 8.08852 56.0674C10.816 59.2202 12.2743 63.6631 12.2743 63.6631Z" fill="#EBEBEB"/>
<path d="M8.64445 59.2737C8.21453 59.2438 7.78285 59.2969 7.37305 59.4303C7.37305 59.4303 7.37305 59.4514 7.37305 59.449C7.79113 59.3773 8.21353 59.3336 8.63744 59.3182C8.66782 59.3182 8.67483 59.2761 8.64445 59.2737Z" fill="white" fill-opacity="0.32"/>
<path d="M4.83037 54.2723C4.63425 54.2562 4.43686 54.2673 4.24374 54.305C4.22271 54.305 4.22972 54.3424 4.24374 54.34C4.43773 54.319 4.62704 54.326 4.81868 54.3213C4.82463 54.3216 4.83048 54.3197 4.83523 54.3161C4.83998 54.3125 4.84333 54.3074 4.84471 54.3016C4.84609 54.2958 4.84541 54.2897 4.8428 54.2844C4.84018 54.279 4.83579 54.2747 4.83037 54.2723Z" fill="white" fill-opacity="0.32"/>
<path d="M17.9137 77.2371H8.04395L9.45091 66.928L9.81083 64.2847H16.1468L16.5067 66.928L17.9137 77.2371Z" fill="url(#paint3_linear_234_8849)" fill-opacity="0.6"/>
<path d="M16.507 66.928H9.45117L9.81109 64.2847H16.1471L16.507 66.928Z" fill="#C7C7C7"/>
<path d="M17.0516 63.3682H8.9043V65.6072H17.0516V63.3682Z" fill="url(#paint4_linear_234_8849)" fill-opacity="0.6"/>
<path d="M1.76855 77.237L19.5332 77.1809L37.2978 77.1599L72.8271 77.1201L108.356 77.1599L126.121 77.1809L143.886 77.237L126.121 77.2954L108.356 77.3141L72.8271 77.3538L37.2978 77.3141L19.5332 77.2931L1.76855 77.237Z" fill="#263238"/>
<path d="M73.2946 94.6558C110.306 94.6558 140.31 91.3681 140.31 87.3125C140.31 83.257 110.306 79.9692 73.2946 79.9692C36.2831 79.9692 6.2793 83.257 6.2793 87.3125C6.2793 91.3681 36.2831 94.6558 73.2946 94.6558Z" fill="url(#paint5_linear_234_8849)" fill-opacity="0.8"/>
<path d="M57.6937 86.0972C57.1492 86.2818 41.5347 86.3309 40.9364 85.9617C40.7027 85.8214 40.5695 83.5474 40.469 80.7942C40.448 80.2006 40.4316 79.5859 40.4176 78.9642L39.1719 70.6347L49.6119 70.5669L50.5958 78.8988L50.5561 80.7311C50.5561 80.7311 56.5439 83.3838 57.1562 83.8652C57.7685 84.3467 58.2383 85.9126 57.6937 86.0972Z" fill="#EB9481"/>
<path d="M57.6946 86.0973C57.15 86.282 41.5355 86.331 40.9372 85.9618C40.6615 85.7888 40.5119 82.4677 40.4277 78.9644L50.585 78.8989L50.5452 80.7312C50.5452 80.7312 56.533 83.3839 57.1453 83.8654C57.7577 84.3468 58.2391 85.9127 57.6946 86.0973Z" fill="white" fill-opacity="0.32"/>
<path d="M57.6945 86.097C57.1499 86.2817 41.5355 86.3308 40.9372 85.9615C40.7034 85.8213 40.5702 83.5472 40.4697 80.7941L50.5358 80.731C50.5358 80.731 56.5236 83.3836 57.1359 83.8651C57.7482 84.3465 58.239 85.9124 57.6945 86.097Z" fill="#A6A6A6"/>
<path d="M57.4679 85.4733C54.8503 85.4172 44.2864 85.4429 41.6945 85.5878C41.6735 85.5878 41.6735 85.6018 41.6945 85.6042C44.2887 85.714 54.8526 85.6042 57.4679 85.5154C57.524 85.513 57.524 85.4733 57.4679 85.4733Z" fill="#263238"/>
<path d="M56.1373 83.3067C55.8462 83.3001 55.557 83.3541 55.2878 83.4651C55.0187 83.5762 54.7755 83.7419 54.5737 83.9517C54.206 84.3263 53.9982 84.8291 53.9941 85.354C53.9941 85.3704 54.0222 85.3704 54.0245 85.354C54.1114 84.8369 54.3632 84.3618 54.7423 83.9996C55.1214 83.6373 55.6075 83.4074 56.1279 83.3441C56.1329 83.3453 56.1382 83.3445 56.1425 83.3419C56.1469 83.3393 56.1501 83.335 56.1513 83.3301C56.1526 83.3251 56.1518 83.3198 56.1492 83.3155C56.1465 83.3111 56.1423 83.3079 56.1373 83.3067Z" fill="#263238"/>
<path d="M51.5596 80.9881C50.5126 80.9764 49.2996 81.3503 48.6499 82.2104C48.6265 82.2431 48.6733 82.2782 48.7036 82.2618C49.6184 81.7789 50.5821 81.395 51.5783 81.1166C51.5937 81.1124 51.6071 81.1027 51.6158 81.0893C51.6245 81.076 51.6281 81.0599 51.6258 81.0441C51.6235 81.0283 51.6155 81.0138 51.6033 81.0035C51.5911 80.9932 51.5756 80.9877 51.5596 80.9881Z" fill="#263238"/>
<path d="M52.3722 81.2993C51.3229 81.2993 50.1099 81.6639 49.4625 82.5216C49.4368 82.5567 49.4835 82.5918 49.5163 82.5754C50.4297 82.0908 51.3927 81.7061 52.3886 81.4279C52.4038 81.4237 52.417 81.4142 52.4257 81.4011C52.4345 81.388 52.4382 81.3721 52.4362 81.3565C52.4342 81.3409 52.4267 81.3265 52.4149 81.316C52.4032 81.3055 52.388 81.2995 52.3722 81.2993Z" fill="#263238"/>
<path d="M53.1807 81.6123C52.1337 81.6123 50.9207 81.9746 50.271 82.8346C50.2476 82.8674 50.2943 82.9024 50.3247 82.8861C51.2395 82.4032 52.2032 82.0193 53.1994 81.7409C53.2148 81.7367 53.2281 81.7269 53.2369 81.7136C53.2456 81.7002 53.2492 81.6841 53.2469 81.6683C53.2446 81.6525 53.2366 81.6381 53.2244 81.6278C53.2122 81.6175 53.1967 81.612 53.1807 81.6123Z" fill="#263238"/>
<path d="M53.9921 81.9256C52.9428 81.9139 51.7298 82.2878 51.0824 83.1479C51.0567 83.1806 51.1058 83.2157 51.1362 83.1993C52.0508 82.7161 53.0145 82.3321 54.0108 82.0541C54.0262 82.0499 54.0396 82.0402 54.0483 82.0268C54.0571 82.0135 54.0606 81.9974 54.0583 81.9816C54.056 81.9658 54.048 81.9513 54.0358 81.941C54.0236 81.9307 54.0081 81.9252 53.9921 81.9256Z" fill="#263238"/>
<path d="M42.353 83.0987C41.1844 83.0987 41.1844 84.9333 42.353 84.9263C43.5216 84.9193 43.5309 83.0916 42.353 83.0987Z" fill="#263238"/>
<path d="M52.6833 78.1885C52.1528 77.7492 51.4843 78.1885 51.1595 78.6396C50.6187 79.4369 50.2964 80.362 50.2246 81.3227C50.2246 81.3437 50.241 81.353 50.2573 81.353C50.2615 81.3728 50.2703 81.3913 50.2831 81.407C50.2959 81.4226 50.3122 81.435 50.3308 81.443C50.3493 81.451 50.3695 81.4544 50.3897 81.453C50.4099 81.4516 50.4294 81.4454 50.4466 81.4348C51.1898 80.9183 52.0499 80.4556 52.6132 79.724C52.9334 79.2987 53.1951 78.5975 52.6833 78.1885ZM51.4072 80.4182C51.0473 80.6823 50.6757 80.9277 50.3251 81.2058C50.5121 80.6823 50.6733 80.1541 50.9117 79.6493C51.0219 79.4072 51.1484 79.173 51.2903 78.9481C51.5241 78.5999 52.5431 77.7211 52.6506 78.8593C52.7113 79.4833 51.8349 80.105 51.4072 80.4182Z" fill="#263238"/>
<path d="M47.6162 81.7197C48.5277 81.8553 49.4696 81.5935 50.3647 81.4509C50.3841 81.4459 50.4021 81.4363 50.4172 81.4231C50.4323 81.4098 50.444 81.3932 50.4515 81.3745C50.459 81.3559 50.462 81.3358 50.4604 81.3158C50.4587 81.2958 50.4523 81.2764 50.4418 81.2593C50.4452 81.2567 50.448 81.2533 50.4498 81.2495C50.4517 81.2456 50.4527 81.2414 50.4527 81.2371C50.4527 81.2328 50.4517 81.2286 50.4498 81.2247C50.448 81.2209 50.4452 81.2175 50.4418 81.2149C49.7226 80.5735 48.8472 80.1326 47.9037 79.9365C47.3521 79.8313 46.5715 79.9832 46.5014 80.668C46.4172 81.3131 47.0833 81.6356 47.6162 81.7197ZM46.9805 81.1261C46.2794 80.2286 47.6185 80.1515 48.0205 80.245C48.2813 80.3102 48.5374 80.393 48.7871 80.4927C49.2983 80.7047 49.7983 80.9426 50.2852 81.2055C49.8412 81.25 49.4041 81.3294 48.9624 81.3902C48.4342 81.4603 47.3731 81.6192 46.9805 81.1261Z" fill="#263238"/>
<path d="M23.8223 32.1348C23.8223 32.1348 35.945 52.7577 36.2699 54.2068C36.7677 56.4317 39.4063 78.4032 39.4063 78.4032L52.0269 78.1695C52.0269 78.1695 49.8534 58.7969 47.7943 52.4142C46.3126 47.817 35.6132 32.5695 35.6132 32.5695L23.8223 32.1348Z" fill="#647077"/>
<path d="M50.8792 76.244C49.0679 76.2299 42.6477 76.1575 40.2358 76.3818C40.2171 76.3818 40.2195 76.4146 40.2358 76.4169C41.0655 76.5361 49.0655 76.3515 50.8768 76.293C50.8806 76.2944 50.8847 76.2949 50.8887 76.2944C50.8927 76.2939 50.8965 76.2925 50.8998 76.2902C50.9032 76.288 50.906 76.285 50.9079 76.2815C50.9099 76.278 50.9111 76.2741 50.9112 76.2701C50.9114 76.2661 50.9107 76.262 50.909 76.2584C50.9074 76.2547 50.9049 76.2515 50.9018 76.2489C50.8987 76.2464 50.895 76.2446 50.8911 76.2437C50.8871 76.2429 50.8831 76.243 50.8792 76.244Z" fill="#263238"/>
<path d="M25.8901 34.028C26.6848 35.2737 27.5261 36.4937 28.3348 37.73C29.1434 38.9664 29.9568 40.2027 30.7584 41.4367C32.357 43.9297 33.9151 46.439 35.4327 48.9647C36.1733 50.1354 36.8069 51.3705 37.3258 52.655C37.7994 53.9398 38.1553 55.265 38.3892 56.6141C38.6369 57.9673 38.8005 59.3346 38.9524 60.7018C39.1082 62.1555 39.2711 63.61 39.4409 65.0652C39.7728 68.0428 40.1054 71.0203 40.4388 73.9978C40.4786 74.3624 40.5183 74.727 40.5557 75.0939C40.5557 75.1477 40.4646 75.157 40.4575 75.0939C40.0859 72.1374 39.7774 69.1693 39.4409 66.2128C39.2726 64.7373 39.1051 63.2625 38.9384 61.7886C38.7818 60.4167 38.6322 59.0424 38.4196 57.6799C38.2244 56.3349 37.9275 55.0068 37.5314 53.7067C37.095 52.3606 36.5103 51.0673 35.7879 49.8504C34.3272 47.3287 32.78 44.8513 31.2328 42.3716C29.6857 39.8919 28.0964 37.3911 26.4651 34.9418C26.2641 34.6403 26.0607 34.3388 25.8504 34.042C25.834 34.0256 25.8761 34.0046 25.8901 34.028Z" fill="#263238"/>
<path d="M27.7951 87.3125C27.2201 87.2774 12.3699 81.2616 11.9586 80.6913C11.9403 80.6578 11.9321 80.6196 11.9352 80.5815C11.9352 80.0697 12.9659 78.2841 13.826 75.9376C13.8797 75.788 14.263 75.0915 14.7935 74.1543C16.2683 71.5858 18.8391 67.1616 18.8391 67.1616L28.5453 71.0179L23.899 77.9709L23.1769 79.6536C23.1769 79.6536 27.732 84.363 28.1153 85.0291C28.4985 85.6952 28.3677 87.3452 27.7951 87.3125Z" fill="#EB9481"/>
<path d="M27.7951 87.3124C27.2201 87.2774 12.3699 81.2615 11.9586 80.6913C11.9403 80.6577 11.9321 80.6196 11.9352 80.5814C11.9352 80.0696 12.9659 78.284 13.826 75.9375C13.8797 75.788 14.263 75.0915 14.7935 74.1543L23.9084 77.9709L23.1862 79.6536C23.1862 79.6536 27.7413 84.3629 28.1246 85.029C28.5079 85.6951 28.3677 87.3451 27.7951 87.3124Z" fill="white" fill-opacity="0.32"/>
<path d="M27.7952 87.3124C27.2202 87.2773 12.37 81.2615 11.9587 80.6912C11.7998 80.4739 12.4635 78.4476 13.8284 75.9375L23.177 79.6559C23.177 79.6559 27.7321 84.3606 28.1177 85.0313C28.5033 85.7021 28.3678 87.3451 27.7952 87.3124Z" fill="#A6A6A6"/>
<path d="M27.8185 86.649C25.4136 85.616 15.6116 81.6756 13.1553 80.8389C13.1342 80.8389 13.1296 80.8389 13.1553 80.8529C15.5181 81.928 25.3505 85.7889 27.8092 86.6957C27.8559 86.7074 27.8699 86.67 27.8185 86.649Z" fill="#263238"/>
<path d="M27.3977 84.141C27.131 84.0239 26.8429 83.9634 26.5516 83.9634C26.2604 83.9634 25.9723 84.0239 25.7056 84.141C25.2261 84.351 24.8461 84.7377 24.6445 85.2208C24.6445 85.2348 24.6656 85.2465 24.6726 85.2325C24.9481 84.7844 25.3614 84.4376 25.8506 84.2442C26.3398 84.0508 26.8785 84.0212 27.386 84.1597C27.3899 84.1586 27.3933 84.1561 27.3955 84.1526C27.3976 84.1492 27.3984 84.145 27.3977 84.141Z" fill="#263238"/>
<path d="M24.0253 80.2752C23.06 79.8709 21.7933 79.7634 20.8701 80.3173C20.8351 80.3383 20.8701 80.3874 20.9005 80.3851C21.9296 80.2807 22.9669 80.2862 23.9949 80.4015C24.0107 80.4032 24.0266 80.3991 24.0396 80.3899C24.0526 80.3808 24.0618 80.3672 24.0656 80.3517C24.0693 80.3362 24.0673 80.32 24.0598 80.3059C24.0524 80.2918 24.0401 80.2809 24.0253 80.2752Z" fill="#263238"/>
<path d="M24.659 80.869C23.6938 80.4647 22.4271 80.3572 21.5039 80.9111C21.4688 80.9321 21.5039 80.9812 21.5343 80.9788C22.5633 80.8733 23.6008 80.8788 24.6287 80.9952C24.6445 80.9969 24.6604 80.9928 24.6734 80.9837C24.6864 80.9745 24.6956 80.9609 24.6994 80.9455C24.7031 80.93 24.701 80.9137 24.6936 80.8996C24.6862 80.8855 24.6739 80.8747 24.659 80.869Z" fill="#263238"/>
<path d="M25.2939 81.4627C24.3263 81.0584 23.0596 80.9509 22.1388 81.5048C22.1014 81.5258 22.1388 81.5749 22.1668 81.5726C23.1959 81.467 24.2333 81.4725 25.2612 81.5889C25.2773 81.5916 25.2939 81.5882 25.3076 81.5793C25.3214 81.5704 25.3313 81.5567 25.3354 81.5408C25.3395 81.525 25.3375 81.5082 25.3298 81.4937C25.3222 81.4793 25.3093 81.4682 25.2939 81.4627Z" fill="#263238"/>
<path d="M25.9277 82.0563C24.9601 81.652 23.6957 81.5445 22.7726 82.0961C22.7352 82.1194 22.7726 82.1685 22.8006 82.1662C23.8297 82.0606 24.8671 82.0661 25.895 82.1825C25.9111 82.1852 25.9277 82.1818 25.9414 82.1729C25.9552 82.164 25.965 82.1503 25.9692 82.1344C25.9733 82.1186 25.9713 82.1018 25.9636 82.0873C25.9559 82.0729 25.9431 82.0618 25.9277 82.0563Z" fill="#263238"/>
<path d="M14.6975 78.7776C13.606 78.3429 12.9283 80.042 14.0244 80.4767C15.1205 80.9114 15.8006 79.2123 14.6975 78.7776Z" fill="#263238"/>
<path d="M26.117 78.1018C25.7874 77.4964 25.0092 77.646 24.5347 77.9475C23.7355 78.4829 23.0908 79.2187 22.665 80.0813C22.6631 80.0851 22.6622 80.0893 22.6621 80.0935C22.6621 80.0977 22.663 80.1019 22.6648 80.1057C22.6666 80.1095 22.6692 80.1129 22.6725 80.1155C22.6758 80.1182 22.6796 80.1201 22.6837 80.121C22.6837 80.1982 22.7351 80.2893 22.8263 80.2706C23.7121 80.0673 24.682 79.9621 25.4766 79.4947C25.9323 79.2236 26.4278 78.6744 26.117 78.1018ZM24.0954 79.6887C23.663 79.7985 23.2283 79.8873 22.8006 80.0135C23.1543 79.5873 23.5295 79.1793 23.9247 78.7912C24.1193 78.606 24.3262 78.4342 24.5441 78.277C24.883 78.0433 26.1637 77.611 25.8365 78.7071C25.6566 79.3124 24.6119 79.5578 24.0954 79.6887Z" fill="#263238"/>
<path d="M20.0947 79.4739C20.8893 79.9413 21.8592 80.0512 22.7426 80.2568C22.8338 80.2779 22.8946 80.1867 22.8875 80.1072C22.8919 80.1068 22.8961 80.1052 22.8997 80.1026C22.9033 80.1001 22.9062 80.0966 22.9081 80.0926C22.9099 80.0886 22.9108 80.0842 22.9104 80.0798C22.9101 80.0754 22.9087 80.0712 22.9062 80.0675C22.4811 79.2032 21.8364 78.4657 21.0365 77.929C20.5691 77.6252 19.7862 77.4733 19.4543 78.0763C19.1224 78.6793 19.6296 79.2004 20.0947 79.4739ZM19.7301 78.6839C19.4052 77.5878 20.6836 78.0225 21.0225 78.2586C21.2401 78.416 21.4463 78.5886 21.6395 78.7751C22.0339 79.164 22.4084 79.5728 22.7613 79.9997C22.3336 79.8735 21.8989 79.7824 21.4666 79.6725C20.943 79.5323 19.9077 79.2986 19.7301 78.6839Z" fill="#263238"/>
<path d="M24.6535 77.5828L13.7881 73.196C13.7881 73.196 27.2594 53.3887 27.3575 51.914C27.4464 50.6099 21.5287 39.2467 21.2973 35.9349C21.0449 32.3591 22.7651 29.5943 24.6581 27.8765L35.8647 32.6419C35.8647 32.6419 34.6822 34.5326 32.8265 35.5867C32.8265 35.5867 38.5735 48.7214 38.2463 52.76C37.9191 56.7986 24.6535 77.5828 24.6535 77.5828Z" fill="#647077"/>
<path d="M25.1358 75.5171C23.5653 74.8416 24.0257 75.0122 22.4458 74.3485C21.6745 74.026 16.6029 71.9155 15.8223 71.7402C15.8059 71.7402 15.7943 71.7636 15.8106 71.773C16.486 72.1866 21.5997 74.2083 22.378 74.5168C23.9696 75.1431 23.5185 74.9468 25.1171 75.5545C25.1195 75.5576 25.1227 75.5602 25.1263 75.5618C25.13 75.5634 25.1339 75.5641 25.1379 75.5637C25.1419 75.5633 25.1457 75.562 25.149 75.5597C25.1523 75.5575 25.1549 75.5544 25.1567 75.5509C25.1585 75.5473 25.1593 75.5434 25.1592 75.5394C25.159 75.5354 25.1578 75.5315 25.1557 75.5281C25.1536 75.5248 25.1507 75.522 25.1472 75.52C25.1437 75.5181 25.1398 75.5171 25.1358 75.5171Z" fill="#263238"/>
<path d="M34.6639 35.3462C33.4972 35.6182 32.3557 35.9887 31.2517 36.454C31.2473 36.4555 31.2431 36.4579 31.2396 36.461C31.2361 36.4642 31.2332 36.4679 31.2312 36.4722C31.2291 36.4764 31.2279 36.481 31.2276 36.4857C31.2273 36.4904 31.228 36.4951 31.2295 36.4996C31.231 36.504 31.2334 36.5081 31.2365 36.5116C31.2397 36.5152 31.2435 36.518 31.2477 36.5201C31.2519 36.5222 31.2565 36.5234 31.2612 36.5237C31.2659 36.5239 31.2706 36.5233 31.2751 36.5218C32.4203 36.1876 33.5842 35.8744 34.7107 35.4794C34.7971 35.449 34.7527 35.3275 34.6639 35.3462Z" fill="#263238"/>
<path d="M33.3292 34.8927C33.2203 35.0864 33.1243 35.2871 33.0418 35.4934C32.9611 35.6499 32.9111 35.8205 32.8945 35.9959C32.8945 36.0309 32.9413 36.0379 32.9623 36.0169C33.0796 35.8766 33.1742 35.7189 33.2428 35.5495C33.3386 35.3648 33.4368 35.1825 33.5279 34.9932C33.591 34.8553 33.4017 34.7665 33.3292 34.8927Z" fill="#263238"/>
<path d="M33.4694 33.8317C33.5395 33.6587 33.6073 33.4881 33.6798 33.3152C33.7522 33.1422 33.8434 32.9646 33.9135 32.7823C33.9135 32.7543 33.9696 32.7823 33.9579 32.8033C33.8878 32.9763 33.8434 33.1586 33.7896 33.3362C33.7359 33.5138 33.6751 33.6915 33.6167 33.8691C33.5068 34.1986 33.3829 34.5258 33.231 34.846C33.4149 34.8552 33.5986 34.8232 33.7686 34.7525C33.9422 34.6414 34.0757 34.4776 34.1495 34.2851C34.2477 34.0934 34.3388 33.8971 34.4393 33.7055C34.563 33.4983 34.6671 33.28 34.7502 33.0534C34.7502 33.0254 34.8063 33.0534 34.7946 33.0745C34.6422 33.5535 34.4426 34.0162 34.1986 34.4557C34.0934 34.6263 34.0116 34.8063 33.82 34.8717C33.6125 34.9297 33.3954 34.9448 33.182 34.9161C33.1539 34.9161 33.1212 34.9161 33.1305 34.8741C33.2262 34.5212 33.3393 34.1733 33.4694 33.8317Z" fill="#263238"/>
<path d="M32.993 36.0147C33.3927 36.8584 33.7433 37.6998 34.1149 38.5412C34.4865 39.3826 34.816 40.1959 35.1502 41.0326C35.8186 42.72 36.4169 44.4401 36.9428 46.1743C37.2022 47.0344 37.443 47.9014 37.658 48.7755C37.8948 49.6468 38.0682 50.5342 38.1768 51.4305C38.2706 52.3254 38.1912 53.23 37.9431 54.0949C37.6853 54.9498 37.3546 55.781 36.9545 56.5793C36.7091 57.0841 36.6273 57.0163 36.7441 56.7616C37.0784 56.037 37.9548 53.8425 37.8917 51.9985C37.8406 51.1157 37.7044 50.2398 37.485 49.3832C37.2809 48.4998 37.0511 47.6233 36.7956 46.7539C36.2978 45.0384 35.7065 43.358 35.0988 41.68C34.7576 40.7451 34.3977 39.8103 34.0471 38.8754C33.6965 37.9405 33.3459 37.0805 32.9533 36.0475C32.9416 36.0054 32.9813 35.989 32.993 36.0147Z" fill="#263238"/>
<path d="M24.7449 33.2264C24.9389 33.1539 25.2124 33.2731 25.4087 33.3058C25.6629 33.349 25.9198 33.3748 26.1776 33.383C26.4326 33.392 26.688 33.3834 26.9418 33.3573C27.1975 33.3507 27.448 33.2842 27.6734 33.1633C28.0431 32.894 28.36 32.5588 28.6082 32.1747C28.904 31.7821 29.1483 31.3533 29.3351 30.8986C29.3351 30.8705 29.3842 30.8986 29.3748 30.9173C29.293 31.1767 29.2322 31.4385 29.1411 31.6932C29.0403 31.9326 28.9199 32.1632 28.7812 32.3827C28.5562 32.8244 28.2234 33.2022 27.8136 33.4811C27.3625 33.7382 26.7829 33.7148 26.2804 33.6938C25.989 33.6768 25.6992 33.6385 25.4133 33.5793C25.2077 33.5349 24.8618 33.5022 24.7309 33.3222C24.7247 33.3153 24.7202 33.3072 24.7175 33.2983C24.7149 33.2895 24.7142 33.2801 24.7155 33.271C24.7168 33.2619 24.7202 33.2531 24.7253 33.2454C24.7303 33.2377 24.7371 33.2312 24.7449 33.2264Z" fill="#263238"/>
<path d="M16.89 71.1186C18.6756 68.4138 20.4284 65.6871 22.1486 62.9386C23.8687 60.1902 25.5655 57.4206 27.2389 54.6301C27.6385 53.964 28.0989 53.3003 28.356 52.5617C28.6365 51.7601 28.4776 50.9818 28.2251 50.1965C27.7485 48.764 27.1914 47.3594 26.5564 45.9897C25.9301 44.6084 25.2546 43.2505 24.5909 41.888C23.9271 40.5254 23.233 39.1792 22.7212 37.7583C22.2537 36.4004 22.0644 34.9934 22.429 33.5865C22.7936 32.1795 23.5789 30.9361 24.3992 29.7652C24.6143 29.4567 24.8363 29.1506 25.0536 28.8304C25.07 28.807 25.1051 28.8304 25.0887 28.8584C24.1842 30.0784 23.3031 31.3708 22.7726 32.8035C22.5014 33.5097 22.3498 34.2561 22.3239 35.0121C22.3194 35.7795 22.4386 36.5426 22.6768 37.2721C23.1161 38.6931 23.8103 40.037 24.4577 41.3738C25.1051 42.7107 25.7968 44.0942 26.4349 45.4708C27.0931 46.8563 27.6782 48.2753 28.1877 49.7221C28.4051 50.3648 28.6552 51.0379 28.6365 51.7274C28.6201 52.4823 28.2602 53.1624 27.8863 53.7981C26.2503 56.5676 24.5745 59.3044 22.8684 62.0248C21.1623 64.7453 19.4071 67.4657 17.6309 70.1581L16.9578 71.1747C16.9227 71.2168 16.8619 71.1677 16.89 71.1186Z" fill="#263238"/>
<path d="M36.4871 20.0448C37.4991 22.2651 42.6104 25.3244 45.0037 25.654C46.7238 25.8877 51.9543 25.9718 53.7469 25.6984C55.8503 25.3758 54.2424 19.7083 53.0014 19.8555C49.5891 20.2528 46.6911 20.6969 45.7796 20.6969C44.6671 20.6969 38.649 18.7664 37.9245 18.4929C36.1482 17.8315 35.9145 18.7851 36.4871 20.0448Z" fill="#EB9481"/>
<path d="M36.5195 20.6362C37.8002 22.5317 42.0562 25.6307 42.0562 25.6307L42.6475 24.3219L44.6037 19.9935C44.6037 19.9935 40.6936 18.7665 38.1204 18.2056C37.8176 18.1367 37.5096 18.0929 37.1996 18.0747C35.5566 17.9859 35.414 19.0002 36.5195 20.6362Z" fill="url(#paint6_linear_234_8849)"/>
<path d="M36.5195 20.636C37.8002 22.5315 42.0562 25.6305 42.0562 25.6305L42.6475 24.3217C41.0606 22.4777 38.6089 19.6848 37.1996 18.0792C35.5566 17.9857 35.414 19 36.5195 20.636Z" fill="#263238"/>
<path d="M41.2892 24.752C41.6141 23.9551 43.0585 20.7462 43.4184 20.0778C43.4418 20.031 43.4791 20.0357 43.4581 20.0778C42.8316 21.6735 42.1185 23.234 41.322 24.752C41.3126 24.7801 41.2752 24.7707 41.2892 24.752Z" fill="#263238"/>
<path d="M52.375 19.9139C54.4504 19.6428 57.0189 19.1777 59.1948 20.1008C59.4392 20.1967 59.6442 20.3721 59.7767 20.5987C60.7583 20.996 60.8658 21.5779 60.8658 21.5779C61.6675 22.2276 61.6955 22.84 61.6955 22.84C61.6955 22.84 62.8454 23.3074 62.6701 24.06C62.4785 24.892 60.9032 24.06 59.758 24.1277C57.1287 24.2913 53.4477 25.2566 52.6882 25.3781L52.375 19.9139Z" fill="#EB9481"/>
<path d="M56.8835 22.3635C57.6523 22.3109 58.4238 22.3109 59.1926 22.3635C60.0299 22.4685 60.858 22.6365 61.67 22.866C61.6753 22.8678 61.681 22.8675 61.6861 22.8651C61.6911 22.8627 61.695 22.8584 61.6969 22.8531C61.6987 22.8479 61.6984 22.8421 61.696 22.837C61.6936 22.832 61.6893 22.8281 61.684 22.8262C60.1585 22.2277 58.498 22.0596 56.8835 22.3401C56.8461 22.3354 56.8461 22.3658 56.8835 22.3635Z" fill="#263238"/>
<path d="M56.3951 19.935C57.6782 20.0004 58.4798 20.2061 59.7699 20.5941V20.58C58.3489 19.9864 57.767 19.9303 56.3881 19.8789C56.3437 19.8976 56.346 19.935 56.3951 19.935Z" fill="#263238"/>
<path d="M56.6022 24.5254C56.268 24.682 56.3498 24.8573 56.9879 25.0045C57.6259 25.1517 60.2785 25.1962 60.1851 26.1217C60.0916 27.0472 56.3498 26.9303 55.3051 26.6031C54.2604 26.2759 52.6875 25.3784 52.6875 25.3784C53.4284 25.2546 55.1672 24.7848 56.6022 24.5254Z" fill="#EB9481"/>
<path d="M39.266 23.5836C39.2496 23.9832 39.2123 24.3899 39.1562 24.7942C39.1562 24.7778 39.1562 24.7638 39.1725 24.7498C39.2496 24.5395 39.3268 24.3244 39.4203 24.1211C39.4203 24.1211 39.4436 24.1211 39.4413 24.1211C39.3964 24.3439 39.329 24.5616 39.2403 24.7708C39.1982 24.8713 39.1585 24.9695 39.1141 25.0677C39.086 25.2476 39.0533 25.4252 39.0183 25.6029C38.9482 25.9371 38.6326 27.3581 38.5508 27.5988C38.5368 27.6479 38.4761 27.6362 38.4807 27.5801C38.4971 27.3183 38.7612 25.8389 38.8149 25.5024C38.9193 24.8525 39.059 24.2089 39.2333 23.5742C39.245 23.5625 39.2683 23.5719 39.266 23.5836Z" fill="#263238"/>
<path d="M36.8353 34.2103C36.2113 34.5305 35.4073 35.0283 31.7847 34.3155C31.551 34.2687 31.3313 34.2126 31.1023 34.1449C27.7064 33.1259 23.6234 29.1317 23.4014 28.8489C23.4014 28.8489 28.7978 20.101 35.6994 17.3502C36.5525 17.0113 37.9641 17.6657 38.7377 18.4813C39.0158 18.7735 39.6211 20.9213 39.3898 22.6601C39.1584 24.399 37.4569 33.8901 36.8353 34.2103Z" fill="url(#paint7_linear_234_8849)"/>
<path d="M36.3495 22.5806C36.3755 22.9502 36.3238 23.3212 36.1976 23.6697C36.1679 23.2999 36.2198 22.9281 36.3495 22.5806Z" fill="white" fill-opacity="0.32"/>
<path d="M33.9956 28.5381C34.0104 28.7221 34.0042 28.9071 33.9769 29.0897C33.9544 29.2736 33.9096 29.4541 33.8437 29.6272C33.8276 29.4425 33.8338 29.2565 33.8623 29.0733C33.8862 28.8904 33.9309 28.7108 33.9956 28.5381Z" fill="white" fill-opacity="0.32"/>
<path d="M29.9968 24.0342C30.0231 24.4046 29.9714 24.7765 29.8449 25.1256C29.8155 24.7551 29.8674 24.3826 29.9968 24.0342Z" fill="white" fill-opacity="0.32"/>
<path d="M37.8891 28.2344C37.904 28.4191 37.8978 28.605 37.8704 28.7883C37.8479 28.9722 37.8032 29.1527 37.7372 29.3258C37.7211 29.1411 37.7274 28.9551 37.7559 28.7719C37.7795 28.5882 37.8242 28.4078 37.8891 28.2344Z" fill="white" fill-opacity="0.32"/>
<path d="M32.7549 23.2631C32.9388 23.2474 33.1238 23.2529 33.3064 23.2794C33.4904 23.3028 33.6709 23.3483 33.844 23.415C33.4743 23.4416 33.1032 23.3898 32.7549 23.2631Z" fill="white" fill-opacity="0.32"/>
<path d="M28.2158 27.5656C28.5855 27.5396 28.9565 27.5913 29.3049 27.7176C28.9352 27.7472 28.5634 27.6953 28.2158 27.5656Z" fill="white" fill-opacity="0.32"/>
<path d="M33.5635 32.2236C33.9332 32.197 34.3043 32.2488 34.6526 32.3755C34.2828 32.4047 33.9111 32.3528 33.5635 32.2236Z" fill="white" fill-opacity="0.32"/>
<path d="M26.8154 30.5315C27.1851 30.5054 27.5561 30.5572 27.9045 30.6834C27.5348 30.7126 27.1631 30.6607 26.8154 30.5315Z" fill="white" fill-opacity="0.32"/>
<path d="M36.3135 18.3928C36.6831 18.3667 37.0542 18.4185 37.4026 18.5447C37.0329 18.5708 36.6619 18.519 36.3135 18.3928Z" fill="white" fill-opacity="0.32"/>
<path d="M34.9934 19.8838C34.8753 20.0258 34.7403 20.153 34.5915 20.2624C34.4466 20.3744 34.2899 20.47 34.124 20.5475C34.2414 20.4064 34.3747 20.2794 34.5213 20.1689C34.6675 20.0565 34.8259 19.9609 34.9934 19.8838Z" fill="white" fill-opacity="0.32"/>
<path d="M27.7975 24.1211C27.6779 24.2619 27.5422 24.3882 27.3932 24.4974C27.2499 24.6115 27.0928 24.7073 26.9258 24.7825C27.046 24.6423 27.1816 24.5161 27.3301 24.4062C27.4738 24.2926 27.6308 24.1969 27.7975 24.1211Z" fill="white" fill-opacity="0.32"/>
<path d="M36.7839 26.0327C36.6643 26.1742 36.5286 26.3013 36.3795 26.4113C36.2358 26.525 36.0789 26.6207 35.9121 26.6965C36.0317 26.5549 36.1674 26.4279 36.3164 26.3178C36.4609 26.2054 36.6177 26.1097 36.7839 26.0327Z" fill="white" fill-opacity="0.32"/>
<path d="M30.9645 29.6973C30.845 29.8388 30.7093 29.9659 30.5602 30.0759C30.4163 30.1892 30.2594 30.2849 30.0928 30.361C30.2123 30.2195 30.348 30.0924 30.4971 29.9824C30.6416 29.8699 30.7984 29.7743 30.9645 29.6973Z" fill="white" fill-opacity="0.32"/>
<path d="M39.0134 21.0264C38.8938 21.1679 38.7581 21.295 38.609 21.405C38.4642 21.517 38.3074 21.6126 38.1416 21.6901C38.2612 21.5486 38.3969 21.4215 38.5459 21.3115C38.6899 21.1982 38.8468 21.1025 39.0134 21.0264Z" fill="white" fill-opacity="0.32"/>
<path d="M38.8923 25.2731C38.7507 25.1536 38.6237 25.0179 38.5136 24.8688C38.3999 24.7252 38.3041 24.5682 38.2285 24.4014C38.3706 24.5195 38.4977 24.6545 38.6071 24.8034C38.7188 24.9492 38.8144 25.1067 38.8923 25.2731Z" fill="white" fill-opacity="0.32"/>
<path d="M25.9206 28.1994C25.7791 28.0798 25.652 27.9441 25.542 27.7951C25.4295 27.6506 25.3338 27.4938 25.2568 27.3276C25.3984 27.4472 25.5254 27.5829 25.6355 27.732C25.7487 27.8759 25.8445 28.0328 25.9206 28.1994Z" fill="white" fill-opacity="0.32"/>
<path d="M37.3141 31.679C37.1721 31.5608 37.045 31.4258 36.9355 31.277C36.8235 31.1322 36.7279 30.9754 36.6504 30.8096C36.7919 30.9291 36.919 31.0648 37.029 31.2139C37.1418 31.3573 37.2375 31.5134 37.3141 31.679Z" fill="white" fill-opacity="0.32"/>
<path d="M31.6042 21.7581C31.4627 21.6394 31.3356 21.5044 31.2256 21.3561C31.114 21.211 31.0185 21.0542 30.9404 20.8887C31.0825 21.0068 31.2096 21.1418 31.319 21.2907C31.4306 21.4358 31.5262 21.5925 31.6042 21.7581Z" fill="white" fill-opacity="0.32"/>
<path d="M31.7048 33.6613C31.5632 33.5417 31.4362 33.4061 31.3261 33.257C31.214 33.1122 31.1184 32.9555 31.041 32.7896C31.1831 32.9077 31.3102 33.0427 31.4196 33.1915C31.5321 33.3369 31.6277 33.4945 31.7048 33.6613Z" fill="white" fill-opacity="0.32"/>
<path d="M32.6751 26.6403C32.5349 26.5201 32.4087 26.3845 32.2988 26.236C32.1847 26.0926 32.0889 25.9356 32.0137 25.7686C32.1545 25.8882 32.2808 26.0239 32.39 26.1729C32.5036 26.3166 32.5993 26.4735 32.6751 26.6403Z" fill="white" fill-opacity="0.32"/>
<path d="M37.4728 20.8117C36.5917 20.6481 35.7644 18.8275 35.6592 17.6028C35.6592 17.5187 36.0705 16.8526 36.5403 16.0183C36.8254 15.5111 37.1269 14.9385 37.3676 14.3963C37.4167 14.2864 37.7042 14.658 37.7042 14.658L38.3305 15.1255L40.3989 16.7124C39.9064 17.3034 39.488 17.9525 39.1532 18.6452C39.1201 18.7203 39.0951 18.7986 39.0784 18.8789C39.0775 18.8921 39.0775 18.9054 39.0784 18.9187C38.9499 19.3814 38.3212 20.9683 37.4728 20.8117Z" fill="#EB9481"/>
<path d="M39.0787 18.8906C39.0777 18.9038 39.0777 18.9171 39.0787 18.9303C38.9559 18.8943 38.8363 18.8482 38.7211 18.7924C36.4564 17.7314 37.4544 14.6978 37.4544 14.6978L38.3425 15.1371L40.4108 16.7241C39.9183 17.3151 39.5 17.9642 39.1651 18.6569C39.1281 18.7315 39.0991 18.8098 39.0787 18.8906Z" fill="#263238"/>
<path d="M42.7764 10.2544C42.7764 10.2544 43.8117 10.9111 43.8164 12.0797C43.8211 13.2483 43.349 14.3911 43.2508 14.4332C43.1526 14.4753 42.7764 10.2544 42.7764 10.2544Z" fill="#263238"/>
<path d="M37.6389 10.8622C37.0173 12.0892 37.05 15.9571 37.8259 16.9528C38.9524 18.3971 41.1213 18.8949 42.4324 17.4669C43.7015 16.0834 43.5706 11.0445 42.6661 10.1049C41.3503 8.71668 38.5598 9.04622 37.6389 10.8622Z" fill="#EB9481"/>
<path d="M40.9387 13.959C40.9387 13.959 40.9177 13.973 40.92 13.9824C40.934 14.2465 40.906 14.5503 40.6699 14.6438C40.6699 14.6438 40.6699 14.6601 40.6699 14.6578C40.9621 14.611 40.9948 14.2067 40.9387 13.959Z" fill="#263238"/>
<path d="M40.6984 13.6904C40.273 13.667 40.259 14.5178 40.654 14.5388C41.049 14.5598 41.0536 13.7091 40.6984 13.6904Z" fill="#263238"/>
<path d="M42.3814 13.9497C42.3814 13.9497 42.4024 13.9497 42.4024 13.9731C42.3884 14.2372 42.4188 14.541 42.6571 14.6322C42.6571 14.6322 42.6571 14.6485 42.6571 14.6462C42.3627 14.6018 42.3276 14.1974 42.3814 13.9497Z" fill="#263238"/>
<path d="M42.6215 13.6783C43.0445 13.6526 43.0656 14.5033 42.6729 14.5267C42.2803 14.5501 42.2663 13.6993 42.6215 13.6783Z" fill="#263238"/>
<path d="M40.4323 13.043C40.544 13.0112 40.654 12.9738 40.7619 12.9308C40.8846 12.9086 40.9965 12.8461 41.0797 12.7532C41.0999 12.7192 41.1084 12.6795 41.1037 12.6402C41.0991 12.6009 41.0816 12.5642 41.054 12.5359C40.9908 12.4878 40.9158 12.4574 40.837 12.448C40.7581 12.4385 40.6781 12.4503 40.6053 12.4821C40.4476 12.5243 40.311 12.6234 40.222 12.7602C40.2042 12.7928 40.1961 12.8297 40.1987 12.8667C40.2013 12.9037 40.2144 12.9392 40.2366 12.969C40.2587 12.9988 40.2889 13.0215 40.3236 13.0347C40.3583 13.0478 40.396 13.0507 40.4323 13.043Z" fill="#263238"/>
<path d="M42.9114 13.4189C42.7977 13.3935 42.6853 13.3623 42.5748 13.3254C42.4517 13.3091 42.3374 13.2524 42.25 13.1641C42.2274 13.1316 42.2166 13.0925 42.2191 13.053C42.2217 13.0136 42.2375 12.9761 42.264 12.9468C42.3243 12.8953 42.3973 12.8609 42.4754 12.8473C42.5536 12.8338 42.6339 12.8415 42.708 12.8697C42.8679 12.9028 43.0096 12.9945 43.1054 13.1268C43.1254 13.1581 43.1359 13.1945 43.1356 13.2317C43.1352 13.2688 43.1241 13.3051 43.1036 13.336C43.083 13.367 43.0539 13.3913 43.0198 13.406C42.9857 13.4207 42.948 13.4252 42.9114 13.4189Z" fill="#263238"/>
<path d="M40.3404 16.4573C40.4035 16.5204 40.4643 16.6045 40.5601 16.6139C40.6584 16.6138 40.7555 16.5931 40.8452 16.5531C40.8452 16.5531 40.8616 16.5531 40.8452 16.5671C40.807 16.6185 40.7554 16.6585 40.6961 16.6828C40.6368 16.7071 40.572 16.7148 40.5087 16.705C40.4553 16.6905 40.4074 16.6606 40.3708 16.619C40.3342 16.5775 40.3107 16.5261 40.303 16.4713C40.3012 16.4664 40.3014 16.4609 40.3035 16.456C40.3057 16.4512 40.3098 16.4475 40.3147 16.4456C40.3197 16.4437 40.3252 16.4439 40.33 16.4461C40.3348 16.4483 40.3386 16.4523 40.3404 16.4573Z" fill="#263238"/>
<path d="M41.8692 15.3311C41.8692 15.3311 41.8809 15.7238 41.8692 15.9084C41.5101 15.8703 41.1474 15.8829 40.7918 15.9458C40.7077 15.9645 40.717 15.8967 40.8129 15.8523C41.0993 15.7214 41.4183 15.6791 41.729 15.7308C41.7477 15.6817 41.6986 15.1231 41.729 15.1254C41.8704 15.1532 42.0072 15.2004 42.1357 15.2657C42.1357 14.443 42.0048 13.6297 42.0165 12.807C42.0165 12.779 42.0609 12.7743 42.0656 12.807C42.2317 13.6773 42.31 14.562 42.2993 15.448C42.3016 15.5485 41.9394 15.3685 41.8692 15.3311Z" fill="#263238"/>
<path d="M41.3436 15.7681C41.2504 16.0131 41.0775 16.2198 40.8528 16.3547C40.4998 16.4973 40.3853 16.1771 40.7406 15.8873C40.9269 15.7931 41.1354 15.7519 41.3436 15.7681Z" fill="#263238"/>
<path d="M40.9761 16.2822C40.9388 16.3126 40.897 16.337 40.8522 16.3547C40.5274 16.4855 40.3988 16.2261 40.6606 15.9644C40.8382 15.9784 41.0415 16.0438 40.9761 16.2822Z" fill="#FF99BA"/>
<path d="M37.4614 14.1693C37.8891 14.3002 38.3799 13.0148 38.5202 12.5333C38.6417 12.0986 38.7819 10.7174 38.803 10.6216C38.824 10.5257 40.6727 11.8439 41.7431 11.5307C42.8135 11.2175 43.5404 10.2476 43.5567 9.79654C43.5731 9.34547 42.2339 8.20027 41.077 8.14184C39.9201 8.08342 38.3519 9.54413 38.3519 9.54413C38.5413 9.32916 38.7133 9.09939 38.8661 8.85701C38.8474 8.80559 38.0995 9.10475 37.9616 9.63762C37.9616 9.63762 38.1112 8.96685 38.0551 8.95517C37.999 8.94348 37.417 9.51608 37.5479 9.95079C37.5479 9.95079 36.8748 10.5327 36.8141 11.1708C36.7533 11.8088 36.959 14.0151 37.4614 14.1693Z" fill="#263238"/>
<path d="M42.5094 11.2874C42.191 11.46 41.8482 11.583 41.4927 11.652C41.0937 11.6876 40.6921 11.6233 40.3241 11.465C39.9534 11.3218 39.6091 11.1181 39.3051 10.8621C39.0364 10.6424 38.7956 10.3736 38.5082 10.1773C38.4357 10.1259 38.3539 10.231 38.3983 10.2965C38.8779 10.9739 39.5631 11.4788 40.3522 11.7362C40.7187 11.8556 41.1099 11.878 41.4876 11.801C41.8653 11.7239 42.2166 11.5502 42.507 11.2968C42.507 11.2968 42.514 11.2874 42.5094 11.2874Z" fill="#263238"/>
<path d="M37.9079 14.0549C37.9079 14.0549 37.2442 12.7087 36.6459 12.9261C36.0476 13.1434 36.4122 15.0061 37.0268 15.3474C37.1021 15.3961 37.1865 15.4291 37.2748 15.4444C37.3632 15.4597 37.4537 15.4571 37.541 15.4365C37.6283 15.416 37.7106 15.3781 37.7829 15.325C37.8552 15.272 37.916 15.2048 37.9617 15.1277L37.9079 14.0549Z" fill="#EB9481"/>
<path d="M36.765 13.4565C36.765 13.4565 36.751 13.4565 36.765 13.4752C37.1904 13.7277 37.3633 14.1764 37.4662 14.6438C37.4468 14.5943 37.4169 14.5496 37.3786 14.5128C37.3403 14.476 37.2944 14.448 37.2442 14.4307C37.1939 14.4133 37.1405 14.4071 37.0877 14.4124C37.0348 14.4178 36.9837 14.4345 36.938 14.4615C36.9239 14.4615 36.938 14.4872 36.938 14.4872C37.0216 14.4742 37.1072 14.4875 37.1829 14.5251C37.2587 14.5628 37.3209 14.6231 37.361 14.6976C37.4279 14.8224 37.4812 14.954 37.5199 15.0902C37.5339 15.1346 37.6111 15.1229 37.6041 15.0738C37.7046 14.4919 37.3774 13.6108 36.765 13.4565Z" fill="#263238"/>
<path d="M33.5253 20.0658C33.0579 22.7138 35.9279 31.6346 37.7672 33.301C40.504 35.7784 45.564 37.4074 47.3986 37.9379C48.1979 38.1716 50.4088 32.5461 49.6002 32.1745C47.8684 31.3869 42.4883 29.7042 41.9764 29.2835C41.4646 28.8628 38.3796 24.4058 37.0053 21.8397C35.166 18.3854 33.7567 18.7266 33.5253 20.0658Z" fill="#EB9481"/>
<path d="M48.2379 31.6792C48.2379 31.6792 50.6265 32.2892 52.1666 32.759C53.0267 33.0231 54.4617 33.605 55.0063 34.0865C55.8196 34.8086 58.7597 38.3424 57.9183 39.0739C57.1564 39.7377 55.0156 36.3792 55.0156 36.3792C55.0156 36.3792 57.4743 39.5764 56.4179 40.2051C55.3615 40.8338 53.4287 36.7181 53.4287 36.7181C53.4287 36.7181 55.8803 40.0602 54.6814 40.5346C53.7746 40.8922 51.8301 37.2626 51.8301 37.2626C51.8301 37.2626 53.9195 40.149 52.9987 40.558C51.9843 41.0114 49.9814 37.7721 49.9814 37.7721C47.476 38.4195 46.0083 37.702 45.043 37.071C44.8163 36.9167 48.2379 31.6792 48.2379 31.6792Z" fill="#EB9481"/>
<path d="M54.2347 35.2177C54.5385 35.5823 54.847 35.9516 55.1158 36.3419C55.3846 36.7322 55.6393 37.1342 55.8707 37.5479C56.1842 38.0829 56.4351 38.6523 56.6186 39.2446C56.2166 38.2163 55.2747 36.8023 55.0059 36.412C54.7372 36.0217 54.4871 35.6174 54.2207 35.2271C54.2136 35.2177 54.2277 35.2084 54.2347 35.2177Z" fill="#263238"/>
<path d="M52.8068 36.164C53.3257 36.5754 54.4124 38.1039 54.8308 39.1299C54.8495 39.1719 54.8308 39.1696 54.8004 39.1299C54.4732 38.6227 53.1457 36.6595 52.7951 36.171C52.7881 36.164 52.7998 36.157 52.8068 36.164Z" fill="#263238"/>
<path d="M51.4353 36.7626C52.0799 37.4388 52.5892 38.2321 52.9357 39.0998C52.9521 39.1418 52.9193 39.1348 52.8936 39.0998C52.4098 38.3121 52.0359 37.6975 51.4095 36.7837C51.4002 36.7626 51.4212 36.7416 51.4353 36.7626Z" fill="#263238"/>
<path d="M36.1338 20.2598C34 17.2425 32.7239 18.3597 33.1516 21.6364C33.5536 24.7004 34.6264 28.351 34.6264 28.351L40.0018 25.7427C40.0018 25.7427 37.4917 22.1926 36.1338 20.2598Z" fill="url(#paint8_linear_234_8849)"/>
<path d="M37.431 21.4473C37.5019 21.6177 37.5528 21.7957 37.5829 21.9778C37.6158 22.1605 37.6275 22.3463 37.618 22.5317C37.5479 22.3604 37.4977 22.1816 37.4684 21.9988C37.4337 21.8172 37.4211 21.632 37.431 21.4473Z" fill="white" fill-opacity="0.32"/>
<path d="M34.2451 23.2818C34.5881 23.1422 34.9573 23.0785 35.3272 23.0948C35.1567 23.1649 34.9787 23.2151 34.7967 23.2444C34.615 23.2791 34.4298 23.2916 34.2451 23.2818Z" fill="white" fill-opacity="0.32"/>
<path d="M34.3834 18.5889C34.2386 18.9304 34.0227 19.2372 33.75 19.4887C33.8947 19.1471 34.1107 18.8403 34.3834 18.5889Z" fill="white" fill-opacity="0.32"/>
<path d="M38.939 24.6909C38.8681 24.8619 38.7779 25.0242 38.6703 25.1747C38.5654 25.3272 38.4431 25.4668 38.3057 25.5907C38.4504 25.2492 38.6663 24.9424 38.939 24.6909Z" fill="white" fill-opacity="0.32"/>
<path d="M35.1996 26.5211C35.0283 26.4509 34.8659 26.3607 34.7158 26.2523C34.5633 26.1476 34.4236 26.0252 34.2998 25.8877C34.6414 26.0324 34.9481 26.2484 35.1996 26.5211Z" fill="white" fill-opacity="0.32"/>
<path d="M36.8347 21.1689C37.1222 21.5639 37.419 21.9496 37.7135 22.3375C37.6387 22.1412 37.5733 21.9425 37.5172 21.7415H37.5312C37.5896 21.8958 37.6574 22.0477 37.7135 22.209L37.7976 22.4427C37.8049 22.4586 37.8111 22.475 37.8163 22.4918C38.05 22.7933 38.2837 23.0948 38.4988 23.4033C38.7629 23.7725 39.0176 24.1465 39.2747 24.5204C39.5318 24.8944 39.7912 25.3594 40.0693 25.7357C40.095 25.7684 39.6019 25.9694 39.5481 25.9951C39.4944 26.0209 39.4663 25.9764 39.5178 25.9601C39.5692 25.9437 39.9618 25.703 39.9665 25.6983C39.7094 25.3197 39.4126 24.9715 39.1438 24.6045C38.875 24.2376 38.6086 23.8707 38.3492 23.4991C37.8233 22.7418 37.3419 21.9566 36.8184 21.197L36.8347 21.1689Z" fill="#263238"/>
<path d="M33.278 23.8054C33.3598 23.9643 33.4486 24.1209 33.5117 24.2845L33.6005 24.4878C33.4767 23.9059 33.3668 23.3193 33.2383 22.7373C33.486 23.6722 33.7361 24.6281 33.9651 25.5769C34.1825 26.4837 34.4466 27.3999 34.5728 28.3254C34.7358 28.2539 34.9047 28.1968 35.0776 28.1548C34.9041 28.2671 34.7172 28.3574 34.5214 28.4236C34.2396 27.4824 34.0056 26.5277 33.8202 25.5629C33.7618 25.3012 33.708 25.0394 33.652 24.7776C33.5912 24.6187 33.5187 24.4668 33.4463 24.3102C33.3738 24.1536 33.3084 23.9783 33.243 23.8124C33.257 23.803 33.2733 23.7937 33.278 23.8054Z" fill="#263238"/>
<path d="M34.7056 27.4491C35.4535 27.0284 38.5782 25.4111 39.277 25.112C39.3261 25.0909 39.3518 25.112 39.3027 25.1447C37.8195 26.0065 36.2903 26.7868 34.7219 27.4818C34.7032 27.4865 34.6845 27.4608 34.7056 27.4491Z" fill="#263238"/>
<path d="M120.346 88.8921H49.1377L59.4328 30.4985H130.641L120.346 88.8921Z" fill="url(#paint9_linear_234_8849)"/>
<path d="M83.8053 24.4502H60.5017L59.4336 30.4987H84.3733L83.8053 24.4502Z" fill="url(#paint10_linear_234_8849)"/>
<g opacity="0.1">
<path d="M120.346 88.8921H49.1377L59.4328 30.4985H130.641L120.346 88.8921Z" fill="black"/>
<path d="M83.8043 24.4502H60.5007L59.4326 30.4987H84.3723L83.8043 24.4502Z" fill="black"/>
</g>
<path d="M57.986 26.9181C57.8302 26.2493 57.8302 25.5536 57.986 24.8848C58.1418 25.5536 58.1418 26.2493 57.986 26.9181Z" fill="#263238"/>
<path d="M55.9155 27.5163C55.6775 27.2696 55.4725 26.993 55.3055 26.6936C55.1303 26.4005 54.9929 26.0864 54.8965 25.7588C55.1352 26.0041 55.3403 26.2799 55.5065 26.5791C55.6812 26.8733 55.8186 27.1881 55.9155 27.5163Z" fill="#263238"/>
<path d="M54.42 29.0709C53.7633 28.8712 53.1612 28.5234 52.6602 28.0542C52.9878 28.1494 53.302 28.2861 53.595 28.4609C53.8944 28.6289 54.1716 28.8338 54.42 29.0709Z" fill="#263238"/>
<path d="M53.8966 31.1647C53.2278 31.3206 52.5321 31.3206 51.8633 31.1647C52.5321 31.0089 53.2278 31.0089 53.8966 31.1647Z" fill="#263238"/>
<path d="M54.5036 33.2354C54.2558 33.4721 53.9795 33.677 53.681 33.8453C53.3879 34.0201 53.0737 34.1568 52.7461 34.252C52.9929 34.014 53.2694 33.809 53.5688 33.642C53.8614 33.4664 54.1757 33.3297 54.5036 33.2354Z" fill="#263238"/>
<path d="M56.0557 34.729C55.8568 35.3867 55.5089 35.9897 55.0391 36.4912C55.1342 36.1632 55.2717 35.8489 55.4481 35.5564C55.6147 35.2559 55.8189 34.9779 56.0557 34.729Z" fill="#263238"/>
<path d="M58.1497 35.2456C58.2312 35.5782 58.2705 35.9198 58.2666 36.2623C58.2716 36.6048 58.2323 36.9465 58.1497 37.2789C58.066 36.9467 58.0267 36.6048 58.0329 36.2623C58.029 35.9198 58.0682 35.5782 58.1497 35.2456Z" fill="#263238"/>
<path d="M60.2207 34.659C60.4587 34.9057 60.6637 35.1823 60.8307 35.4816C61.0063 35.7743 61.143 36.0885 61.2374 36.4165C60.7676 35.915 60.4197 35.312 60.2207 34.6543V34.659Z" fill="#263238"/>
<path d="M61.7139 33.0928C62.0418 33.1871 62.3561 33.3238 62.6487 33.4994C62.9481 33.6664 63.2246 33.8715 63.4714 34.1094C63.1434 34.0151 62.8292 33.8784 62.5365 33.7028C62.2371 33.5358 61.9606 33.3307 61.7139 33.0928Z" fill="#263238"/>
<path d="M62.2305 30.9987C62.9001 30.8429 63.5965 30.8429 64.2661 30.9987C63.5965 31.1544 62.9001 31.1544 62.2305 30.9987Z" fill="#263238"/>
<path d="M61.6326 28.9283C61.88 28.6917 62.1565 28.4876 62.4553 28.3206C62.7473 28.1433 63.0617 28.0058 63.3901 27.9116C62.8887 28.3814 62.2857 28.7293 61.6279 28.9283H61.6326Z" fill="#263238"/>
<path d="M60.0781 27.4348C60.1743 27.1075 60.3109 26.7934 60.4848 26.4999C60.6518 26.2005 60.8568 25.924 61.0948 25.6772C61.0004 26.0052 60.8637 26.3195 60.6881 26.6121C60.5211 26.9115 60.3161 27.188 60.0781 27.4348Z" fill="#263238"/>
<path d="M120.241 88.8924H48.8809L38.7471 32.6187H110.109L120.241 88.8924Z" fill="url(#paint11_linear_234_8849)"/>
<path d="M63.4766 67.0191C65.1146 67.0191 66.4424 65.6912 66.4424 64.0532C66.4424 62.4153 65.1146 61.0874 63.4766 61.0874C61.8386 61.0874 60.5107 62.4153 60.5107 64.0532C60.5107 65.6912 61.8386 67.0191 63.4766 67.0191Z" fill="#263238"/>
<path d="M86.9224 67.0191C88.5604 67.0191 89.8882 65.6912 89.8882 64.0532C89.8882 62.4153 88.5604 61.0874 86.9224 61.0874C85.2844 61.0874 83.9565 62.4153 83.9565 64.0532C83.9565 65.6912 85.2844 67.0191 86.9224 67.0191Z" fill="#263238"/>
<path d="M79.4601 67.4932L79.2965 67.1824C79.2824 67.1544 77.7493 64.3217 74.6666 64.3217C71.862 64.3217 71.1609 66.9884 71.1422 67.1029L71.058 67.4418L70.3779 67.2782L70.4597 66.937C70.4597 66.9043 71.2964 63.6206 74.6666 63.6206C78.1723 63.6206 79.848 66.7243 79.9182 66.8575L80.0818 67.166L79.4601 67.4932Z" fill="#263238"/>
<path d="M115.53 63.8266L115.48 63.5929C115.632 63.5601 115.782 63.5251 115.932 63.4854L115.99 63.7191C115.831 63.7588 115.684 63.7939 115.53 63.8266Z" fill="#263238"/>
<path d="M116.894 63.4504L116.82 63.2307C117.112 63.1302 117.404 63.0204 117.687 62.9012L117.778 63.1162C117.49 63.2377 117.193 63.3499 116.894 63.4504ZM118.636 62.7049L118.53 62.4992C118.804 62.3566 119.077 62.2024 119.337 62.0318L119.458 62.2304C119.192 62.4151 118.914 62.5716 118.636 62.7049ZM120.243 61.7162L120.106 61.5269C120.358 61.3423 120.601 61.1483 120.83 60.9497L120.984 61.125C120.739 61.3376 120.505 61.5363 120.241 61.7256L120.243 61.7162ZM121.669 60.4729L121.499 60.3116C121.714 60.0779 121.917 59.8442 122.104 59.6105L122.288 59.7531C122.094 60.0101 121.886 60.2509 121.674 60.4822L121.669 60.4729ZM122.826 58.9771L122.627 58.8532C122.789 58.5922 122.933 58.3204 123.057 58.0399L123.272 58.1357C123.14 58.4282 122.99 58.7123 122.824 58.9865L122.826 58.9771ZM123.6 57.243L123.366 57.1775C123.451 56.8843 123.515 56.5851 123.555 56.2824L123.789 56.3128C123.75 56.6306 123.686 56.9448 123.597 57.2523L123.6 57.243ZM123.859 55.3732H123.625V55.3055C123.625 55.0227 123.609 54.7352 123.581 54.4524L123.815 54.429C123.845 54.7202 123.861 55.0127 123.861 55.3055L123.859 55.3732ZM123.438 53.5433C123.375 53.2419 123.297 52.944 123.205 52.6505L123.438 52.5804C123.534 52.8842 123.616 53.1927 123.672 53.4942L123.438 53.5433ZM122.884 51.7834C122.772 51.5076 122.651 51.2248 122.501 50.9397L122.711 50.8345C122.854 51.1243 122.985 51.4141 123.099 51.6946L122.884 51.7834ZM122.066 50.117C121.922 49.8623 121.763 49.5935 121.599 49.3177L121.798 49.1938C121.968 49.472 122.13 49.7431 122.265 50.0025L122.066 50.117ZM121.09 48.5301C120.919 48.273 120.746 48.0136 120.568 47.7542L120.762 47.6233C120.94 47.8827 121.113 48.1421 121.283 48.4039L121.09 48.5301ZM120.038 46.9829C119.863 46.7258 119.685 46.4664 119.512 46.2093L119.706 46.0784C119.879 46.3355 120.054 46.5949 120.229 46.8497L120.038 46.9829ZM118.993 45.4264C118.822 45.1646 118.657 44.8982 118.493 44.6317L118.692 44.5102C118.855 44.7766 119.021 45.0384 119.189 45.3002L118.993 45.4264ZM118.018 43.8207C117.86 43.5379 117.712 43.2575 117.579 42.9887L117.789 42.8836C117.92 43.15 118.068 43.4258 118.222 43.7062L118.018 43.8207ZM117.189 42.138C117.065 41.8459 116.955 41.549 116.852 41.2592L117.086 41.1844C117.184 41.4672 117.294 41.7594 117.416 42.0469L117.189 42.138ZM116.581 40.3548C116.504 40.0509 116.436 39.7401 116.385 39.4199L116.619 39.3825C116.67 39.6817 116.733 39.9855 116.81 40.2846L116.581 40.3548ZM116.268 38.485C116.245 38.1976 116.233 37.9078 116.233 37.618V37.5408H116.467V37.6156C116.467 37.8984 116.467 38.1836 116.502 38.464L116.268 38.485ZM116.502 36.6153L116.268 36.592C116.268 36.5289 116.28 36.4634 116.287 36.3956C116.315 36.1456 116.35 35.8955 116.392 35.6571L116.626 35.6968C116.586 35.9305 116.551 36.1759 116.523 36.4213C116.532 36.4938 116.532 36.5569 116.513 36.6223L116.502 36.6153ZM116.827 34.797L116.593 34.7339C116.679 34.4254 116.78 34.1239 116.892 33.8365L117.109 33.9206C117.003 34.21 116.913 34.5049 116.838 34.804L116.827 34.797ZM128.473 33.4345C128.342 33.4345 128.206 33.4158 128.073 33.3971C127.891 33.3714 127.708 33.341 127.528 33.3059L127.575 33.0722C127.748 33.1049 127.928 33.1353 128.106 33.161C128.232 33.1774 128.36 33.1891 128.484 33.1961L128.473 33.4345ZM129.433 33.362L129.384 33.1283C129.677 33.0678 129.959 32.9588 130.216 32.8058L130.338 33.0044C130.062 33.1748 129.761 33.298 129.445 33.369L129.433 33.362ZM117.5 33.0839L117.292 32.9741C117.44 32.6953 117.605 32.4253 117.785 32.1654L117.976 32.2986C117.806 32.5531 117.65 32.8177 117.511 33.0909L117.5 33.0839ZM126.615 33.0699C126.313 32.9742 126.016 32.8626 125.726 32.7357L125.822 32.5207C126.103 32.6455 126.391 32.754 126.685 32.8455L126.615 33.0699ZM131.055 32.3407L130.861 32.2098C131.028 31.9684 131.126 31.6867 131.146 31.3942L131.38 31.4105C131.36 31.7458 131.25 32.0695 131.062 32.3477L131.055 32.3407ZM124.885 32.3056C124.612 32.1467 124.347 31.9727 124.093 31.7845L124.231 31.5975C124.478 31.78 124.736 31.9485 125.002 32.1023L124.885 32.3056ZM118.551 31.5765L118.378 31.4199C118.59 31.1845 118.816 30.9621 119.054 30.7538L119.208 30.9291C118.979 31.1342 118.762 31.3527 118.558 31.5835L118.551 31.5765ZM123.364 31.1815C123.131 30.967 122.91 30.74 122.702 30.5014L122.877 30.3471C123.08 30.5789 123.294 30.7997 123.52 31.0085L123.364 31.1815ZM130.971 30.5481C130.837 30.281 130.652 30.0428 130.426 29.847L130.581 29.6717C130.829 29.8865 131.033 30.1477 131.181 30.4406L130.971 30.5481ZM119.935 30.3635L119.802 30.1718C120.063 29.9933 120.334 29.8287 120.613 29.6787L120.723 29.8844C120.454 30.0327 120.194 30.195 119.942 30.3705L119.935 30.3635ZM122.118 29.7558C122.029 29.6296 121.943 29.5011 121.861 29.3679L121.557 29.487L121.468 29.272L121.737 29.1645C121.695 29.0944 121.653 29.0243 121.613 28.9542L121.816 28.8397C121.863 28.9215 121.91 29.0033 121.959 29.0734C122.09 29.0266 122.223 28.9822 122.359 28.9402L122.426 29.1739C122.312 29.2089 122.193 29.2463 122.085 29.2861C122.158 29.4006 122.232 29.5198 122.319 29.6203L122.118 29.7558ZM129.674 29.3538C129.448 29.2411 129.213 29.1458 128.973 29.0687L128.818 29.0196L128.886 28.7859L129.045 28.8373C129.296 28.9171 129.539 29.0164 129.774 29.1341L129.674 29.3538ZM123.321 28.9355L123.272 28.7018C123.574 28.634 123.887 28.5779 124.207 28.5335L124.242 28.7672C123.934 28.8163 123.628 28.8747 123.328 28.9425L123.321 28.9355ZM127.926 28.8093C127.634 28.7579 127.325 28.7181 127.009 28.6901L127.028 28.4564C127.353 28.4844 127.669 28.5241 127.963 28.5779L127.926 28.8093ZM125.156 28.6737L125.14 28.44C125.418 28.4236 125.696 28.4143 125.972 28.4143H126.086V28.648H125.974C125.71 28.655 125.434 28.662 125.163 28.6807L125.156 28.6737ZM121.206 28.1151C121.08 27.83 120.973 27.5332 120.867 27.2317L121.101 27.1593C121.199 27.4537 121.309 27.7435 121.431 28.0217L121.206 28.1151ZM120.615 26.3202C120.545 26.0187 120.487 25.7055 120.442 25.3854L120.676 25.3526C120.72 25.6611 120.776 25.9673 120.844 26.2641L120.615 26.3202ZM120.353 24.4505C120.342 24.2402 120.335 24.0251 120.335 23.8101C120.335 23.7096 120.335 23.6068 120.335 23.5063H120.568C120.568 23.6068 120.568 23.705 120.568 23.8054C120.568 24.0158 120.568 24.2285 120.585 24.4318L120.353 24.4505ZM120.631 22.5808L120.398 22.5574C120.43 22.2489 120.475 21.9334 120.529 21.6226L120.762 21.6623C120.699 21.9731 120.655 22.2723 120.624 22.5855L120.631 22.5808ZM120.952 20.7555L120.718 20.6994C120.793 20.3979 120.879 20.0941 120.975 19.7902L121.209 19.8627C121.104 20.1689 121.017 20.4657 120.945 20.7602L120.952 20.7555ZM121.513 18.9863L121.295 18.9021C121.41 18.61 121.529 18.3178 121.671 18.035L121.882 18.1379C121.742 18.4183 121.618 18.7035 121.506 19.0003L121.513 18.9863ZM122.317 17.3199L122.113 17.2007C122.272 16.9319 122.443 16.6631 122.62 16.4061L122.812 16.5393C122.63 16.7964 122.464 17.0581 122.309 17.3246L122.317 17.3199ZM123.371 15.7984L123.188 15.6512C123.385 15.4174 123.595 15.1697 123.812 14.95L123.981 15.1113C123.761 15.331 123.555 15.5647 123.364 15.8031L123.371 15.7984ZM124.642 14.4522L124.485 14.2793C124.719 14.0712 124.953 13.8656 125.203 13.6669L125.348 13.8516C125.098 14.0502 124.859 14.2535 124.635 14.4569L124.642 14.4522ZM126.093 13.2977L125.96 13.1037C126.215 12.9284 126.481 12.7554 126.752 12.5918L126.872 12.7905C126.6 12.9564 126.348 13.127 126.086 13.3023L126.093 13.2977ZM127.68 12.3324L127.57 12.1267C127.846 11.9795 128.131 11.8393 128.416 11.7084L128.515 11.9211C128.218 12.0543 127.944 12.1945 127.673 12.3371L127.68 12.3324ZM129.37 11.5565L129.284 11.3368C129.578 11.2223 129.875 11.1031 130.169 11.0166L130.244 11.2503C129.947 11.3391 129.653 11.4466 129.363 11.5612L129.37 11.5565Z" fill="#263238"/>
<path d="M131.172 10.9652L131.114 10.7315C131.404 10.6567 131.581 10.624 131.581 10.624L131.623 10.8577C131.623 10.8577 131.455 10.8928 131.172 10.9652Z" fill="#263238"/>
<path d="M135.304 9.45544C134.708 7.60909 130.716 8.27284 131.495 10.6871C132.273 13.1014 135.9 11.3041 135.304 9.45544Z" fill="#263238"/>
<path d="M129.323 8.71673C129.354 7.90574 130.48 7.28172 132.074 7.56919C133.668 7.85666 135.166 8.93175 135.166 8.93175C135.166 8.93175 133.593 9.8853 131.983 10.0606C130.373 10.2359 129.293 9.52538 129.323 8.71673Z" fill="#EBEBEB"/>
<path d="M135.166 8.92693C134.339 8.92693 133.514 8.90355 132.689 8.87785C131.864 8.85214 131.036 8.81007 130.211 8.74463C131.039 8.74463 131.866 8.76566 132.691 8.79137C133.516 8.81708 134.343 8.85915 135.166 8.92693Z" fill="#263238"/>
<path d="M130.924 7.99463C131.394 8.21933 131.837 8.49606 132.245 8.81964C132.01 8.70934 131.782 8.58445 131.562 8.4457C131.341 8.3079 131.128 8.15729 130.924 7.99463Z" fill="#263238"/>
<path d="M133.091 8.8501C132.668 9.19275 132.21 9.48893 131.724 9.73354C132.149 9.39046 132.609 9.09427 133.098 8.8501H133.091Z" fill="#263238"/>
<path d="M133.332 8.39404C133.567 8.50729 133.774 8.67368 133.935 8.88017C133.817 8.82451 133.706 8.75466 133.605 8.67216C133.504 8.59018 133.412 8.49687 133.332 8.39404Z" fill="#263238"/>
<path d="M130.842 13.5194C131.34 14.1598 132.619 14.0056 133.743 12.8417C134.867 11.6778 135.463 9.92725 135.463 9.92725C135.463 9.92725 133.621 10.0675 132.217 10.8621C130.812 11.6567 130.342 12.8767 130.842 13.5194Z" fill="#EBEBEB"/>
<path d="M135.463 9.92725C134.79 10.3947 134.136 10.9135 133.479 11.416C132.822 11.9185 132.179 12.4373 131.551 12.9725C132.224 12.5051 132.878 11.9886 133.533 11.4861C134.187 10.9836 134.825 10.4648 135.463 9.92725Z" fill="#263238"/>
<path d="M132.561 13.1575C132.685 12.9304 132.797 12.6963 132.895 12.4563C132.994 12.2156 133.079 11.969 133.147 11.7178C133.022 11.9446 132.91 12.1787 132.813 12.4189C132.714 12.66 132.63 12.9066 132.561 13.1575Z" fill="#263238"/>
<path d="M133.827 11.2034C133.28 11.1742 132.732 11.2032 132.191 11.2899C132.463 11.3062 132.736 11.3062 133.009 11.2899C133.283 11.2765 133.556 11.2476 133.827 11.2034Z" fill="#263238"/>
<path d="M134.278 11.4348C134.341 11.3194 134.389 11.197 134.423 11.0702C134.458 10.9443 134.478 10.815 134.484 10.6846C134.36 10.9159 134.289 11.1724 134.278 11.4348Z" fill="#263238"/>
<path d="M135.304 9.45541C135.172 9.49827 135.03 9.501 134.897 9.46325C134.763 9.42549 134.644 9.34896 134.554 9.24334C134.464 9.13772 134.407 9.00776 134.391 8.86993C134.375 8.73209 134.4 8.59257 134.463 8.46904C134.527 8.34551 134.625 8.24353 134.746 8.176C134.867 8.10848 135.006 8.07845 135.144 8.08972C135.283 8.10099 135.415 8.15306 135.523 8.23932C135.632 8.32559 135.713 8.44217 135.755 8.57431C135.812 8.75097 135.796 8.9429 135.711 9.10805C135.627 9.2732 135.48 9.39811 135.304 9.45541Z" fill="#455A64"/>
<path d="M135.734 10.7896C135.602 10.8323 135.461 10.8349 135.327 10.7971C135.194 10.7594 135.075 10.6829 134.985 10.5773C134.895 10.4718 134.838 10.342 134.822 10.2043C134.806 10.0666 134.831 9.92718 134.894 9.80369C134.957 9.68021 135.055 9.57819 135.176 9.51053C135.297 9.44287 135.436 9.41262 135.574 9.42358C135.712 9.43455 135.844 9.48626 135.953 9.57215C136.062 9.65805 136.143 9.77429 136.185 9.90618C136.214 9.9938 136.225 10.0862 136.217 10.178C136.21 10.2698 136.185 10.3593 136.143 10.4414C136.101 10.5234 136.043 10.5964 135.973 10.6561C135.903 10.7159 135.822 10.7613 135.734 10.7896Z" fill="#455A64"/>
<path d="M59.1101 10.1935C58.9982 11.267 58.5901 12.2882 57.9314 13.1433C57.2728 13.9984 56.3895 14.6536 55.3802 15.0358C54.3708 15.4181 53.2751 15.5124 52.2153 15.3081C51.1555 15.1039 50.1733 14.6092 49.3783 13.8792L46.4639 14.3069L47.9222 11.7874C47.5887 10.9677 47.4464 10.0827 47.5062 9.19965C47.5659 8.31665 47.8261 7.45887 48.267 6.69147C48.7078 5.92407 49.3178 5.26723 50.0505 4.77085C50.7832 4.27447 51.6194 3.95161 52.4956 3.82678C53.3718 3.70195 54.2649 3.77844 55.1071 4.05045C55.9492 4.32245 56.7184 4.78281 57.356 5.39656C57.9936 6.0103 58.483 6.76129 58.787 7.59249C59.0909 8.42368 59.2014 9.31321 59.1101 10.1935Z" fill="white" fill-opacity="0.5"/>
<path d="M59.1106 10.1936C59.001 11.2666 58.5965 12.2882 57.942 13.1455C57.6222 13.579 57.2366 13.9599 56.7992 14.2743C56.3713 14.6005 55.8991 14.8641 55.3969 15.0572C54.8944 15.2551 54.3664 15.381 53.8287 15.4312C53.5598 15.4553 53.2896 15.4608 53.02 15.4475C52.7494 15.4406 52.4799 15.4125 52.2137 15.3634C51.1396 15.1658 50.1417 14.6729 49.332 13.9401L49.3998 13.9611L46.49 14.4075L46.2773 14.4402L46.3849 14.2533L47.8339 11.7292V11.8296C47.492 10.9947 47.3466 10.0924 47.409 9.19231C47.4714 8.29225 47.7399 7.41859 48.1938 6.63885C48.6471 5.86157 49.2703 5.19683 50.0168 4.69435C50.762 4.19854 51.6099 3.8779 52.4967 3.75647C53.3835 3.63504 54.2864 3.71598 55.1375 3.99321C55.9795 4.27969 56.7469 4.75082 57.3835 5.37212C58.0186 5.99187 58.5042 6.74815 58.8035 7.58356C59.1027 8.41898 59.2078 9.31158 59.1106 10.1936ZM59.1106 10.1936C59.205 9.31593 59.0965 8.42824 58.7934 7.59913C58.4903 6.77002 58.0007 6.02166 57.3624 5.41182C56.7241 4.80199 55.9542 4.347 55.1121 4.08199C54.27 3.81697 53.3783 3.74901 52.5058 3.88336C51.6421 4.01121 50.8193 4.33586 50.1009 4.83224C49.3887 5.33252 48.7938 5.98166 48.3574 6.73467C47.9277 7.48936 47.6744 8.33152 47.6165 9.19802C47.5596 10.0704 47.7002 10.9444 48.0279 11.7549L48.0489 11.8063L48.0209 11.8554L46.5531 14.3701L46.4503 14.2159L49.367 13.8069H49.4068L49.4348 13.8326C50.2145 14.5583 51.1807 15.0527 52.2254 15.2606C52.4857 15.3136 52.7499 15.3457 53.0153 15.3564C53.2807 15.3751 53.547 15.3751 53.8123 15.3564C54.3444 15.3135 54.8681 15.1979 55.3688 15.0128C55.8707 14.8301 56.3431 14.575 56.7711 14.2556C57.2068 13.9437 57.5929 13.5679 57.9163 13.1408C58.5792 12.2877 58.9926 11.2675 59.1106 10.1936Z" fill="#263238"/>
<path d="M50.4697 12.3043C50.4652 12.2269 50.4767 12.1494 50.5034 12.0767C50.5301 12.0039 50.5715 11.9374 50.6249 11.8813C50.6784 11.8252 50.7428 11.7807 50.8142 11.7505C50.8856 11.7204 50.9625 11.7052 51.04 11.706C51.1986 11.706 51.3508 11.769 51.463 11.8812C51.5752 11.9934 51.6383 12.1456 51.6383 12.3043C51.6383 12.463 51.5752 12.6151 51.463 12.7273C51.3508 12.8396 51.1986 12.9026 51.04 12.9026C50.9625 12.9034 50.8856 12.8882 50.8142 12.858C50.7428 12.8279 50.6784 12.7833 50.6249 12.7272C50.5715 12.6711 50.5301 12.6046 50.5034 12.5319C50.4767 12.4591 50.4652 12.3817 50.4697 12.3043ZM50.7034 10.923L50.5679 6.28613H51.5027L51.3672 10.923H50.7034Z" fill="url(#paint12_linear_234_8849)"/>
<path d="M52.6924 12.3043C52.6879 12.2271 52.6993 12.1498 52.7258 12.0772C52.7524 12.0046 52.7936 11.9382 52.8468 11.8822C52.9 11.8261 52.9642 11.7815 53.0353 11.7512C53.1064 11.7209 53.183 11.7055 53.2603 11.706C53.419 11.706 53.5711 11.769 53.6833 11.8812C53.7955 11.9934 53.8586 12.1456 53.8586 12.3043C53.8586 12.463 53.7955 12.6151 53.6833 12.7273C53.5711 12.8396 53.419 12.9026 53.2603 12.9026C53.183 12.903 53.1064 12.8876 53.0353 12.8573C52.9642 12.827 52.9 12.7825 52.8468 12.7264C52.7936 12.6703 52.7524 12.6039 52.7258 12.5313C52.6993 12.4587 52.6879 12.3815 52.6924 12.3043ZM52.9261 10.923L52.7975 6.28613H53.7324L53.5968 10.923H52.9261Z" fill="url(#paint13_linear_234_8849)"/>
<path d="M54.9131 12.3043C54.9086 12.2269 54.92 12.1494 54.9467 12.0767C54.9734 12.0039 55.0148 11.9374 55.0683 11.8813C55.1218 11.8252 55.1862 11.7807 55.2576 11.7505C55.329 11.7204 55.4058 11.7052 55.4833 11.706C55.642 11.706 55.7942 11.769 55.9064 11.8812C56.0186 11.9934 56.0816 12.1456 56.0816 12.3043C56.0816 12.463 56.0186 12.6151 55.9064 12.7273C55.7942 12.8396 55.642 12.9026 55.4833 12.9026C55.4058 12.9034 55.329 12.8882 55.2576 12.858C55.1862 12.8279 55.1218 12.7833 55.0683 12.7272C55.0148 12.6711 54.9734 12.6046 54.9467 12.5319C54.92 12.4591 54.9086 12.3817 54.9131 12.3043ZM55.1468 10.923L55.0112 6.28613H55.9461L55.8129 10.923H55.1468Z" fill="url(#paint14_linear_234_8849)"/>
<defs>
<linearGradient id="paint0_linear_234_8849" x1="134.904" y1="19.4731" x2="142.884" y2="19.4691" gradientUnits="userSpaceOnUse">
<stop stop-color="#FF9344"/>
<stop offset="1" stop-color="#B4642B"/>
</linearGradient>
<linearGradient id="paint1_linear_234_8849" x1="93.1724" y1="4.37038" x2="101.78" y2="4.36493" gradientUnits="userSpaceOnUse">
<stop stop-color="#FF9344"/>
<stop offset="1" stop-color="#B4642B"/>
</linearGradient>
<linearGradient id="paint2_linear_234_8849" x1="82.5313" y1="19.9349" x2="93.705" y2="19.932" gradientUnits="userSpaceOnUse">
<stop stop-color="#FF9344"/>
<stop offset="1" stop-color="#B4642B"/>
</linearGradient>
<linearGradient id="paint3_linear_234_8849" x1="8.04395" y1="71.2111" x2="19.934" y2="71.2059" gradientUnits="userSpaceOnUse">
<stop stop-color="#FF9344"/>
<stop offset="1" stop-color="#B4642B"/>
</linearGradient>
<linearGradient id="paint4_linear_234_8849" x1="8.9043" y1="64.5655" x2="18.7193" y2="64.5452" gradientUnits="userSpaceOnUse">
<stop stop-color="#FF9344"/>
<stop offset="1" stop-color="#B4642B"/>
</linearGradient>
<linearGradient id="paint5_linear_234_8849" x1="6.2793" y1="87.3125" x2="180.273" y2="93.312" gradientUnits="userSpaceOnUse">
<stop stop-color="#2B98FF"/>
<stop offset="1" stop-color="#2163A2"/>
</linearGradient>
<linearGradient id="paint6_linear_234_8849" x1="35.8057" y1="22.1128" x2="46.4046" y2="22.1058" gradientUnits="userSpaceOnUse">
<stop stop-color="#FF9344"/>
<stop offset="1" stop-color="#B4642B"/>
</linearGradient>
<linearGradient id="paint7_linear_234_8849" x1="23.4014" y1="26.5748" x2="42.7247" y2="26.5647" gradientUnits="userSpaceOnUse">
<stop stop-color="#FF9344"/>
<stop offset="1" stop-color="#B4642B"/>
</linearGradient>
<linearGradient id="paint8_linear_234_8849" x1="33.0693" y1="23.7665" x2="41.4208" y2="23.7632" gradientUnits="userSpaceOnUse">
<stop stop-color="#FF9344"/>
<stop offset="1" stop-color="#B4642B"/>
</linearGradient>
<linearGradient id="paint9_linear_234_8849" x1="49.1377" y1="61.7249" x2="147.324" y2="61.647" gradientUnits="userSpaceOnUse">
<stop stop-color="#FF9344"/>
<stop offset="1" stop-color="#B4642B"/>
</linearGradient>
<linearGradient id="paint10_linear_234_8849" x1="59.4336" y1="27.6847" x2="89.4782" y2="27.6143" gradientUnits="userSpaceOnUse">
<stop stop-color="#FF9344"/>
<stop offset="1" stop-color="#B4642B"/>
</linearGradient>
<linearGradient id="paint11_linear_234_8849" x1="38.7471" y1="62.7114" x2="136.923" y2="62.6306" gradientUnits="userSpaceOnUse">
<stop stop-color="#FF9344"/>
<stop offset="1" stop-color="#B4642B"/>
</linearGradient>
<linearGradient id="paint12_linear_234_8849" x1="50.4688" y1="9.82434" x2="51.8777" y2="9.8242" gradientUnits="userSpaceOnUse">
<stop stop-color="#FF9344"/>
<stop offset="1" stop-color="#B4642B"/>
</linearGradient>
<linearGradient id="paint13_linear_234_8849" x1="52.6914" y1="9.82433" x2="54.0975" y2="9.82419" gradientUnits="userSpaceOnUse">
<stop stop-color="#FF9344"/>
<stop offset="1" stop-color="#B4642B"/>
</linearGradient>
<linearGradient id="paint14_linear_234_8849" x1="54.9121" y1="9.82434" x2="56.321" y2="9.8242" gradientUnits="userSpaceOnUse">
<stop stop-color="#FF9344"/>
<stop offset="1" stop-color="#B4642B"/>
</linearGradient>
</defs>
</svg>
