<svg width="105" height="125" viewBox="0 0 105 125" fill="none" xmlns="http://www.w3.org/2000/svg">
<path d="M56.5833 106.111H70.3483L70.3583 106.164C70.657 107.69 71.283 109.132 72.1932 110.392C73.1034 111.652 74.276 112.7 75.6303 113.462C80.9923 116.452 90.1423 120.95 97.3853 121.428H54.4453V108.25C54.4452 107.969 54.5004 107.691 54.6078 107.432C54.7151 107.172 54.8726 106.936 55.0711 106.738C55.2696 106.539 55.5054 106.381 55.7648 106.274C56.0243 106.166 56.3024 106.111 56.5833 106.111Z" fill="#F49D1A"/>
<path d="M78.0404 106.111L86.6934 110.798H94.2334C97.0526 110.798 99.7564 111.918 101.75 113.912C103.743 115.905 104.863 118.609 104.863 121.428H54.4434V108.25C54.4432 107.969 54.4985 107.691 54.606 107.431C54.7135 107.172 54.8711 106.936 55.0699 106.737C55.2686 106.538 55.5046 106.38 55.7643 106.273C56.024 106.165 56.3023 106.11 56.5834 106.11L78.0404 106.111Z" fill="#F6DDCB"/>
<path d="M57.8447 61.5784H76.7547V101.418H57.8447V61.5784Z" fill="#FDD39D"/>
<path d="M57.8905 99.2173H76.7005C77.0559 99.2173 77.3967 99.3585 77.648 99.6098C77.8993 99.8611 78.0405 100.202 78.0405 100.557V106.111H56.5505V100.557C56.5505 100.202 56.6916 99.8611 56.9429 99.6098C57.1942 99.3585 57.5351 99.2173 57.8905 99.2173ZM102.769 124.677H56.1055C55.575 124.677 55.0663 124.467 54.6913 124.092C54.3162 123.716 54.1055 123.208 54.1055 122.677V121.427H104.769V122.677C104.769 123.208 104.559 123.716 104.184 124.092C103.809 124.467 103.3 124.677 102.769 124.677Z" fill="#5BA6E2"/>
<path d="M86.6934 110.798H94.2334C97.0526 110.798 99.7564 111.918 101.75 113.912C103.743 115.905 104.863 118.609 104.863 121.428H86.6934V110.798Z" fill="#2A92F4"/>
<path d="M86.6934 110.798H94.2334C97.0526 110.798 99.7564 111.918 101.75 113.912C103.743 115.905 104.863 118.609 104.863 121.428H86.6934V110.798Z" fill="#2A92F4"/>
<path d="M68.1305 124.677H56.1055C55.575 124.677 55.0663 124.467 54.6913 124.092C54.3162 123.717 54.1055 123.208 54.1055 122.677V121.427H69.9855C69.4574 122.56 68.837 123.647 68.1305 124.677Z" fill="#4481D1"/>
<path d="M99.7415 124.677H56.1055C55.575 124.677 55.0663 124.467 54.6913 124.092C54.3162 123.717 54.1055 123.208 54.1055 122.677V121.427H97.3855C98.2034 121.487 99.0245 121.487 99.8425 121.427C100.032 122.506 99.9975 123.612 99.7425 124.677H99.7415Z" fill="#4481D1"/>
<path d="M97.3844 121.428H86.6934V118.738C90.1069 120.151 93.7087 121.057 97.3844 121.428Z" fill="#2A92F4"/>
<path d="M102.492 118.838C102.361 118.839 102.231 118.804 102.117 118.738C102.003 118.673 101.908 118.578 101.842 118.464C101.815 118.416 99.0232 113.69 95.0152 113.404C94.817 113.39 94.6325 113.298 94.5022 113.148C94.3719 112.998 94.3064 112.803 94.3202 112.604C94.3385 112.408 94.4321 112.225 94.5816 112.096C94.731 111.966 94.9247 111.9 95.1222 111.909C99.9282 112.25 103.012 117.489 103.142 117.712C103.208 117.826 103.243 117.956 103.243 118.088C103.243 118.22 103.209 118.349 103.143 118.463C103.077 118.578 102.982 118.672 102.868 118.738C102.754 118.804 102.624 118.839 102.492 118.838Z" fill="white"/>
<path d="M54.1055 122.677V121.427H100.505C100.693 122.509 100.639 123.619 100.346 124.677H56.1055C55.575 124.677 55.0663 124.467 54.6913 124.092C54.3162 123.717 54.1055 123.208 54.1055 122.677Z" fill="#4481D1"/>
<path d="M56.5824 106.111H62.6124C62.2048 107.574 62.2533 109.125 62.7514 110.559C63.4535 112.413 64.6871 114.017 66.2974 115.172C74.2234 121.199 85.4654 112.737 96.1944 118.608C97.5926 119.376 98.884 120.324 100.035 121.428H54.4434V108.25C54.4432 107.969 54.4985 107.691 54.606 107.431C54.7135 107.172 54.8711 106.936 55.0699 106.737C55.2686 106.538 55.5046 106.38 55.7643 106.273C56.024 106.165 56.3023 106.11 56.5834 106.11L56.5824 106.111Z" fill="#F49D1A"/>
<path d="M96.1944 118.608C97.5926 119.376 98.884 120.324 100.035 121.428H86.6934V116.418C89.9972 116.307 93.2726 117.062 96.1944 118.608Z" fill="#2A92F4"/>
<path d="M64.9777 85.6304C63.7617 89.9274 66.0217 91.0604 64.9007 97.7844C64.6933 99.0119 64.4104 100.226 64.0537 101.418H57.8438V63.4474C58.9074 62.715 60.0405 62.089 61.2267 61.5784H76.7547V74.2244C68.5107 78.1384 65.8777 82.4524 64.9777 85.6304Z" fill="#E9B77A"/>
<path d="M56.8808 99.7023C56.8998 99.6793 56.9098 99.6503 56.9308 99.6293C57.1722 99.3829 57.499 99.2386 57.8438 99.2263C57.8598 99.2263 57.8738 99.2163 57.8908 99.2163H64.6208C63.9788 102.146 63.0638 104.211 62.6118 106.111H56.5508V100.557C56.5509 100.381 56.5859 100.207 56.6538 100.044C56.7111 99.9191 56.7877 99.8037 56.8808 99.7023Z" fill="#4481D1"/>
<path d="M48.4182 106.111H34.6532L34.6432 106.164C34.3447 107.69 33.7188 109.132 32.8088 110.392C31.8988 111.652 30.7263 112.699 29.3722 113.462C24.0092 116.452 14.8592 120.95 7.61621 121.428H50.5562V108.25C50.5563 107.969 50.5011 107.691 50.3938 107.432C50.2864 107.172 50.129 106.936 49.9304 106.738C49.7319 106.539 49.4962 106.381 49.2367 106.274C48.9772 106.166 48.6991 106.111 48.4182 106.111Z" fill="#F49D1A"/>
<path d="M26.9607 106.111L18.3067 110.798H10.7667C7.94746 110.798 5.24369 111.918 3.25018 113.912C1.25666 115.905 0.136719 118.609 0.136719 121.428H50.5567V108.25C50.5568 107.969 50.5016 107.691 50.3942 107.431C50.2867 107.172 50.1292 106.936 49.9306 106.737C49.7319 106.538 49.4961 106.381 49.2365 106.273C48.9769 106.166 48.6987 106.11 48.4177 106.11L26.9607 106.111Z" fill="#FA9043"/>
<path d="M28.2461 61.5784H47.1561V101.418H28.2461V61.5784Z" fill="#FDD39D"/>
<path d="M48.4505 106.111H26.9605V100.557C26.9605 100.202 27.1016 99.8611 27.3529 99.6098C27.6042 99.3585 27.9451 99.2173 28.3005 99.2173H47.1105C47.4659 99.2173 47.8067 99.3585 48.058 99.6098C48.3093 99.8611 48.4505 100.202 48.4505 100.557V106.111ZM0.231468 121.428H50.8955V122.678C50.8955 123.209 50.6848 123.717 50.3097 124.092C49.9346 124.468 49.4259 124.678 48.8955 124.678H2.23047C1.70004 124.678 1.19133 124.468 0.816257 124.092C0.441185 123.717 0.230469 123.209 0.230469 122.678L0.231468 121.428Z" fill="#5BA6E2"/>
<path d="M18.3067 110.798H10.7667C7.94746 110.798 5.24369 111.918 3.25018 113.912C1.25666 115.905 0.136719 118.609 0.136719 121.428H18.3067V110.798Z" fill="#2A92F4"/>
<path d="M18.3067 110.798H10.7667C7.94746 110.798 5.24369 111.918 3.25018 113.912C1.25666 115.905 0.136719 118.609 0.136719 121.428H18.3067V110.798Z" fill="#2A92F4"/>
<path d="M36.8696 124.677H48.8956C49.4261 124.677 49.9348 124.467 50.3098 124.092C50.6849 123.717 50.8956 123.208 50.8956 122.677V121.427H35.0156C35.5434 122.56 36.1635 123.647 36.8696 124.677Z" fill="#4481D1"/>
<path d="M5.25842 124.677H48.8964C49.4268 124.677 49.9356 124.467 50.3106 124.092C50.6857 123.717 50.8964 123.208 50.8964 122.677V121.427H7.61641C6.79849 121.487 5.97733 121.487 5.15941 121.427C4.97031 122.506 5.00335 123.612 5.25842 124.677Z" fill="#4481D1"/>
<path d="M7.61621 121.428H18.3072V118.738C14.894 120.151 11.2916 121.057 7.61621 121.428Z" fill="#2A92F4"/>
<path d="M2.50887 118.838C2.37703 118.839 2.24747 118.804 2.13325 118.738C2.01903 118.672 1.92418 118.578 1.85827 118.463C1.79236 118.349 1.75771 118.22 1.75781 118.088C1.75792 117.956 1.79278 117.826 1.85887 117.712C1.98887 117.49 5.07287 112.25 9.87887 111.909C10.0769 111.897 10.2718 111.963 10.4218 112.093C10.5717 112.223 10.6648 112.407 10.6809 112.604C10.6946 112.803 10.6292 112.998 10.4988 113.148C10.3685 113.298 10.1841 113.39 9.98587 113.404C5.96387 113.691 3.18587 118.416 3.15887 118.464C3.09287 118.578 2.99807 118.673 2.88397 118.738C2.76988 118.804 2.64051 118.839 2.50887 118.838Z" fill="white"/>
<path d="M50.8966 122.677V121.427H4.49663C4.30845 122.509 4.36241 123.619 4.65462 124.677H48.8966C49.4271 124.677 49.9358 124.467 50.3108 124.092C50.6859 123.717 50.8966 123.208 50.8966 122.677Z" fill="#4481D1"/>
<path d="M48.4178 106.111H42.3888C42.7961 107.574 42.7473 109.126 42.2488 110.559C41.5467 112.413 40.3131 114.017 38.7029 115.172C30.7768 121.199 19.5358 112.737 8.80585 118.608C7.40759 119.376 6.11621 120.324 4.96484 121.428H50.5568V108.25C50.557 107.969 50.5017 107.691 50.3943 107.431C50.2869 107.172 50.1293 106.936 49.9307 106.737C49.7321 106.538 49.4962 106.381 49.2366 106.273C48.9771 106.166 48.6988 106.111 48.4178 106.111Z" fill="#F49D1A"/>
<path d="M8.80585 118.608C7.40759 119.376 6.11621 120.324 4.96484 121.428H18.3068V116.418C15.003 116.307 11.7276 117.062 8.80585 118.608Z" fill="#2A92F4"/>
<path d="M40.0221 85.6304C41.2391 89.9274 38.9791 91.0604 40.1001 97.7844C40.3075 99.0119 40.5904 100.226 40.9471 101.418H47.1571V63.4474C46.0934 62.715 44.9603 62.089 43.7741 61.5784H28.2461V74.2244C36.4911 78.1384 39.1221 82.4524 40.0221 85.6304Z" fill="#E9B77A"/>
<path d="M48.1199 99.7023C48.1009 99.6793 48.0909 99.6503 48.0709 99.6293C47.8295 99.3829 47.5026 99.2386 47.1579 99.2263C47.1409 99.2263 47.1279 99.2163 47.1109 99.2163H40.3809C41.0229 102.146 41.9379 104.211 42.3889 106.111H48.4509V100.557C48.4504 100.381 48.4151 100.207 48.3469 100.044C48.2895 99.9191 48.2129 99.8037 48.1199 99.7023Z" fill="#4481D1"/>
<path d="M51.9806 83.0763C62.3566 77.7483 72.6005 72.4063 78.1236 68.0803C88.7466 59.7603 94.7305 55.0743 98.6405 46.2403C100.16 42.8063 104.331 32.9903 100.957 21.4203C100.07 18.3773 97.2215 8.61229 87.3885 3.22029C77.5636 -2.16871 67.7186 0.622287 64.8866 1.56529C59.9042 3.25135 55.4532 6.21868 51.9806 10.1693C48.5079 6.21868 44.0569 3.25135 39.0746 1.56529C36.2435 0.622287 26.3976 -2.16871 16.5716 3.22029C6.73855 8.61229 3.89155 18.3773 3.00455 21.4203C-0.36945 32.9903 3.80155 42.8063 5.32055 46.2403C9.23055 55.0743 15.2146 59.7603 25.8376 68.0803C31.3616 72.4063 41.6046 77.7483 51.9806 83.0763Z" fill="#2A92F4"/>
<path d="M100.957 21.4204C99.8222 17.219 97.8685 13.2833 95.208 9.83936C97.429 20.3694 93.722 29.1054 92.307 32.3024C88.397 41.1364 82.413 45.8224 71.79 54.1424C71.5134 54.359 71.2254 54.578 70.926 54.7994C63.6 60.1898 54.7426 63.0973 45.647 63.0973C36.5515 63.0973 27.6941 60.1898 20.368 54.7994C20.0687 54.578 19.7807 54.359 19.504 54.1424C11.804 48.1124 6.55005 43.9854 2.74805 38.8094C3.37753 41.3593 4.23877 43.8463 5.32104 46.2394C9.23104 55.0744 15.215 59.7604 25.838 68.0794C31.362 72.4064 41.605 77.7484 51.981 83.0764C62.356 77.7484 72.601 72.4064 78.124 68.0804C88.747 59.7604 94.73 55.0744 98.641 46.2404C100.16 42.8064 104.331 32.9904 100.957 21.4204Z" fill="#2A92F4"/>
<path d="M6.82378 19.7203C5.63939 19.7221 4.46325 19.9174 3.34179 20.2983C3.22616 20.6713 3.11381 21.0454 3.00478 21.4203C1.20302 27.8249 1.31705 34.6169 3.33279 40.9573C4.83152 41.4643 6.42261 41.6391 7.99566 41.4696C9.56871 41.3001 11.086 40.7903 12.4424 39.9757C13.7987 39.1611 14.9616 38.0612 15.8503 36.7522C16.7389 35.4432 17.3322 33.9566 17.5888 32.3954C17.8455 30.8342 17.7593 29.2358 17.3364 27.7112C16.9135 26.1866 16.164 24.7723 15.1398 23.5664C14.1156 22.3605 12.8413 21.3919 11.4053 20.7277C9.96926 20.0636 8.40594 19.7198 6.82378 19.7203ZM100.469 41.4783C102.632 34.9914 102.802 28.0048 100.957 21.4203C100.798 20.8717 100.631 20.3257 100.455 19.7823C97.7746 20.0664 95.2945 21.3326 93.4926 23.3368C91.6907 25.3411 90.6946 27.9415 90.6963 30.6366C90.698 33.3318 91.6975 35.9309 93.502 37.9328C95.3065 39.9348 97.7883 41.1978 100.469 41.4783Z" fill="white"/>
<path d="M102.218 29.4253C102.203 28.9567 102.178 28.4827 102.142 28.0033C102.131 27.8533 102.122 27.7043 102.108 27.5533C102.055 26.9485 101.985 26.3452 101.898 25.7443C101.883 25.6433 101.862 25.5403 101.847 25.4393C101.765 24.9153 101.668 24.386 101.556 23.8513C101.52 23.6813 101.485 23.5113 101.446 23.3413C101.303 22.6964 101.14 22.0561 100.957 21.4213L100.952 21.4033C100.8 20.881 100.641 20.3609 100.474 19.8433L100.454 19.7833C98.6834 19.9717 96.9868 20.5934 95.5138 21.5933C94.9379 25.2922 93.8589 28.8949 92.3068 32.3013C91.9998 32.9943 91.6768 33.6533 91.3428 34.2983C92.0337 36.2329 93.2567 37.9331 94.8712 39.2033C96.4857 40.4735 98.426 41.2621 100.469 41.4783V41.4763C100.529 41.2883 100.589 41.0903 100.647 40.8943C100.875 40.1441 101.079 39.3871 101.261 38.6243C101.299 38.4643 101.334 38.2993 101.371 38.1363C101.442 37.8163 101.51 37.49 101.576 37.1573L101.675 36.6333C101.745 36.2447 101.809 35.848 101.869 35.4433L101.913 35.1633C101.98 34.6733 102.036 34.1703 102.083 33.6593C102.099 33.5023 102.111 33.3433 102.123 33.1853C102.158 32.758 102.185 32.324 102.204 31.8833C102.209 31.7603 102.217 31.6393 102.222 31.5153C102.239 30.9653 102.242 30.4063 102.232 29.8383C102.229 29.7013 102.222 29.5633 102.218 29.4253Z" fill="white"/>
<path d="M55.5316 33.8064C55.5316 37.6321 54.0119 41.3012 51.3067 44.0064C48.6014 46.7116 44.9324 48.2314 41.1066 48.2314C37.2809 48.2314 33.6118 46.7116 30.9066 44.0064C28.2014 41.3012 26.6816 37.6321 26.6816 33.8064C26.6824 32.9895 26.7503 32.1741 26.8846 31.3684C31.4287 27.8642 36.4719 25.0604 41.8466 23.0504C43.568 22.3965 45.2082 21.5462 46.7346 20.5164C49.3442 21.6226 51.57 23.473 53.1343 25.8366C54.6986 28.2001 55.5331 30.972 55.5316 33.8064Z" fill="white"/>
<path d="M78.0822 35.3713C76.7802 41.2633 72.2982 45.6133 66.9922 45.6133C60.6702 45.6133 55.5322 39.4353 55.5322 31.8103C55.5322 26.4683 58.0652 21.8303 61.7582 19.5483C61.8014 19.6681 61.8617 19.7809 61.9372 19.8833C67.0321 25.3369 72.4218 30.5073 78.0822 35.3713Z" fill="white"/>
<path d="M80.867 37.3073C80.3067 37.1169 79.7776 36.8446 79.297 36.4993C78.8042 36.1757 78.3201 35.8393 77.845 35.4903C76.9116 34.7763 75.994 34.043 75.092 33.2903C73.282 31.7923 71.561 30.2003 69.857 28.5903C68.17 26.9623 66.502 25.3153 64.911 23.5903C64.118 22.7253 63.325 21.8623 62.558 20.9683C62.1306 20.5292 61.7983 20.0066 61.582 19.4333C61.5429 19.2763 61.5398 19.1124 61.5728 18.954C61.6059 18.7955 61.6743 18.6466 61.773 18.5183C61.9677 18.2863 62.2233 18.1131 62.511 18.0183C62.2541 18.1221 62.0439 18.3162 61.9199 18.564C61.796 18.8119 61.7669 19.0965 61.838 19.3643C62.1109 19.8543 62.4779 20.2856 62.918 20.6333C63.748 21.4503 64.601 22.2513 65.458 23.0463L70.548 27.8663L75.604 32.7183C76.44 33.5343 77.294 34.3283 78.157 35.1143C78.9753 35.9447 79.8847 36.68 80.868 37.3063L80.867 37.3073ZM26.084 60.8063C26.7663 60.6954 27.4286 60.4851 28.05 60.1823C28.692 59.9377 29.3105 59.6355 29.898 59.2793C31.06 58.5443 32.172 57.7193 33.284 56.8983C35.52 55.2683 37.743 53.6113 40.051 52.0573C42.3504 50.4772 44.7553 49.0566 47.249 47.8053C48.5211 47.202 49.836 46.6932 51.183 46.2833C52.5257 45.8547 53.899 45.5285 55.291 45.3073C56.7028 45.1015 58.1348 45.0716 59.554 45.2183C60.9703 45.4407 62.3465 45.8688 63.639 46.4893C66.1886 47.6481 68.6087 49.073 70.859 50.7403C73.1288 52.3656 75.2354 54.2076 77.149 56.2403C78.0923 57.2733 78.9292 58.3986 79.647 59.5993C80.2873 60.8519 80.5847 62.2516 80.509 63.6563C80.4765 62.2788 80.102 60.931 79.419 59.7343C78.6513 58.5966 77.7713 57.5389 76.792 56.5773C74.8383 54.6412 72.7031 52.8972 70.416 51.3693C68.1649 49.8042 65.7745 48.4498 63.275 47.3233C62.0624 46.7557 60.774 46.3667 59.45 46.1683C58.1104 46.047 56.7611 46.09 55.432 46.2963C54.0862 46.4956 52.7574 46.7965 51.457 47.1963C50.1492 47.579 48.8714 48.0576 47.634 48.6283C45.1729 49.8534 42.7807 51.2121 40.468 52.6983C38.13 54.1613 35.861 55.7473 33.564 57.2973C32.406 58.0593 31.248 58.8263 30.03 59.5073C29.4143 59.8375 28.7696 60.1103 28.104 60.3223C27.4578 60.5812 26.7773 60.7442 26.084 60.8063Z" fill="#333333"/>
<path d="M40.3536 59.8923C42.237 58.3527 44.2479 56.976 46.3646 55.7773C48.4777 54.5438 50.7046 53.5167 53.0146 52.7103C55.3465 51.8488 57.8306 51.4758 60.3126 51.6143C61.5669 51.7165 62.7841 52.089 63.8806 52.7063C64.9396 53.3542 65.8041 54.2759 66.3826 55.3743C65.6661 54.4339 64.7399 53.6737 63.6777 53.1542C62.6156 52.6348 61.4469 52.3705 60.2646 52.3823C57.8986 52.4067 55.5544 52.838 53.3346 53.6573C51.0743 54.4478 48.8665 55.3814 46.7246 56.4523C45.6415 56.9792 44.5731 57.5357 43.5206 58.1213C42.4486 58.6793 41.4066 59.2903 40.3536 59.8923ZM41.1056 48.7313C37.1488 48.7266 33.3555 47.1525 30.5577 44.3546C27.7599 41.5566 26.1861 37.7631 26.1816 33.8063C26.1825 32.962 26.2527 32.1191 26.3916 31.2863L26.4216 31.1003L26.5676 30.9803C31.1552 27.4458 36.2446 24.6156 41.6676 22.5833C43.3529 21.942 44.959 21.1095 46.4546 20.1023L46.6796 19.9503L46.9306 20.0563C50.1004 21.4006 52.7081 23.7991 54.3121 26.8456C55.9162 29.8921 56.418 33.3994 55.7326 36.7735C55.0472 40.1476 53.2167 43.1811 50.5511 45.3602C47.8855 47.5394 44.5486 48.7303 41.1056 48.7313ZM27.3476 31.6353C27.2376 32.3538 27.1821 33.0795 27.1816 33.8063C27.1832 36.3114 27.8605 38.7697 29.1422 40.9221C30.4239 43.0745 32.2625 44.8413 34.4643 46.0363C36.666 47.2313 39.1493 47.8102 41.6525 47.712C44.1557 47.6138 46.586 46.8421 48.6874 45.4783C50.7887 44.1145 52.4833 42.2091 53.5924 39.9629C54.7016 37.7167 55.1842 35.2129 54.9895 32.7154C54.7948 30.2179 53.93 27.8191 52.4861 25.7719C51.0423 23.7247 49.073 22.105 46.7856 21.0833C45.2919 22.0648 43.6958 22.8809 42.0256 23.5173C36.7694 25.5064 31.8263 28.2403 27.3476 31.6353Z" fill="#333333"/>
<path d="M42.4688 41.8943C46.0133 41.8943 48.8868 39.0209 48.8868 35.4763C48.8868 31.9318 46.0133 29.0583 42.4688 29.0583C38.9242 29.0583 36.0508 31.9318 36.0508 35.4763C36.0508 39.0209 38.9242 41.8943 42.4688 41.8943Z" fill="#333333"/>
<path d="M44.4047 33.4334C45.474 33.4334 46.3408 32.5666 46.3408 31.4974C46.3408 30.4282 45.474 29.5614 44.4047 29.5614C43.3355 29.5614 42.4688 30.4282 42.4688 31.4974C42.4688 32.5666 43.3355 33.4334 44.4047 33.4334Z" fill="white"/>
<path d="M47.0366 35.4763C47.4839 35.4763 47.8466 35.1137 47.8466 34.6663C47.8466 34.219 47.4839 33.8563 47.0366 33.8563C46.5892 33.8563 46.2266 34.219 46.2266 34.6663C46.2266 35.1137 46.5892 35.4763 47.0366 35.4763Z" fill="white"/>
<path d="M40.2285 39.8334C41.0888 39.7802 41.9513 39.7712 42.8125 39.8064C43.2225 39.8304 43.6255 39.8144 44.0415 39.8264C44.4615 39.8344 44.8755 39.8074 45.3645 39.8324C45.0287 40.1675 44.6256 40.4275 44.182 40.5954C43.7383 40.7633 43.264 40.8352 42.7905 40.8064C42.3255 40.7924 41.8654 40.7068 41.4265 40.5524C40.9783 40.4052 40.5689 40.1601 40.2285 39.8334Z" fill="white"/>
<path d="M65.1035 40.6994C68.6481 40.6994 71.5215 37.826 71.5215 34.2814C71.5215 30.7368 68.6481 27.8634 65.1035 27.8634C61.559 27.8634 58.6855 30.7368 58.6855 34.2814C58.6855 37.826 61.559 40.6994 65.1035 40.6994Z" fill="#333333"/>
<path d="M67.0395 32.2374C68.1087 32.2374 68.9755 31.3706 68.9755 30.3014C68.9755 29.2321 68.1087 28.3654 67.0395 28.3654C65.9703 28.3654 65.1035 29.2321 65.1035 30.3014C65.1035 31.3706 65.9703 32.2374 67.0395 32.2374Z" fill="white"/>
<path d="M62.8633 38.6373C63.7239 38.5844 64.5867 38.5757 65.4483 38.6113C65.8583 38.6353 66.2603 38.6193 66.6763 38.6313C67.0963 38.6393 67.5103 38.6123 67.9993 38.6373C67.6635 38.972 67.2606 39.2318 66.8171 39.3995C66.3736 39.5673 65.8996 39.6391 65.4263 39.6103C64.961 39.5967 64.5005 39.5114 64.0613 39.3573C63.6131 39.21 63.2037 38.964 62.8633 38.6373Z" fill="white"/>
<path d="M66.9914 46.1133C60.3964 46.1133 55.0314 39.6973 55.0314 31.8103C55.0314 26.4493 57.5074 21.5873 61.4944 19.1223L62.0324 18.7903L62.2324 19.3913C62.2609 19.4648 62.2993 19.5341 62.3464 19.5973C67.4141 25.0145 72.773 30.1518 78.3994 34.9863L78.6364 35.1803L78.5704 35.4803C77.1864 41.7403 72.4244 46.1133 66.9914 46.1133ZM61.5884 20.2543C58.1484 22.6163 56.0304 26.9913 56.0304 31.8103C56.0304 39.1453 60.9474 45.1133 66.9914 45.1133C71.8674 45.1133 76.1614 41.2013 77.5254 35.5603C71.952 30.7373 66.6325 25.6284 61.5884 20.2543ZM20.2754 42.9003C20.1059 40.9146 20.5195 38.9225 21.4654 37.1683C22.4206 35.4213 23.638 33.8312 25.0754 32.4533C26.4958 31.0725 28.0429 29.8284 29.6964 28.7373C31.3317 27.6332 33.0262 26.6193 34.7724 25.7003C36.5258 24.8032 38.3178 23.9837 40.1434 23.2443C41.0544 22.8633 41.9874 22.5443 42.8604 22.1643C43.7394 21.7773 44.6034 21.3543 45.4424 20.8843C47.1224 19.9335 48.6703 18.7662 50.0464 17.4123C51.4606 16.0735 52.6432 14.5096 53.5464 12.7843C51.9582 16.4403 49.2611 19.5047 45.8364 21.5443C44.1403 22.5598 42.3508 23.4103 40.4924 24.0843C38.7042 24.8423 36.9496 25.6771 35.2334 26.5863C31.7598 28.3034 28.5229 30.4627 25.6034 33.0103C24.1517 34.2793 22.9006 35.7608 21.8924 37.4043C20.8565 39.052 20.2968 40.9542 20.2754 42.9003Z" fill="#333333"/>
<path d="M69.7866 33.4324C70.2339 33.4324 70.5966 33.0697 70.5966 32.6224C70.5966 32.175 70.2339 31.8124 69.7866 31.8124C69.3392 31.8124 68.9766 32.175 68.9766 32.6224C68.9766 33.0697 69.3392 33.4324 69.7866 33.4324Z" fill="white"/>
<path d="M91.6169 49.6483C91.4489 48.6353 94.8499 43.9714 95.5419 42.3714C97.6269 37.5454 90.0149 44.2513 90.0149 44.2513C89.8679 44.3554 89.6995 44.4251 89.522 44.4554C89.3445 44.4857 89.1625 44.4758 88.9894 44.4264C88.8162 44.3769 88.6564 44.2893 88.5217 44.1699C88.3869 44.0504 88.2807 43.9023 88.2109 43.7363C86.9109 40.7057 85.4942 37.729 83.9609 34.8063C83.875 34.6456 83.7415 34.5153 83.5786 34.4336C83.4157 34.3518 83.2315 34.3225 83.0513 34.3496C82.871 34.3768 82.7037 34.4592 82.5721 34.5854C82.4406 34.7116 82.3514 34.8754 82.3168 35.0543C82.2045 35.8502 82.2245 36.659 82.3759 37.4483L83.2559 43.0253C83.2559 43.0253 79.7339 36.6623 77.5909 33.7283C77.4108 33.4238 77.1422 33.1813 76.8209 33.0333C76.5143 32.9733 76.1963 33.0339 75.9333 33.2025C75.6702 33.3711 75.4824 33.6347 75.4089 33.9383C75.2857 34.5536 75.3292 35.1906 75.5349 35.7833L78.0569 45.8163L73.1938 39.3434C72.8524 38.7888 72.3612 38.342 71.7769 38.0543C71.6301 37.9905 71.472 37.9569 71.312 37.9554C71.152 37.954 70.9934 37.9847 70.8455 38.0458C70.6976 38.1069 70.5635 38.1972 70.4512 38.3112C70.339 38.4252 70.2507 38.5606 70.1918 38.7093C70.1484 39.0909 70.2328 39.476 70.4319 39.8043L74.9059 49.3603L69.4079 45.0873C68.6119 44.4683 67.3499 43.8913 66.7329 44.6893C65.3439 46.4873 74.6799 53.8323 77.2869 58.5093C78.3309 60.3833 79.6248 65.2083 82.2198 71.0053C82.6423 71.9318 83.3547 72.6956 84.2495 73.1816C85.1442 73.6676 86.1728 73.8493 87.1799 73.6994C88.9439 73.4484 97.9159 71.3453 98.9369 67.0613C99.8299 63.3113 92.9989 57.9743 91.6169 49.6483Z" fill="#FDD39D"/>
<path d="M43.8644 9.46971C44.1999 8.76574 43.7585 7.85509 42.8785 7.43573C41.9986 7.01637 41.0133 7.24709 40.6778 7.95106C40.3423 8.65503 40.7837 9.56567 41.6636 9.98503C42.5436 10.4044 43.5289 10.1737 43.8644 9.46971Z" fill="white"/>
<path d="M42.057 74.3388C42.4734 73.6794 42.1428 72.7229 41.3185 72.2025C40.4943 71.682 39.4887 71.7946 39.0723 72.4539C38.6559 73.1133 38.9865 74.0698 39.8107 74.5902C40.6349 75.1107 41.6406 74.9981 42.057 74.3388Z" fill="white"/>
<path d="M11.2924 16.7093C11.122 16.7093 10.9545 16.6656 10.8057 16.5826C10.6569 16.4996 10.5318 16.3799 10.4422 16.2349C10.3527 16.09 10.3016 15.9246 10.294 15.7543C10.2863 15.5841 10.3223 15.4148 10.3984 15.2623C10.4834 15.0943 19.0184 -1.48666 36.6744 5.78534C36.9198 5.88639 37.1149 6.08075 37.2169 6.32568C37.3189 6.5706 37.3195 6.84602 37.2184 7.09134C37.1174 7.33667 36.923 7.5318 36.6781 7.63382C36.4332 7.73584 36.1578 7.73639 35.9124 7.63534C19.9944 1.08034 12.4984 15.5393 12.1874 16.1583C12.104 16.3241 11.9761 16.4635 11.8181 16.5608C11.66 16.6581 11.478 16.7095 11.2924 16.7093ZM35.7924 71.2093C35.6226 71.2096 35.4556 71.1662 35.3074 71.0833C17.2574 61.0553 10.6814 48.9603 10.4104 48.4513C10.2911 48.2178 10.2684 47.9467 10.347 47.6966C10.4257 47.4464 10.5995 47.2371 10.8309 47.1138C11.0624 46.9906 11.333 46.9631 11.5845 47.0375C11.836 47.1119 12.0482 47.282 12.1754 47.5113C12.2404 47.6313 18.7834 59.6163 36.2794 69.3353C36.4731 69.443 36.6256 69.612 36.7128 69.8157C36.8 70.0194 36.8171 70.2464 36.7614 70.4609C36.7056 70.6753 36.5802 70.8652 36.4048 71.0007C36.2295 71.1362 36.014 71.2096 35.7924 71.2093Z" fill="white"/>
<path d="M12.8904 49.6483C13.0584 48.6353 9.65742 43.9714 8.96542 42.3714C6.88042 37.5454 14.4924 44.2513 14.4924 44.2513C14.6394 44.3554 14.8078 44.4251 14.9853 44.4554C15.1627 44.4857 15.3448 44.4758 15.5179 44.4264C15.691 44.3769 15.8509 44.2893 15.9856 44.1699C16.1203 44.0504 16.2266 43.9023 16.2964 43.7363C17.5964 40.7057 19.0131 37.729 20.5464 34.8063C20.6323 34.6456 20.7658 34.5153 20.9287 34.4336C21.0916 34.3518 21.2758 34.3225 21.456 34.3496C21.6362 34.3768 21.8036 34.4592 21.9351 34.5854C22.0666 34.7116 22.1558 34.8754 22.1904 35.0543C22.3027 35.8502 22.2828 36.659 22.1314 37.4483L21.2514 43.0253C21.2514 43.0253 24.7734 36.6623 26.9164 33.7283C27.0965 33.4238 27.3651 33.1813 27.6864 33.0333C27.993 32.9733 28.311 33.0339 28.574 33.2025C28.8371 33.3711 29.0249 33.6347 29.0984 33.9383C29.2216 34.5536 29.1781 35.1906 28.9724 35.7833L26.4504 45.8163L31.3134 39.3434C31.6549 38.7888 32.1461 38.342 32.7304 38.0543C32.8772 37.9905 33.0352 37.9569 33.1952 37.9554C33.3552 37.954 33.5139 37.9847 33.6618 38.0458C33.8097 38.1069 33.9437 38.1972 34.056 38.3112C34.1683 38.4252 34.2565 38.5606 34.3154 38.7093C34.3589 39.0909 34.2744 39.476 34.0754 39.8043L29.6014 49.3603L35.0994 45.0873C35.8954 44.4683 37.1574 43.8913 37.7734 44.6893C39.1634 46.4873 29.8274 53.8323 27.2204 58.5093C26.1764 60.3833 24.8824 65.2083 22.2874 71.0053C21.8649 71.9319 21.1524 72.6959 20.2574 73.1819C19.3625 73.6679 18.3337 73.8495 17.3264 73.6994C15.5634 73.4484 6.59142 71.3453 5.57042 67.0613C4.67742 63.3113 11.5084 57.9743 12.8904 49.6483Z" fill="#FDD39D"/>
</svg>
