<svg width="31" height="30" viewBox="0 0 31 30" fill="none" xmlns="http://www.w3.org/2000/svg">
<g clip-path="url(#clip0_225_10288)">
<path d="M30 15C30 6.71578 23.2842 0 15 0C6.71578 0 0 6.71578 0 15C0 22.4869 5.48531 28.6925 12.6562 29.8178V19.3359H8.84766V15H12.6562V11.6953C12.6562 7.93594 14.8957 5.85938 18.322 5.85938C19.9631 5.85938 21.6797 6.15234 21.6797 6.15234V9.84375H19.7883C17.9249 9.84375 17.3438 11 17.3438 12.1863V15H21.5039L20.8389 19.3359H17.3438V29.8178C24.5147 28.6925 30 22.487 30 15Z" fill="#1877F2"/>
<path d="M20.9912 19.3359L21.6562 15H17.4961V12.1863C17.4961 10.9999 18.0772 9.84375 19.9406 9.84375H21.832V6.15234C21.832 6.15234 20.1155 5.85938 18.4743 5.85938C15.048 5.85938 12.8086 7.93594 12.8086 11.6953V15H9V19.3359H12.8086V29.8178C13.5839 29.9393 14.3675 30.0002 15.1523 30C15.9371 30.0002 16.7208 29.9393 17.4961 29.8178V19.3359H20.9912Z" fill="white"/>
</g>
<defs>
<clipPath id="clip0_225_10288">
<rect width="30" height="30" fill="white" transform="translate(0.375)"/>
</clipPath>
</defs>
</svg>
