<svg width="32" height="33" viewBox="0 0 32 33" fill="none" xmlns="http://www.w3.org/2000/svg">
<g filter="url(#filter0_d_1709_28266)">
<path fill-rule="evenodd" clip-rule="evenodd" d="M16.2223 24.9456C16.1484 24.9468 16.0743 24.9473 16 24.9473C9.37258 24.9473 4 20.2581 4 14.4737C4 8.68922 9.37258 4 16 4C22.6274 4 28 8.68922 28 14.4737C28 15.9366 27.6564 17.3294 27.0357 18.5941C26.203 20.3821 24.9178 21.9777 23.5237 23.3542C21.3995 25.4516 18.9418 27.0349 17.1916 27.9272C16.7287 28.1632 16.2223 27.7936 16.2223 27.2789V24.9456ZM11.8857 15.0154C11.8857 16.0127 11.1182 16.8212 10.1714 16.8212C9.22465 16.8212 8.45714 16.0127 8.45714 15.0154C8.45714 14.0181 9.22465 13.2096 10.1714 13.2096C11.1182 13.2096 11.8857 14.0181 11.8857 15.0154ZM16 16.8212C16.9468 16.8212 17.7143 16.0127 17.7143 15.0154C17.7143 14.0181 16.9468 13.2096 16 13.2096C15.0532 13.2096 14.2857 14.0181 14.2857 15.0154C14.2857 16.0127 15.0532 16.8212 16 16.8212ZM23.5429 15.0154C23.5429 16.0127 22.7753 16.8212 21.8286 16.8212C20.8818 16.8212 20.1143 16.0127 20.1143 15.0154C20.1143 14.0181 20.8818 13.2096 21.8286 13.2096C22.7753 13.2096 23.5429 14.0181 23.5429 15.0154Z" fill="white"/>
<path fill-rule="evenodd" clip-rule="evenodd" d="M16 24.9473C22.6274 24.9473 28 20.2581 28 14.4737C28 8.68922 22.6274 4 16 4C9.37258 4 4 8.68922 4 14.4737C4 20.2581 9.37258 24.9473 16 24.9473ZM10.1714 16.8212C11.1182 16.8212 11.8857 16.0127 11.8857 15.0154C11.8857 14.0181 11.1182 13.2096 10.1714 13.2096C9.22465 13.2096 8.45714 14.0181 8.45714 15.0154C8.45714 16.0127 9.22465 16.8212 10.1714 16.8212ZM17.7143 15.0154C17.7143 16.0127 16.9468 16.8212 16 16.8212C15.0532 16.8212 14.2857 16.0127 14.2857 15.0154C14.2857 14.0181 15.0532 13.2096 16 13.2096C16.9468 13.2096 17.7143 14.0181 17.7143 15.0154ZM21.8286 16.8212C22.7753 16.8212 23.5429 16.0127 23.5429 15.0154C23.5429 14.0181 22.7753 13.2096 21.8286 13.2096C20.8818 13.2096 20.1143 14.0181 20.1143 15.0154C20.1143 16.0127 20.8818 16.8212 21.8286 16.8212Z" fill="white"/>
</g>
<defs>
<filter id="filter0_d_1709_28266" x="0.202899" y="0.516159" width="31.5942" height="31.5942" filterUnits="userSpaceOnUse" color-interpolation-filters="sRGB">
<feFlood flood-opacity="0" result="BackgroundImageFix"/>
<feColorMatrix in="SourceAlpha" type="matrix" values="0 0 0 0 0 0 0 0 0 0 0 0 0 0 0 0 0 0 127 0" result="hardAlpha"/>
<feOffset dy="0.313261"/>
<feGaussianBlur stdDeviation="1.89855"/>
<feColorMatrix type="matrix" values="0 0 0 0 0 0 0 0 0 0 0 0 0 0 0 0 0 0 0.1 0"/>
<feBlend mode="normal" in2="BackgroundImageFix" result="effect1_dropShadow_1709_28266"/>
<feBlend mode="normal" in="SourceGraphic" in2="effect1_dropShadow_1709_28266" result="shape"/>
</filter>
</defs>
</svg>
