<svg width="223" height="222" viewBox="0 0 223 222" fill="none" xmlns="http://www.w3.org/2000/svg">
<g clip-path="url(#clip0_1708_25253)">
<rect x="0.5" width="222" height="222" rx="111" fill="white" fill-opacity="0.05"/>
<g clip-path="url(#clip1_1708_25253)">
<path fill-rule="evenodd" clip-rule="evenodd" d="M92.3993 161.883C89.8803 159.197 71.862 146.628 68.467 145.188C65.5304 144.006 61.8415 143.459 59.7558 146.426C57.9172 149.354 57.8205 153.019 59.0112 156.211C60.3548 160.607 62.8223 164.512 66.1135 167.595C67.8775 169.224 69.8687 170.604 72.0746 171.754C76.1024 173.776 80.6306 174.75 85.2379 174.515C88.6545 174.528 92.0785 173.184 94.211 170.461C96.2967 167.494 94.5184 164.228 92.3993 161.883ZM173.604 90.2841C172.921 75.4258 164.44 60.842 152.136 52.2589L151.607 51.8899C139.562 43.4873 123.486 40.5436 109.388 44.498C99.82 47.2788 92.784 52.0293 85.8177 61.9407L84.0532 64.4512C78.8514 71.8521 73.9513 74.9348 65.962 76.8533C60.0905 78.2767 55.6969 82.2965 52.0719 87.454C48.4511 92.6056 46.7187 98.6852 47.3318 105.03C48.4366 112.894 52.5851 120.317 58.6335 125.323C67.1852 132.863 76.2 139.744 85.6295 146.322C95.0531 152.895 104.82 158.718 114.67 164.412C121.454 168.358 129.875 169.703 137.676 168.052C143.871 166.456 149.007 162.75 152.628 157.599C156.253 152.441 158.547 146.957 157.876 140.97C157.088 132.929 158.191 127.197 163.393 119.796L165.157 117.285C171.94 107.635 174.081 99.8771 173.604 90.2841ZM155.201 78.3687C156.571 76.7894 158.916 76.6002 160.472 77.9267C165.295 82.305 166.859 89.3293 164.35 95.4111L164.148 95.9321C163.303 97.7234 161.212 98.5584 159.398 97.8974C158.47 97.425 157.718 96.6283 157.394 95.6418C157.069 94.6554 157.142 93.5685 157.614 92.5988L157.666 92.4631C158.852 89.4028 158.044 85.8981 155.645 83.7387C154.058 82.3598 153.875 79.9654 155.201 78.3687Z" fill="#2A92F4"/>
<path d="M41.8373 49.8569C41.789 49.8569 41.7412 49.8473 41.6966 49.8287C41.652 49.8102 41.6115 49.7829 41.5774 49.7486C41.5433 49.7143 41.5162 49.6735 41.4978 49.6287C41.4793 49.5838 41.4698 49.5358 41.4699 49.4872V39.0583C41.4684 39.0088 41.4769 38.9596 41.4947 38.9135C41.5125 38.8674 41.5394 38.8254 41.5736 38.7899C41.6079 38.7544 41.6489 38.7262 41.6943 38.7069C41.7396 38.6877 41.7883 38.6777 41.8375 38.6777C41.8867 38.6777 41.9354 38.6877 41.9807 38.7069C42.026 38.7262 42.067 38.7544 42.1013 38.7899C42.1356 38.8254 42.1624 38.8674 42.1803 38.9135C42.1981 38.9596 42.2065 39.0088 42.2051 39.0583V49.4872C42.2051 49.5358 42.1956 49.5839 42.1772 49.6287C42.1587 49.6736 42.1316 49.7144 42.0974 49.7487C42.0633 49.783 42.0227 49.8103 41.9781 49.8288C41.9335 49.8474 41.8856 49.8569 41.8373 49.8569Z" fill="#2A92F4"/>
<path d="M45.2226 44.6427H38.4522C38.3547 44.6427 38.2612 44.6037 38.1922 44.5344C38.1232 44.4651 38.0845 44.371 38.0845 44.273C38.0845 44.1749 38.1232 44.0809 38.1922 44.0116C38.2612 43.9423 38.3547 43.9033 38.4522 43.9033H45.2226C45.3201 43.9033 45.4136 43.9423 45.4826 44.0116C45.5516 44.0809 45.5903 44.1749 45.5903 44.273C45.5903 44.371 45.5516 44.4651 45.4826 44.5344C45.4136 44.6037 45.3201 44.6427 45.2226 44.6427Z" fill="#2A92F4"/>
<path d="M1.16835 168.674H-5.60198C-5.69951 168.674 -5.79305 168.635 -5.86202 168.566C-5.93098 168.496 -5.96973 168.402 -5.96973 168.304C-5.96973 168.206 -5.93098 168.112 -5.86202 168.043C-5.79305 167.974 -5.69951 167.935 -5.60198 167.935H1.16835C1.26588 167.935 1.35942 167.974 1.42839 168.043C1.49736 168.112 1.5361 168.206 1.5361 168.304C1.5361 168.402 1.49736 168.496 1.42839 168.566C1.35942 168.635 1.26588 168.674 1.16835 168.674Z" fill="#2A92F4"/>
<path d="M216.991 92.9723C216.893 92.9723 216.8 92.9334 216.731 92.8641C216.662 92.7947 216.623 92.7007 216.623 92.6027V76.7388C216.623 76.6408 216.662 76.5467 216.731 76.4774C216.8 76.4081 216.893 76.3691 216.991 76.3691C217.088 76.3691 217.182 76.4081 217.251 76.4774C217.32 76.5467 217.359 76.6408 217.359 76.7388V92.6027C217.358 92.7007 217.32 92.7947 217.251 92.864C217.182 92.9333 217.088 92.9723 216.991 92.9723Z" fill="#2A92F4"/>
<path d="M222.141 85.0401H211.842C211.745 85.0401 211.651 85.0012 211.582 84.9318C211.513 84.8625 211.475 84.7685 211.475 84.6705C211.475 84.5724 211.513 84.4784 211.582 84.4091C211.651 84.3397 211.745 84.3008 211.842 84.3008H222.141C222.239 84.3008 222.332 84.3397 222.401 84.4091C222.47 84.4784 222.509 84.5724 222.509 84.6705C222.509 84.7685 222.47 84.8625 222.401 84.9318C222.332 85.0012 222.239 85.0401 222.141 85.0401Z" fill="#2A92F4"/>
<path d="M27.1754 136.216C27.0778 136.216 26.9843 136.177 26.9153 136.107C26.8464 136.038 26.8076 135.944 26.8076 135.846V119.982C26.8076 119.884 26.8464 119.79 26.9153 119.721C26.9843 119.651 27.0778 119.612 27.1754 119.612C27.2729 119.612 27.3664 119.651 27.4354 119.721C27.5044 119.79 27.5431 119.884 27.5431 119.982V135.846C27.543 135.944 27.5043 136.038 27.4353 136.107C27.3664 136.176 27.2729 136.215 27.1754 136.216Z" fill="#2A92F4"/>
<path d="M32.3258 128.283H22.0269C21.9294 128.283 21.8358 128.244 21.7669 128.175C21.6979 128.106 21.6592 128.012 21.6592 127.914C21.6592 127.816 21.6979 127.722 21.7669 127.652C21.8358 127.583 21.9294 127.544 22.0269 127.544H32.3258C32.4233 127.544 32.5169 127.583 32.5858 127.652C32.6548 127.722 32.6935 127.816 32.6935 127.914C32.6935 128.012 32.6548 128.106 32.5858 128.175C32.5169 128.244 32.4233 128.283 32.3258 128.283Z" fill="#2A92F4"/>
<path d="M42.599 200.981C42.5014 200.981 42.4079 200.942 42.3389 200.873C42.2699 200.804 42.2312 200.709 42.2312 200.611V184.748C42.2312 184.65 42.2699 184.556 42.3389 184.486C42.4079 184.417 42.5014 184.378 42.599 184.378C42.6965 184.378 42.79 184.417 42.859 184.486C42.9279 184.556 42.9667 184.65 42.9667 184.748V200.611C42.9666 200.709 42.9279 200.803 42.8589 200.873C42.79 200.942 42.6965 200.981 42.599 200.981Z" fill="#2A92F4"/>
<path d="M47.7494 193.049H37.4505C37.353 193.049 37.2594 193.01 37.1905 192.941C37.1215 192.871 37.0828 192.777 37.0828 192.679C37.0828 192.581 37.1215 192.487 37.1905 192.418C37.2594 192.349 37.353 192.31 37.4505 192.31H47.7494C47.8469 192.31 47.9405 192.349 48.0094 192.418C48.0784 192.487 48.1171 192.581 48.1171 192.679C48.1171 192.777 48.0784 192.871 48.0094 192.941C47.9405 193.01 47.8469 193.049 47.7494 193.049Z" fill="#2A92F4"/>
<path d="M195.862 165.706C195.765 165.706 195.671 165.667 195.602 165.597C195.533 165.528 195.495 165.434 195.495 165.336V149.472C195.495 149.374 195.533 149.28 195.602 149.211C195.671 149.141 195.765 149.103 195.862 149.103C195.96 149.103 196.053 149.141 196.122 149.211C196.191 149.28 196.23 149.374 196.23 149.472V165.336C196.23 165.434 196.191 165.528 196.122 165.597C196.053 165.667 195.96 165.706 195.862 165.706Z" fill="#2A92F4"/>
<path d="M201.013 157.774H190.714C190.616 157.774 190.523 157.735 190.454 157.665C190.385 157.596 190.346 157.502 190.346 157.404C190.346 157.306 190.385 157.212 190.454 157.142C190.523 157.073 190.616 157.034 190.714 157.034H201.013C201.11 157.034 201.204 157.073 201.273 157.142C201.342 157.212 201.381 157.306 201.381 157.404C201.381 157.502 201.342 157.596 201.273 157.665C201.204 157.735 201.11 157.774 201.013 157.774Z" fill="#2A92F4"/>
<path d="M137.763 200.981C137.665 200.981 137.572 200.942 137.503 200.873C137.434 200.804 137.395 200.709 137.395 200.611V184.748C137.395 184.65 137.434 184.556 137.503 184.486C137.572 184.417 137.665 184.378 137.763 184.378C137.86 184.378 137.954 184.417 138.023 184.486C138.092 184.556 138.131 184.65 138.131 184.748V200.611C138.13 200.709 138.092 200.803 138.023 200.873C137.954 200.942 137.86 200.981 137.763 200.981Z" fill="#2A92F4"/>
<path d="M142.913 193.049H132.614C132.517 193.049 132.423 193.01 132.354 192.941C132.285 192.871 132.247 192.777 132.247 192.679C132.247 192.581 132.285 192.487 132.354 192.418C132.423 192.349 132.517 192.31 132.614 192.31H142.913C143.011 192.31 143.104 192.349 143.173 192.418C143.242 192.487 143.281 192.581 143.281 192.679C143.281 192.777 143.242 192.871 143.173 192.941C143.104 193.01 143.011 193.049 142.913 193.049Z" fill="#2A92F4"/>
</g>
</g>
<defs>
<clipPath id="clip0_1708_25253">
<rect x="0.5" width="222" height="222" rx="111" fill="white"/>
</clipPath>
<clipPath id="clip1_1708_25253">
<rect width="256" height="188" fill="white" transform="translate(-11 17)"/>
</clipPath>
</defs>
</svg>
