<svg width="32" height="32" viewBox="0 0 32 32" fill="none" xmlns="http://www.w3.org/2000/svg">
<path d="M4.09996 7.93262C4.09996 7.93262 2.48746 8.06012 2.27246 8.42262C2.05496 8.78512 2.04246 9.34262 2.04246 9.95512C2.04246 10.5701 2.01746 11.9801 2.01746 11.9801L2.40246 12.8076C2.40246 12.8076 2.47496 23.3551 2.47496 23.6826C2.47496 24.0076 2.47496 24.4051 2.94496 24.6576C3.41496 24.9101 15.36 30.6801 15.7325 30.8351C16.295 31.0676 16.5625 30.9801 16.5625 30.9801L29.835 8.78262C29.835 8.78262 29.7925 8.17512 29.24 8.03012C28.9225 7.95012 4.09996 7.93262 4.09996 7.93262Z" fill="#F5B03E"/>
<path d="M16.42 15.2298C16.2175 15.7873 16.31 21.5523 16.345 25.7448C16.38 29.9348 16.2375 30.8023 16.345 30.9473C16.4525 31.0923 16.745 30.9523 17.5725 30.5848C19.11 29.9048 26.495 26.2498 27.0375 25.9248C27.58 25.5998 28.905 24.9273 29.1225 24.5648C29.34 24.2023 29.4575 20.8298 29.53 18.1223C29.6025 15.4123 29.675 13.2448 29.675 13.2448L30 12.2698C30 12.2698 29.93 9.63481 29.9175 9.34481C29.895 8.86481 29.8425 8.61731 29.72 8.67731C29.545 8.75981 28.085 9.95731 24.22 11.8373C21.7925 13.0148 16.56 14.8448 16.42 15.2298Z" fill="#E07F14"/>
<path d="M16.4549 2.80234C15.3724 2.75234 12.4099 4.46484 9.55494 5.40234C6.69994 6.33984 2.38994 8.22484 2.35244 8.33484C2.31744 8.44234 4.08744 9.23484 5.21744 9.77734C6.55994 10.4198 11.6849 12.8473 12.6224 13.2448C13.5624 13.6423 15.8024 14.5723 16.1624 14.5448C16.6674 14.5098 21.4374 12.6298 23.8574 11.4748C26.2774 10.3198 29.3024 8.52984 29.3424 8.09484C29.3599 7.89984 24.8924 6.23234 22.6649 5.22484C18.3649 3.27734 17.2474 2.83984 16.4549 2.80234Z" fill="#FDD717"/>
<path d="M2.03001 12.4426C2.06751 12.9126 2.32501 13.0801 2.98001 13.3651C3.63501 13.6501 16.0175 20.0826 16.3025 20.0826C16.5875 20.0826 16.6725 19.0626 16.36 19.0901C16.19 19.1051 12.1225 17.1726 8.32251 15.2426C5.09751 13.6076 2.01001 11.9751 2.01001 11.9751L2.03001 12.4426Z" fill="#E37D14"/>
<path d="M30.0025 12.2476C30.0025 12.2476 16.78 18.9726 16.65 19.0376C16.52 19.1026 16.3125 19.0801 16.3125 19.0801L16.3025 20.0826C16.3025 20.0826 16.425 20.1101 16.5625 20.0676C16.6425 20.0426 29.62 13.3251 29.6775 13.3051C29.735 13.2851 29.985 13.1351 30.0375 12.8176C30.0825 12.5626 30.0025 12.2476 30.0025 12.2476Z" fill="#BA5E0D"/>
<path d="M7.21503 24.3552L9.80253 28.2052L10.935 28.5927C10.935 28.5927 11.0275 24.3927 11.065 21.2802C11.1175 16.7327 11.0975 12.5852 11.1625 12.3502C11.27 11.9527 16.3025 10.3202 16.3025 10.3202C16.3025 10.3202 21.9875 12.1027 22.1675 12.5002C22.2475 12.6752 22.185 15.6202 22.1675 19.0527C22.145 23.3877 22.1525 28.3927 22.1525 28.3927C22.1525 28.3927 22.74 28.3902 22.81 28.1727C22.8825 27.9552 23.1725 26.2777 23.1725 26.2777L25.3775 11.5802L26.4975 10.1352L24.9425 7.17516L18.5625 4.03516L16.37 4.52766L13.9975 4.16516L6.47253 9.57266L7.35003 11.3527L9.50253 12.4502L7.21503 24.3552Z" fill="#AF0F1B"/>
<path d="M22.82 12.3476C22.6825 12.6501 22.7625 28.2376 22.7625 28.2376C22.7625 28.2376 23.45 27.8576 24.335 27.4326C25.215 27.0101 25.8475 26.7476 25.9025 26.5276C25.9575 26.3076 26.055 10.8926 26.055 10.8926L22.82 12.3476Z" fill="#DC0D28"/>
<path d="M10.3375 12.025C10.42 12.115 10.285 28.29 10.1175 28.3275C9.98503 28.36 6.97253 27.015 6.97253 26.8775C6.97253 26.74 7.21503 11.2825 7.21503 11.2825C7.21503 11.2825 10.0925 11.75 10.3375 12.025ZM16.3075 3.5625C15.475 3.5625 14.555 3.8 14.2875 4.4975C14.02 5.195 13.96 6.2325 13.96 7.0075C13.96 7.75 13.84 9.65 16.1275 9.62C18.415 9.59 18.4825 8.7425 18.5175 6.8725C18.5475 5.3125 18.34 4.555 18.1325 4.23C17.9475 3.9375 17.3325 3.5625 16.3075 3.5625Z" fill="#FF2A23"/>
<path d="M14.985 7.42265C15.505 7.45265 15.7275 6.31015 16.1275 5.68515C16.5275 5.06265 16.945 4.64515 16.795 4.32015C16.6725 4.05015 15.585 3.96265 14.9975 4.78015C14.585 5.35765 14.5125 7.39515 14.985 7.42265Z" fill="#FCC9D2"/>
<path d="M18.3325 4.10503C18.3325 4.10503 19.07 4.85503 19.2625 6.32503C19.455 7.79503 19.2325 8.93753 19.2325 8.93753C19.2325 8.93753 22.8975 8.82753 24.1625 9.07003C25.41 9.31253 25.845 9.86253 25.845 10.2625C25.845 10.6625 25.025 10.985 24.1925 10.925C23.36 10.865 22.7975 10.82 22.6925 11.03C22.5875 11.24 22.7375 11.565 23.895 11.6525C25.0525 11.7425 26.39 11.5775 26.805 10.1375C27.22 8.69753 27.235 6.20253 27.0875 4.40503C26.94 2.60753 26.615 1.58003 25.81 1.19003C24.9625 0.782527 22.84 0.715027 20.835 1.84253C18.83 2.97003 18.3325 4.10503 18.3325 4.10503Z" fill="#FF2A23"/>
<path d="M22.485 2.39497C22.225 2.05997 21.3875 2.06997 20.94 2.58747C20.465 3.13747 20.36 5.22997 20.97 5.34997C21.66 5.48497 21.535 4.35497 22.04 3.65747C22.535 2.97497 22.7375 2.72247 22.485 2.39497Z" fill="#FCC9D2"/>
<path d="M14.095 4.17766C14.095 4.17766 11.2875 0.905157 8.08004 0.955157C6.15004 0.985157 5.66004 2.09766 5.55504 2.55766C5.45004 3.01766 4.65004 7.59266 5.71754 10.0702C6.78504 12.5477 9.00004 11.9052 9.34754 11.8252C9.79254 11.7202 10.74 11.3952 10.65 11.0527C10.56 10.7102 7.41254 11.9427 7.38254 10.5327C7.35254 9.12266 9.61004 8.97266 10.65 8.94266C11.69 8.91266 13.4725 9.15016 13.4725 9.15016C13.4725 9.15016 13.16 7.44266 13.3675 6.22516C13.575 5.00766 14.095 4.17766 14.095 4.17766Z" fill="#FF2A23"/>
<path d="M7.22001 2.14259C6.82001 2.55759 6.65501 4.95009 6.90751 6.13759C7.16001 7.32509 7.38251 7.83009 7.90251 7.72759C8.33751 7.64009 8.60001 5.31009 8.80751 4.49009C9.03001 3.61509 9.58001 2.68509 9.35751 2.27759C9.01751 1.65259 7.63751 1.71009 7.22001 2.14259Z" fill="#FCC9D2"/>
</svg>
