<svg width="25" height="24" viewBox="0 0 25 24" fill="none" xmlns="http://www.w3.org/2000/svg">
<path fill-rule="evenodd" clip-rule="evenodd" d="M2.75 6C2.75 5.80109 2.82902 5.61032 2.96967 5.46967C3.11032 5.32902 3.30109 5.25 3.5 5.25H21.5C21.6989 5.25 21.8897 5.32902 22.0303 5.46967C22.171 5.61032 22.25 5.80109 22.25 6C22.25 6.19891 22.171 6.38968 22.0303 6.53033C21.8897 6.67098 21.6989 6.75 21.5 6.75H3.5C3.30109 6.75 3.11032 6.67098 2.96967 6.53033C2.82902 6.38968 2.75 6.19891 2.75 6ZM2.75 10C2.75 9.80109 2.82902 9.61032 2.96967 9.46967C3.11032 9.32902 3.30109 9.25 3.5 9.25H21.5C21.6989 9.25 21.8897 9.32902 22.0303 9.46967C22.171 9.61032 22.25 9.80109 22.25 10C22.25 10.1989 22.171 10.3897 22.0303 10.5303C21.8897 10.671 21.6989 10.75 21.5 10.75H3.5C3.30109 10.75 3.11032 10.671 2.96967 10.5303C2.82902 10.3897 2.75 10.1989 2.75 10ZM2.75 14C2.75 13.8011 2.82902 13.6103 2.96967 13.4697C3.11032 13.329 3.30109 13.25 3.5 13.25H11.5C11.6989 13.25 11.8897 13.329 12.0303 13.4697C12.171 13.6103 12.25 13.8011 12.25 14C12.25 14.1989 12.171 14.3897 12.0303 14.5303C11.8897 14.671 11.6989 14.75 11.5 14.75H3.5C3.30109 14.75 3.11032 14.671 2.96967 14.5303C2.82902 14.3897 2.75 14.1989 2.75 14ZM2.75 18C2.75 17.8011 2.82902 17.6103 2.96967 17.4697C3.11032 17.329 3.30109 17.25 3.5 17.25H11.5C11.6989 17.25 11.8897 17.329 12.0303 17.4697C12.171 17.6103 12.25 17.8011 12.25 18C12.25 18.1989 12.171 18.3897 12.0303 18.5303C11.8897 18.671 11.6989 18.75 11.5 18.75H3.5C3.30109 18.75 3.11032 18.671 2.96967 18.5303C2.82902 18.3897 2.75 18.1989 2.75 18Z" fill="#2A92F4"/>
<path d="M19.375 14.1181C21.029 15.0731 21.855 15.5511 21.977 16.2391C22.0074 16.4114 22.0074 16.5878 21.977 16.7601C21.856 17.4501 21.029 17.9271 19.375 18.8821C17.721 19.8371 16.895 20.3141 16.237 20.0751C16.0727 20.0154 15.92 19.9274 15.786 19.8151C15.25 19.3651 15.25 18.4101 15.25 16.5001C15.25 14.5901 15.25 13.6361 15.786 13.1861C15.92 13.0731 16.073 12.9861 16.237 12.9261C16.894 12.6861 17.721 13.1641 19.375 14.1181Z" fill="#2A92F4"/>
</svg>
