<svg width="18" height="18" viewBox="0 0 18 18" fill="none" xmlns="http://www.w3.org/2000/svg">
<path d="M13.1175 7.20001L4.2 12.5775C3.675 12.8925 3 12.5175 3 11.9025V5.90251C3 3.28501 5.8275 1.65001 8.1 2.95501L11.5425 4.93501L13.11 5.83501C13.6275 6.14251 13.635 6.89251 13.1175 7.20001Z" fill="white"/>
<path d="M13.5676 11.595L10.5301 13.35L7.5001 15.0975C6.4126 15.72 5.1826 15.5925 4.2901 14.9625C3.8551 14.6625 3.9076 13.995 4.3651 13.725L13.8976 8.01001C14.3476 7.74001 14.9401 7.99501 15.0226 8.51251C15.2101 9.67501 14.7301 10.9275 13.5676 11.595Z" fill="white"/>
</svg>
