<svg width="25" height="20" viewBox="0 0 25 20" fill="none" xmlns="http://www.w3.org/2000/svg">
<path d="M4.17131 0.832275C4.17066 0.832275 4.16993 0.832275 4.16929 0.832275C3.9423 0.832275 3.7288 0.92076 3.56759 1.08157C3.4046 1.24416 3.31482 1.46064 3.31482 1.69111V14.5691C3.31482 15.0414 3.70052 15.4265 4.1747 15.4277C6.17374 15.4325 9.52292 15.8491 11.8334 18.267V4.78978C11.8334 4.6297 11.7925 4.47932 11.7153 4.35487C9.819 1.30096 6.17487 0.836962 4.17131 0.832275Z" fill="white"/>
<path d="M21.6852 14.5692V1.69111C21.6852 1.46064 21.5955 1.24416 21.4325 1.08157C21.2713 0.92076 21.0576 0.832275 20.8309 0.832275C20.8301 0.832275 20.8294 0.832275 20.8288 0.832275C18.8253 0.837043 15.1811 1.30104 13.2847 4.35495C13.2076 4.4794 13.1667 4.62978 13.1667 4.78986V18.267C15.4772 15.8491 18.8264 15.4325 20.8254 15.4277C21.2995 15.4265 21.6852 15.0414 21.6852 14.5692Z" fill="white"/>
<path d="M23.6416 3.80225H23.0189V14.5692C23.0189 15.775 22.0365 16.7582 20.8289 16.7612C19.1333 16.7652 16.3375 17.0968 14.3574 18.9708C17.7819 18.1323 21.392 18.6774 23.4493 19.1462C23.7062 19.2047 23.9717 19.1443 24.1775 18.9802C24.3826 18.8166 24.5002 18.572 24.5002 18.3094V4.66092C24.5003 4.18746 24.115 3.80225 23.6416 3.80225Z" fill="white"/>
<path d="M1.98138 14.5692V3.80225H1.35867C0.885294 3.80225 0.5 4.18746 0.5 4.66092V18.3092C0.5 18.5718 0.617657 18.8164 0.822749 18.98C1.02841 19.144 1.29362 19.2046 1.55091 19.146C3.60829 18.677 7.21841 18.1321 10.6427 18.9705C8.66278 17.0966 5.86697 16.7651 4.17137 16.7611C2.96385 16.7582 1.98138 15.775 1.98138 14.5692Z" fill="white"/>
</svg>
