<svg width="13" height="16" viewBox="0 0 13 16" fill="none" xmlns="http://www.w3.org/2000/svg">
<path fill-rule="evenodd" clip-rule="evenodd" d="M10.2087 0.6875C9.85205 0.687381 9.49975 0.765515 9.17661 0.916392C8.85348 1.06727 8.56739 1.28721 8.33852 1.56071C8.10966 1.8342 7.94359 2.15458 7.85204 2.49925C7.76049 2.84392 7.74569 3.20448 7.80867 3.5555L4.26117 6.0395L4.21017 6.07925C3.85027 5.79791 3.41856 5.62337 2.96426 5.57553C2.50996 5.52769 2.05136 5.60847 1.64075 5.80867C1.23014 6.00887 0.884053 6.32043 0.641953 6.70781C0.399853 7.09519 0.271484 7.54281 0.271484 7.99963C0.271484 8.45644 0.399853 8.90406 0.641953 9.29144C0.884053 9.67882 1.23014 9.99038 1.64075 10.1906C2.05136 10.3908 2.50996 10.4716 2.96426 10.4237C3.41856 10.3759 3.85027 10.2013 4.21017 9.92L4.26117 9.9605L7.80867 12.4445C7.78367 12.5845 7.77117 12.728 7.77117 12.875C7.77127 13.4529 7.97666 14.0119 8.3507 14.4524C8.72474 14.8928 9.24311 15.1861 9.81331 15.2798C10.3835 15.3735 10.9685 15.2616 11.4638 14.9641C11.9592 14.6665 12.3327 14.2027 12.5178 13.6552C12.7029 13.1078 12.6874 12.5124 12.4742 11.9753C12.261 11.4382 11.864 10.9944 11.3539 10.7229C10.8437 10.4514 10.2538 10.3699 9.68918 10.4931C9.1246 10.6163 8.62213 10.936 8.27142 11.3953L4.91217 9.0425C5.06217 8.726 5.14617 8.37275 5.14617 7.99925C5.14617 7.62575 5.06217 7.27175 4.91217 6.956L8.27217 4.604C8.52377 4.9336 8.8553 5.19357 9.23539 5.35931C9.61547 5.52505 10.0316 5.59109 10.4443 5.55118C10.857 5.51127 11.2527 5.36673 11.594 5.13124C11.9353 4.89574 12.2109 4.57707 12.3947 4.20537C12.5785 3.83366 12.6644 3.42122 12.6443 3.00705C12.6243 2.59289 12.4989 2.19068 12.28 1.83849C12.0612 1.48629 11.7561 1.19575 11.3936 0.994345C11.0312 0.792939 10.6233 0.687328 10.2087 0.6875ZM8.89617 3.125C8.89617 2.7769 9.03445 2.44306 9.28059 2.19692C9.52674 1.95078 9.86058 1.8125 10.2087 1.8125C10.5568 1.8125 10.8906 1.95078 11.1367 2.19692C11.3829 2.44306 11.5212 2.7769 11.5212 3.125C11.5212 3.4731 11.3829 3.80694 11.1367 4.05308C10.8906 4.29922 10.5568 4.4375 10.2087 4.4375C9.86058 4.4375 9.52674 4.29922 9.28059 4.05308C9.03445 3.80694 8.89617 3.4731 8.89617 3.125ZM2.70867 6.6875C2.36058 6.6875 2.02674 6.82578 1.78059 7.07192C1.53445 7.31806 1.39617 7.6519 1.39617 8C1.39617 8.3481 1.53445 8.68194 1.78059 8.92808C2.02674 9.17422 2.36058 9.3125 2.70867 9.3125C3.05677 9.3125 3.39061 9.17422 3.63675 8.92808C3.88289 8.68194 4.02117 8.3481 4.02117 8C4.02117 7.6519 3.88289 7.31806 3.63675 7.07192C3.39061 6.82578 3.05677 6.6875 2.70867 6.6875ZM10.2087 11.5625C9.86058 11.5625 9.52674 11.7008 9.28059 11.9469C9.03445 12.1931 8.89617 12.5269 8.89617 12.875C8.89617 13.2231 9.03445 13.5569 9.28059 13.8031C9.52674 14.0492 9.86058 14.1875 10.2087 14.1875C10.5568 14.1875 10.8906 14.0492 11.1367 13.8031C11.3829 13.5569 11.5212 13.2231 11.5212 12.875C11.5212 12.5269 11.3829 12.1931 11.1367 11.9469C10.8906 11.7008 10.5568 11.5625 10.2087 11.5625Z" fill="white"/>
</svg>
