<svg width="122" height="188" viewBox="0 0 122 188" fill="none" xmlns="http://www.w3.org/2000/svg">
<rect x="0.244019" y="11.8896" width="121.442" height="175.294" fill="url(#paint0_linear_2489_12717)"/>
<path d="M17.8991 0.688477H104.013L121.677 12.0897H0.234741L17.8991 0.688477Z" fill="#2163A1" fill-opacity="0.3"/>
<path d="M65.2324 12.3403C64.2283 13.3228 56.4189 30.3835 56.4189 30.3835L50.6083 56.1844L73.2185 53.9021C73.2185 53.9021 92.0263 15.4004 92.4075 14.51C93.0861 12.893 93.4487 12.2277 90.8549 12.2277C88.261 12.2175 66.1714 11.4192 65.2324 12.3403V12.3403Z" fill="white" fill-opacity="0.4"/>
<path d="M76.9376 52.3041C75.8127 51.6388 42.6783 51.0657 41.8974 52.3041C41.1908 53.4298 41.293 58.5777 41.637 59.243C41.981 59.9082 53.1188 65.6088 53.1188 65.6088L53.1095 67.6863C53.1095 67.6863 53.7231 69.3136 59.9335 69.3136C66.1438 69.3136 66.7853 67.932 66.7853 67.932L66.8411 65.8339C66.8411 65.8339 76.5936 60.4711 77.105 60.0003C77.6256 59.5193 78.0626 52.9693 76.9376 52.3041V52.3041ZM66.7296 60.8293C66.7296 60.8293 66.7017 59.3965 66.0602 59.0383C65.4187 58.6801 55.0898 58.7415 54.2158 58.7927C53.3419 58.8438 53.3419 60.5632 53.3419 60.5632L46.2762 56.7765V56.0191L72.5866 56.2238L72.6331 57.0835L66.7296 60.8293V60.8293Z" fill="#FCC417"/>
<path d="M56.0926 60.3682C55.2189 60.3682 54.717 61.3711 54.717 63.1007C54.717 64.7178 55.2189 66.0789 56.325 65.9766C57.2358 65.8947 57.5518 64.3596 57.4682 62.9984C57.3845 61.3814 57.1986 60.3682 56.0926 60.3682V60.3682Z" fill="#FDFFFF"/>
<path d="M27.9429 100.846C27.9429 125.367 48.0801 136.287 61.4678 135.765C76.2313 135.182 93.9142 122.512 92.845 99.116C91.8317 76.9483 74.8926 66.4376 60.222 66.5502C43.1713 66.6833 27.9429 79.4251 27.9429 100.846V100.846Z" fill="#FCC417"/>
<path d="M60.9924 131.499C60.76 131.499 60.5182 131.499 60.2858 131.489C53.3131 131.233 46.424 127.999 41.3851 122.626C35.9928 116.875 33.0364 109.096 33.0736 100.735C33.1573 80.3174 49.3712 70.8506 60.3695 70.8506H60.4625C75.3655 70.9222 87.6003 83.6743 87.9443 100.96C88.0931 108.656 85.2296 116.731 79.6142 122.811C74.3707 128.47 67.4166 131.499 60.9924 131.499ZM60.3509 74.2484C50.4868 74.2484 35.8999 83.1318 35.8627 100.735C35.8348 113.896 45.0946 127.426 60.5182 127.999C66.3939 128.204 72.4463 125.727 77.3365 120.436C82.4126 114.94 85.2668 107.858 85.1645 101.001C84.9414 86.1305 73.8966 74.2996 60.4904 74.2382C60.4532 74.2382 60.3788 74.2484 60.3509 74.2484Z" fill="#FA912C"/>
<path d="M54.7543 70.0317C54.1128 69.0594 46.8426 69.2436 39.9721 76.6329C33.3434 83.7662 32.6275 90.4902 33.9012 90.8791C35.3422 91.3192 37.0994 84.1961 43.1703 78.209C48.7485 72.7233 56.0373 71.966 54.7543 70.0317V70.0317ZM82.8777 96.508C80.6371 96.856 82.9613 104.245 77.7643 112.515C73.2553 119.689 68.142 122.288 68.737 123.865C69.5365 125.973 77.7271 120.723 81.5203 112.167C84.9602 104.419 84.5511 96.2419 82.8777 96.508V96.508Z" fill="#FEFFFA"/>
<path d="M52.923 86.8251C52.4395 87.6131 52.8765 94.5213 53.1647 94.8284C53.7225 95.4424 57.9619 93.242 57.9619 93.242L57.8039 111.715C57.8039 111.715 54.6894 111.674 54.364 111.807C53.7225 112.073 53.8062 119.196 54.2803 119.544C54.7545 119.892 67.4634 120.077 67.9469 119.37C68.4303 118.664 68.3094 112.431 68.0863 112.145C67.6866 111.613 64.6464 111.828 64.6464 111.828C64.6464 111.828 64.9068 84.6247 64.8231 83.7548C64.7394 82.8849 63.8655 82.3424 62.8242 82.6085C61.783 82.8746 53.2298 86.3134 52.923 86.8251V86.8251Z" fill="white"/>
<path d="M24.7162 11.808C24.1305 12.4016 46.5269 56.3071 46.5269 56.3071C46.5269 56.3071 50.2829 56.8393 58.6688 56.9212C67.0547 57.003 71.2104 56.389 71.2104 56.389C71.2104 56.389 53.7972 12.2481 52.7559 11.808C52.2446 11.5829 45.3462 11.501 38.6059 11.4191C31.8563 11.327 25.2741 11.2349 24.7162 11.808V11.808Z" fill="white"/>
<defs>
<linearGradient id="paint0_linear_2489_12717" x1="0.244019" y1="99.5365" x2="158.083" y2="99.9496" gradientUnits="userSpaceOnUse">
<stop stop-color="#64B4FF"/>
<stop offset="1" stop-color="#1D5488"/>
</linearGradient>
</defs>
</svg>
