<svg width="111" height="122" viewBox="0 0 111 122" fill="none" xmlns="http://www.w3.org/2000/svg">
<rect x="0.942017" y="11.3105" width="109.688" height="109.772" fill="url(#paint0_linear_2489_12668)"/>
<path d="M1.00085 0.599609H93.8531L109.658 11.3091H1.00085L1.00085 0.599609Z" fill="#2163A1" fill-opacity="0.3"/>
<path d="M59.8843 12.0937C59.0037 12.891 52.1544 26.7359 52.1544 26.7359L47.0582 47.6735L66.8886 45.8214C66.8886 45.8214 83.3839 14.5769 83.7183 13.8544C84.3135 12.5421 84.6315 12.0023 82.3566 12.0023C80.0816 11.994 60.7079 11.3462 59.8843 12.0937V12.0937Z" fill="white" fill-opacity="0.4"/>
<path d="M70.1503 44.5265C69.1636 43.9866 40.1031 43.5215 39.4181 44.5265C38.7984 45.44 39.1491 50.2322 39.3855 50.8052C39.8095 51.8019 49.1947 56.1455 49.1947 56.1455L49.0153 58.1222C49.0153 58.1222 49.7818 58.3215 55.2367 58.3215C60.6917 58.3215 61.768 58.0391 61.768 58.0391L61.7843 56.2535C61.7843 56.2535 70.2318 52.0676 70.6558 51.4863C71.0146 51.0046 71.1369 45.0663 70.1503 44.5265ZM61.499 52.1009C61.499 52.1009 61.768 50.88 61.2054 50.5976C60.6428 50.3069 50.9885 50.4398 50.2221 50.4813C49.4556 50.5229 49.4556 51.9181 49.4556 51.9181L43.3728 48.7289L43.2586 47.5413L66.3342 47.7074L66.2527 48.8286L61.499 52.1009V52.1009Z" fill="#F79429"/>
<path d="M51.8683 51.6685C51.1021 51.6685 50.6619 52.4824 50.6619 53.886C50.6619 55.1982 51.1021 56.3028 52.0721 56.2198C52.8709 56.1533 53.1481 54.9075 53.0747 53.8029C53.0014 52.4824 52.8383 51.6685 51.8683 51.6685V51.6685Z" fill="#FDFFFF"/>
<path d="M27.4475 85.0545C27.4475 104.954 45.1497 113.234 56.8995 112.877C70.5899 112.462 85.3159 101.881 84.101 82.8952C82.9594 65.0803 68.2334 56.9079 55.3665 56.9993C40.4122 57.1156 27.4475 67.6716 27.4475 85.0545V85.0545Z" fill="#F79429"/>
<path d="M56.2793 109.874C56.0754 109.874 55.8634 109.874 55.6596 109.866C49.5441 109.658 43.5021 107.033 39.0826 102.673C34.3534 98.0056 31.7604 91.6936 31.793 84.9082C31.8664 68.3391 46.0869 60.6567 55.733 60.6567H55.8145C68.8852 60.7149 79.6158 71.0633 79.9175 85.0909C80.048 91.3365 78.091 97.5488 73.166 102.482C68.5672 107.067 61.9136 109.874 56.2793 109.874V109.874ZM55.7166 63.4141C47.0653 63.4141 34.2718 70.6231 34.2392 84.9082C34.2147 95.5888 42.3361 106.568 55.8634 107.033C61.0167 107.2 66.8304 105.256 71.1113 100.971C75.5633 96.5106 77.561 90.6969 77.4713 85.1324C77.2756 73.0648 67.5888 63.4639 55.8308 63.4141C55.8063 63.3975 55.7411 63.4141 55.7166 63.4141Z" fill="#D25116"/>
<path d="M50.9145 59.6253C50.3519 58.8363 44.5871 59.0605 38.3819 64.5005C32.2176 69.9072 31.2962 75.8871 32.4051 76.2027C33.6689 76.5598 35.21 70.7793 40.5346 65.9207C45.4269 61.4774 52.0316 61.195 50.9145 59.6253V59.6253ZM75.6943 81.3602C73.7292 81.6426 75.7677 87.639 71.2096 94.3497C67.255 100.172 62.7703 102.281 63.2921 103.56C63.9934 105.271 71.177 101.011 74.5038 94.0673C77.5126 87.7802 77.1538 81.1443 75.6943 81.3602Z" fill="#FEFFFA"/>
<path d="M24.3489 11.6618C23.8352 12.1435 43.478 47.7731 43.478 47.7731C43.478 47.7731 46.7722 48.205 54.127 48.2714C61.4819 48.3379 65.1267 47.8396 65.1267 47.8396C65.1267 47.8396 49.8544 12.0189 48.9411 11.6618C48.4927 11.479 42.4425 11.4126 36.5309 11.3462C30.6111 11.2714 24.8381 11.1967 24.3489 11.6618V11.6618Z" fill="white"/>
<path d="M64.662 78.097C63.7162 69.7501 54.1761 69.0525 50.2214 72.2583C46.3728 75.3811 46.7397 79.7331 49.4386 80.2397C51.5668 80.6384 52.1213 78.9192 52.741 78.1302C54.1435 76.3612 56.3776 76.195 57.8372 77.6152C59.4924 79.2348 58.4732 83.105 55.9862 83.2628C54.1353 83.3791 53.1976 83.2794 52.9611 83.6034C52.6268 84.0601 52.6757 87.6563 53.0182 88.055C53.4096 88.5118 54.9752 88.2294 56.3205 88.2792C58.1715 88.354 60.1366 91.1446 58.8401 93.2375C57.4947 95.4052 53.9151 94.4335 52.6268 93.1212C50.9227 91.3854 49.2185 92.382 48.6477 93.0631C47.7508 94.1428 46.7968 96.6011 50.1073 98.9931C53.4096 101.385 63.4308 101.842 65.4529 94.4334C67.2142 87.9636 63.1046 85.3059 63.1046 85.3059C63.1046 85.3059 65.2002 82.8559 64.662 78.097V78.097Z" fill="white"/>
<defs>
<linearGradient id="paint0_linear_2489_12668" x1="0.942017" y1="66.1968" x2="143.502" y2="66.735" gradientUnits="userSpaceOnUse">
<stop stop-color="#1A7BD7"/>
<stop offset="1" stop-color="#0A3A67"/>
</linearGradient>
</defs>
</svg>
