<svg width="343" height="188" viewBox="0 0 343 188" fill="none" xmlns="http://www.w3.org/2000/svg">
<rect x="0.901611" y="46.4229" width="112.72" height="141.054" fill="url(#paint0_linear_3219_11341)"/>
<path d="M16.2725 32.6611H113.622V46.4225H0.901611L16.2725 32.6611Z" fill="#2163A1" fill-opacity="0.3"/>
<path d="M63.3116 46.7672C62.3219 47.6657 54.6244 63.2675 54.6244 63.2675L48.8971 86.8621L71.1833 84.775C71.1833 84.775 89.7215 49.5656 90.0972 48.7514C90.7661 47.2726 91.1235 46.6643 88.5668 46.6643C86.0102 46.6549 64.2372 45.9249 63.3116 46.7672Z" fill="white" fill-opacity="0.4"/>
<path d="M74.8486 83.3144C73.7398 82.7061 41.0803 82.182 40.3106 83.3144C39.6141 84.344 40.0082 89.7442 40.2739 90.39C40.7504 91.5131 51.2979 96.408 51.2979 96.408L51.0963 98.6355C51.0963 98.6355 51.9576 98.8601 58.0882 98.8601C64.2187 98.8601 65.4283 98.5419 65.4283 98.5419L65.4466 96.5297C65.4466 96.5297 74.9403 91.8126 75.4168 91.1575C75.82 90.6146 75.9574 83.9228 74.8486 83.3144ZM65.1259 91.8501C65.1259 91.8501 65.4283 90.4742 64.796 90.156C64.1637 89.8285 53.3139 89.9782 52.4525 90.025C51.5911 90.0718 51.5911 91.6441 51.5911 91.6441L44.6267 87.4044V86.7118L70.56 86.899L70.6058 87.6852L65.1259 91.8501Z" fill="#CECDD2"/>
<path d="M54.3037 90.689C53.4424 90.689 52.9475 91.6062 52.9475 93.1879C52.9475 94.6666 53.4424 95.9114 54.5328 95.8178C55.4309 95.7429 55.7424 94.3391 55.66 93.0943C55.5775 91.6155 55.3942 90.689 54.3037 90.689Z" fill="#FDFFFF"/>
<path d="M26.5466 128.802C26.5466 151.226 46.7526 160.745 59.9576 160.342C75.3435 159.874 91.5816 147.951 90.5277 126.555C89.5289 106.283 72.6951 97.2705 58.2348 97.3734C41.4285 97.5045 26.5466 109.213 26.5466 128.802Z" fill="#CECDD2"/>
<path d="M59.1331 156.166C58.904 156.166 58.6658 156.166 58.4367 156.157C51.5639 155.923 44.7736 152.965 39.8068 148.052C34.4919 142.792 31.5778 135.679 31.6145 128.033C31.697 109.361 47.6785 100.704 58.5192 100.704H58.6108C73.3003 100.769 85.3597 112.431 85.6988 128.238C85.8454 135.277 83.023 142.661 77.4881 148.22C72.3197 153.396 65.4653 156.166 59.1331 156.166ZM58.5008 103.811C48.7781 103.811 34.4002 111.935 34.3636 128.033C34.3361 140.068 43.4632 152.441 58.6658 152.965C64.4573 153.153 70.4228 150.888 75.243 146.049C80.2464 141.023 83.0596 134.547 82.9588 128.276C82.7206 114.677 71.8341 103.858 58.62 103.792C58.6016 103.792 58.5283 103.811 58.5008 103.811Z" fill="#9B9B9D"/>
<path d="M53.2309 100.331C52.5986 99.4415 46.1198 99.6941 39.1462 105.824C32.2185 111.917 31.183 118.656 32.4292 119.012C33.8496 119.414 35.5815 112.9 41.5655 107.425C47.0637 102.418 54.4863 102.099 53.2309 100.331ZM80.5296 124.899C78.3211 125.217 80.6121 131.974 75.4896 139.536C71.0452 146.097 66.0051 148.474 66.5916 149.916C67.3797 151.844 75.4529 147.042 79.1917 139.218C82.5731 132.143 82.1699 124.665 80.5296 124.899Z" fill="#FEFFFA"/>
<path d="M23.3766 46.2797C22.7993 46.8225 44.8747 86.9735 44.8747 86.9735C44.8747 86.9735 48.5768 87.4602 56.8425 87.5351C65.1082 87.61 69.2044 87.0484 69.2044 87.0484C69.2044 87.0484 52.0407 46.6821 51.0144 46.2797C50.5104 46.0738 43.7109 45.9989 37.0672 45.924C30.4143 45.8398 23.9264 45.7555 23.3766 46.2797Z" fill="white"/>
<path d="M52.0954 123.616C53.0484 123.625 53.9006 122.305 54.6887 121.501C56.3657 119.778 58.1251 118.412 60.132 120.265C65.062 124.842 55.1652 129.484 51.4081 135.829C48.604 140.565 48.0358 144.206 48.8148 145.179C49.5937 146.153 68.5534 146.106 68.81 145.619C69.0666 145.133 69.3323 138.647 68.8925 138.338C68.4526 138.029 59.1331 138.207 59.1331 138.207C59.1331 138.207 59.912 136.354 63.1102 133.527C66.6199 130.429 69.4331 126.171 68.6817 121.136C67.1239 110.728 56.8605 110.344 52.4161 113.966C48.0817 117.495 49.0164 123.578 52.0954 123.616Z" fill="white"/>
<rect x="234.209" y="77.3105" width="108.362" height="109.772" fill="url(#paint1_linear_3219_11341)"/>
<path d="M234.268 66.5996H326.868L342.63 77.3091H234.268L234.268 66.5996Z" fill="#2163A1" fill-opacity="0.3"/>
<path d="M292.991 78.0937C292.113 78.891 285.282 92.7359 285.282 92.7359L280.2 113.673L299.977 111.821C299.977 111.821 316.427 80.5769 316.761 79.8544C317.354 78.5421 317.671 78.0023 315.403 78.0023C313.134 77.994 293.813 77.3462 292.991 78.0937Z" fill="white" fill-opacity="0.4"/>
<path d="M303.229 110.526C302.245 109.987 273.264 109.522 272.581 110.526C271.963 111.44 272.312 116.232 272.548 116.805C272.971 117.802 282.331 122.146 282.331 122.146L282.152 124.122C282.152 124.122 282.916 124.322 288.356 124.322C293.796 124.322 294.87 124.039 294.87 124.039L294.886 122.254C294.886 122.254 303.311 118.068 303.733 117.486C304.091 117.005 304.213 111.066 303.229 110.526ZM294.601 118.101C294.601 118.101 294.87 116.88 294.309 116.598C293.748 116.307 284.12 116.44 283.355 116.481C282.591 116.523 282.591 117.918 282.591 117.918L276.524 114.729L276.411 113.541L299.424 113.707L299.342 114.829L294.601 118.101Z" fill="#F79429"/>
<path d="M284.997 117.668C284.233 117.668 283.794 118.482 283.794 119.886C283.794 121.198 284.233 122.303 285.201 122.22C285.997 122.153 286.274 120.908 286.201 119.803C286.128 118.482 285.965 117.668 284.997 117.668Z" fill="#FDFFFF"/>
<path d="M260.642 151.055C260.642 170.954 278.296 179.234 290.014 178.877C303.668 178.462 318.354 167.881 317.142 148.895C316.004 131.08 301.318 122.908 288.486 122.999C273.572 123.116 260.642 133.672 260.642 151.055Z" fill="#F79429"/>
<path d="M289.396 175.874C289.193 175.874 288.981 175.874 288.778 175.866C282.679 175.658 276.653 173.033 272.246 168.673C267.529 164.006 264.943 157.694 264.976 150.908C265.049 134.339 279.231 126.657 288.851 126.657H288.932C301.968 126.715 312.669 137.063 312.97 151.091C313.1 157.336 311.148 163.549 306.237 168.482C301.65 173.067 295.015 175.874 289.396 175.874ZM288.835 129.414C280.207 129.414 267.448 136.623 267.416 150.908C267.391 161.589 275.49 172.568 288.981 173.033C294.12 173.2 299.918 171.256 304.188 166.971C308.628 162.511 310.62 156.697 310.53 151.132C310.335 139.065 300.675 129.464 288.949 129.414C288.924 129.397 288.859 129.414 288.835 129.414Z" fill="#D25116"/>
<path d="M284.046 125.625C283.485 124.836 277.735 125.061 271.547 130.501C265.399 135.907 264.481 141.887 265.586 142.203C266.847 142.56 268.384 136.779 273.694 131.921C278.573 127.477 285.16 127.195 284.046 125.625ZM308.758 147.36C306.798 147.643 308.831 153.639 304.286 160.35C300.342 166.172 295.869 168.281 296.39 169.56C297.089 171.271 304.253 167.011 307.571 160.067C310.572 153.78 310.214 147.144 308.758 147.36Z" fill="#FEFFFA"/>
<path d="M257.552 77.6618C257.04 78.1435 276.629 113.773 276.629 113.773C276.629 113.773 279.915 114.205 287.249 114.271C294.584 114.338 298.219 113.84 298.219 113.84C298.219 113.84 282.988 78.0189 282.078 77.6618C281.63 77.479 275.597 77.4126 269.701 77.3462C263.797 77.2714 258.04 77.1967 257.552 77.6618Z" fill="white"/>
<path d="M297.756 144.097C296.813 135.75 287.298 135.053 283.354 138.258C279.516 141.381 279.882 145.733 282.574 146.24C284.696 146.638 285.249 144.919 285.867 144.13C287.266 142.361 289.494 142.195 290.95 143.615C292.6 145.235 291.584 149.105 289.104 149.263C287.258 149.379 286.323 149.279 286.087 149.603C285.753 150.06 285.802 153.656 286.144 154.055C286.534 154.512 288.095 154.229 289.437 154.279C291.283 154.354 293.243 157.145 291.95 159.237C290.608 161.405 287.038 160.433 285.753 159.121C284.054 157.385 282.354 158.382 281.785 159.063C280.89 160.143 279.939 162.601 283.241 164.993C286.534 167.385 296.528 167.842 298.545 160.433C300.301 153.964 296.203 151.306 296.203 151.306C296.203 151.306 298.293 148.856 297.756 144.097Z" fill="white"/>
<rect x="113.743" y="11.8896" width="120.769" height="175.294" fill="url(#paint2_linear_3219_11341)"/>
<path d="M131.3 0.688477H216.937L234.503 12.0897H113.734L131.3 0.688477Z" fill="#2163A1" fill-opacity="0.3"/>
<path d="M180.067 12.4862C178.987 13.4664 170.59 30.4862 170.59 30.4862L164.342 56.2253L188.654 53.9485C188.654 53.9485 208.877 15.539 209.287 14.6507C210.017 13.0376 210.407 12.3739 207.618 12.3739C204.829 12.3637 181.077 11.5673 180.067 12.4862Z" fill="white" fill-opacity="0.4"/>
<path d="M192.653 52.3541C191.444 51.6904 155.815 51.1187 154.976 52.3541C154.216 53.4772 154.326 58.6127 154.696 59.2764C155.066 59.94 167.042 65.6269 167.042 65.6269L167.032 67.6995C167.032 67.6995 167.691 69.3229 174.369 69.3229C181.047 69.3229 181.737 67.9446 181.737 67.9446L181.797 65.8515C181.797 65.8515 192.283 60.5016 192.833 60.0319C193.393 59.552 193.863 53.0177 192.653 52.3541ZM181.677 60.8589C181.677 60.8589 181.647 59.4295 180.957 59.0722C180.267 58.7148 169.161 58.7761 168.221 58.8271C167.282 58.8782 167.282 60.5934 167.282 60.5934L159.684 56.8158V56.0603L187.975 56.2645L188.025 57.1221L181.677 60.8589Z" fill="#FCC417"/>
<path d="M170.24 60.3989C169.3 60.3989 168.76 61.3995 168.76 63.125C168.76 64.7381 169.3 66.096 170.49 65.9939C171.469 65.9123 171.809 64.3808 171.719 63.0229C171.629 61.4097 171.429 60.3989 170.24 60.3989Z" fill="#FDFFFF"/>
<path d="M139.971 100.78C139.971 125.242 161.624 136.136 176.019 135.616C191.894 135.034 210.908 122.394 209.758 99.0542C208.668 76.9396 190.454 66.454 174.679 66.5663C156.345 66.6991 139.971 79.4104 139.971 100.78Z" fill="#FCC417"/>
<path d="M175.508 131.36C175.258 131.36 174.998 131.36 174.748 131.35C167.251 131.095 159.843 127.868 154.425 122.508C148.627 116.77 145.448 109.011 145.488 100.669C145.578 80.3006 163.012 70.8564 174.838 70.8564H174.938C190.963 70.9279 204.118 83.6494 204.488 100.894C204.648 108.572 201.569 116.627 195.531 122.692C189.893 128.338 182.416 131.36 175.508 131.36ZM174.818 74.2461C164.212 74.2461 148.527 83.1083 148.487 100.669C148.457 113.799 158.413 127.297 174.998 127.868C181.316 128.073 187.824 125.602 193.082 120.323C198.54 114.841 201.609 107.775 201.499 100.935C201.259 86.0998 189.383 74.2972 174.968 74.2359C174.928 74.2359 174.848 74.2461 174.818 74.2461Z" fill="#FA912C"/>
<path d="M168.8 70.0395C168.11 69.0695 160.293 69.2533 152.905 76.6248C145.778 83.7411 145.008 90.449 146.378 90.837C147.927 91.276 149.816 84.17 156.344 78.1972C162.342 72.7247 170.18 71.9691 168.8 70.0395ZM199.04 96.4524C196.631 96.7996 199.13 104.171 193.542 112.421C188.694 119.578 183.196 122.171 183.835 123.743C184.695 125.847 193.502 120.609 197.581 112.074C201.28 104.345 200.84 96.187 199.04 96.4524Z" fill="#FEFFFA"/>
<path d="M166.831 86.7929C166.311 87.579 166.781 94.4707 167.091 94.777C167.691 95.3896 172.249 93.1945 172.249 93.1945L172.079 111.623C172.079 111.623 168.73 111.582 168.38 111.715C167.691 111.981 167.781 119.087 168.29 119.434C168.8 119.781 182.466 119.965 182.986 119.26C183.506 118.556 183.376 112.338 183.136 112.052C182.706 111.521 179.437 111.736 179.437 111.736C179.437 111.736 179.717 84.5977 179.627 83.7299C179.537 82.8621 178.597 82.3209 177.477 82.5864C176.358 82.8518 167.161 86.2824 166.831 86.7929Z" fill="white"/>
<path d="M136.501 11.9549C135.871 12.5471 159.954 56.3474 159.954 56.3474C159.954 56.3474 163.992 56.8784 173.009 56.96C182.026 57.0417 186.495 56.4291 186.495 56.4291C186.495 56.4291 167.771 12.3939 166.651 11.9549C166.102 11.7303 158.684 11.6486 151.436 11.5669C144.179 11.475 137.101 11.3831 136.501 11.9549Z" fill="white"/>
<defs>
<linearGradient id="paint0_linear_3219_11341" x1="0.901611" y1="116.95" x2="147.403" y2="117.392" gradientUnits="userSpaceOnUse">
<stop stop-color="#1A7BD7"/>
<stop offset="1" stop-color="#0A3A67"/>
</linearGradient>
<linearGradient id="paint1_linear_3219_11341" x1="234.209" y1="132.197" x2="375.046" y2="132.722" gradientUnits="userSpaceOnUse">
<stop stop-color="#1A7BD7"/>
<stop offset="1" stop-color="#0A3A67"/>
</linearGradient>
<linearGradient id="paint2_linear_3219_11341" x1="113.743" y1="99.5365" x2="270.707" y2="99.945" gradientUnits="userSpaceOnUse">
<stop stop-color="#64B4FF"/>
<stop offset="1" stop-color="#1D5488"/>
</linearGradient>
</defs>
</svg>
