<svg width="114" height="156" viewBox="0 0 114 156" fill="none" xmlns="http://www.w3.org/2000/svg">
<rect y="14.4229" width="113.027" height="141.054" fill="url(#paint0_linear_2489_12636)"/>
<path d="M15.4127 0.661133H113.027V14.4225H0L15.4127 0.661133Z" fill="#2163A1" fill-opacity="0.3"/>
<path d="M60.2818 14.9764C59.3395 15.8764 52.0104 31.5045 52.0104 31.5045L46.5571 55.1389L67.7767 53.0483C67.7767 53.0483 85.4277 17.7795 85.7855 16.9639C86.4224 15.4827 86.7627 14.8733 84.3284 14.8733C81.894 14.8639 61.163 14.1327 60.2818 14.9764V14.9764Z" fill="white" fill-opacity="0.4"/>
<path d="M71.2666 51.5851C70.2109 50.9757 39.1144 50.4507 38.3815 51.5851C37.7183 52.6164 38.0935 58.0257 38.3466 58.6726C38.8003 59.7976 48.8429 64.7007 48.8429 64.7007L48.651 66.932C48.651 66.932 49.4711 67.157 55.3083 67.157C61.1454 67.157 62.2971 66.8382 62.2971 66.8382L62.3146 64.8226C62.3146 64.8226 71.3539 60.0976 71.8076 59.4414C72.1915 58.8976 72.3223 52.1945 71.2666 51.5851ZM62.0092 60.1351C62.0092 60.1351 62.2971 58.757 61.6951 58.4382C61.0931 58.1101 50.7625 58.2601 49.9423 58.307C49.1221 58.3539 49.1221 59.9289 49.1221 59.9289L42.491 55.682V54.9882L67.1832 55.1757L67.2268 55.9632L62.0092 60.1351Z" fill="#CECDD2"/>
<path d="M51.705 58.9722C50.8849 58.9722 50.4137 59.8909 50.4137 61.4753C50.4137 62.9565 50.8849 64.2034 51.9231 64.1097C52.7782 64.0347 53.0749 62.6284 52.9963 61.3815C52.9178 59.9003 52.7433 58.9722 51.705 58.9722V58.9722Z" fill="#FDFFFF"/>
<path d="M25.2762 97.1491C25.2762 119.612 44.5152 129.146 57.0882 128.743C71.7377 128.274 87.1987 116.33 86.1953 94.8991C85.2443 74.5929 69.2162 65.5647 55.4479 65.6679C39.4459 65.7991 25.2762 77.5272 25.2762 97.1491Z" fill="#CECDD2"/>
<path d="M56.3032 124.56C56.0851 124.56 55.8582 124.56 55.6401 124.55C49.0962 124.316 42.6309 121.353 37.9018 116.432C32.8412 111.163 30.0666 104.038 30.1015 96.3784C30.18 77.6753 45.3967 69.0034 55.7186 69.0034H55.8059C69.7923 69.069 81.2746 80.7503 81.5974 96.5847C81.737 103.635 79.0497 111.032 73.7797 116.6C68.8587 121.785 62.3323 124.56 56.3032 124.56V124.56ZM55.7012 72.1159C46.4438 72.1159 32.754 80.2534 32.7191 96.3784C32.6929 108.435 41.3832 120.828 55.8582 121.353C61.3725 121.541 67.0526 119.272 71.642 114.425C76.406 109.391 79.0846 102.903 78.9886 96.6222C78.7618 83.0003 68.3963 72.1628 55.8146 72.0972C55.7971 72.0972 55.7273 72.1159 55.7012 72.1159V72.1159Z" fill="#9B9B9D"/>
<path d="M50.6835 68.63C50.0814 67.7394 43.9128 67.9925 37.2729 74.1332C30.6767 80.2363 29.6907 86.9863 30.8774 87.3425C32.2298 87.7457 33.8788 81.2207 39.5763 75.7363C44.8114 70.7207 51.8788 70.4019 50.6835 68.63V68.63ZM76.6757 93.2394C74.573 93.5582 76.7543 100.327 71.8769 107.902C67.6452 114.474 62.8464 116.855 63.4048 118.299C64.1551 120.23 71.842 115.421 75.4019 107.583C78.6215 100.496 78.2375 93.005 76.6757 93.2394V93.2394Z" fill="#FEFFFA"/>
<path d="M22.2579 14.4879C21.7082 15.0316 42.7271 55.2504 42.7271 55.2504C42.7271 55.2504 46.2521 55.7379 54.1222 55.8129C61.9923 55.8879 65.8924 55.3254 65.8924 55.3254C65.8924 55.3254 49.5502 14.891 48.573 14.4879C48.0931 14.2816 41.619 14.2066 35.2933 14.1316C28.9588 14.0473 22.7814 13.9629 22.2579 14.4879V14.4879Z" fill="white"/>
<path d="M49.6023 91.9543C50.5097 91.9637 51.3212 90.6418 52.0715 89.8356C53.6682 88.1106 55.3435 86.7418 57.2543 88.5981C61.9484 93.1825 52.5252 97.8325 48.9479 104.189C46.278 108.932 45.7371 112.579 46.4787 113.554C47.2203 114.529 65.2727 114.482 65.517 113.995C65.7613 113.507 66.0143 107.011 65.5955 106.701C65.1767 106.392 56.3032 106.57 56.3032 106.57C56.3032 106.57 57.0449 104.714 60.09 101.882C63.4317 98.7793 66.1103 94.5137 65.3948 89.47C63.9116 79.045 54.1394 78.6606 49.9077 82.2887C45.7807 85.8231 46.6706 91.9168 49.6023 91.9543V91.9543Z" fill="white"/>
<defs>
<linearGradient id="paint0_linear_2489_12636" x1="1.01139e-07" y1="84.95" x2="146.9" y2="85.3948" gradientUnits="userSpaceOnUse">
<stop stop-color="#1A7BD7"/>
<stop offset="1" stop-color="#0A3A67"/>
</linearGradient>
</defs>
</svg>
