<svg width="216" height="95" viewBox="0 0 216 95" fill="none" xmlns="http://www.w3.org/2000/svg">
<path d="M10.5816 33.3816L11.6816 35.5816C11.8316 35.8879 12.2316 36.1816 12.5691 36.2379L14.5628 36.5691C15.8378 36.7816 16.1378 37.7066 15.2191 38.6191L13.6691 40.1691C13.4066 40.4316 13.2628 40.9379 13.3441 41.3004L13.7878 43.2191C14.1378 44.7379 13.3316 45.3254 11.9878 44.5316L10.1191 43.4254C9.78156 43.2254 9.22531 43.2254 8.88156 43.4254L7.01281 44.5316C5.67531 45.3254 4.86281 44.7316 5.21281 43.2191L5.65656 41.3004C5.73781 40.9379 5.59406 40.4316 5.33156 40.1691L3.78156 38.6191C2.86906 37.7066 3.16281 36.7816 4.43781 36.5691L6.43156 36.2379C6.76281 36.1816 7.16281 35.8879 7.31281 35.5816L8.41281 33.3816C9.01281 32.1879 9.98781 32.1879 10.5816 33.3816Z" fill="white" fill-opacity="0.52"/>
<path d="M197.577 82.3574L198.164 83.5307C198.244 83.694 198.457 83.8507 198.637 83.8807L199.7 84.0574C200.38 84.1707 200.54 84.664 200.05 85.1507L199.224 85.9774C199.084 86.1174 199.007 86.3874 199.05 86.5807L199.287 87.604C199.474 88.414 199.044 88.7274 198.327 88.3041L197.33 87.714C197.15 87.6074 196.854 87.6074 196.67 87.714L195.674 88.3041C194.96 88.7274 194.527 88.4107 194.714 87.604L194.95 86.5807C194.994 86.3874 194.917 86.1174 194.777 85.9774L193.95 85.1507C193.464 84.664 193.62 84.1707 194.3 84.0574L195.364 83.8807C195.54 83.8507 195.754 83.694 195.834 83.5307L196.42 82.3574C196.74 81.7207 197.26 81.7207 197.577 82.3574Z" fill="white" fill-opacity="0.32"/>
<path d="M68.5766 50.3574L69.1633 51.5307C69.2433 51.694 69.4566 51.8507 69.6366 51.8807L70.7 52.0574C71.38 52.1707 71.54 52.664 71.05 53.1507L70.2233 53.9774C70.0833 54.1174 70.0066 54.3874 70.05 54.5807L70.2866 55.604C70.4733 56.414 70.0433 56.7274 69.3266 56.3041L68.33 55.714C68.15 55.6074 67.8533 55.6074 67.67 55.714L66.6733 56.3041C65.96 56.7274 65.5266 56.4107 65.7133 55.604L65.95 54.5807C65.9933 54.3874 65.9166 54.1174 65.7766 53.9774L64.95 53.1507C64.4633 52.664 64.62 52.1707 65.3 52.0574L66.3633 51.8807C66.54 51.8507 66.7533 51.694 66.8333 51.5307L67.42 50.3574C67.74 49.7207 68.26 49.7207 68.5766 50.3574Z" fill="white" fill-opacity="0.32"/>
<path d="M29.8605 89.9186L30.2272 90.6519C30.2772 90.754 30.4105 90.8519 30.523 90.8706L31.1876 90.9811C31.6126 91.0519 31.7126 91.3602 31.4064 91.6644L30.8897 92.1811C30.8022 92.2686 30.7543 92.4373 30.7814 92.5581L30.9293 93.1977C31.0459 93.704 30.7772 93.8998 30.3293 93.6352L29.7064 93.2665C29.5939 93.1998 29.4084 93.1998 29.2939 93.2665L28.6709 93.6352C28.2251 93.8998 27.9543 93.7019 28.0709 93.1977L28.2189 92.5581C28.2459 92.4373 28.198 92.2686 28.1105 92.1811L27.5939 91.6644C27.2897 91.3602 27.3876 91.0519 27.8126 90.9811L28.4772 90.8706C28.5876 90.8519 28.7209 90.754 28.7709 90.6519L29.1376 89.9186C29.3376 89.5206 29.6626 89.5206 29.8605 89.9186Z" fill="white" fill-opacity="0.32"/>
<path d="M2.86052 67.9186L3.22719 68.6519C3.27719 68.754 3.41052 68.8519 3.52302 68.8706L4.1876 68.9811C4.6126 69.0519 4.7126 69.3602 4.40635 69.6644L3.88969 70.1811C3.80219 70.2686 3.75427 70.4373 3.78135 70.5581L3.92927 71.1977C4.04594 71.704 3.77719 71.8998 3.32927 71.6352L2.70635 71.2665C2.59385 71.1998 2.40844 71.1998 2.29385 71.2665L1.67094 71.6352C1.2251 71.8998 0.95427 71.7019 1.07094 71.1977L1.21885 70.5581C1.24594 70.4373 1.19802 70.2686 1.11052 70.1811L0.593853 69.6644C0.289686 69.3602 0.387603 69.0519 0.812603 68.9811L1.47719 68.8706C1.5876 68.8519 1.72094 68.754 1.77094 68.6519L2.1376 67.9186C2.3376 67.5206 2.6626 67.5206 2.86052 67.9186Z" fill="white" fill-opacity="0.32"/>
<path d="M47.8605 17.9186L48.2272 18.6519C48.2772 18.754 48.4105 18.8519 48.523 18.8706L49.1876 18.9811C49.6126 19.0519 49.7126 19.3602 49.4064 19.6644L48.8897 20.1811C48.8022 20.2686 48.7543 20.4373 48.7814 20.5581L48.9293 21.1977C49.0459 21.704 48.7772 21.8998 48.3293 21.6352L47.7064 21.2665C47.5939 21.1998 47.4084 21.1998 47.2939 21.2665L46.6709 21.6352C46.2251 21.8998 45.9543 21.7019 46.0709 21.1977L46.2189 20.5581C46.2459 20.4373 46.198 20.2686 46.1105 20.1811L45.5939 19.6644C45.2897 19.3602 45.3876 19.0519 45.8126 18.9811L46.4772 18.8706C46.5876 18.8519 46.7209 18.754 46.7709 18.6519L47.1376 17.9186C47.3376 17.5206 47.6626 17.5206 47.8605 17.9186Z" fill="white" fill-opacity="0.32"/>
<path d="M213.861 48.9186L214.227 49.6519C214.277 49.754 214.411 49.8519 214.523 49.8706L215.188 49.9811C215.613 50.0519 215.713 50.3602 215.406 50.6644L214.89 51.1811C214.802 51.2686 214.754 51.4373 214.781 51.5581L214.929 52.1977C215.046 52.704 214.777 52.8998 214.329 52.6352L213.706 52.2665C213.594 52.1998 213.408 52.1998 213.294 52.2665L212.671 52.6352C212.225 52.8998 211.954 52.7019 212.071 52.1977L212.219 51.5581C212.246 51.4373 212.198 51.2686 212.111 51.1811L211.594 50.6644C211.29 50.3602 211.388 50.0519 211.813 49.9811L212.477 49.8706C212.588 49.8519 212.721 49.754 212.771 49.6519L213.138 48.9186C213.338 48.5206 213.663 48.5206 213.861 48.9186Z" fill="white" fill-opacity="0.32"/>
<path d="M169.861 45.9186L170.227 46.6519C170.277 46.754 170.411 46.8519 170.523 46.8706L171.188 46.9811C171.613 47.0519 171.713 47.3602 171.406 47.6644L170.89 48.1811C170.802 48.2686 170.754 48.4373 170.781 48.5581L170.929 49.1977C171.046 49.704 170.777 49.8998 170.329 49.6352L169.706 49.2665C169.594 49.1998 169.408 49.1998 169.294 49.2665L168.671 49.6352C168.225 49.8998 167.954 49.7019 168.071 49.1977L168.219 48.5581C168.246 48.4373 168.198 48.2686 168.111 48.1811L167.594 47.6644C167.29 47.3602 167.388 47.0519 167.813 46.9811L168.477 46.8706C168.588 46.8519 168.721 46.754 168.771 46.6519L169.138 45.9186C169.338 45.5206 169.663 45.5206 169.861 45.9186Z" fill="white" fill-opacity="0.32"/>
<path d="M34.8605 56.9186L35.2272 57.6519C35.2772 57.754 35.4105 57.8519 35.523 57.8706L36.1876 57.9811C36.6126 58.0519 36.7126 58.3602 36.4064 58.6644L35.8897 59.1811C35.8022 59.2686 35.7543 59.4373 35.7814 59.5581L35.9293 60.1977C36.0459 60.704 35.7772 60.8998 35.3293 60.6352L34.7064 60.2665C34.5939 60.1998 34.4084 60.1998 34.2939 60.2665L33.6709 60.6352C33.2251 60.8998 32.9543 60.7019 33.0709 60.1977L33.2189 59.5581C33.2459 59.4373 33.198 59.2686 33.1105 59.1811L32.5939 58.6644C32.2897 58.3602 32.3876 58.0519 32.8126 57.9811L33.4772 57.8706C33.5876 57.8519 33.7209 57.754 33.7709 57.6519L34.1376 56.9186C34.3376 56.5206 34.6626 56.5206 34.8605 56.9186Z" fill="white" fill-opacity="0.32"/>
<path d="M144.861 89.9186L145.227 90.6519C145.277 90.754 145.411 90.8519 145.523 90.8706L146.188 90.9811C146.613 91.0519 146.713 91.3602 146.406 91.6644L145.89 92.1811C145.802 92.2686 145.754 92.4373 145.781 92.5581L145.929 93.1977C146.046 93.704 145.777 93.8998 145.329 93.6352L144.706 93.2665C144.594 93.1998 144.408 93.1998 144.294 93.2665L143.671 93.6352C143.225 93.8998 142.954 93.7019 143.071 93.1977L143.219 92.5581C143.246 92.4373 143.198 92.2686 143.111 92.1811L142.594 91.6644C142.29 91.3602 142.388 91.0519 142.813 90.9811L143.477 90.8706C143.588 90.8519 143.721 90.754 143.771 90.6519L144.138 89.9186C144.338 89.5206 144.663 89.5206 144.861 89.9186Z" fill="white" fill-opacity="0.32"/>
<path d="M105.861 87.9186L106.227 88.6519C106.277 88.754 106.411 88.8519 106.523 88.8706L107.188 88.9811C107.613 89.0519 107.713 89.3602 107.406 89.6644L106.89 90.1811C106.802 90.2686 106.754 90.4373 106.781 90.5581L106.929 91.1977C107.046 91.704 106.777 91.8998 106.329 91.6352L105.706 91.2665C105.594 91.1998 105.408 91.1998 105.294 91.2665L104.671 91.6352C104.225 91.8998 103.954 91.7019 104.071 91.1977L104.219 90.5581C104.246 90.4373 104.198 90.2686 104.111 90.1811L103.594 89.6644C103.29 89.3602 103.388 89.0519 103.813 88.9811L104.477 88.8706C104.588 88.8519 104.721 88.754 104.771 88.6519L105.138 87.9186C105.338 87.5206 105.663 87.5206 105.861 87.9186Z" fill="white" fill-opacity="0.32"/>
<path d="M150.861 1.91855L151.227 2.65189C151.277 2.75397 151.411 2.85189 151.523 2.87064L152.188 2.98105C152.613 3.05189 152.713 3.36022 152.406 3.66439L151.89 4.18105C151.802 4.26855 151.754 4.4373 151.781 4.55814L151.929 5.19772C152.046 5.70397 151.777 5.89981 151.329 5.63522L150.706 5.26647C150.594 5.1998 150.408 5.1998 150.294 5.26647L149.671 5.63522C149.225 5.89981 148.954 5.70189 149.071 5.19772L149.219 4.55814C149.246 4.4373 149.198 4.26855 149.111 4.18105L148.594 3.66439C148.29 3.36022 148.388 3.05189 148.813 2.98105L149.477 2.87064C149.588 2.85189 149.721 2.75397 149.771 2.65189L150.138 1.91855C150.338 1.52064 150.663 1.52064 150.861 1.91855Z" fill="white" fill-opacity="0.32"/>
<path d="M66.8605 0.918555L67.2272 1.65189C67.2772 1.75397 67.4105 1.85189 67.523 1.87064L68.1876 1.98105C68.6126 2.05189 68.7126 2.36022 68.4064 2.66439L67.8897 3.18105C67.8022 3.26855 67.7543 3.4373 67.7814 3.55814L67.9293 4.19772C68.0459 4.70397 67.7772 4.89981 67.3293 4.63522L66.7064 4.26647C66.5939 4.1998 66.4084 4.1998 66.2939 4.26647L65.6709 4.63522C65.2251 4.89981 64.9543 4.70189 65.0709 4.19772L65.2189 3.55814C65.2459 3.4373 65.198 3.26855 65.1105 3.18105L64.5939 2.66439C64.2897 2.36022 64.3876 2.05189 64.8126 1.98105L65.4772 1.87064C65.5876 1.85189 65.7209 1.75397 65.7709 1.65189L66.1376 0.918555C66.3376 0.520638 66.6626 0.520638 66.8605 0.918555Z" fill="white" fill-opacity="0.32"/>
<path d="M188.722 21.6496L189.455 23.1163C189.555 23.3204 189.822 23.5163 190.047 23.5538L191.376 23.7746C192.226 23.9163 192.426 24.5329 191.813 25.1413L190.78 26.1746C190.605 26.3496 190.509 26.6871 190.563 26.9288L190.859 28.2079C191.092 29.2204 190.555 29.6121 189.659 29.0829L188.413 28.3454C188.188 28.2121 187.817 28.2121 187.588 28.3454L186.342 29.0829C185.451 29.6121 184.909 29.2163 185.142 28.2079L185.438 26.9288C185.492 26.6871 185.397 26.3496 185.222 26.1746L184.188 25.1413C183.58 24.5329 183.776 23.9163 184.626 23.7746L185.955 23.5538C186.176 23.5163 186.442 23.3204 186.542 23.1163L187.276 21.6496C187.676 20.8538 188.326 20.8538 188.722 21.6496Z" fill="white" fill-opacity="0.58"/>
</svg>
