<svg width="41" height="40" viewBox="0 0 41 40" fill="none" xmlns="http://www.w3.org/2000/svg">
<path d="M27.9906 16.5938C30.6174 16.5938 32.7469 14.4644 32.7469 11.8375C32.7469 9.21074 30.6174 7.0813 27.9906 7.0813C25.3638 7.0813 23.2344 9.21074 23.2344 11.8375C23.2344 14.4644 25.3638 16.5938 27.9906 16.5938Z" fill="#2A92F4"/>
<path d="M12.8593 16.5938C15.4861 16.5938 17.6155 14.4644 17.6155 11.8375C17.6155 9.21074 15.4861 7.0813 12.8593 7.0813C10.2325 7.0813 8.10303 9.21074 8.10303 11.8375C8.10303 14.4644 10.2325 16.5938 12.8593 16.5938Z" fill="#2A92F4"/>
<path d="M29.425 17.7251H27.0469C23.35 17.7251 21.3125 18.8751 21.1532 21.3938C22.1532 21.5345 23.0844 21.9532 23.8375 22.6095C24.2844 22.4032 25.525 22.0876 26.6 22.4938C27.0063 22.647 27.7188 22.972 28.1407 23.8657C28.5032 24.6313 28.7469 26.0845 28.2813 27.4501C27.9532 28.4188 28.4875 28.997 28.3188 29.6313C28.1188 30.3813 26.2157 30.7501 24.6938 29.2813C24.3782 29.747 24.0344 30.3313 23.5875 30.672C23.5875 30.672 24.6032 32.097 26.0969 32.097H32.6719C33.8688 32.097 34.8407 31.1251 34.8407 29.9282V22.0782C34.8469 19.197 32.7469 17.7251 29.425 17.7251ZM17.2657 30.672C16.8219 30.3313 16.4782 29.747 16.1594 29.2813C14.6344 30.7501 12.7313 30.3813 12.5344 29.6313C12.3657 28.997 12.9032 28.4188 12.5719 27.4501C12.1063 26.0845 12.35 24.6313 12.7125 23.8657C13.1375 22.972 13.85 22.647 14.2532 22.4938C15.3282 22.0845 16.5688 22.4032 17.0157 22.6095C17.7688 21.9563 18.7 21.5345 19.6969 21.3938C19.5375 18.8751 17.5032 17.7251 13.8032 17.7251H11.425C8.10005 17.7251 6.00317 19.197 6.00317 22.0782V29.9313C6.00317 31.1282 6.97505 32.1001 8.17192 32.1001H14.7532C16.2469 32.097 17.2657 30.672 17.2657 30.672ZM16.6407 34.6157C16.3282 34.6157 16.0938 34.3188 16.175 34.0188C16.6 32.4657 18.3469 31.2032 20.4407 31.2032C22.5438 31.2032 24.2938 32.4313 24.7125 34.022C24.7907 34.322 24.5594 34.6188 24.2469 34.6188C24.2469 34.6157 16.6407 34.6157 16.6407 34.6157Z" fill="#2A92F4"/>
<path d="M27.0719 27.328C27.6094 25.5687 27.3969 24.1843 26.0001 23.728C24.8219 23.3468 23.8063 24.1843 23.6219 24.4249C22.9344 23.3905 21.7626 22.7124 20.4282 22.7124C19.0938 22.7124 17.9219 23.3937 17.2344 24.4249C17.0501 24.1874 16.0344 23.3468 14.8563 23.728C13.4594 24.1812 13.2469 25.5687 13.7844 27.328C13.9344 27.8155 13.9344 28.3312 13.7001 28.9124C13.6407 29.0624 13.7751 29.2218 13.9282 29.178C15.8657 28.6312 15.8813 26.8155 15.9501 26.0937C16.0313 25.253 16.5001 25.228 16.8094 25.2905C16.6251 25.8249 16.5469 26.4093 16.6251 27.0249C16.8657 28.903 18.5001 30.3624 20.3969 30.3812C22.5282 30.3999 24.2657 28.6749 24.2657 26.5468C24.2657 26.1062 24.1876 25.6874 24.0532 25.2937C24.3626 25.228 24.7876 25.2437 24.9126 26.0968C25.0126 26.7905 25.0032 28.528 26.7688 29.128C26.9813 29.1999 27.1876 28.9968 27.1157 28.7843C26.9219 28.253 26.9344 27.7812 27.0719 27.328Z" fill="#2A92F4"/>
</svg>
