<svg width="22" height="22" viewBox="0 0 22 22" fill="none" xmlns="http://www.w3.org/2000/svg">
<path d="M5.51281 15H9.51281M5.51281 10H13.5128M9.01281 21H10.0128M6.50981 21C5.35981 20.975 4.58581 21 3.58681 20.775C2.53681 20.5 1.88681 19.85 1.66281 18.55C1.43781 17.7 1.50981 13.924 1.51281 10.325C1.51481 7.532 1.53281 4.999 1.76281 4.475C2.08781 3.35 2.83681 2.55 5.16081 2.525M15.0288 2.525C15.8288 2.6 17.9188 2.525 18.3268 4.825C18.5488 6.075 18.5018 7.85 18.5018 9.975M7.18381 4.5C8.23381 4.525 11.6058 4.5 12.7558 4.5C13.9048 4.5 14.5118 3.554 14.5048 2.675C14.4968 1.779 13.7048 1.08 12.9298 1H7.15981C6.23481 1.05 5.60981 1.8 5.50981 2.55C5.40981 3.575 6.15981 4.45 7.18381 4.5ZM17.2778 13.375C15.9028 14.775 13.2548 17.275 13.2548 17.45C13.0418 17.747 12.8548 18.35 12.7298 19.2C12.5738 19.988 12.3858 20.675 12.6058 20.875C12.8258 21.075 13.6528 20.907 14.5288 20.725C15.2288 20.65 15.8788 20.4 16.2028 20.15C16.6778 19.73 19.9008 16.475 20.2758 16.05C20.5498 15.675 20.5758 14.975 20.3358 14.55C20.2008 14.25 19.3508 13.45 19.0758 13.225C18.7993 13.0545 18.4754 12.977 18.1516 13.004C17.8279 13.031 17.5223 13.161 17.2778 13.375Z" stroke="#C6C6C6" stroke-width="1.5" stroke-linecap="round" stroke-linejoin="round"/>
</svg>
