<svg width="20" height="20" viewBox="0 0 20 20" fill="none" xmlns="http://www.w3.org/2000/svg">
<path d="M17.5 4.98368C14.725 4.70868 11.9333 4.56702 9.15 4.56702C7.5 4.56702 5.85 4.65035 4.2 4.81702L2.5 4.98368" stroke="#FF6C6C" stroke-width="1.25" stroke-linecap="round" stroke-linejoin="round"/>
<path d="M7.08301 4.14163L7.26634 3.04996C7.39967 2.25829 7.49967 1.66663 8.90801 1.66663H11.0913C12.4997 1.66663 12.608 2.29163 12.733 3.05829L12.9163 4.14163" stroke="#FF6C6C" stroke-width="1.25" stroke-linecap="round" stroke-linejoin="round"/>
<path d="M15.7087 7.61646L15.167 16.0081C15.0753 17.3165 15.0003 18.3331 12.6753 18.3331H7.32533C5.00033 18.3331 4.92533 17.3165 4.83366 16.0081L4.29199 7.61646" stroke="#FF6C6C" stroke-width="1.25" stroke-linecap="round" stroke-linejoin="round"/>
<path d="M8.6084 13.75H11.3834" stroke="#FF6C6C" stroke-width="1.25" stroke-linecap="round" stroke-linejoin="round"/>
<path d="M7.91699 10.4167H12.0837" stroke="#FF6C6C" stroke-width="1.25" stroke-linecap="round" stroke-linejoin="round"/>
</svg>
