<svg width="24" height="24" viewBox="0 0 24 24" fill="none" xmlns="http://www.w3.org/2000/svg">
<rect x="0.75" y="0.75" width="22.5" height="22.5" rx="11.25" stroke="white" stroke-width="1.5"/>
<path d="M16.4898 9.26167C16.6019 9.36624 16.7763 9.58464 16.6567 9.85785C16.6485 9.87612 16.6452 9.89622 16.6473 9.91614C16.6493 9.93606 16.6566 9.95508 16.6683 9.9713L17.8033 11.3957C17.8123 11.4071 17.8237 11.4165 17.8365 11.4234C17.8494 11.4302 17.8635 11.4343 17.8781 11.4354C17.8926 11.4365 17.9072 11.4346 17.9209 11.4298C17.9347 11.425 17.9473 11.4175 17.958 11.4076L19.0178 10.4337C19.0294 10.4233 19.0386 10.4105 19.0448 10.3961C19.0509 10.3818 19.0538 10.3663 19.0532 10.3507C19.0526 10.3351 19.0486 10.3198 19.0414 10.3059C19.0342 10.2921 19.0241 10.28 19.0117 10.2705L18.1443 9.62302C18.1323 9.61415 18.1223 9.60285 18.115 9.58986C18.1077 9.57687 18.1033 9.56249 18.1019 9.54765C18.1005 9.53281 18.1023 9.51785 18.1071 9.50376C18.112 9.48966 18.1197 9.47673 18.1299 9.46583L18.4408 9.13083C18.4509 9.11986 18.4631 9.11113 18.4768 9.10523C18.4905 9.09933 18.5053 9.09638 18.5201 9.09657C18.535 9.09677 18.5497 9.10011 18.5632 9.10637C18.5768 9.11263 18.5888 9.12168 18.5986 9.13292L19.3434 9.98882C19.3526 9.99954 19.364 10.0083 19.3767 10.0146C19.3894 10.0208 19.4033 10.0244 19.4174 10.0252C19.4316 10.026 19.4458 10.024 19.4591 10.0192C19.4725 10.0144 19.4847 10.007 19.4951 9.99739L20.5895 8.98863C20.6012 8.97779 20.6103 8.96446 20.6162 8.94961C20.6221 8.93477 20.6245 8.91879 20.6234 8.90286C20.6222 8.88694 20.6175 8.87147 20.6096 8.85762C20.6017 8.84376 20.5907 8.83186 20.5776 8.82281L18.8359 7.63513C18.819 7.62427 18.7995 7.61825 18.7794 7.61769C18.7593 7.61713 18.7394 7.62207 18.722 7.63198C18.4589 7.77047 18.2276 7.6134 18.115 7.50942C18.0941 7.49041 18.0667 7.48035 18.0385 7.4814C18.0103 7.48245 17.9837 7.49453 17.9643 7.51504L16.4862 9.10409C16.4756 9.1144 16.4673 9.12679 16.4617 9.14048C16.456 9.15417 16.4533 9.16887 16.4537 9.18366C16.454 9.19845 16.4574 9.21302 16.4636 9.22644C16.4698 9.23986 16.4788 9.25186 16.4898 9.26167Z" fill="#5D72C7"/>
<path d="M16.2084 9.36546L17.6831 7.77768C17.6924 7.76712 17.7037 7.75852 17.7164 7.75238C17.7291 7.74623 17.7428 7.74266 17.7569 7.74187C17.771 7.74108 17.785 7.74309 17.7983 7.74778C17.8116 7.75247 17.8238 7.75975 17.8342 7.76919C17.9469 7.87318 18.1776 8.02969 18.4406 7.8912C18.4583 7.88173 18.4781 7.87709 18.4981 7.87774C18.5182 7.8784 18.5376 7.88432 18.5546 7.89492L20.2957 9.08263C20.3088 9.0917 20.3197 9.10359 20.3276 9.11741C20.3355 9.13124 20.3403 9.14667 20.3415 9.16256C20.3427 9.17845 20.3403 9.1944 20.3345 9.20926C20.3288 9.22411 20.3197 9.2375 20.3081 9.24842L19.909 9.61519L19.2137 10.2543C19.2034 10.264 19.1913 10.2716 19.178 10.2764C19.1647 10.2813 19.1506 10.2834 19.1364 10.2827C19.1223 10.2819 19.1085 10.2783 19.0958 10.2721C19.0831 10.2658 19.0718 10.2571 19.0625 10.2463L18.3183 9.39096C18.3086 9.37976 18.2965 9.37074 18.283 9.36448C18.2695 9.35822 18.2549 9.35485 18.24 9.3546C18.2252 9.35435 18.2104 9.35722 18.1967 9.36303C18.183 9.36883 18.1707 9.37744 18.1605 9.38831L17.8491 9.7239C17.839 9.73479 17.8313 9.74769 17.8265 9.76177C17.8217 9.77584 17.82 9.79076 17.8214 9.80555C17.8228 9.82035 17.8273 9.83467 17.8347 9.84759C17.842 9.8605 17.852 9.87172 17.864 9.88049L18.7314 10.528C18.7437 10.5376 18.7536 10.5497 18.7607 10.5636C18.7678 10.5774 18.7717 10.5926 18.7723 10.6082C18.7729 10.6237 18.7701 10.6392 18.7641 10.6535C18.758 10.6678 18.749 10.6807 18.7375 10.6912L17.6767 11.6657C17.666 11.6755 17.6534 11.683 17.6397 11.6877C17.626 11.6924 17.6114 11.6943 17.597 11.6932C17.5825 11.6921 17.5684 11.688 17.5556 11.6812C17.5428 11.6744 17.5315 11.6651 17.5225 11.6538L16.3875 10.2294C16.3754 10.2133 16.368 10.1943 16.3659 10.1743C16.3639 10.1543 16.3673 10.1341 16.3759 10.1159C16.3827 10.0992 16.3883 10.0836 16.394 10.0668C16.4162 9.99442 16.4205 9.91769 16.4065 9.84323C16.3925 9.76878 16.3607 9.69883 16.3137 9.63939C16.2832 9.59536 16.2479 9.55486 16.2084 9.51862C16.1983 9.50862 16.1902 9.4967 16.1847 9.48355C16.1792 9.4704 16.1764 9.4563 16.1764 9.44205C16.1764 9.42779 16.1792 9.41368 16.1847 9.40054C16.1902 9.38739 16.1983 9.37546 16.2084 9.36546Z" fill="#BABFF4"/>
<path d="M16.2084 9.36564L17.6831 7.77786C17.6924 7.76731 17.7037 7.75871 17.7164 7.75256C17.7291 7.74641 17.7428 7.74284 17.7569 7.74205C17.7709 7.74126 17.785 7.74327 17.7983 7.74796C17.8116 7.75265 17.8238 7.75993 17.8342 7.76938C17.9469 7.87336 18.1776 8.02988 18.4406 7.89139C18.4583 7.88192 18.4781 7.87727 18.4981 7.87793C18.5181 7.87858 18.5376 7.8845 18.5546 7.8951L20.2957 9.08281C20.3088 9.09188 20.3197 9.10377 20.3276 9.1176C20.3355 9.13143 20.3403 9.14685 20.3415 9.16274C20.3426 9.17863 20.3403 9.19459 20.3345 9.20944C20.3287 9.2243 20.3197 9.23768 20.3081 9.24861L19.909 9.61537C19.909 9.61537 17.7215 7.4479 16.3171 9.63888C16.2866 9.59485 16.2513 9.55435 16.2118 9.51811C16.2015 9.50834 16.1933 9.49664 16.1876 9.48368C16.1818 9.47072 16.1787 9.45676 16.1784 9.44259C16.1781 9.42842 16.1806 9.41432 16.1857 9.40112C16.1909 9.38791 16.1986 9.37586 16.2084 9.36564Z" fill="#8E97EC"/>
<path d="M9.56189 13.4515L10.5718 12.3622L11.2632 11.6184L14.0723 8.59041L14.3827 8.25599C14.4108 8.29309 14.4424 8.33006 14.4694 8.36664C14.5944 8.51854 14.7295 8.66187 14.8737 8.79568C15.1101 9.01215 15.3651 9.20746 15.6356 9.37934L14.8436 10.2334L13.9349 11.2124L13.901 11.2478L10.7848 14.6096C10.7437 14.6536 10.6909 14.685 10.6326 14.7002C10.5743 14.7153 10.5129 14.7136 10.4555 14.6953C10.4159 14.6831 10.379 14.6634 10.3469 14.6373C10.1806 14.5037 10.0213 14.3616 9.8698 14.2115C9.77994 14.1226 9.68502 14.0203 9.56284 13.8893C9.5087 13.8297 9.47872 13.752 9.47877 13.6715C9.47882 13.5909 9.50889 13.5133 9.56311 13.4537L9.56189 13.4515Z" fill="#BABFF4"/>
<path d="M9.49165 13.7679L14.4716 8.36608L14.581 8.24812L14.9176 8.75257L14.8781 8.79447L9.87306 14.2086C9.78319 14.1198 9.68828 14.0174 9.5661 13.8864C9.53271 13.853 9.50727 13.8125 9.49165 13.7679Z" fill="#EFEFFF"/>
<path d="M10.5275 13.4966C10.5054 13.4684 10.4906 13.4525 10.4906 13.4525L10.5534 12.6171L10.5718 12.3625L10.6291 11.6082L11.2632 11.6187C11.2999 11.6572 11.3371 11.6922 11.3747 11.725C11.5246 11.8592 11.7016 11.9596 11.8936 12.0194C12.8099 12.2978 13.7162 11.4389 13.8998 11.2488L10.7837 14.6105C10.7426 14.6545 10.6898 14.6859 10.6315 14.7011C10.5732 14.7163 10.5118 14.7146 10.4544 14.6962C11.1429 14.3619 10.6681 13.677 10.5275 13.4966Z" fill="#8E97EC"/>
<path d="M10.4905 13.4521L10.5533 12.6167L11.3741 11.7247C11.5239 11.8588 11.7009 11.9592 11.8929 12.019L10.5246 13.4964C10.5053 13.4681 10.4905 13.4521 10.4905 13.4521Z" fill="#BABFF4"/>
<path d="M6.19876 17.0759L6.64064 16.6039L6.64049 16.5999L7.82449 15.3242L9.05717 16.4682L7.41994 18.2323C7.38996 18.2649 7.35322 18.2906 7.31228 18.3075C7.25825 18.3303 7.19901 18.3378 7.14099 18.3294C7.08296 18.3209 7.02836 18.2967 6.9831 18.2594C6.82741 18.1309 6.7144 18.032 6.60533 17.9319C6.48318 17.8169 6.36876 17.6953 6.19975 17.5149C6.1446 17.4551 6.11389 17.3769 6.11371 17.2956C6.11352 17.2143 6.14388 17.1359 6.19876 17.0759Z" fill="#BABFF4"/>
<path d="M10.2487 18.2218L10.5471 17.2C10.5471 17.2 8.36353 16.1478 6.98882 13.8976L5.99269 14.2718L10.2487 18.2218Z" fill="#5D72C7"/>
<path d="M4.8645 13.9426C6.24768 16.328 7.50443 17.5526 9.06657 18.4924C9.58057 18.7971 10.11 19.0749 10.6526 19.3249C10.7351 19.3638 10.8261 19.3812 10.9172 19.3754C11.0082 19.3697 11.0963 19.3409 11.1732 19.2919C11.2501 19.2428 11.3133 19.1751 11.357 19.095C11.4007 19.0149 11.4233 18.9251 11.4229 18.8339C11.4121 17.691 11.622 16.3713 13.4229 13.989C13.4491 13.9551 13.47 13.9175 13.4848 13.8774C13.5067 13.8208 13.5168 13.7604 13.5146 13.6997L13.5026 13.3785C13.5013 13.3406 13.4893 13.3039 13.468 13.2725C13.4467 13.2412 13.4169 13.2165 13.3822 13.2013C13.0806 13.0722 12.7905 12.9179 12.5149 12.74L12.3271 12.9412C11.8479 12.6426 11.4241 12.2631 11.0747 11.8195L11.263 11.6166C11.0795 11.3791 10.9291 11.1177 10.8161 10.8396C10.8022 10.8036 10.7783 10.7723 10.7472 10.7494C10.7161 10.7265 10.679 10.7131 10.6405 10.7106L10.2845 10.6932C10.2639 10.6922 10.2431 10.693 10.2226 10.6955C10.1866 10.6979 10.1512 10.7057 10.1175 10.7187C10.0602 10.7361 10.0076 10.7663 9.96367 10.807C7.97932 12.5613 6.97763 12.9847 5.28861 13.1314C5.19737 13.1385 5.10942 13.1687 5.03303 13.2191C4.95664 13.2695 4.89431 13.3385 4.85191 13.4196C4.80951 13.5007 4.78842 13.5912 4.79062 13.6827C4.79283 13.7742 4.81825 13.8637 4.8645 13.9426ZM6.85196 14.1646C7.9504 13.8315 8.93615 13.2248 9.58227 12.7634C9.61929 12.7374 9.66246 12.7214 9.70752 12.7172C9.75139 12.712 9.79586 12.7184 9.83648 12.7357C9.8771 12.7531 9.91245 12.7808 9.93897 12.8162C10.3421 13.356 10.8399 13.8182 11.4082 14.1803C11.4645 14.2167 11.5043 14.2738 11.5191 14.3392C11.5339 14.4046 11.5225 14.4732 11.4873 14.5304C11.0759 15.2085 10.5443 16.2384 10.294 17.3574C10.285 17.3975 10.2667 17.435 10.2405 17.4666C10.2143 17.4983 10.181 17.5233 10.1433 17.5396C10.1055 17.5559 10.0645 17.563 10.0235 17.5604C9.98245 17.5578 9.94265 17.5454 9.90732 17.5244C9.46196 17.2566 9.03734 16.9558 8.63705 16.6244C7.9076 16.0256 7.26149 15.332 6.71589 14.562C6.69218 14.5285 6.67677 14.4899 6.67091 14.4493C6.66506 14.4087 6.66893 14.3673 6.68222 14.3285C6.6955 14.2897 6.71783 14.2546 6.74734 14.2261C6.77685 14.1976 6.81271 14.1765 6.85196 14.1646Z" fill="#BABFF4"/>
<path d="M6.97807 16.8436L8.24922 17.34L7.421 18.2318C7.39103 18.2644 7.35429 18.29 7.31335 18.307C7.31335 18.307 7.69589 17.6635 6.97807 16.8436Z" fill="#8E97EC"/>
<path d="M5.28649 13.1332C6.9755 12.9865 7.97833 12.563 9.96154 10.8088C10.0055 10.7681 10.0581 10.7379 10.1154 10.7205C10.149 10.7075 10.1845 10.6997 10.2204 10.6972C10.3521 11.0049 10.4884 11.3477 10.5816 11.4968C10.257 11.8795 9.96472 12.2885 9.70769 12.7194C9.66262 12.7237 9.61945 12.7396 9.58244 12.7657C8.93632 13.2271 7.95057 13.8338 6.85213 14.1668C6.81272 14.1786 6.77667 14.1995 6.74695 14.2279C6.71724 14.2563 6.69472 14.2914 6.68126 14.3302C6.6678 14.3691 6.66378 14.4105 6.66953 14.4513C6.67528 14.492 6.69065 14.5307 6.71435 14.5643C7.25995 15.3343 7.90606 16.0279 8.6355 16.6267C8.67069 17.2688 8.81656 17.9 9.06665 18.4924C7.50167 17.5527 6.24776 16.328 4.86459 13.9426C4.8188 13.8638 4.79369 13.7748 4.79159 13.6837C4.78949 13.5926 4.81048 13.5025 4.85259 13.4217C4.8947 13.3409 4.95657 13.2721 5.03243 13.2216C5.1083 13.1712 5.1957 13.1407 5.28649 13.1332Z" fill="#EFEFFF"/>
<path d="M6.19875 17.0758L6.64063 16.6038C6.60034 16.6685 6.14665 17.4194 6.60534 17.9324C6.48319 17.8173 6.36877 17.6958 6.19976 17.5153C6.14445 17.4556 6.11363 17.3772 6.11344 17.2958C6.11326 17.2143 6.14371 17.1358 6.19875 17.0758Z" fill="#EFEFFF"/>
<path d="M10.1154 10.7209C10.1687 10.7009 10.2255 10.6921 10.2824 10.6953L10.6383 10.7128C10.6769 10.7153 10.7139 10.7287 10.745 10.7516C10.7762 10.7744 10.8001 10.8057 10.814 10.8418C10.927 11.1199 11.0773 11.3813 11.2609 11.6188L11.0726 11.8217C11.422 12.2652 11.8457 12.6448 12.3249 12.9434L12.5127 12.7422C12.7883 12.9201 13.0785 13.0744 13.38 13.2035C13.4148 13.2187 13.4445 13.2433 13.4658 13.2747C13.4872 13.306 13.4992 13.3428 13.5005 13.3807L13.5125 13.7019C13.5147 13.7625 13.5045 13.823 13.4827 13.8795C13.0073 13.6826 11.062 12.7735 10.1154 10.7209Z" fill="#5D72C7"/>
<path d="M14.0723 8.59038L14.3827 8.25597C14.4108 8.29306 14.4424 8.33004 14.4694 8.36661C14.5944 8.51851 14.7295 8.66185 14.8737 8.79565C15.1101 9.01212 15.3651 9.20743 15.6357 9.37932L14.8436 10.2333C14.8412 10.1998 14.8005 9.10642 14.0723 8.59038Z" fill="#8E97EC"/>
<path d="M14.0362 7.99234L16.5403 4.90513L18.4276 6.65676L18.7992 7.00105L15.9071 9.72807C15.8069 9.83601 15.4991 9.72051 15.1377 9.46468C14.9933 9.36129 14.856 9.24849 14.7265 9.12699C14.6675 9.07225 14.6086 9.01752 14.5563 8.95968C14.3957 8.79776 14.2534 8.6186 14.1321 8.42548C14.0107 8.22332 13.9689 8.06488 14.0362 7.99234Z" fill="#BABFF4"/>
<path d="M16.3799 10.1137C16.3866 10.097 16.3923 10.0814 16.398 10.0647C17.4697 11.32 18.7404 10.6896 18.7404 10.6896L17.6795 11.6641C17.6688 11.6739 17.6562 11.6814 17.6425 11.6861C17.6288 11.6909 17.6143 11.6927 17.5998 11.6916C17.5854 11.6905 17.5713 11.6864 17.5585 11.6796C17.5457 11.6729 17.5344 11.6635 17.5253 11.6522L16.3904 10.2278C16.3784 10.2116 16.371 10.1924 16.3692 10.1722C16.3673 10.1521 16.371 10.1319 16.3799 10.1137Z" fill="#EFEFFF"/>
<path d="M14.1269 8.42326L16.6942 5.16857L17.4639 5.96034L14.5506 8.95862C14.3901 8.7963 14.248 8.61676 14.1269 8.42326Z" fill="#EFEFFF"/>
<path d="M15.1349 9.46346L17.9216 6.67375L18.4248 6.65498L18.7963 6.99927L15.9042 9.72629C15.8041 9.8348 15.4963 9.7193 15.1349 9.46346Z" fill="#A1A9F0"/>
<path d="M16.5397 4.90516C16.6229 4.81608 16.8621 4.89314 17.1554 5.06269C17.438 5.23342 17.7018 5.43352 17.9423 5.65966C18.5132 6.18953 18.9474 6.83838 18.7963 7.00059C18.6912 7.11497 18.3274 6.96114 17.9215 6.67508C17.7358 6.54546 17.5592 6.40308 17.3932 6.24896C16.8211 5.71686 16.3881 5.06853 16.5397 4.90516Z" fill="#5D72C7"/>
<path d="M17.1554 5.06269C17.438 5.23342 17.7018 5.43352 17.9423 5.65966C18.5132 6.18953 18.9474 6.83838 18.7963 7.00059C18.6912 7.11497 18.3274 6.96114 17.9215 6.67508C17.9215 6.67394 18.5362 6.05658 17.1554 5.06269Z" fill="#4255B4"/>
<path d="M5.50519 14.2047C5.52309 14.196 5.5633 14.2361 5.62315 14.3142C5.65366 14.3534 5.6885 14.4023 5.72764 14.4594L5.86574 14.6507C6.06705 14.9342 6.35402 15.3158 6.69716 15.7226C7.38274 16.5329 8.01581 17.1259 7.96625 17.1864C7.91669 17.2469 7.18715 16.7389 6.4819 15.9049C6.17777 15.5517 5.9138 15.1659 5.69481 14.7545C5.6548 14.674 5.61851 14.6019 5.5899 14.5369C5.56128 14.4719 5.542 14.4128 5.52655 14.365C5.49689 14.2722 5.48795 14.2156 5.50519 14.2047Z" fill="white"/>
<path d="M14.6529 8.17601C14.5941 8.12695 14.9227 7.62389 15.3905 7.053C15.8583 6.48212 16.2855 6.05964 16.3459 6.10636C16.4063 6.15307 16.0767 6.65902 15.6089 7.22991C15.1411 7.8008 14.7134 8.22556 14.6529 8.17601Z" fill="white"/>
</svg>
