<svg width="21" height="17" viewBox="0 0 21 17" fill="none" xmlns="http://www.w3.org/2000/svg">
<path d="M1.5 6.36719H0.75C0.75 6.78119 1.086 7.11719 1.5 7.11719V6.36719ZM1.5 10.3672V9.61719C1.30109 9.61719 1.11032 9.69621 0.96967 9.83686C0.829018 9.97751 0.75 10.1683 0.75 10.3672H1.5ZM19.5 6.36719V7.11719C19.6989 7.11719 19.8897 7.03817 20.0303 6.89752C20.171 6.75687 20.25 6.5661 20.25 6.36719H19.5ZM19.5 10.3672H20.25C20.25 10.1683 20.171 9.97751 20.0303 9.83686C19.8897 9.69621 19.6989 9.61719 19.5 9.61719V10.3672ZM3.5 2.11719H8.5V0.617188H3.5V2.11719ZM8.5 2.11719H17.5V0.617188H8.5V2.11719ZM17.5 14.6172H8.5V16.1172H17.5V14.6172ZM8.5 14.6172H3.5V16.1172H8.5V14.6172ZM7.75 1.36719V15.3672H9.25V1.36719H7.75ZM2.384 7.48319C2.50011 7.59927 2.59221 7.73708 2.65505 7.88876C2.71789 8.04044 2.75023 8.20301 2.75023 8.36719C2.75023 8.53137 2.71789 8.69394 2.65505 8.84562C2.59221 8.9973 2.50011 9.13511 2.384 9.25119L3.444 10.3112C3.9597 9.79547 4.24941 9.09601 4.24941 8.36669C4.24941 7.63736 3.9597 6.93791 3.444 6.42219L2.384 7.48319ZM18.616 9.25119C18.4999 9.13511 18.4078 8.9973 18.3449 8.84562C18.2821 8.69394 18.2498 8.53137 18.2498 8.36719C18.2498 8.20301 18.2821 8.04044 18.3449 7.88876C18.4078 7.73708 18.4999 7.59927 18.616 7.48319L17.556 6.42319C17.0403 6.93891 16.7506 7.63836 16.7506 8.36769C16.7506 9.09701 17.0403 9.79647 17.556 10.3122L18.616 9.25119ZM1.5 7.11719C1.821 7.11719 2.14 7.23919 2.384 7.48319L3.444 6.42219C3.18908 6.16635 2.88609 5.96443 2.55247 5.82611C2.21884 5.68779 1.86116 5.61678 1.5 5.61719V7.11719ZM2.25 6.36719V3.36719H0.75V6.36719H2.25ZM2.25 13.3672V10.3672H0.75V13.3672H2.25ZM2.384 9.25119C2.26823 9.3677 2.13047 9.46005 1.97872 9.52288C1.82697 9.58571 1.66424 9.61777 1.5 9.61719V11.1172C2.203 11.1172 2.908 10.8482 3.445 10.3112L2.384 9.25119ZM18.616 7.48319C18.86 7.23919 19.179 7.11719 19.5 7.11719V5.61719C18.797 5.61719 18.093 5.88619 17.556 6.42319L18.616 7.48319ZM18.75 3.36719V6.36719H20.25V3.36719H18.75ZM18.75 10.3672V13.3672H20.25V10.3672H18.75ZM19.5 9.61719C19.179 9.61719 18.86 9.49519 18.616 9.25119L17.556 10.3122C17.8109 10.568 18.1139 10.7699 18.4475 10.9083C18.7812 11.0466 19.1388 11.1176 19.5 11.1172V9.61719ZM3.5 14.6172C2.81 14.6172 2.25 14.0572 2.25 13.3672H0.75C0.75 14.0965 1.03973 14.796 1.55546 15.3117C2.07118 15.8275 2.77065 16.1172 3.5 16.1172V14.6172ZM17.5 16.1172C18.2293 16.1172 18.9288 15.8275 19.4445 15.3117C19.9603 14.796 20.25 14.0965 20.25 13.3672H18.75C18.75 14.0572 18.19 14.6172 17.5 14.6172V16.1172ZM17.5 2.11719C18.19 2.11719 18.75 2.67719 18.75 3.36719H20.25C20.25 2.63784 19.9603 1.93837 19.4445 1.42264C18.9288 0.906919 18.2293 0.617188 17.5 0.617188V2.11719ZM3.5 0.617188C2.77065 0.617188 2.07118 0.906919 1.55546 1.42264C1.03973 1.93837 0.75 2.63784 0.75 3.36719H2.25C2.25 2.67719 2.81 2.11719 3.5 2.11719V0.617188Z" fill="white"/>
</svg>
