<svg width="27" height="24" viewBox="0 0 27 24" fill="none" xmlns="http://www.w3.org/2000/svg">
<path d="M9.16071 9C7.94571 9 6.75 10.213 6.75 12C6.75 13.787 7.94571 15 9.16071 15C9.60282 14.9978 10.0329 14.8504 10.3892 14.579C10.492 14.4998 10.609 14.4427 10.7333 14.4109C10.8577 14.3791 10.9868 14.3733 11.1134 14.3938C11.2399 14.4144 11.3612 14.4609 11.4702 14.5305C11.5792 14.6002 11.6737 14.6917 11.7483 14.7997C11.8228 14.9077 11.8758 15.03 11.9043 15.1595C11.9328 15.2889 11.9361 15.423 11.9141 15.5538C11.8921 15.6846 11.8451 15.8096 11.776 15.9214C11.7069 16.0332 11.6171 16.1296 11.5116 16.205C10.828 16.7195 10.0054 16.9977 9.16071 17C6.64682 17 4.82143 14.632 4.82143 12C4.82143 9.368 6.64682 7 9.16071 7C10.0768 7 10.9176 7.326 11.6061 7.867C11.81 8.02719 11.9441 8.26479 11.979 8.52753C12.0139 8.79027 11.9467 9.05662 11.7923 9.268C11.6378 9.47938 11.4087 9.61846 11.1553 9.65466C10.902 9.69085 10.6451 9.62119 10.4413 9.461C10.0745 9.16624 9.6247 9.0043 9.16071 9ZM16.3929 12C16.3929 10.213 17.5886 9 18.8036 9C19.2655 9 19.7042 9.162 20.0841 9.46C20.2884 9.61152 20.5415 9.67445 20.7898 9.63541C21.0381 9.59637 21.2619 9.45844 21.4136 9.25095C21.5653 9.04345 21.633 8.78277 21.6023 8.52432C21.5715 8.26587 21.4448 8.03005 21.249 7.867C20.547 7.3088 19.6881 7.00429 18.8036 7C16.2897 7 14.4643 9.368 14.4643 12C14.4643 14.632 16.2897 17 18.8036 17C19.6483 16.9977 20.4708 16.7195 21.1545 16.205C21.2599 16.1296 21.3498 16.0332 21.4189 15.9214C21.488 15.8096 21.5349 15.6846 21.5569 15.5538C21.579 15.423 21.5756 15.2889 21.5472 15.1595C21.5187 15.03 21.4656 14.9077 21.3911 14.7997C21.3166 14.6917 21.222 14.6002 21.113 14.5305C21.004 14.4609 20.8827 14.4144 20.7562 14.3938C20.6297 14.3733 20.5005 14.3791 20.3762 14.4109C20.2519 14.4427 20.1349 14.4998 20.0321 14.579C19.6757 14.8504 19.2457 14.9978 18.8036 15C17.5886 15 16.3929 13.787 16.3929 12ZM0 4.5C0 3.30653 0.457173 2.16193 1.27095 1.31802C2.08472 0.474106 3.18844 0 4.33929 0H22.6607C23.8116 0 24.9153 0.474106 25.7291 1.31802C26.5428 2.16193 27 3.30653 27 4.5V19.5C27 20.6935 26.5428 21.8381 25.7291 22.682C24.9153 23.5259 23.8116 24 22.6607 24H4.33929C3.18844 24 2.08472 23.5259 1.27095 22.682C0.457173 21.8381 0 20.6935 0 19.5V4.5ZM4.33929 2C3.69992 2 3.08675 2.26339 2.63465 2.73223C2.18256 3.20107 1.92857 3.83696 1.92857 4.5V19.5C1.92857 20.163 2.18256 20.7989 2.63465 21.2678C3.08675 21.7366 3.69992 22 4.33929 22H22.6607C23.3001 22 23.9132 21.7366 24.3653 21.2678C24.8174 20.7989 25.0714 20.163 25.0714 19.5V4.5C25.0714 3.83696 24.8174 3.20107 24.3653 2.73223C23.9132 2.26339 23.3001 2 22.6607 2H4.33929Z" fill="white"/>
</svg>
