<svg width="100" height="98" viewBox="0 0 100 98" fill="none" xmlns="http://www.w3.org/2000/svg">
<path d="M85.3169 81.015H85.1809C85.1737 81.0177 85.1658 81.0177 85.1586 81.015C84.7312 81.0124 84.3074 80.9367 83.9052 80.7911L78.3746 78.3525L83.5417 76.9492L85.4973 76.4241L85.71 76.3644L86.1748 76.24C86.1748 76.24 86.2465 79.1463 85.3169 81.015Z" fill="#778CD4"/>
<path d="M92.5412 74.5729L90.1109 75.4363L80.2909 78.9274L56.223 87.482L45.0753 91.4409L40.4744 93.0757L41.802 81.8237L43.315 68.9743L83.7101 56.3488L90.4397 54.2512L91.09 54.0471L91.0924 54.0994L91.3174 57.2744L91.5671 60.8376L92.5412 74.5729Z" fill="#AD5E36"/>
<path d="M91.6932 59.6009L91.5671 60.845L90.1109 75.4437L80.2909 78.9273L82.2688 61.7085C72.874 64.5974 66.8589 68.8424 63.0169 73.055L78.0016 72.0597C78.0931 75.5159 76.8149 75.9638 76.8149 75.9638L60.6534 81.5649C59.4358 81.9816 58.3675 82.7507 57.5825 83.7758C56.7974 84.801 56.3305 86.0366 56.2403 87.3277V87.482L45.0778 91.4409L41.802 81.8237L43.3151 68.9742L83.7126 56.3537L90.4422 54.2561C90.5535 54.5273 90.6598 54.816 90.7513 55.1071C90.9812 55.8197 91.1702 56.5449 91.3174 57.2793C91.5869 58.5782 91.6932 59.6009 91.6932 59.6009Z" fill="#924425"/>
<path d="M94.8971 63.2539L87.1711 65.9562L85.1636 66.6578L81.559 67.9169L49.3472 79.1788C49.3151 79.0494 49.2805 78.9176 49.2459 78.7857C49.2038 78.6065 49.1544 78.4199 49.1074 78.2358L81.6801 66.847L85.1636 65.6302L94.4792 62.373L94.8971 63.2539Z" fill="#803110"/>
<path d="M62.6137 73.5129C62.1934 73.9932 61.7954 74.4759 61.4295 74.9536L49.3473 79.1837C49.2707 78.8727 49.1891 78.5616 49.1001 78.2407L62.6137 73.5129Z" fill="#63230B"/>
<path d="M99.9976 45.2957C99.8443 45.8829 99.6885 46.4726 99.5377 47.0574C98.3287 51.7303 97.3126 56.2938 96.4572 60.4169L96.4028 60.6657L95.7081 64.1493L95.6685 64.3484C95.5622 64.9082 95.4559 65.4581 95.3545 65.9956C95.3298 66.1126 95.31 66.2444 95.2853 66.3514L94.4349 67.1875L94.7711 69.2602C94.2 72.495 93.7822 75.0604 93.5572 76.618C93.5077 76.9291 93.4706 77.1978 93.436 77.4267C93.398 77.6944 93.2885 77.9467 93.1191 78.1566C92.9497 78.3666 92.7268 78.5262 92.4743 78.6186L86.7311 80.756C86.2808 80.9225 85.8064 81.0133 85.3269 81.0248H85.1934C85.1854 81.0276 85.1766 81.0276 85.1686 81.0248C85.2156 80.231 85.3269 78.6136 85.5073 76.4314L85.5222 76.2622C85.9326 71.4847 86.6866 64.0995 87.9401 56.8139L85.7867 57.5006L78.7975 59.7401L56.6407 66.7719L48.4425 69.3871C48.4425 69.3871 49.5822 72.0944 50.4203 77.2351C51.2427 82.4586 51.5071 87.7556 51.209 93.0357C51.1933 93.3181 51.0961 93.5898 50.9292 93.8175C50.7623 94.0451 50.533 94.2188 50.2695 94.3171L49.7479 94.5112L40.5558 97.9326L40.3877 97.9973L39.96 95.0114L37.6385 78.6659L36.1106 67.924L35.7991 65.7567L99.9976 45.2957Z" fill="#B9C0F3"/>
<path d="M50.4326 77.2229C51.255 82.4463 51.5194 87.7434 51.2213 93.0234C51.2073 93.3096 51.1095 93.5852 50.9401 93.8155C50.7707 94.0458 50.5373 94.2204 50.2695 94.3173L49.7478 94.5114L40.5558 97.9353L40.3852 98L39.9599 95.0141L37.6384 78.6686C38.1884 78.5309 38.7479 78.4352 39.3122 78.3824C39.3122 78.3824 43.5374 77.7977 50.4326 77.2229Z" fill="#E7E8FE"/>
<path d="M40.3927 97.995L38.4148 97.1415L25.3833 91.4682L11.1502 85.2749C10.8414 85.1381 10.5726 84.9241 10.3692 84.6532C10.1658 84.3823 10.0347 84.0635 9.9882 83.7272C8.58332 73.4454 5.63745 63.4374 1.25105 54.0446C0.509355 52.472 0.0148926 51.626 0.0148926 51.626V51.6111C0.420351 51.7529 4.53428 53.3927 35.809 65.747C36.185 66.5383 36.5152 67.3508 36.7979 68.1805C37.1045 69.0365 37.458 70.1288 37.819 71.4476C39.2678 76.6531 40.8575 85.4466 40.3927 97.995Z" fill="#778CD4"/>
<path d="M31.5565 86.2203L15.1305 79.7832C14.0575 73.351 13.5507 69.3324 11.8572 64.2166L15.1182 65.503C18.9156 67.0084 23.3806 68.7701 28.5947 70.8304C29.4427 73.6919 30.6937 76.3991 31.3439 83.5206C31.4255 84.3815 31.4972 85.2872 31.5565 86.2203Z" fill="#3D5FB5"/>
<path d="M85.1612 65.6301V66.6578L81.5591 67.9168L81.6802 66.8469L85.1612 65.6301Z" fill="#63230B"/>
<path d="M84.7062 66.817L81.5565 67.9168L50.6576 78.7159C50.6378 78.5741 50.618 78.4422 50.6007 78.3079L84.3626 66.4985C84.4322 66.6452 84.5552 66.7593 84.7062 66.817Z" fill="#C87D4B"/>
<path d="M31.5566 86.2204L15.1306 79.7833L17.4867 78.1435C27.1436 73.167 31.344 83.5082 31.344 83.5082C31.4256 84.3816 31.4973 85.2873 31.5566 86.2204Z" fill="#CACEF7"/>
<path d="M28.4293 82.3834L17.4868 78.1534C17.1629 76.2299 16.9404 74.6325 16.7179 73.1569C17.734 72.826 16.5473 72.077 16.5473 72.077C16.3545 70.8528 16.1468 69.6858 15.865 68.4441C15.6672 67.5235 15.42 66.563 15.1233 65.5129L28.6023 70.8403C29.0968 72.5249 29.7396 74.1547 30.3156 76.6579C30.3923 77.0088 30.4689 77.3795 30.5455 77.7627C30.917 79.6651 31.1853 81.5864 31.349 83.5181L28.4293 82.3834Z" fill="#924425"/>
<path d="M87.9277 56.7993L86.9388 65.6028L86.8919 66.0557L85.72 76.3596L85.1934 81.0152C85.1854 81.018 85.1767 81.018 85.1687 81.0152C84.7414 81.0107 84.3178 80.9351 83.9152 80.7913L83.1512 80.4578L83.5518 76.9518L84.7187 66.8246C84.5677 66.7668 84.4446 66.6528 84.375 66.5061C84.244 66.1378 84.8349 65.7596 84.8349 65.7596L85.7843 57.496L87.9277 56.7993Z" fill="#778CD4"/>
<path d="M17.1182 72.846C17.2196 72.4951 16.5471 72.0671 16.5471 72.0671L30.308 76.648C30.3451 76.8322 30.3896 77.0238 30.4267 77.2178C30.4638 77.4119 30.5008 77.5737 30.5379 77.7528L16.7177 73.147C16.9699 73.0699 17.0861 72.9579 17.1182 72.846Z" fill="#63230B"/>
<g opacity="0.25">
<path d="M100 45.2957C99.8467 45.8854 99.691 46.4751 99.5402 47.0574L36.8078 68.1903L36.118 67.9116L1.23615 54.0444C0.494462 52.4718 0 51.6258 0 51.6258V51.6109C0.405459 51.7527 4.51939 53.3925 35.7941 65.7468L100 45.2957Z" fill="#244393"/>
</g>
<path d="M15.4915 79.4899C15.3185 78.4498 12.8362 63.8661 11.8547 64.2169C11.6248 64.2941 11.9981 63.1196 14.7325 79.8507C14.8685 80.6769 52.1781 93.8423 15.4915 79.4899Z" fill="#E7E7FF"/>
<path d="M56.6357 66.7722L53.3895 67.8049C54.779 71.0521 55.444 74.976 55.711 76.9542C55.7628 77.343 55.9185 77.7104 56.1615 78.0171C56.4044 78.3239 56.7255 78.5585 57.0906 78.696L60.4702 79.98C60.5741 67.1156 56.6357 66.7722 56.6357 66.7722Z" fill="#778CD4"/>
<path d="M79.0322 55.866L78.785 59.7128L77.9123 73.3983C77.8868 73.8013 77.742 74.1873 77.4966 74.5066C77.2511 74.8259 76.9163 75.0639 76.5352 75.1899L73.6178 76.1429L61.8027 80.0097C61.5244 80.1009 61.2297 80.1296 60.9393 80.094C60.6488 80.0583 60.3696 79.9592 60.1213 79.8034C59.873 79.6476 59.6615 79.439 59.5018 79.1922C59.3421 78.9454 59.238 78.6665 59.1969 78.3749C59.1128 77.7802 59.0263 77.2004 58.9348 76.6331C58.4352 73.2895 57.6688 69.9918 56.643 66.7721C55.6961 63.9081 54.942 62.6814 54.942 62.6814L79.0322 55.866Z" fill="#B9C0F3"/>
<path d="M58.935 75.3666C58.8139 74.533 57.3478 66.262 56.5542 66.5183C45.807 70.0019 45.7032 70.4771 56.4652 67.108C57.9733 71.6168 60.186 84.0308 58.935 75.3666Z" fill="#F1EDFF"/>
<path d="M71.7464 73.6449L71.4027 73.7644L68.1344 74.9065C68.0889 74.9191 68.0411 74.9203 67.9951 74.9099C67.9491 74.8995 67.9063 74.8778 67.8706 74.8468C67.835 74.8158 67.8074 74.7764 67.7905 74.7321C67.7735 74.6879 67.7676 74.6401 67.7734 74.593L67.8228 73.8067L68.1516 68.4096C68.1568 68.3451 68.1417 68.2806 68.1084 68.2253C68.0751 68.1699 68.0254 68.1264 67.9662 68.1011C67.4415 67.8721 66.9989 67.4873 66.6975 66.9981C66.3962 66.5089 66.2506 65.9388 66.2801 65.364C66.3221 63.9656 67.2839 62.8309 68.5052 62.6418C68.6506 62.6179 68.798 62.6079 68.9453 62.612C70.3792 62.6592 71.5016 63.9705 71.4571 65.5332C71.4497 65.9604 71.3486 66.3807 71.161 66.764C70.9734 67.1472 70.7039 67.484 70.3718 67.7502C70.3197 67.7918 70.2811 67.8482 70.2613 67.9121C70.2414 67.976 70.2412 68.0445 70.2605 68.1085L71.917 73.2543C71.944 73.329 71.9414 73.4113 71.9096 73.4841C71.8778 73.5569 71.8194 73.6145 71.7464 73.6449Z" fill="#1F3D92"/>
<path d="M71.8997 73.5055C71.8846 73.5388 71.8623 73.5683 71.8346 73.592C71.8068 73.6156 71.7742 73.6328 71.739 73.6423L71.4003 73.7667L70.9825 73.9111L68.1344 74.9064C68.0895 74.92 68.042 74.9221 67.9961 74.9125C67.9502 74.903 67.9074 74.8821 67.8716 74.8517C67.8358 74.8213 67.808 74.7824 67.7909 74.7385C67.7737 74.6946 67.7678 74.6471 67.7734 74.6003L67.8229 73.8115L70.6932 72.866C70.7275 72.8537 70.758 72.8325 70.7814 72.8046C70.8049 72.7766 70.8205 72.7428 70.8267 72.7067C70.839 72.6653 70.839 72.6212 70.8267 72.5799L69.4373 67.8745C69.4139 67.8107 69.4126 67.7408 69.4337 67.6762C69.4548 67.6116 69.497 67.5561 69.5535 67.5187C69.8846 67.2507 70.1532 66.9128 70.3403 66.5288C70.5274 66.1449 70.6285 65.7242 70.6364 65.2967C70.6625 64.7514 70.533 64.2099 70.2631 63.7364C69.9933 63.2628 69.5943 62.8769 69.1134 62.6243C70.4682 62.7561 71.5041 64.0252 71.4621 65.5306C71.4549 65.9577 71.3536 66.3779 71.1655 66.7609C70.9774 67.1439 70.7071 67.48 70.3743 67.7451C70.3231 67.7868 70.2854 67.843 70.266 67.9063C70.2466 67.9697 70.2464 68.0375 70.2655 68.101L71.9244 73.2492C71.9384 73.2913 71.9435 73.3358 71.9392 73.38C71.9349 73.4241 71.9215 73.4669 71.8997 73.5055Z" fill="#667DC8"/>
<path d="M71.8997 73.5055C71.8846 73.5388 71.8623 73.5684 71.8346 73.592C71.8068 73.6157 71.7742 73.6329 71.739 73.6424L71.4003 73.7668L70.9825 73.9111L68.1344 74.9064C68.0895 74.92 68.042 74.9221 67.9961 74.9126C67.9502 74.903 67.9074 74.8821 67.8716 74.8517C67.8358 74.8213 67.808 74.7825 67.7909 74.7386C67.7737 74.6947 67.7678 74.6472 67.7734 74.6004L67.8229 73.8116L70.6932 72.866C70.7275 72.8538 70.758 72.8326 70.7814 72.8046C70.8049 72.7766 70.8205 72.7429 70.8267 72.7068L71.8997 73.5055Z" fill="#7F93DB"/>
<path d="M58.9374 76.6432C63.348 76.3943 68.3124 76.2002 73.6204 76.1455L61.8053 80.0123C61.527 80.1035 61.2323 80.1322 60.9419 80.0966C60.6514 80.061 60.3722 79.9618 60.1239 79.806C59.8756 79.6502 59.6641 79.4416 59.5044 79.1948C59.3447 78.948 59.2406 78.6691 59.1994 78.3775C59.1154 77.7778 59.0289 77.198 58.9374 76.6432Z" fill="#E7E8FE"/>
<path d="M93.5351 76.6085C93.4881 76.9196 93.4485 77.1883 93.4139 77.4172C93.3759 77.6849 93.2663 77.9372 93.097 78.1471C92.9276 78.357 92.7047 78.5167 92.4522 78.6091L86.709 80.7465C86.2596 80.9129 85.786 81.0037 85.3072 81.0152H85.1713L85.6979 76.3597V76.2527C88.2913 76.3248 90.9095 76.4418 93.5351 76.6085Z" fill="#E7E8FE"/>
<path d="M30.538 77.7528L16.7178 73.147C16.965 73.0699 17.0861 72.9579 17.1183 72.8459L30.4267 77.2228C30.4663 77.392 30.491 77.5737 30.538 77.7528Z" fill="#AD5E36"/>
<path d="M49.7602 94.5114L40.5681 97.9353L40.4 97.995L38.4222 97.1415L25.3906 91.4683C25.5686 91.0079 35.7867 95.019 38.9883 96.2856C39.0955 96.328 39.2112 96.3441 39.3258 96.3326C39.4404 96.321 39.5507 96.2822 39.6474 96.2191C39.7441 96.1561 39.8244 96.0708 39.8818 95.9703C39.9392 95.8698 39.9719 95.7569 39.9773 95.6411C39.9773 95.4271 39.9896 95.2131 39.9946 94.9991C40.2418 87.4124 39.416 80.4079 38.1032 73.2342C37.9757 72.6492 37.893 72.0553 37.856 71.4576C37.8783 69.7158 41.4433 82.5777 41.0329 95.6958C41.0286 95.8109 41.0515 95.9253 41.0998 96.0297C41.1482 96.134 41.2206 96.2253 41.311 96.2958C41.4014 96.3664 41.5072 96.4142 41.6197 96.4353C41.7321 96.4565 41.848 96.4504 41.9576 96.4174C47.3546 94.82 50.7046 93.9764 49.7602 94.5114Z" fill="#F8F6FF"/>
<path d="M94.771 69.2605L92.2369 69.7905C92.2032 69.7975 92.1683 69.7932 92.1373 69.7783C92.1063 69.7635 92.0809 69.7389 92.065 69.7083C92.0491 69.6777 92.0435 69.6427 92.0491 69.6086C92.0547 69.5745 92.0711 69.5432 92.096 69.5193L94.4471 67.2102L94.771 69.2605Z" fill="#778CD4"/>
<path d="M47.7229 47.9982C47.7229 47.9982 57.4218 39.5381 69.1108 37.6992L47.7229 53.1539V47.9982Z" fill="#FEFAFF"/>
<path d="M100 45.2959L89.8636 48.9163L88.0959 41.2574L81.0992 38.5651L65.3086 32.4888C65.4297 31.8319 65.5558 31.1849 65.6671 30.5504C66.5324 25.9894 67.415 22.0704 68.305 18.7236C68.5704 17.7283 68.8358 16.782 69.1011 15.8845C70.1964 12.2143 71.299 9.37023 72.3967 7.24773L67.86 2.84099L83.0351 0.0317362C83.7742 -0.056352 84.5234 0.0396092 85.217 0.311211C85.9107 0.582814 86.5274 1.02173 87.013 1.58938C88.1478 2.91812 89.2183 4.79429 90.227 7.02876L90.536 7.73044C90.5707 7.80758 90.8451 8.47693 90.8797 8.55158C91.8641 10.9458 92.7134 13.394 93.4237 15.8845C94.4695 19.3681 95.4015 23.0682 96.2199 26.6164C96.3707 27.2509 96.5116 27.878 96.6525 28.5026C98.1359 35.2508 99.1866 41.1927 99.7083 43.6636C99.8542 44.3404 99.9555 44.9077 99.9951 45.1566C99.9951 45.2461 100 45.2959 100 45.2959Z" fill="#CACEF7"/>
<path d="M99.9802 45.154C93.882 42.423 87.5639 40.2196 81.0942 38.5676L65.3036 32.4912C65.4247 31.8343 65.5508 31.1849 65.6621 30.5528C66.5274 25.9894 67.4075 22.0703 68.2976 18.7261C68.5646 17.7308 68.8308 16.7844 69.0961 15.887C78.5206 18.8132 87.7695 22.3814 96.2075 26.6189C96.3583 27.2509 96.4967 27.8804 96.6377 28.5025C98.121 35.2507 99.1742 41.1927 99.6959 43.666C99.8418 44.3429 99.9382 44.9027 99.9802 45.154Z" fill="#EAEAFF"/>
<path d="M89.8511 6.26227C83.8484 3.27634 70.975 4.19451 70.975 4.19451L69.0244 3.98053L67.8451 2.83342L70.6116 2.32333H70.666L75.1508 1.49225H75.1656L75.2299 1.47483L75.8875 1.35291C76.0853 1.37779 78.4291 0.882622 78.4291 0.882622L83.0201 0.0366032C83.759 -0.0517832 84.5082 0.0438069 85.2018 0.31497C85.8954 0.586132 86.5122 1.02457 86.9981 1.59177C88.0019 2.76375 88.9537 4.36371 89.8511 6.26227Z" fill="white"/>
<path d="M89.8511 48.797C75.843 40.3368 82.8866 43.6363 58.9225 34.248C61.464 20.3137 61.0684 12.1472 63.3974 7.62351C72.1172 -9.29675 83.4008 20.152 87.935 37.9232C90.2343 46.9308 89.4753 48.4187 89.8511 48.797Z" fill="#778CD4"/>
<path d="M86.6347 43.7681L39.0823 58.8569L38.1725 55.3734L35.1538 43.8228L34.8596 42.708L32.7161 34.5639L32.4689 33.6259L30.3204 25.4146L30.0732 24.4765L28.4167 18.1513L41.6683 15.337L53.5008 12.8239C53.8793 12.8991 54.2395 13.0478 54.5614 13.2618C55.1375 13.1026 55.5503 12.386 55.5503 12.386L65.4396 10.2883L66.9971 9.99473C67.0035 9.99245 67.0105 9.99245 67.0169 9.99473H67.0367C69.2618 9.68867 71.5388 11.3882 73.6922 14.0655C73.6922 14.0655 72.7576 14.8991 74.3449 14.914C75.8421 16.9802 77.1755 19.1616 78.3327 21.4383C78.3327 21.4383 77.5762 22.2644 78.7826 22.3241C80.0485 24.8273 81.1759 27.3778 82.1054 29.6272C82.1054 29.6272 81.2723 30.4359 82.4738 30.5329C82.8694 31.5158 83.2155 32.4315 83.527 33.2352C83.8855 34.1807 84.1797 34.977 84.3973 35.5816C84.553 36.0295 84.6692 36.3704 84.7409 36.577C84.7409 36.6018 84.7558 36.6217 84.7607 36.6416C85.5642 39.4534 86.3825 42.4244 86.6347 43.7681Z" fill="#AD5E36"/>
<path d="M86.6348 43.768L39.0824 58.8569L38.1726 55.3733L42.3582 23.4139C42.3582 23.4139 53.4836 43.8177 79.6431 34.7604C74.7851 12.7939 65.4545 10.2932 65.4545 10.2932L67.0121 9.99961C67.0185 9.99733 67.0255 9.99733 67.0319 9.99961H67.0517C69.2767 9.69355 71.5537 11.393 73.7071 14.0704C73.7071 14.0704 72.7726 14.904 74.3598 14.9189C75.857 16.985 77.1904 19.1665 78.3476 21.4432C78.3476 21.4432 77.5911 22.2693 78.7976 22.329C80.0634 24.8322 81.1908 27.3827 82.1204 29.6321C82.1204 29.6321 81.2872 30.4408 82.4888 30.5378C82.8843 31.5207 83.2304 32.4364 83.542 33.2401C83.7373 33.7576 83.9153 34.2354 84.071 34.6484L84.2342 35.1013C84.296 35.2605 84.3504 35.4123 84.3999 35.5542C84.3985 35.5649 84.3985 35.5758 84.3999 35.5865C84.5556 36.0344 84.6718 36.3753 84.7435 36.5818C84.7435 36.6067 84.7583 36.6266 84.7633 36.6465C85.5643 39.4533 86.3826 42.4243 86.6348 43.768Z" fill="#924425"/>
<path d="M88.0958 38.3311L40.6077 54.0471V49.6826L84.8941 36.8108L88.0958 38.3311Z" fill="#F8F6FF"/>
<path d="M95.4857 46.6818L35.8041 65.7445C35.8041 65.7296 35.8041 65.7097 35.8041 65.6873L23.0099 32.8545L21.7268 29.5675L18.4955 21.2716L15.2444 12.9209L32.6791 9.68619C33.3957 9.59565 34.1233 9.67744 34.8024 9.92486C35.4814 10.1723 36.0925 10.5783 36.5854 11.1095C37.9971 12.6273 39.2258 14.8294 40.3087 17.467L40.1974 20.8137L41.4336 20.5351C41.5695 20.9406 41.7055 21.3487 41.8366 21.7668C42.0294 22.3863 42.2222 23.0109 42.4052 23.6653C42.4843 23.934 42.5609 24.2028 42.6326 24.474C42.7315 24.8149 42.823 25.1558 42.9145 25.5017C43.1024 26.1934 43.2828 26.8943 43.4559 27.6042C43.5424 27.9601 43.629 28.3159 43.718 28.6717C44.0666 30.1323 44.4003 31.6178 44.7193 33.1083C45.1692 35.2258 45.5945 37.3583 45.9999 39.4285L46.3436 41.1703L47.3646 46.331L47.424 46.6196C47.7429 48.1673 48.0569 49.618 48.3709 50.9418L88.0069 38.3163L90.8624 41.5162L95.4857 46.6818Z" fill="#CACEF7"/>
<path d="M44.7316 33.1133C37.3147 32.6829 29.9892 32.6157 23.0099 32.8645L21.7268 29.5775L18.4955 21.2816L15.2444 12.931L32.6791 9.6962C33.3957 9.60566 34.1233 9.68745 34.8024 9.93487C35.4814 10.1823 36.0925 10.5883 36.5854 11.1195C37.9971 12.6373 39.2258 14.8395 40.3087 17.477L40.1974 20.8238L41.4336 20.5451C41.5695 20.9507 41.7055 21.3587 41.8366 21.7768C42.0294 22.3963 42.2222 23.0209 42.4052 23.6753C42.4843 23.9441 42.5609 24.2128 42.6326 24.484C42.7315 24.8249 42.823 25.1658 42.9145 25.5117C43.1024 26.2034 43.2829 26.9043 43.4559 27.6143C43.5424 27.9701 43.629 28.3259 43.718 28.6817C44.0888 30.1374 44.4127 31.6229 44.7316 33.1133Z" fill="#EAEAFF"/>
<path d="M39.5719 15.7923C31.8929 11.199 17.9095 14.068 17.9095 14.068C17.214 14.277 16.5481 14.4661 15.9119 14.6353L15.2444 12.9209L32.6841 9.68612C33.3998 9.59639 34.1265 9.67858 34.8046 9.92598C35.4827 10.1734 36.093 10.5789 36.5854 11.1094C37.1843 11.7651 37.7199 12.4766 38.1849 13.2344C38.6994 14.0574 39.1626 14.9116 39.5719 15.7923Z" fill="white"/>
<path d="M35.8091 65.7445C32.9857 51.4942 16.0553 -36.5385 0.00756836 51.6236L35.8091 65.7445Z" fill="#778CD4"/>
<path d="M26.9802 51.9818L6.90259 44.0642C9.56279 29.448 12.443 24.3147 15.1626 24.2998C15.9661 24.2998 16.7547 24.7402 17.5187 25.5091C21.6128 29.6421 25.0518 43.2853 26.3918 49.2024C26.7676 50.9144 26.9802 51.9818 26.9802 51.9818Z" fill="#A2AEE9"/>
<path d="M17.8994 32.74L9.41197 42.5065L6.90259 44.0642C9.56279 29.448 12.443 24.3147 15.1626 24.2998C15.9661 24.2998 16.7547 24.7402 17.5187 25.5091L17.8994 32.74Z" fill="#3D5FB5"/>
<path d="M20.2285 46.7764L9.41211 42.5115C9.87196 39.9933 10.3368 37.7539 10.8065 35.7782C11.8696 35.4796 11.0389 34.8277 11.0389 34.8277C11.3529 33.5512 11.6718 32.3991 11.9907 31.3441C12.2849 30.3737 12.5866 29.5028 12.8808 28.714C14.0625 28.505 13.2392 27.8033 13.2392 27.8033C13.7193 26.553 14.3664 25.3743 15.1627 24.2998C17.0392 24.2998 18.844 26.7209 20.451 30.1448C20.6339 30.5329 20.8128 30.9335 20.9875 31.3466C22.0409 33.853 22.9546 36.4166 23.7243 39.0254C23.8405 39.4036 23.9518 39.7719 24.063 40.1601C25.0841 43.6561 25.8876 46.9754 26.3919 49.2L20.2285 46.7764Z" fill="#924425"/>
<path d="M7.65201 43.9274C9.5013 42.6609 9.53839 42.2877 7.44435 43.3302C9.74112 30.7371 12.5892 25.2604 10.7152 29.0102C8.73736 33.096 7.25397 39.8243 6.448 44.3181C36.7734 56.2394 30.4912 52.7484 7.65201 43.9274Z" fill="#E7E7FF"/>
<path d="M74.3499 14.9142L42.1456 22.6004C42.1061 22.4835 42.0715 22.369 42.0344 22.2521C41.9701 22.0555 41.9083 21.8614 41.844 21.6723L73.6972 14.0657C73.6972 14.0657 73.2769 14.4414 73.4797 14.6952C73.581 14.8171 73.8283 14.9092 74.3499 14.9142Z" fill="#803110"/>
<path d="M13.385 28.5325C13.7509 28.2438 13.2391 27.8059 13.2391 27.8059L20.4434 30.1449C20.5489 30.3638 20.6503 30.5878 20.7475 30.8167C20.8291 30.9909 20.9008 31.1651 20.9799 31.3467L12.8806 28.7166C13.0604 28.6944 13.2328 28.6314 13.385 28.5325Z" fill="#63230B"/>
<path d="M78.7875 22.3241L44.3754 31.4685C44.3457 31.3416 44.321 31.2196 44.2938 31.1027C44.2543 30.9186 44.2098 30.7319 44.1677 30.5428L78.3375 21.4382C78.3375 21.4382 77.9988 21.8115 78.1373 22.0702C78.2065 22.2021 78.3894 22.3042 78.7875 22.3241Z" fill="#803110"/>
<path d="M11.2366 35.5592C11.5703 35.2407 11.0388 34.8127 11.0388 34.8127L23.7168 39.0154C23.786 39.2344 23.8478 39.4534 23.9121 39.6674C23.9591 39.8291 24.0085 39.9884 24.0555 40.1501L10.8064 35.7633C10.9644 35.7322 11.1122 35.6621 11.2366 35.5592Z" fill="#63230B"/>
<path d="M82.4788 30.5329L46.2966 40.8543C46.2768 40.7398 46.2521 40.6229 46.2274 40.5059C46.1903 40.3094 46.1458 40.1153 46.1062 39.9112L82.1105 29.6272C82.1105 29.6272 81.7371 29.988 81.8632 30.2617C81.9152 30.3911 82.0808 30.5031 82.4788 30.5329Z" fill="#803110"/>
<path d="M48.3954 30.4011L44.3705 31.4536C44.3037 31.1326 44.237 30.8564 44.1653 30.5404L47.5103 29.6272C47.7971 29.891 48.0864 30.1473 48.3954 30.4011Z" fill="#63230B"/>
<path d="M61.3406 36.5696L46.2941 40.8544C46.2372 40.5384 46.1705 40.2323 46.1086 39.9114L59.3627 36.1267C60.0006 36.2984 60.6533 36.4452 61.3406 36.5696Z" fill="#63230B"/>
<path d="M35.9299 65.9933C10.9967 56.2318 -7.51842 48.4111 9.61963 54.8284C32.9978 63.6394 34.8941 65.2045 34.4663 62.9775C31.863 49.4363 29.6602 40.8568 27.4524 33.4517C23.2099 19.1988 30.392 33.9493 36.0882 62.9302C36.1321 63.1549 36.2227 63.3676 36.3541 63.5545C36.4856 63.7414 36.6548 63.8981 36.8507 64.0145C37.0467 64.1308 37.2648 64.2041 37.4909 64.2295C37.717 64.2549 37.9459 64.2319 38.1625 64.1619C172.649 21.1496 37.9078 66.7721 35.9299 65.9933Z" fill="#F8F6FF"/>
<path d="M90.8871 41.5312C88.7708 40.793 86.6125 40.1087 84.4121 39.4783L89.646 37.6992L90.8871 41.5312Z" fill="#EFEFFF"/>
<path d="M19.3038 14.9613C19.1505 22.7098 18.9849 22.028 20.9801 15.1405C20.9801 15.1405 20.1469 14.2696 19.3038 14.9613Z" fill="#EFEFFF"/>
<path d="M56.1708 14.3964C56.1708 15.1081 55.6566 13.9734 54.5737 13.2667C55.1498 13.1075 55.5627 12.3909 55.5627 12.3909C55.9088 12.7467 56.1659 13.3837 56.1708 14.3964Z" fill="#C87D4B"/>
<path d="M74.3497 14.914L42.1454 22.6003C42.1059 22.4834 42.0713 22.3689 42.0342 22.252L73.4795 14.6951C73.5809 14.817 73.8281 14.9091 74.3497 14.914Z" fill="#C87D4B"/>
<path d="M78.7876 22.3241L44.3755 31.4685C44.3459 31.3416 44.3211 31.2197 44.2939 31.1028L78.1374 22.0703C78.2066 22.2022 78.3896 22.3042 78.7876 22.3241Z" fill="#C87D4B"/>
<path d="M82.4788 30.5329L46.2965 40.8543C46.2767 40.7398 46.252 40.6229 46.2273 40.5059L81.8533 30.2617C81.9151 30.3911 82.0807 30.5031 82.4788 30.5329Z" fill="#C87D4B"/>
<path d="M24.0628 40.1601L10.8137 35.7733C10.9726 35.7393 11.1206 35.6657 11.2439 35.5593L23.9145 39.6774C23.959 39.8392 24.0084 39.9984 24.0628 40.1601Z" fill="#AD5E36"/>
<path d="M20.9799 31.3467L12.8806 28.7166C13.057 28.6929 13.2259 28.63 13.3751 28.5325L20.7673 30.8839C20.8489 31.0606 20.9008 31.1651 20.9799 31.3467Z" fill="#AD5E36"/>
<path d="M40.3085 17.4719L40.1973 20.8187L38.3504 21.2218C38.2926 21.235 38.2321 21.2302 38.177 21.2082C38.1218 21.1862 38.0746 21.148 38.0415 21.0984C38.0083 21.0489 37.9908 20.9905 37.9912 20.9308C37.9917 20.8711 38.01 20.8129 38.0439 20.7639L40.3085 17.4719Z" fill="#778CD4"/>
<path d="M71.472 3.10989C71.3781 3.07257 79.4699 6.84229 87.6731 38.0925C68.5324 44.3406 69.1011 44.5944 88.2219 38.6748C89.0847 38.406 80.13 6.13065 71.472 3.10989Z" fill="white"/>
</svg>
