<svg width="157" height="140" viewBox="0 0 157 140" fill="none" xmlns="http://www.w3.org/2000/svg">
<path d="M156.19 70.8877L73.4047 100.754L72.4867 100.338L24.8498 78.9577L24.7844 78.9315L109.395 59.8406L155.353 70.2949C155.679 70.4007 155.964 70.6043 156.17 70.8779C156.177 70.8804 156.183 70.8837 156.19 70.8877Z" fill="#CED3F9"/>
<path d="M137.507 117.644H137.324C137.313 117.648 137.302 117.648 137.291 117.644C136.727 117.64 136.168 117.541 135.638 117.349L128.33 114.139L135.158 112.292L137.739 111.601L138.02 111.523L138.634 111.359C138.634 111.359 138.735 115.184 137.507 117.644Z" fill="#778CD4"/>
<path d="M147.049 109.168L143.841 110.301L130.865 114.896L99.0593 126.156L84.3324 131.367L78.2528 133.518L80.0038 118.708L82.0064 101.795L135.383 85.177L144.276 82.416L145.131 82.1475L145.138 82.2162L145.432 86.3953L145.765 91.0854L147.049 109.168Z" fill="#A65733"/>
<path d="M143.857 110.298L130.878 114.883L133.492 92.2219C121.078 96.0211 113.129 101.612 108.053 107.153C129.522 105.676 124.06 104.618 127.673 108.034C127.745 108.106 127.098 110.654 126.285 110.982C105.89 118.01 99.5884 118.325 99.0853 125.936C99.0853 126.221 100.719 125.55 84.3453 131.344C78.893 115.403 79.6149 122.068 82.0161 101.772C151.443 80.1562 144.197 81.9314 144.697 83.5165C146.565 89.1957 145.932 89.4151 143.857 110.298Z" fill="#8B4024"/>
<path d="M150.162 94.2656L139.953 97.8224L137.301 98.746L132.538 100.403L89.9774 115.227C89.9316 115.056 89.8892 114.899 89.8434 114.709C89.7846 114.473 89.7226 114.228 89.6572 113.985L132.698 98.9949L137.301 97.3934L149.613 93.1062C149.8 93.4959 149.986 93.8758 150.162 94.2656Z" fill="#7A2F0F"/>
<path d="M107.507 107.769C106.948 108.404 106.425 109.037 105.939 109.665L89.9774 115.233C89.8762 114.824 89.7684 114.414 89.6508 113.992L107.507 107.769Z" fill="#5E210A"/>
<path d="M156.474 72.2828C156.415 72.5088 156.356 72.7315 156.301 72.9379C154.772 78.8332 153.468 84.5942 152.381 89.8377L151.136 96.0277C150.865 97.4262 150.617 98.7723 150.381 100.04C150.336 100.295 150.29 100.554 150.247 100.803C150.247 100.803 149.708 101.13 149.071 101.573L149.725 103.744C149.111 107.262 148.67 110.052 148.395 111.837L148.235 112.901C148.184 113.254 148.039 113.586 147.815 113.862C147.591 114.139 147.297 114.35 146.964 114.473L139.375 117.287C138.781 117.505 138.156 117.623 137.523 117.637H137.324C137.313 117.641 137.302 117.641 137.291 117.637C137.35 116.704 137.471 114.909 137.67 112.485C137.67 112.197 137.713 111.902 137.739 111.595L137.758 111.372C138.301 105.084 139.3 95.3629 140.953 85.7732L138.111 86.6772L128.872 89.6052L99.6147 98.8935L88.7786 102.336C88.7786 102.336 90.2879 105.899 91.3921 112.666C92.2294 117.883 92.625 123.161 92.5747 128.445C92.5747 130.053 92.5192 131.72 92.4342 133.463C92.4151 133.836 92.2869 134.195 92.0656 134.496C91.8443 134.796 91.5396 135.025 91.1896 135.153L90.497 135.412L78.3509 139.915L78.1288 140L77.5669 136.07L74.496 114.555L72.4771 100.42V100.367L72.0753 97.5671L156.164 70.8811V70.9073C156.437 71.3101 156.547 71.8015 156.474 72.2828Z" fill="#B9C0F3"/>
<path d="M92.4504 133.463C92.4306 133.836 92.3018 134.195 92.0799 134.496C91.858 134.796 91.5529 135.025 91.2025 135.153L90.5132 135.412L78.3671 139.915L78.1417 140L77.5798 136.07L77.5602 135.929L74.5122 114.555C75.0251 114.428 75.5674 114.326 76.1293 114.228C76.3286 114.228 76.5246 114.185 76.7239 114.166C76.7239 114.166 76.9983 114.126 77.5308 114.064C79.3765 113.832 84.3258 113.249 91.4083 112.672C92.4945 119.545 92.8439 126.515 92.4504 133.463Z" fill="#E7E8FE"/>
<path d="M78.1417 139.993L75.5282 138.87L58.3054 131.406L52.5656 128.92L39.4787 123.251C39.0709 123.07 38.716 122.787 38.4478 122.43C38.1797 122.073 38.0071 121.653 37.9465 121.21C37.7538 119.828 37.548 118.462 37.3193 117.123L36.826 114.342C36.7639 113.995 36.6921 113.648 36.63 113.307C35.4024 107.175 33.7653 101.133 31.7297 95.2218L30.423 91.5569C30.2891 91.1999 30.1551 90.8461 30.0147 90.499C28.6393 86.9356 27.3653 84.096 26.4211 82.131C25.4248 80.0611 24.7877 78.9442 24.7877 78.9442V78.9246C25.0295 79.0097 26.2513 79.4879 31.256 81.4563C37.4108 83.8799 49.2824 88.5568 72.0915 97.5308C72.5883 98.5723 73.0246 99.6418 73.3982 100.734C73.8 101.864 74.2672 103.298 74.7474 105.034C75.5629 108.028 76.2172 111.064 76.7075 114.129C77.8019 120.752 78.537 129.346 78.1417 139.993Z" fill="#778CD4"/>
<path d="M66.466 124.495L44.7644 116.023C43.3466 107.556 42.6736 102.267 40.4359 95.5332L44.7448 97.2264C49.7627 99.1915 55.6626 101.527 62.5556 104.239C63.6729 108.005 65.3291 111.568 66.185 120.925C66.2961 122.075 66.3908 123.267 66.466 124.495Z" fill="#3D5FB5"/>
<path d="M137.301 97.3936V98.7462L132.538 100.407L132.698 98.9951L137.301 97.3936Z" fill="#5E210A"/>
<path d="M136.7 98.9556L132.538 100.403L91.7023 114.624C91.6762 114.437 91.65 114.264 91.6239 114.087L136.239 98.5364C136.332 98.7314 136.497 98.882 136.7 98.9556Z" fill="#C37647"/>
<path d="M66.4661 124.495L44.7645 116.023L47.8778 113.864C60.6381 107.314 66.1721 120.925 66.1721 120.925C66.2962 122.075 66.391 123.267 66.4661 124.495Z" fill="#CACEF7"/>
<path d="M62.3367 119.445L47.8777 113.877C47.4497 111.346 47.1557 109.243 46.8617 107.301C48.2011 106.865 46.6363 105.879 46.6363 105.879C46.3815 104.268 46.107 102.732 45.7346 101.098C45.4733 99.8858 45.1466 98.6216 44.7546 97.2395L62.5621 104.252C63.2155 106.469 64.0648 108.614 64.826 111.909C64.9273 112.371 65.0318 112.859 65.1331 113.363C65.6224 115.867 65.9768 118.396 66.1948 120.939L62.3367 119.445Z" fill="#8B4024"/>
<path d="M140.956 85.7698L139.65 97.3573L139.584 97.9533L138.039 111.516L137.343 117.644C137.333 117.647 137.321 117.647 137.311 117.644C136.746 117.638 136.186 117.539 135.654 117.349L134.645 116.907L135.174 112.292L136.716 98.9621C136.516 98.887 136.353 98.7366 136.262 98.5429C136.089 98.0582 136.87 97.5603 136.87 97.5603L138.121 86.6836L140.956 85.7698Z" fill="#778CD4"/>
<path d="M47.3909 106.891C47.5248 106.43 46.6362 105.866 46.6362 105.866L64.8162 111.889C64.8684 112.132 64.924 112.384 64.9762 112.639C65.0285 112.895 65.071 113.108 65.1232 113.343L46.8616 107.304C47.1916 107.186 47.3451 107.039 47.3909 106.891Z" fill="#5E210A"/>
<g opacity="0.25">
<path d="M156.471 72.2828C156.415 72.5088 156.356 72.7315 156.298 72.9378L73.4049 100.754L72.4934 100.39L26.4017 82.1378C25.4053 80.0679 24.7682 78.9511 24.7682 78.9511V78.9314L24.8336 78.9576C25.6829 79.2654 32.0206 81.7841 72.0655 97.5376L156.154 70.8516C156.162 70.859 156.168 70.8679 156.173 70.8778C156.451 71.2896 156.557 71.7935 156.471 72.2828Z" fill="#244393"/>
</g>
<path d="M45.2381 115.636C45.0127 114.267 41.7328 95.0713 40.4358 95.5331C40.132 95.6346 40.6221 94.0887 44.2384 116.111C44.4149 117.198 93.7179 134.527 45.2381 115.636Z" fill="#E7E7FF"/>
<path d="M99.6048 98.8999L95.3187 100.259C97.1547 104.517 98.0335 109.698 98.3863 112.302C98.4548 112.813 98.6601 113.296 98.9805 113.7C99.3009 114.104 99.7244 114.413 100.206 114.594L104.675 116.284C104.809 99.3486 99.6048 98.8999 99.6048 98.8999Z" fill="#778CD4"/>
<path d="M129.199 84.5415L128.872 89.6049L127.722 107.618C127.689 108.149 127.497 108.657 127.172 109.078C126.847 109.498 126.404 109.811 125.899 109.976L122.045 111.234L106.436 116.32C106.068 116.44 105.678 116.478 105.294 116.431C104.91 116.384 104.541 116.254 104.213 116.049C103.884 115.844 103.605 115.569 103.393 115.245C103.182 114.92 103.044 114.552 102.989 114.169C102.881 113.386 102.767 112.623 102.646 111.876C101.984 107.47 100.97 103.124 99.6145 98.8802C98.36 95.1104 97.3636 93.4958 97.3636 93.4958L129.199 84.5415Z" fill="#B9C0F3"/>
<path d="M102.646 110.209C102.483 109.112 100.549 98.2253 99.5003 98.5626C85.2961 103.148 85.1621 103.773 99.3794 99.3388C101.388 105.273 104.299 121.613 102.646 110.209Z" fill="#EBDAF2"/>
<path d="M119.575 107.959L119.121 108.12L114.802 109.62C114.742 109.637 114.679 109.639 114.617 109.626C114.556 109.613 114.499 109.584 114.452 109.543C114.405 109.502 114.368 109.45 114.346 109.391C114.324 109.333 114.317 109.269 114.325 109.207L114.387 108.172L114.825 101.068C114.832 100.983 114.812 100.898 114.768 100.826C114.724 100.753 114.658 100.696 114.58 100.662C113.886 100.361 113.301 99.8548 112.903 99.2108C112.505 98.5668 112.313 97.8161 112.352 97.0595C112.404 95.2188 113.678 93.7254 115.292 93.4765C115.485 93.445 115.681 93.4319 115.877 93.4372C117.772 93.4994 119.255 95.2254 119.193 97.2822C119.184 97.8443 119.051 98.3974 118.803 98.9019C118.556 99.4064 118.2 99.8498 117.762 100.2C117.692 100.254 117.64 100.328 117.614 100.413C117.588 100.497 117.588 100.588 117.615 100.672L119.804 107.445C119.838 107.544 119.834 107.652 119.792 107.748C119.749 107.843 119.672 107.919 119.575 107.959Z" fill="#1F3D92"/>
<path d="M119.774 107.759C119.754 107.803 119.726 107.841 119.689 107.873C119.653 107.904 119.611 107.926 119.565 107.939L119.118 108.103L118.565 108.293L114.799 109.603C114.739 109.621 114.677 109.624 114.616 109.611C114.555 109.599 114.499 109.571 114.452 109.531C114.404 109.491 114.368 109.44 114.345 109.382C114.322 109.324 114.314 109.262 114.322 109.2L114.39 108.162L118.18 106.918C118.249 106.886 118.305 106.83 118.337 106.762C118.37 106.693 118.378 106.615 118.36 106.541L116.52 100.348C116.491 100.264 116.49 100.174 116.518 100.09C116.546 100.007 116.601 99.9347 116.674 99.8858C117.111 99.5327 117.466 99.0879 117.713 98.5826C117.96 98.0773 118.094 97.5238 118.105 96.9611C118.138 96.2436 117.967 95.5314 117.61 94.9083C117.254 94.2852 116.727 93.777 116.092 93.4436C117.883 93.6172 119.251 95.2875 119.196 97.269C119.186 97.8312 119.053 98.3843 118.804 98.8884C118.555 99.3925 118.198 99.8349 117.758 100.184C117.691 100.239 117.642 100.313 117.615 100.396C117.589 100.479 117.588 100.568 117.612 100.652L119.807 107.429C119.824 107.483 119.83 107.54 119.825 107.597C119.819 107.654 119.802 107.709 119.774 107.759Z" fill="#667DC8"/>
<path d="M119.774 107.759C119.754 107.803 119.726 107.841 119.689 107.872C119.653 107.903 119.611 107.926 119.565 107.939L119.118 108.103L118.565 108.293L114.799 109.603C114.739 109.621 114.677 109.624 114.616 109.611C114.555 109.598 114.499 109.571 114.452 109.531C114.404 109.491 114.368 109.44 114.345 109.382C114.322 109.324 114.314 109.262 114.322 109.2L114.39 108.162L118.18 106.917C118.225 106.902 118.266 106.874 118.297 106.837C118.328 106.8 118.348 106.755 118.356 106.708L119.774 107.759Z" fill="#7F93DB"/>
<path d="M102.646 111.889C108.478 111.562 115.037 111.306 122.048 111.234L106.439 116.324C106.071 116.444 105.682 116.482 105.298 116.435C104.914 116.388 104.544 116.257 104.216 116.052C103.888 115.847 103.608 115.573 103.397 115.248C103.185 114.923 103.047 114.556 102.993 114.172C102.885 113.383 102.77 112.62 102.646 111.889Z" fill="#E7E8FE"/>
<path d="M148.379 111.843C148.313 112.253 148.264 112.606 148.219 112.908C148.168 113.26 148.024 113.592 147.8 113.868C147.576 114.145 147.281 114.355 146.948 114.477L139.359 117.29C138.764 117.509 138.137 117.628 137.503 117.644H137.324L138.02 111.516V111.375C141.437 111.47 144.893 111.624 148.379 111.843Z" fill="#E7E8FE"/>
<path d="M65.1266 113.35L46.8618 107.304C47.1884 107.202 47.3452 107.055 47.391 106.908L64.9763 112.662C65.0286 112.872 65.0711 113.114 65.1266 113.35Z" fill="#A65733"/>
<path d="M141.172 70.1049L127.236 74.3298L118.601 76.9434L72.8624 90.8039L52.5656 83.8179L40.2594 79.5832L109.301 63.5349L141.172 70.1049Z" fill="#809FE1"/>
<path d="M141.175 70.1048L127.239 74.3265L118.601 76.9466C115.161 75.3952 112.015 73.2588 109.301 70.6321V63.5381L141.175 70.1048Z" fill="#6885D0"/>
<path d="M127.236 74.3296L109.301 79.7631L72.8625 90.8037L58.018 85.6977L52.5656 83.8177L109.301 70.6287L127.236 74.3296Z" fill="#8B4024"/>
<path d="M116.377 81.7186L115.462 82.0003L106.086 84.8562C105.854 84.9269 105.606 84.9165 105.381 84.8267L104.074 84.2798L103.244 83.9523C103.198 83.9325 103.158 83.8989 103.132 83.8559C103.105 83.8129 103.092 83.7627 103.095 83.7121C103.098 83.6616 103.116 83.6132 103.148 83.5735C103.179 83.5338 103.222 83.5048 103.27 83.4905L113.486 80.4904C113.687 80.4283 113.902 80.4283 114.103 80.4904L116.39 81.2732C116.436 81.2906 116.475 81.3219 116.502 81.3626C116.529 81.4034 116.543 81.4516 116.541 81.5006C116.54 81.5496 116.523 81.5969 116.494 81.636C116.464 81.6751 116.423 81.7039 116.377 81.7186Z" fill="#667DC8"/>
<path d="M115.462 82.0002L106.086 84.8561C105.854 84.9268 105.606 84.9164 105.38 84.8267L104.074 84.2797L113.486 81.5188C113.686 81.4501 113.903 81.4501 114.103 81.5188L115.462 82.0002Z" fill="#1F3D92"/>
<path d="M109.301 79.7631V74.0578L58.018 85.6977L52.5656 83.8177L109.301 70.6287L127.236 74.3296L109.301 79.7631Z" fill="#7A2F0F"/>
<path d="M142.988 75.0471C142.988 75.1551 141.443 75.7447 138.643 76.7174C135.844 77.6901 131.711 79.082 126.631 80.7687C116.471 84.1258 102.404 88.6717 86.8445 93.6106L73.003 97.983C73.3296 98.638 73.6237 99.3225 73.9177 100.02C74.1431 100.561 74.3587 101.111 74.5514 101.658C74.7442 102.205 74.9533 102.791 75.1264 103.374C75.5086 104.543 75.8157 105.752 76.1489 106.977C76.4168 108.228 76.75 109.489 76.9722 110.795C77.0963 111.45 77.2172 112.105 77.3446 112.761C77.4067 113.176 77.472 113.592 77.5308 114.018C77.5667 114.267 77.6059 114.523 77.6451 114.771C77.8673 116.124 78.0077 117.509 78.1678 118.901C78.6996 124.147 78.9384 129.419 78.8833 134.691C78.8408 136.184 78.8016 136.984 78.7755 138.382C85.5901 135.978 90.4185 135.107 90.5132 135.372L78.3671 139.876L78.1417 139.961L75.5119 138.837L58.2924 131.373L52.5656 128.92C52.644 128.737 54.823 129.487 58.2891 130.843C61.7553 132.199 66.4889 133.79 71.6832 136.03C73.7282 136.921 75.6981 137.534 77.5341 138.356C77.5341 137.35 77.5341 136.957 77.5341 135.906C77.5341 135.516 77.5341 135.123 77.5341 134.727C77.4785 129.909 77.3054 124.607 76.7173 119.091C76.5573 117.713 76.4233 116.347 76.2045 115.014C76.1685 114.745 76.1293 114.483 76.0901 114.218C76.0313 113.822 75.9758 113.425 75.917 113.026C75.7961 112.371 75.6818 111.716 75.5674 111.087C75.3551 109.796 75.0415 108.555 74.7867 107.324C74.46 106.112 74.1921 104.92 73.8327 103.78C73.6727 103.204 73.5061 102.644 73.297 102.093C73.0879 101.543 72.9213 101.003 72.722 100.485C72.4224 99.6841 72.0767 98.9011 71.6864 98.1402C59.9879 93.4927 49.8607 89.4119 42.6508 86.4446C39.0377 84.9577 36.1694 83.7524 34.1995 82.9009C32.2296 82.0493 31.1842 81.5482 31.2136 81.4696C31.243 81.391 32.3603 81.7447 34.3726 82.4522C36.385 83.1596 39.3154 84.2404 42.971 85.6193C49.8868 88.2394 59.4195 91.8813 70.3895 96.1489C70.9449 96.3683 71.5002 96.5779 72.0621 96.8039L72.2157 96.7515C76.737 95.3105 81.4804 93.8039 86.3774 92.2416C101.934 87.2994 116.05 82.9009 126.292 79.796C131.411 78.2403 135.56 77.0089 138.438 76.1934C141.316 75.3778 142.956 74.9488 142.988 75.0471Z" fill="#F8F6FF"/>
<path d="M149.708 103.751L146.699 104.147L145.945 104.252C145.888 104.259 145.831 104.247 145.782 104.218C145.734 104.189 145.696 104.144 145.675 104.091C145.654 104.038 145.652 103.98 145.668 103.925C145.685 103.87 145.719 103.823 145.765 103.79L146.634 103.194C146.634 103.194 148.009 102.27 149.065 101.579L149.708 103.751Z" fill="#778CD4"/>
<path d="M127.726 20.9808L109.412 59.8504C109.412 59.8504 95.5898 42.682 86.3316 26.7287C82.9308 20.8858 80.1508 15.2067 78.8865 10.592C78.6807 9.85509 78.5141 9.14438 78.3932 8.46315L65.1266 3.24584L82.3167 0.209766C83.3045 0.0122518 84.315 -0.0461817 85.3189 0.0361733C85.5051 0.0361733 85.6978 0.0558227 85.8873 0.0754736C86.0768 0.0951246 86.2728 0.108246 86.4721 0.137722C86.6714 0.167199 86.8412 0.183565 87.034 0.209766H87.0536C87.5175 0.278545 88.0108 0.370265 88.5237 0.471795L89.213 0.625718L89.3469 0.651905C89.6017 0.717408 89.8729 0.779631 90.1407 0.851684L90.5426 0.946677L90.7353 0.999091C92.8008 1.54166 94.8258 2.22892 96.7953 3.05586C101.947 5.07991 108.34 8.1815 116.184 12.5735C119.506 14.424 123.08 16.5037 126.935 18.8389C126.982 18.864 127.026 18.8924 127.069 18.924C127.364 19.1371 127.586 19.437 127.703 19.7821C127.822 20.1718 127.83 20.5869 127.726 20.9808Z" fill="#CACEF7"/>
<path d="M116.194 12.5799C103.816 10.8801 91.0195 10.3921 78.8865 10.5919C78.6807 9.85498 78.5141 9.14427 78.3932 8.46304L65.1266 3.24573L82.3167 0.209657C84.182 -0.193187 86.753 -0.0228791 90.1407 0.864689L90.5426 0.959681C92.6747 1.51112 94.7643 2.21599 96.7953 3.06886C101.957 5.08636 108.35 8.18795 116.194 12.5799Z" fill="#EFEFFF"/>
<path d="M91.6468 63.843C91.6468 63.843 9.99876 -38.6466 110.575 22.6644L91.6468 63.843Z" fill="#778CD4"/>
<path d="M91.7024 63.8426L91.5619 63.6625L91.6436 63.8426L39.6225 16.5821L67.4984 10.9095C69.7492 10.2545 73.2578 10.6344 78.3672 12.4095C78.359 12.5912 78.3822 12.7729 78.4358 12.9466C78.4612 13.0556 78.5085 13.1583 78.5748 13.2484C78.641 13.3385 78.7249 13.4141 78.8212 13.4707L80.4383 13.1759C87.0994 15.7534 96.1518 20.414 108.17 27.7438L91.7024 63.8426Z" fill="#A65733"/>
<path d="M78.8277 13.4808L49.7104 18.8324L50.0861 18.2364L50.158 18.1283L50.5272 17.5388L78.3671 12.4197C78.359 12.6013 78.3822 12.7831 78.4357 12.9568C78.4619 13.0664 78.5102 13.1693 78.5777 13.2595C78.6451 13.3496 78.7302 13.4249 78.8277 13.4808Z" fill="#7A2F0F"/>
<path d="M78.4423 12.9568L50.158 18.1283L50.5272 17.5388L78.3671 12.4197C78.3611 12.6017 78.3865 12.7835 78.4423 12.9568Z" fill="#C37647"/>
<path d="M75.5119 28.5429L46.5318 74.0315C46.5318 74.0315 22.4324 38.0932 21.8378 19.8768L15.8236 17.0962L7.90802 13.4444L14.6475 12.2522L16.4769 11.9247L19.6588 11.3614L24.1736 10.559L25.8528 10.2642L26.2872 10.1889L28.6198 9.77618C31.1026 9.32749 34.3498 9.56002 38.4921 10.6376C38.6366 10.6753 38.7644 10.7602 38.8555 10.8788C38.9466 10.9974 38.9957 11.1429 38.9952 11.2926V12.5699C38.9952 12.6044 39.0042 12.6383 39.0214 12.6682C39.0386 12.6981 39.0634 12.7229 39.0932 12.7402C39.123 12.7574 39.1568 12.7665 39.1912 12.7665C39.2256 12.7665 39.2594 12.7575 39.2892 12.7402L40.6776 11.9378C40.9169 11.7994 41.1826 11.7133 41.4573 11.6851C41.732 11.6569 42.0096 11.6872 42.2719 11.774C43.1768 12.0753 44.1209 12.4291 45.1009 12.7861C52.8041 15.7108 62.7778 20.7807 75.5119 28.5429Z" fill="#CACEF7"/>
<path d="M127.722 20.9808L109.409 59.8503L24.7976 78.9412L54.4474 32.0802L86.3317 26.7352L127.709 19.7952C127.826 20.1811 127.83 20.5923 127.722 20.9808Z" fill="#B0B8F1"/>
<path d="M118.409 27.0037L104.077 56.9648L38.9952 70.6287L44.9506 61.157L60.3962 36.6195L108.553 28.638L118.409 27.0037Z" fill="#647FCC"/>
<path d="M45.1009 12.7828C27.9174 14.6726 16.2907 17.07 16.2907 17.07L15.8236 17.0962L7.90802 13.4444L14.6475 12.2522L16.4769 11.9247L19.6588 11.3614L24.1671 10.5655L25.8528 10.2642L26.2872 10.1889L28.6198 9.77618C31.1026 9.32749 34.3498 9.56002 38.4921 10.6376C38.6366 10.6753 38.7644 10.7602 38.8555 10.8788C38.9466 10.9974 38.9957 11.1429 38.9952 11.2926V12.5699C38.9952 12.6044 39.0042 12.6383 39.0214 12.6682C39.0386 12.6981 39.0634 12.7229 39.0932 12.7402C39.123 12.7574 39.1568 12.7665 39.1912 12.7665C39.2256 12.7665 39.2594 12.7575 39.2892 12.7402L40.6776 11.9378C40.9169 11.7994 41.1826 11.7133 41.4573 11.6851C41.732 11.6569 42.0096 11.6872 42.2719 11.774C43.1768 12.0721 44.1209 12.4127 45.1009 12.7828Z" fill="#EFEFFF"/>
<path d="M108.553 28.6382L98.3569 49.9496L44.9507 61.1572L46.8585 58.1277H46.865L50.0469 53.0643L50.9747 51.597L55.4046 44.5522L56.3193 43.098L60.3963 36.6197L81.5621 33.112L88.5956 31.9461L90.033 31.7103H90.0395L97.8309 30.4133L99.301 30.171L100.389 29.9908L108.553 28.6382Z" fill="#8B4024"/>
<path d="M24.7877 78.9412C24.7877 78.9412 -46.1451 -29.234 54.431 32.077L24.7877 78.9412Z" fill="#778CD4"/>
<path d="M39.6453 34.2844L26.2121 55.5107L24.1409 58.7858C24.1409 58.7858 2.4949 25.7526 15.7517 24.4917C19.8353 24.0954 27.251 26.7352 39.6453 34.2844Z" fill="#3D5FB5"/>
<path d="M39.6453 34.2846L26.2121 55.5109C25.1765 53.8438 23.5529 51.1484 21.841 47.9944C21.7332 47.8011 21.6287 47.6013 21.5144 47.3983L21.155 46.7138C19.7993 44.1428 18.4305 41.3491 17.3067 38.5979C17.2087 38.3752 17.1205 38.1558 17.029 37.9429L16.7252 37.1471C14.703 31.8348 13.7589 26.9122 15.7451 24.5082C17.6497 24.3248 20.2762 24.7964 23.7946 26.1229C24.0037 26.2015 24.2226 26.2834 24.448 26.3751C24.6734 26.4668 24.8204 26.5224 25.0099 26.5978C27.0451 27.4264 29.345 28.5137 31.9486 29.8926L32.5563 30.2201C32.7261 30.3151 32.8993 30.4133 33.079 30.5083C35.0935 31.5869 37.2823 32.8457 39.6453 34.2846Z" fill="#8B4024"/>
<path d="M110.575 22.6675L75.5119 28.5431C75.5119 28.5431 62.8464 26.578 62.1375 20.8137L80.8793 17.8268L81.585 17.7187L85.0805 17.1619L97.7003 15.1477C97.7003 15.1477 110.248 16.353 110.575 22.6675Z" fill="#CACEF7"/>
<path d="M98.3569 49.9494L104.077 56.9648L118.409 27.0037L108.553 28.638L98.3569 49.9494Z" fill="#3D5FB5"/>
<path d="M108.553 28.6382L98.3569 49.9496L44.9507 61.1572L46.8585 58.1277H46.865L96.7267 48.3153L81.5621 33.112L100.389 29.9908L108.553 28.6382Z" fill="#7A2F0F"/>
<path d="M128.216 20.3322C128.216 20.4239 128.216 20.5124 128.196 20.6008C128.056 21.3907 127.795 22.1541 127.422 22.8639C127.11 23.5321 126.798 24.1969 126.484 24.8585C125.864 26.1686 125.25 27.4786 124.642 28.7494C123.427 31.2909 122.257 33.7538 121.146 36.0988C118.902 40.7594 116.899 44.9614 115.162 48.5182C113.424 52.0751 112.042 54.895 111.052 56.8568C110.062 58.8186 109.494 59.8503 109.418 59.8503C109.343 59.8503 109.81 58.6909 110.686 56.6767C111.561 54.6624 112.865 51.7639 114.495 48.1973C116.125 44.6306 118.089 40.3664 120.268 35.6764C121.359 33.3248 122.512 30.8553 123.708 28.3007C124.309 27.0168 124.913 25.7231 125.534 24.4032C125.86 23.7482 126.154 23.0768 126.475 22.4087C126.78 21.8152 127 21.1811 127.128 20.5255C116.122 22.4218 103.535 24.5703 90.1539 26.8138C77.5733 28.8968 65.6919 30.8553 55.1498 32.6075L54.8231 32.6632C54.4539 33.2396 54.0881 33.8095 53.732 34.3761C47.3453 44.3588 41.9224 52.7628 38.012 58.7597C35.9277 61.9464 34.2714 64.4584 33.1117 66.1615C31.952 67.8646 31.315 68.7587 31.2562 68.7194C31.1973 68.6801 31.7298 67.7139 32.772 65.9453C33.8141 64.1767 35.3854 61.6058 37.3684 58.3503C41.2886 51.9735 46.8422 42.9898 53.5229 32.3488C43.3957 25.9589 33.8337 21.0626 26.6597 18.0757C23.0107 16.5396 19.9986 15.4555 17.9111 14.8005C15.8236 14.1455 14.6443 13.8179 14.6443 13.7098C14.6443 13.6018 15.889 13.7426 18.0516 14.2797C21.0958 15.0655 24.0903 16.0334 27.0191 17.1782C34.4413 19.9916 44.3333 24.8683 54.6728 31.4121L89.9089 25.4185C103.198 23.1947 115.717 21.1248 126.69 19.3366C120.81 15.6324 115.122 12.4096 110.052 9.76982L109.905 9.68466C109.867 9.65933 109.827 9.63847 109.784 9.62245C107.756 8.55148 95.995 2.32866 110.833 9.11479L110.869 9.13446C115.926 11.6989 121.545 14.8365 127.337 18.4785C127.541 18.5788 127.718 18.7285 127.85 18.9141C127.899 18.981 127.941 19.0523 127.977 19.127C128.045 19.2406 128.096 19.3629 128.131 19.4905C128.203 19.7648 128.232 20.0489 128.216 20.3322Z" fill="#F8F6FF"/>
<path d="M35.2874 41.1788C35.2482 41.1526 34.9052 41.6111 34.3074 42.466C33.7096 43.3208 32.8831 44.5719 31.8573 46.1374C29.8645 49.1702 27.1498 53.3853 24.1214 58.1507C23.7033 57.5546 23.2851 56.9422 22.8767 56.3101C19.8861 51.6403 17.2751 46.7368 15.069 41.6472L14.4614 40.2552L13.9452 39.0008C13.6185 38.218 13.3441 37.5434 13.1318 36.9833C12.6973 35.8731 12.4327 35.2671 12.3837 35.2802C12.3347 35.2933 12.5143 35.9353 12.8704 37.0783C13.0436 37.6514 13.2821 38.3458 13.5761 39.1417C13.7231 39.5478 13.8766 39.9768 14.04 40.4255L14.6051 41.8437C16.6892 47.0282 19.2598 52.0026 22.2822 56.6998C22.7918 57.4891 23.3112 58.2522 23.8535 58.9924L24.1574 59.4116L24.435 58.9695C27.5614 54.0076 30.3153 49.5829 32.2591 46.3863C33.2392 44.788 34.0069 43.4976 34.5263 42.597C35.0457 41.6963 35.3234 41.2017 35.2874 41.1788Z" fill="#CACEF7"/>
<path d="M110.075 9.75361H110.056L109.908 9.66846L110.075 9.75361Z" fill="#A65733"/>
<path d="M99.3009 30.1709L93.401 45.086L50.0469 53.0642L50.4748 52.3896L50.9747 51.597L92.4733 43.9495L97.8309 30.4133L98.6116 30.2855L99.3009 30.1709Z" fill="#5E210A"/>
<path d="M90.033 31.7102L87.4293 39.0859L87.0602 39.1514L55.4045 44.5521L55.9795 43.6285H55.986L56.3193 43.0979L86.4721 37.9461L88.5956 31.946L89.1901 31.851L90.033 31.7102Z" fill="#5E210A"/>
<path d="M98.6117 30.2854L92.9731 44.552L50.4749 52.3894L50.9747 51.5968L92.4733 43.9493L97.8309 30.4131L98.6117 30.2854Z" fill="#A65733"/>
<path d="M33.0822 30.4852L21.8443 47.9942C21.7365 47.801 21.632 47.6012 21.5176 47.3981L21.155 46.7136L31.9519 29.8826L32.5595 30.2101C32.7294 30.292 32.9025 30.3902 33.0822 30.4852Z" fill="#5E210A"/>
<path d="M32.5595 30.197L21.5242 47.3981L21.155 46.7136L31.9519 29.8826L32.5595 30.197Z" fill="#A65733"/>
<path d="M25.0132 26.5813L17.3068 38.5913C17.2088 38.3686 17.1206 38.1491 17.0291 37.9362L16.7253 37.1404L23.8012 26.1162C24.0103 26.1948 24.2292 26.2767 24.4546 26.3684C24.68 26.4601 24.8238 26.506 25.0132 26.5813Z" fill="#5E210A"/>
<path d="M24.4513 26.3586L17.0291 37.9265L16.7253 37.1306L23.8012 26.1064C24.0103 26.185 24.2292 26.2669 24.4513 26.3586Z" fill="#A65733"/>
<path d="M89.1901 31.8508L86.8281 38.4896L55.986 43.6283L56.3192 43.0977L86.4721 37.9459L88.5955 31.9458L89.1901 31.8508Z" fill="#A65733"/>
<path d="M97.8636 14.8629C95.8284 13.6805 93.5841 12.4 91.1633 11.1914C86.9638 9.05014 82.6318 7.18054 78.194 5.59415C76.492 4.98825 75.0905 4.56248 74.117 4.28409C73.1435 4.0057 72.5914 3.91072 72.5783 3.95658C72.5652 4.00243 73.0879 4.19895 74.032 4.54612C74.9762 4.89329 76.345 5.39438 78.0176 6.05596C81.3661 7.36603 85.9397 9.33111 90.8301 11.817C92.9307 12.8683 94.894 13.9524 96.7104 14.9742C93.5514 15.5244 90.8562 16.0157 88.9125 16.3891C86.776 16.8018 85.5346 17.0769 85.5476 17.1522C85.5607 17.2275 86.825 17.0834 88.9778 16.7854C91.1307 16.4873 94.1688 16.0288 97.7362 15.4753L98.6509 15.328L97.8636 14.8629Z" fill="#F6EBFB"/>
<mask id="mask0_7912_10744" style="mask-type:luminance" maskUnits="userSpaceOnUse" x="38" y="27" width="108" height="64">
<path d="M40.2594 79.5831L38.9952 70.6288L60.3962 36.6163L118.409 27.0037H145.873L141.175 70.1048L72.8624 90.8038L40.2594 79.5831Z" fill="white"/>
</mask>
<g mask="url(#mask0_7912_10744)">
<path style="mix-blend-mode:screen" d="M72.8624 90.8038L40.2594 79.5831L38.9951 70.6287L60.3962 36.6195L118.409 27.0037H145.873L141.172 70.1047L72.8624 90.8038Z" fill="url(#paint0_linear_7912_10744)"/>
<path d="M61.2619 77.3135L61.2815 81.7349C61.2815 83.2775 58.2302 84.545 54.444 84.5614C53.8985 84.5664 53.3532 84.5412 52.8106 84.486C49.8181 84.2044 47.5836 83.1105 47.5836 81.7971L47.564 77.3789C47.564 75.8331 50.6185 74.5623 54.4015 74.5459C55.3686 74.5363 56.3345 74.6186 57.2861 74.7916C59.6317 75.2272 61.2553 76.1901 61.2619 77.3135Z" fill="#EC830F"/>
<path d="M61.2618 77.3134L61.2814 81.7349C61.2814 83.2775 58.2302 84.545 54.4439 84.5613C53.8985 84.5663 53.3532 84.5411 52.8105 84.486L52.7877 80.0711L57.2861 74.7915C59.6317 75.2271 61.2553 76.19 61.2618 77.3134Z" fill="#F3AA16"/>
<path d="M61.2619 77.3135C61.2619 78.2141 60.2329 79.0198 58.6223 79.5373C57.2639 79.9515 55.8508 80.1569 54.431 80.1464C53.8855 80.1512 53.3402 80.1261 52.7976 80.0711C51.9308 79.9982 51.0744 79.8324 50.2429 79.5766C48.6095 79.0755 47.5869 78.2665 47.5837 77.3789C47.5837 75.8331 50.6382 74.5623 54.4212 74.5459C55.3883 74.5363 56.3541 74.6186 57.3058 74.7916C59.6318 75.2272 61.2554 76.1901 61.2619 77.3135Z" fill="#F6C929"/>
<path d="M61.2618 77.3134C61.2618 78.2141 60.2327 79.0197 58.6222 79.5372C57.2638 79.9515 55.8506 80.1568 54.4308 80.1464C53.8854 80.1512 53.3401 80.126 52.7974 80.0711L57.2861 74.7915C59.6316 75.2271 61.2552 76.19 61.2618 77.3134Z" fill="#FBE341"/>
<path d="M75.0381 71.3362L75.0577 75.7577C75.0577 77.3036 72.0064 78.5678 68.2202 78.5874C67.6748 78.5908 67.1295 78.5657 66.5867 78.5121C63.5943 78.2271 61.3598 77.1332 61.3598 75.8199L61.3402 71.4017C61.3402 69.8559 64.3947 68.5851 68.1777 68.5687C69.1461 68.5585 70.1132 68.6419 71.0656 68.8176C73.4079 69.2499 75.0315 70.2161 75.0381 71.3362Z" fill="#EC830F"/>
<path d="M75.0381 71.3362L75.0577 75.7577C75.0577 77.3036 72.0064 78.5678 68.2202 78.5874C67.6747 78.5908 67.1295 78.5657 66.5867 78.5121L66.5671 74.0939L71.0688 68.8176C73.4079 69.2499 75.0315 70.2161 75.0381 71.3362Z" fill="#F3AA16"/>
<path d="M75.0382 71.3362C75.0382 72.2369 74.0091 73.0426 72.3986 73.5633C71.04 73.9765 69.6269 74.1807 68.2072 74.1692C67.6618 74.1742 67.1165 74.1491 66.5738 74.0939C65.7061 74.0222 64.8486 73.8575 64.0159 73.6026C62.3988 73.0982 61.36 72.2926 61.3567 71.4017C61.3567 69.8559 64.4112 68.5851 68.1942 68.5687C69.1625 68.5585 70.1296 68.6419 71.082 68.8176C73.408 69.2499 75.0317 70.2161 75.0382 71.3362Z" fill="#F6C929"/>
<path d="M75.0381 71.3362C75.0381 72.2369 74.0091 73.0426 72.3985 73.5633C71.04 73.9765 69.6268 74.1808 68.2071 74.1692C67.6617 74.1742 67.1164 74.1491 66.5737 74.0939L71.0754 68.8176C73.408 69.2499 75.0316 70.2161 75.0381 71.3362Z" fill="#FBE341"/>
<path d="M75.9789 65.9815L76.0018 70.4029C76.0018 71.9488 72.9506 73.213 69.1643 73.2327C68.6189 73.236 68.0737 73.2109 67.5309 73.1573C64.5385 72.8724 62.3039 71.7818 62.3039 70.4652L62.2811 66.047C62.2811 64.5011 65.3388 63.2303 69.1185 63.214C70.0869 63.2038 71.054 63.2871 72.0064 63.4629C74.352 63.8952 75.9756 64.8614 75.9789 65.9815Z" fill="#EC830F"/>
<path d="M75.9789 65.9815L76.0018 70.4029C76.0018 71.9488 72.9506 73.213 69.1643 73.2327C68.6189 73.236 68.0737 73.2109 67.5309 73.1573L67.5113 68.7424L72.013 63.4629C74.3521 63.8952 75.9757 64.8614 75.9789 65.9815Z" fill="#F3AA16"/>
<path d="M75.9791 65.9815C75.9791 66.8821 74.9533 67.6911 73.3395 68.2086C71.9799 68.6221 70.5656 68.8263 69.1449 68.8145C68.5995 68.8189 68.0543 68.7949 67.5115 68.7424C66.6439 68.668 65.7865 68.5022 64.9535 68.2479C63.3365 67.7435 62.2976 66.9378 62.2911 66.047C62.2911 64.5011 65.3488 63.2303 69.1286 63.214C70.0969 63.2038 71.064 63.2871 72.0164 63.4629C74.3522 63.8952 75.9758 64.8614 75.9791 65.9815Z" fill="#F6C929"/>
<path d="M75.9789 65.9815C75.9789 66.8821 74.9531 67.6911 73.3393 68.2086C71.9797 68.6221 70.5654 68.8263 69.1447 68.8145C68.5994 68.8189 68.0541 68.7949 67.5113 68.7424L72.013 63.4629C74.3521 63.8952 75.9757 64.8614 75.9789 65.9815Z" fill="#FBE341"/>
<path d="M136.928 70.8286V75.8134C136.928 77.5557 133.472 78.9673 129.199 78.9673C128.581 78.9689 127.964 78.9383 127.35 78.8756C123.979 78.5481 121.47 77.2937 121.47 75.8134V70.8286C121.47 69.0862 124.932 67.668 129.196 67.668C130.292 67.6614 131.385 67.7601 132.463 67.9628C135.102 68.4639 136.928 69.5611 136.928 70.8286Z" fill="#F2A61B"/>
<path d="M136.928 70.8285V75.8133C136.928 77.5557 133.472 78.9673 129.199 78.9673C128.581 78.9689 127.964 78.9382 127.35 78.8756V73.8974L132.456 67.9661C135.102 68.4639 136.928 69.5611 136.928 70.8285Z" fill="#F7C426"/>
<path d="M136.928 70.8286C136.928 71.8407 135.759 72.7479 133.939 73.321C132.403 73.7777 130.807 73.9986 129.205 73.9761C128.588 73.9776 127.971 73.947 127.356 73.8844C126.378 73.796 125.413 73.6039 124.475 73.3112C122.655 72.738 121.486 71.8308 121.486 70.8188C121.486 69.0764 124.949 67.6583 129.212 67.6583C130.308 67.6516 131.402 67.7503 132.479 67.953C135.102 68.464 136.928 69.5612 136.928 70.8286Z" fill="#F9DA44"/>
<path d="M136.928 70.8287C136.928 71.8407 135.759 72.748 133.939 73.3211C132.403 73.7778 130.807 73.9987 129.205 73.9761C128.588 73.9777 127.971 73.9471 127.356 73.8844L132.463 67.9531C135.102 68.464 136.928 69.5612 136.928 70.8287Z" fill="#FCEC65"/>
<path d="M131.95 74.6768L130.976 67.8744H130.979L124.318 65.1724L118.902 69.3842L119.872 76.1867L126.533 78.8887L131.95 74.6768Z" fill="#FF5602"/>
<path d="M129.01 69.227L124.795 67.5173L121.212 70.3209L121.842 74.8341L126.056 76.5437L129.64 73.7401L129.01 69.227Z" fill="#FF9105"/>
<path d="M124.318 65.1724L118.902 69.3842L121.212 70.3209L124.795 67.5173L124.318 65.1724Z" fill="#FF8204"/>
<path d="M126.533 78.8889L119.872 76.1869L121.842 74.8342L126.056 76.5439L126.533 78.8889Z" fill="#F34B00"/>
<path d="M119.872 76.1868L118.902 69.3843L121.212 70.321L121.842 74.8341L119.872 76.1868Z" fill="#FF5602"/>
<path d="M130.979 67.8744L129.009 69.227L124.795 67.5173L124.318 65.1724L130.979 67.8744Z" fill="#FFAC09"/>
<path d="M130.976 67.8745L131.95 74.677L129.64 73.7403L129.01 69.2272L130.976 67.8745Z" fill="#FF8204"/>
<path d="M126.533 78.8888L131.95 74.6769L129.64 73.7402L126.056 76.5438L126.533 78.8888Z" fill="#FF5602"/>
<path d="M130.979 67.8743C130.94 67.8186 130.153 68.2935 129.019 69.0435C128.366 68.7684 125.605 67.6548 124.939 67.3863C124.635 66.05 124.397 65.1592 124.331 65.1723C124.266 65.1854 124.397 66.0959 124.635 67.4387C123.632 68.2411 122.773 68.942 122.169 69.4496C121.824 69.7058 121.508 69.9978 121.225 70.3208C121.607 70.126 121.967 69.8887 122.296 69.6134C122.95 69.1516 123.815 68.49 124.834 67.7105C125.488 67.9791 128.212 69.0828 128.872 69.3481C129.062 70.6188 129.235 71.7127 129.372 72.4857C129.418 72.9141 129.513 73.336 129.653 73.7434C129.678 73.3128 129.652 72.8809 129.578 72.4562C129.5 71.6734 129.366 70.5697 129.199 69.2924C130.293 68.4933 131.015 67.9267 130.979 67.8743Z" fill="#FFEF61"/>
<path d="M99.301 65.0052L103.149 68.8633L101.888 75.1713L95.5964 76.4355L91.7448 72.5774L90.7778 65.1952L91.9376 64.0325L99.301 65.0052Z" fill="#0081FF"/>
<path d="M90.7778 65.1953L91.7448 72.5743L93.3684 71.4836L92.6661 65.9257L90.7778 65.1953Z" fill="#0081FF"/>
<path d="M91.7447 72.5743L95.593 76.4324L96.1745 74.297L93.3683 71.4836L91.7447 72.5743Z" fill="#00DDFF"/>
<path d="M100.438 73.7139L101.888 75.1713L95.593 76.4323L96.1745 74.2969L100.438 73.7139Z" fill="#0081FF"/>
<path d="M98.2065 66.6299L101.016 69.4466L100.438 73.7141L96.1778 74.2971L93.3683 71.4837L92.666 65.9258L98.2065 66.6299Z" fill="#14F0FF"/>
<path d="M91.9376 64.0325L92.6661 65.9255L90.7778 65.1952L91.9376 64.0325Z" fill="#14F0FF"/>
<path d="M91.9374 64.0325L99.2976 65.0019L98.2098 66.6297L92.6659 65.9255L91.9374 64.0325Z" fill="#00B5FF"/>
<path d="M99.2975 65.0022L103.146 68.8603L101.016 69.4433L98.2097 66.6299L99.2975 65.0022Z" fill="#00DDFF"/>
<path d="M100.438 73.7141L101.888 75.1715L103.146 68.8604L101.016 69.4433L100.438 73.7141Z" fill="#00B5FF"/>
<path d="M103.149 68.8602C103.13 68.7947 102.293 68.965 101.075 69.2663L98.4156 66.5873C98.9938 65.6637 99.3499 65.0381 99.2976 65.0021C99.2454 64.966 98.7945 65.5458 98.1542 66.4464C96.6058 66.2565 95.2468 66.1189 94.2667 66.0141C93.2867 65.9093 92.6725 65.8798 92.666 65.9257C93.1777 66.0863 93.7041 66.196 94.2373 66.2532C95.2174 66.4071 96.5731 66.6004 98.1281 66.8067L100.846 69.5185C100.693 70.7369 100.572 71.7784 100.5 72.5186C100.431 72.9175 100.41 73.3232 100.438 73.7271C100.569 73.3442 100.657 72.9476 100.699 72.5448C100.827 71.8177 100.99 70.786 101.166 69.5775C102.368 69.2074 103.166 68.9257 103.149 68.8602Z" fill="#EDFFFF"/>
<path d="M118.663 72.7543L118.683 77.1758C118.683 78.7184 115.632 79.9859 111.845 80.0023C111.3 80.0072 110.755 79.9821 110.212 79.9269C107.22 79.6453 104.985 78.5513 104.985 77.238L104.966 72.8165C104.966 71.2739 108.02 70.0032 111.803 69.9836C112.77 69.9766 113.736 70.0599 114.688 70.2325C117.033 70.6681 118.657 71.6342 118.663 72.7543Z" fill="#EC830F"/>
<path d="M118.663 72.7545L118.683 77.176C118.683 78.7186 115.632 79.9861 111.846 80.0024C111.3 80.0074 110.755 79.9823 110.212 79.9271L110.189 75.5122L114.691 70.2327C117.033 70.6683 118.657 71.6344 118.663 72.7545Z" fill="#F3AA16"/>
<path d="M118.663 72.7543C118.663 73.6517 117.634 74.4607 116.024 74.9782C114.665 75.3924 113.252 75.5978 111.833 75.5873C111.287 75.5921 110.742 75.567 110.199 75.512C109.333 75.4375 108.476 75.2717 107.644 75.0175C106.027 74.5164 104.988 73.7074 104.985 72.8165C104.985 71.2739 108.04 70.0032 111.823 69.9836C112.79 69.9766 113.756 70.0599 114.707 70.2325C117.033 70.6681 118.657 71.6342 118.663 72.7543Z" fill="#F6C929"/>
<path d="M118.663 72.7545C118.663 73.6519 117.634 74.4609 116.024 74.9784C114.665 75.3926 113.252 75.598 111.832 75.5875C111.287 75.5923 110.742 75.5672 110.199 75.5122L114.701 70.2327C117.033 70.6683 118.657 71.6344 118.663 72.7545Z" fill="#FBE341"/>
<path d="M119.604 67.3996L119.624 71.8211C119.624 73.3637 116.573 74.6312 112.786 74.6476C112.241 74.6525 111.696 74.6274 111.153 74.5722C108.161 74.2906 105.926 73.1966 105.926 71.8833L105.903 67.4618C105.903 65.9192 108.961 64.6485 112.741 64.6288C113.709 64.6219 114.676 64.7052 115.629 64.8777C117.977 65.3133 119.601 66.2795 119.604 67.3996Z" fill="#EC830F"/>
<path d="M119.604 67.3996L119.624 71.821C119.624 73.3636 116.573 74.6311 112.786 74.6475C112.241 74.6525 111.696 74.6274 111.153 74.5722L111.133 70.1572L115.635 64.8777C117.977 65.3133 119.601 66.2795 119.604 67.3996Z" fill="#F3AA16"/>
<path d="M119.604 67.3996C119.604 68.297 118.575 69.106 116.965 69.6234C115.605 70.038 114.191 70.2434 112.77 70.2326C112.225 70.2376 111.679 70.2125 111.137 70.1573C110.269 70.0828 109.412 69.9171 108.579 69.6627C106.945 69.1616 105.923 68.3527 105.916 67.4618C105.916 65.9192 108.974 64.6485 112.754 64.6288C113.722 64.6219 114.689 64.7052 115.642 64.8777C117.978 65.3133 119.601 66.2795 119.604 67.3996Z" fill="#F6C929"/>
<path d="M119.604 67.3996C119.604 68.297 118.575 69.1059 116.965 69.6234C115.605 70.038 114.191 70.2434 112.77 70.2326C112.225 70.2376 111.679 70.2124 111.137 70.1572L115.638 64.8777C117.977 65.3133 119.601 66.2795 119.604 67.3996Z" fill="#FBE341"/>
<path d="M95.2632 69.5187L99.1246 72.4663C100.477 73.4947 99.5264 77.022 96.9979 80.3496C96.6356 80.8331 96.2462 81.2957 95.8316 81.735C93.5775 84.1652 91.1306 85.3803 89.984 84.5025L86.1193 81.5549C84.7668 80.5265 85.7175 76.9926 88.2427 73.6683C88.8835 72.8141 89.6044 72.0233 90.3956 71.3069C92.3491 69.5448 94.2799 68.7686 95.2632 69.5187Z" fill="#EC830F"/>
<path d="M95.263 69.5185L99.1244 72.4662C100.477 73.4946 99.5263 77.0219 96.9977 80.3495C96.6354 80.833 96.2461 81.2956 95.8315 81.7349L91.9701 78.7872L90.3954 71.3002C92.349 69.5447 94.2797 68.7685 95.263 69.5185Z" fill="#F3AA16"/>
<path d="M95.2631 69.5185C96.0471 70.1179 96.0569 71.5655 95.4264 73.3243C94.8732 74.7911 94.1023 76.1658 93.1396 77.4018C92.7745 77.885 92.3841 78.3486 91.9701 78.7905C91.3234 79.4996 90.604 80.1385 89.8238 80.6966C88.3014 81.7742 86.9065 82.1508 86.1225 81.5482C84.77 80.5198 85.7207 76.9859 88.2459 73.6616C88.8867 72.8074 89.6076 72.0166 90.3988 71.3002C92.3491 69.5447 94.2798 68.7685 95.2631 69.5185Z" fill="#F6C929"/>
<path d="M95.263 69.5187C96.0471 70.1181 96.0569 71.5657 95.4264 73.3244C94.8732 74.7913 94.1022 76.166 93.1396 77.402C92.7744 77.8852 92.384 78.3488 91.9701 78.7907L90.3954 71.3037C92.349 69.5449 94.2797 68.7687 95.263 69.5187Z" fill="#FBE341"/>
<path d="M94.1458 80.6869V85.6881C94.1458 87.4305 90.6895 88.8421 86.4165 88.8421C85.7988 88.8442 85.1816 88.8125 84.5674 88.7471C81.1961 88.4196 78.6871 87.1685 78.6871 85.6881V80.7001C78.6871 78.9577 82.15 77.5428 86.4132 77.5428C87.509 77.5362 88.603 77.6349 89.68 77.8376C92.3196 78.3256 94.1458 79.4227 94.1458 80.6869Z" fill="#F2A61B"/>
<path d="M94.1458 80.6868V85.6879C94.1458 87.4303 90.6895 88.8419 86.4165 88.8419C85.7989 88.8441 85.1816 88.8123 84.5674 88.7469V83.7654L89.6735 77.8374C92.3196 78.3254 94.1458 79.4226 94.1458 80.6868Z" fill="#F7C426"/>
<path d="M94.1458 80.6869C94.1458 81.7022 92.9763 82.6061 91.1567 83.1826C89.6208 83.6393 88.0248 83.8601 86.423 83.8376C85.8054 83.8397 85.1882 83.808 84.574 83.7426C83.5959 83.6569 82.6299 83.4658 81.6927 83.1727C79.873 82.5963 78.7035 81.6924 78.7035 80.6771C78.7035 78.9347 82.1663 77.5198 86.4296 77.5198C87.5254 77.5132 88.6194 77.6119 89.6964 77.8146C92.3197 78.3255 94.1458 79.4227 94.1458 80.6869Z" fill="#F9DA44"/>
<path d="M94.1459 80.6868C94.1459 81.7021 92.9764 82.606 91.1568 83.1824C89.6209 83.6392 88.0249 83.86 86.4231 83.8375C85.8055 83.8396 85.1883 83.8079 84.5741 83.7425L89.6801 77.8145C92.3197 78.3254 94.1459 79.4226 94.1459 80.6868Z" fill="#FCEC65"/>
<path d="M110.389 78.034V83.0221C110.389 84.7645 106.932 86.1761 102.659 86.1761C102.042 86.1782 101.424 86.1465 100.81 86.0811C97.4356 85.7536 94.9299 84.5025 94.9299 83.0221V78.034C94.9299 76.2917 98.3928 74.8768 102.656 74.8768C103.752 74.8701 104.846 74.9688 105.923 75.1716C108.576 75.6727 110.389 76.7698 110.389 78.034Z" fill="#F2A61B"/>
<path d="M110.389 78.0339V83.0219C110.389 84.7643 106.932 86.1759 102.659 86.1759C102.042 86.178 101.424 86.1463 100.81 86.0809V81.1027L105.916 75.1714C108.575 75.6725 110.389 76.7697 110.389 78.0339Z" fill="#F7C426"/>
<path d="M110.389 78.0339C110.389 79.0492 109.219 79.9531 107.399 80.5295C105.864 80.9862 104.268 81.2071 102.666 81.1846C102.048 81.1861 101.431 81.1555 100.817 81.0928C99.8388 81.0045 98.873 80.8124 97.9354 80.5197C96.1158 79.9433 94.9463 79.0393 94.9463 78.024C94.9463 76.2816 98.4091 74.8668 102.672 74.8668C103.768 74.8601 104.862 74.9588 105.939 75.1615C108.576 75.6725 110.389 76.7697 110.389 78.0339Z" fill="#F9DA44"/>
<path d="M110.388 78.0339C110.388 79.0492 109.219 79.9532 107.399 80.5296C105.863 80.9863 104.268 81.2072 102.666 81.1846C102.048 81.1862 101.431 81.1556 100.817 81.0929L105.923 75.1616C108.575 75.6725 110.388 76.7697 110.388 78.0339Z" fill="#FCEC65"/>
<path d="M111.823 71.7751V76.7599C111.823 78.5023 108.366 79.9139 104.097 79.9139C103.478 79.9155 102.86 79.8849 102.244 79.8222C98.8728 79.4946 96.3639 78.2403 96.3639 76.7599V71.7751C96.3639 70.0327 99.8267 68.6146 104.093 68.6146C105.189 68.6079 106.283 68.7066 107.36 68.9093C109.996 69.4104 111.823 70.5076 111.823 71.7751Z" fill="#F2A61B"/>
<path d="M111.823 71.7752V76.76C111.823 78.5024 108.366 79.9139 104.097 79.9139C103.478 79.9156 102.86 79.885 102.244 79.8222V74.8407L107.35 68.9094C109.997 69.4105 111.823 70.5077 111.823 71.7752Z" fill="#F7C426"/>
<path d="M111.823 71.7752C111.823 72.7872 110.653 73.6944 108.834 74.2676C107.299 74.7245 105.704 74.9454 104.103 74.9226C103.485 74.9242 102.866 74.8936 102.251 74.8309C101.273 74.7425 100.307 74.5504 99.3695 74.2577C97.5499 73.6846 96.3804 72.7774 96.3804 71.7653C96.3804 70.023 99.8432 68.6048 104.11 68.6048C105.206 68.5981 106.299 68.6968 107.377 68.8996C109.997 69.4105 111.823 70.5077 111.823 71.7752Z" fill="#F9DA44"/>
<path d="M111.823 71.7753C111.823 72.7873 110.653 73.6945 108.834 74.2676C107.299 74.7246 105.704 74.9455 104.103 74.9227C103.485 74.9243 102.866 74.8937 102.251 74.831L107.357 68.8997C109.997 69.4106 111.823 70.5078 111.823 71.7753Z" fill="#FCEC65"/>
<path d="M119.506 66.7872L124.201 68.4248C125.834 69.0012 126.03 72.7382 124.619 76.7797C124.418 77.3654 124.184 77.9395 123.92 78.4992C122.492 81.5811 120.493 83.5396 119.098 83.0483L114.403 81.4107C112.77 80.8343 112.574 77.0908 113.982 73.0558C114.337 72.0202 114.789 71.021 115.335 70.0721C116.68 67.737 118.317 66.3647 119.506 66.7872Z" fill="#F2A61B"/>
<path d="M119.506 66.7872L124.201 68.4248C125.834 69.0012 126.03 72.7382 124.619 76.7797C124.418 77.3654 124.185 77.9395 123.92 78.4992L119.232 76.8616L115.335 70.0721C116.681 67.737 118.317 66.3647 119.506 66.7872Z" fill="#F7C426"/>
<path d="M119.506 66.7872C120.46 67.1147 120.927 68.5295 120.869 70.4422C120.794 72.0472 120.478 73.6318 119.931 75.1421C119.727 75.7268 119.494 76.3007 119.232 76.8616C118.827 77.7585 118.328 78.6094 117.742 79.3998C116.599 80.9359 115.361 81.7416 114.403 81.4075C112.77 80.8311 112.574 77.0876 113.982 73.0526C114.337 72.0169 114.789 71.0178 115.335 70.0689C116.68 67.737 118.317 66.3647 119.506 66.7872Z" fill="#F9DA44"/>
<path d="M119.506 66.7872C120.46 67.1147 120.927 68.5295 120.869 70.4422C120.794 72.0472 120.478 73.6318 119.931 75.1421C119.727 75.7268 119.494 76.3007 119.232 76.8616L115.335 70.0721C116.681 67.737 118.317 66.3647 119.506 66.7872Z" fill="#FCEC65"/>
<path d="M67.3872 72.2076L70.9546 76.4653C72.2025 77.9522 70.2587 81.6466 66.6064 84.7187C66.0852 85.1644 65.5399 85.5809 64.973 85.9665C61.8499 88.1084 58.8216 88.8421 57.7598 87.5779L54.1925 83.3202C52.9478 81.8333 54.8916 78.1323 58.5373 75.0635C59.4681 74.275 60.4711 73.5765 61.533 72.9772C64.1465 71.5034 66.4823 71.1267 67.3872 72.2076Z" fill="#EC830F"/>
<path d="M67.3871 72.2074L70.9545 76.4651C72.2024 77.9521 70.2586 81.6465 66.6063 84.7186C66.0851 85.1642 65.5398 85.5808 64.9729 85.9664L61.412 81.7087L61.5329 72.9706C64.1464 71.5033 66.4822 71.1266 67.3871 72.2074Z" fill="#F3AA16"/>
<path d="M67.3872 72.2074C68.1125 73.0754 67.7629 74.69 66.6163 76.4914C65.6327 77.9886 64.4289 79.328 63.0456 80.4641C62.5238 80.9091 61.9786 81.3256 61.4122 81.712C60.5121 82.3401 59.5485 82.8714 58.5374 83.2971C56.5773 84.1159 54.921 84.1814 54.1957 83.2971C52.9511 81.8102 54.8949 78.1093 58.5407 75.0405C59.4714 74.252 60.4745 73.5535 61.5363 72.9542C64.1465 71.5033 66.4823 71.1266 67.3872 72.2074Z" fill="#F6C929"/>
<path d="M67.3871 72.2075C68.1123 73.0754 67.7628 74.6901 66.6161 76.4914C65.6325 77.9886 64.4287 79.328 63.0455 80.4642C62.5237 80.9092 61.9784 81.3257 61.412 81.712L61.5329 72.9739C64.1464 71.5034 66.4822 71.1267 67.3871 72.2075Z" fill="#FBE341"/>
<path d="M82.5682 83.1268V89.7918C82.5682 92.1204 77.9489 94.0069 72.2385 94.0069C71.4125 94.0094 70.587 93.9678 69.7655 93.8824C65.2573 93.4337 61.9088 91.77 61.9088 89.7918V83.1268C61.9088 80.7949 66.5346 78.9019 72.2385 78.9019C73.6981 78.8952 75.155 79.0267 76.5899 79.2949C80.1279 79.9663 82.5682 81.4303 82.5682 83.1268Z" fill="#F2A61B"/>
<path d="M82.5683 83.1269V89.7918C82.5683 92.1205 77.949 94.0069 72.2386 94.0069C71.4126 94.0094 70.5871 93.9679 69.7656 93.8825V87.2241L76.59 79.2949C80.128 79.9663 82.5683 81.4303 82.5683 83.1269Z" fill="#F7C426"/>
<path d="M82.5683 83.1268C82.5683 84.4795 81.0067 85.6912 78.5729 86.4609C76.5204 87.075 74.3869 87.3743 72.2451 87.3485C71.4191 87.351 70.5936 87.3094 69.7721 87.224C68.4647 87.1084 67.1734 86.8526 65.9205 86.4609C63.4834 85.6912 61.9219 84.4958 61.9219 83.1268C61.9219 80.7949 66.5477 78.9019 72.2516 78.9019C73.7112 78.8952 75.1681 79.0267 76.603 79.2949C80.1279 79.9663 82.5683 81.4303 82.5683 83.1268Z" fill="#F9DA44"/>
<path d="M82.5682 83.1269C82.5682 84.4795 81.0066 85.6913 78.5728 86.461C76.5203 87.0751 74.3868 87.3743 72.245 87.3485C71.419 87.351 70.5935 87.3095 69.772 87.2241L76.5964 79.2949C80.1278 79.9663 82.5682 81.4303 82.5682 83.1269Z" fill="#FCEC65"/>
<path d="M87.9682 74.5851V80.5721C87.9682 82.6617 83.8193 84.3582 78.6904 84.3582C77.9484 84.36 77.2069 84.3228 76.4689 84.2468C72.4213 83.844 69.4125 82.3505 69.4125 80.5721V74.5851C69.4125 72.4923 73.568 70.7925 78.6904 70.7925C80.0053 70.7858 81.3179 70.9042 82.6106 71.1462C85.7761 71.7488 87.9682 73.0655 87.9682 74.5851Z" fill="#F2A61B"/>
<path d="M87.9683 74.5852V80.5722C87.9683 82.6617 83.8194 84.3582 78.6905 84.3582C77.9486 84.36 77.2071 84.3229 76.4691 84.2469V78.2664L82.5976 71.1462C85.7763 71.7489 87.9683 73.0655 87.9683 74.5852Z" fill="#F7C426"/>
<path d="M87.9682 74.5851C87.9682 75.8035 86.5635 76.8777 84.3747 77.5819C82.5318 78.1324 80.6165 78.4007 78.6937 78.3778C77.9518 78.3796 77.2102 78.3424 76.4722 78.2664C75.2982 78.1611 74.1385 77.9317 73.0126 77.5819C70.8271 76.8908 69.4191 75.8035 69.4191 74.5851C69.4191 72.4923 73.5745 70.7925 78.6969 70.7925C80.0119 70.7858 81.3245 70.9042 82.6171 71.1462C85.7762 71.7488 87.9682 73.0655 87.9682 74.5851Z" fill="#F9DA44"/>
<path d="M87.9683 74.5852C87.9683 75.8035 86.5636 76.8778 84.3748 77.5819C82.5319 78.1324 80.6167 78.4007 78.6938 78.3778C77.9519 78.3796 77.2104 78.3424 76.4724 78.2664L82.6009 71.1462C85.7763 71.7489 87.9683 73.0655 87.9683 74.5852Z" fill="#FCEC65"/>
<path d="M88.5727 67.9041V73.5242C88.5727 75.4893 84.6754 77.0843 79.86 77.0843C79.1628 77.0856 78.466 77.0495 77.7725 76.9763C73.97 76.5996 71.1474 75.1946 71.1474 73.5242V67.9041C71.1474 65.939 75.048 64.3407 79.86 64.3407C81.0916 64.3333 82.3211 64.443 83.532 64.6682C86.5146 65.2381 88.5727 66.4761 88.5727 67.9041Z" fill="#F2A61B"/>
<path d="M88.5726 67.904V73.5241C88.5726 75.4892 84.6753 77.0842 79.86 77.0842C79.1627 77.0855 78.4659 77.0494 77.7725 76.9762V71.3593L83.5319 64.6714C86.5145 65.238 88.5726 66.476 88.5726 67.904Z" fill="#F7C426"/>
<path d="M88.5726 67.9039C88.5726 69.047 87.2659 70.0688 85.2012 70.7173C83.4698 71.2357 81.6701 71.4885 79.8632 71.4673C79.166 71.4685 78.4691 71.4325 77.7757 71.3592C76.6665 71.2587 75.5713 71.0391 74.5089 70.7042C72.454 70.0492 71.1375 69.0339 71.1375 67.8909C71.1375 65.9258 75.0381 64.3275 79.8502 64.3275C81.0817 64.3202 82.3112 64.4298 83.5221 64.655C86.5145 65.238 88.5726 66.476 88.5726 67.9039Z" fill="#F9DA44"/>
<path d="M88.5727 67.904C88.5727 69.047 87.2659 70.0689 85.2013 70.7174C83.4698 71.2357 81.6701 71.4886 79.8633 71.4673C79.166 71.4686 78.4692 71.4325 77.7758 71.3593L83.5352 64.6714C86.5145 65.238 88.5727 66.476 88.5727 67.904Z" fill="#FCEC65"/>
<path d="M73.4897 65.5359C73.708 65.3932 73.9456 65.2829 74.1953 65.2083C74.8603 64.9544 75.5455 64.7572 76.2436 64.6188C78.5579 64.1732 80.9328 64.1432 83.2575 64.5304L83.5613 64.586C84.8125 64.7991 86.018 65.2257 87.1255 65.847C87.6209 66.1222 88.0467 66.5076 88.3701 66.9737C88.5188 67.1819 88.6183 67.4213 88.6613 67.6738C88.7043 67.9262 88.6896 68.1852 88.6184 68.4311C88.488 68.8207 88.2556 69.1679 87.9454 69.4366C87.7233 69.6379 87.4801 69.8147 87.2202 69.9639C87.0089 70.1037 86.776 70.2078 86.5309 70.2718C86.729 70.1203 86.9363 69.9814 87.1516 69.8558C87.385 69.6919 87.6036 69.5078 87.805 69.3056C88.075 69.0472 88.2742 68.7235 88.3832 68.3656C88.4362 68.153 88.4411 67.9312 88.3975 67.7164C88.354 67.5016 88.2632 67.2993 88.1316 67.1243C87.8188 66.7034 87.4172 66.3567 86.9556 66.109C85.8726 65.5226 84.7003 65.1198 83.4862 64.9168L83.1889 64.8612C80.8999 64.4861 78.5653 64.4861 76.2763 64.8612C75.5824 64.9735 74.8969 65.1333 74.2247 65.3394C73.9847 65.4224 73.7391 65.4881 73.4897 65.5359Z" fill="#FFFFC6"/>
<path d="M112.28 66.2696V70.6943C112.28 72.2435 109.213 73.4979 105.42 73.4979C104.874 73.4995 104.329 73.4711 103.786 73.4127C100.794 73.1147 98.5594 72.011 98.5594 70.6943V66.2696C98.5594 64.7237 101.633 63.4628 105.42 63.4628C106.39 63.4584 107.358 63.5461 108.311 63.7248C110.66 64.1702 112.28 65.1462 112.28 66.2696Z" fill="#F2A61B"/>
<path d="M112.28 66.2696V70.6943C112.28 72.2435 109.212 73.4979 105.42 73.4979C104.874 73.4995 104.329 73.4711 103.786 73.4127V68.9847L108.321 63.7183C110.66 64.1702 112.28 65.1462 112.28 66.2696Z" fill="#F7C426"/>
<path d="M112.28 66.2696C112.28 67.1703 111.244 67.9727 109.627 68.4836C108.265 68.8922 106.848 69.091 105.426 69.0732C104.881 69.0742 104.336 69.0469 103.793 68.9913C102.925 68.9143 102.067 68.7441 101.235 68.4836C99.6015 67.9727 98.579 67.1735 98.579 66.2696C98.579 64.7237 101.653 63.4628 105.439 63.4628C106.409 63.4584 107.377 63.5461 108.33 63.7248C110.66 64.1702 112.28 65.1462 112.28 66.2696Z" fill="#F9DA44"/>
<path d="M112.28 66.2697C112.28 67.1703 111.244 67.9727 109.627 68.4837C108.265 68.8923 106.848 69.091 105.426 69.0732C104.881 69.0743 104.335 69.0469 103.793 68.9913L108.327 63.7249C110.66 64.1703 112.28 65.1463 112.28 66.2697Z" fill="#FCEC65"/>
<path d="M99.5459 64.8186C99.51 64.7858 100.252 64.1635 101.699 63.7738C103.578 63.2774 105.535 63.1506 107.461 63.4004C107.762 63.4397 108.056 63.4856 108.344 63.5413C109.301 63.7086 110.224 64.0317 111.078 64.4976C111.454 64.7076 111.787 64.9877 112.058 65.3229C112.182 65.4751 112.275 65.6504 112.331 65.8387C112.387 66.0271 112.405 66.2247 112.385 66.4201C112.333 66.7337 112.187 67.024 111.966 67.252C111.812 67.4185 111.638 67.5648 111.447 67.6876C111.296 67.8062 111.121 67.8901 110.934 67.9333C110.934 67.9071 111.091 67.8022 111.365 67.5762C111.763 67.2935 112.039 66.8696 112.136 66.3906C112.205 65.788 111.643 65.1756 110.908 64.7858C110.079 64.3592 109.19 64.0631 108.272 63.9081C107.991 63.8557 107.703 63.8098 107.412 63.7738C105.528 63.5323 103.616 63.6199 101.761 64.0325C101 64.2254 100.258 64.4885 99.5459 64.8186Z" fill="#FFFFC6"/>
<path d="M102.548 81.6041L101.084 79.0036L98.2782 77.0385L92.166 75.9839L88.8632 76.9042L86.6157 78.8693C86.6157 78.8693 86.6157 78.8693 86.6353 78.8988L92.9729 89.5791L102.525 81.6434C102.525 81.6434 102.548 81.6073 102.548 81.6041Z" fill="#E7124F"/>
<path d="M101.085 79.0033L97.8179 79.8941L91.6403 78.8264L91.5194 78.7412L89.8533 77.5818L88.8602 76.8908L92.163 75.9705L98.2785 77.0251L98.6019 77.2543L100.255 78.417L101.085 79.0033Z" fill="#FF7EEB"/>
<path d="M98.2653 82.9729L94.2275 82.272V82.2753L90.1897 81.5777L91.6402 78.8298L97.8178 79.8943L98.2653 82.9729Z" fill="#EF2177"/>
<path d="M98.2653 82.9731L92.973 89.5726L90.1897 81.5779L94.2275 82.2755V82.2722L98.2653 82.9731Z" fill="#E7124F"/>
<path d="M90.1897 81.5746L86.6125 78.8529L88.8601 76.8911L91.6401 78.8267L90.1897 81.5746Z" fill="#FF56C3"/>
<path d="M86.6125 78.8525L92.973 89.5722L90.1897 81.5742L86.6125 78.8525Z" fill="#EF2177"/>
<path d="M98.2654 82.9699L102.548 81.6041L101.085 79.0037L97.8179 79.8945L98.2654 82.9699Z" fill="#FF56C3"/>
<path d="M102.548 81.6038L92.973 89.5722L98.2653 82.9695L102.548 81.6038Z" fill="#EF2177"/>
<path d="M96.6416 76.7438L91.5192 78.7416L89.8531 77.5822L93.4336 76.187L96.6416 76.7438Z" fill="#FFA3FF"/>
<path d="M100.255 78.4171L96.8802 79.7337L93.6722 79.1802L98.6018 77.2544L100.255 78.4171Z" fill="#FFA3FF"/>
<path d="M98.0007 80.0121C99.8366 79.4816 101.081 79.0754 101.081 79.0001C101.081 78.9248 97.8537 79.7174 97.8144 79.7305C97.7752 79.7436 92.6953 78.8462 91.6989 78.6988C90.6046 77.975 89.8956 77.5394 89.863 77.582C89.8303 77.6245 90.4967 78.1551 91.5715 78.9412H91.5879H91.6205C92.6234 79.1409 96.8475 79.8779 97.6413 80.0056C97.6609 80.1202 97.968 82.082 98.0954 82.9008C97.1153 84.1454 94.7665 87.2601 94.7992 87.2863C94.8318 87.3125 98.4548 82.9991 98.4548 82.9991C98.4548 82.9991 98.0137 80.1202 98.0007 80.0121Z" fill="#FFC9FF"/>
<path d="M85.2862 76.0887V76.0854V76.0887L77.9619 84.0343L83.3816 94.184L90.794 85.3902L85.2862 76.0887Z" fill="#13920A"/>
<path d="M81.183 85.9371L77.9619 84.0343L85.2862 76.0854L81.183 85.9371Z" fill="#49CF2C"/>
<path d="M77.9619 84.0339L83.3816 94.1836L81.183 85.9368L77.9619 84.0339Z" fill="#13920A"/>
<path d="M87.2495 86.5758L81.183 85.9371L85.2861 76.0854L87.2495 86.5758Z" fill="#7EE25A"/>
<path d="M87.2496 86.5791L90.7941 85.3902L85.2862 76.0854L87.2496 86.5791Z" fill="#49CF2C"/>
<path d="M87.2495 86.5754L83.3816 94.1804L81.183 85.9368L87.2495 86.5754Z" fill="#32BE1D"/>
<path d="M90.794 85.3901L83.3816 94.1839L87.2495 86.579L90.794 85.3901Z" fill="#13920A"/>
<path d="M90.647 85.3867C90.6209 85.3113 89.2488 85.7142 87.3802 86.3692C87.2757 85.7993 87.1678 85.2196 87.0535 84.6236C86.6125 82.2622 86.1943 80.1268 85.8709 78.5842C85.7108 77.8145 85.5769 77.1922 85.4756 76.7632C85.4394 76.5371 85.3735 76.3169 85.2796 76.1082C85.2683 76.3379 85.2881 76.5682 85.3384 76.7927C85.3972 77.2315 85.4952 77.8604 85.6259 78.6366C85.884 80.1923 86.2793 82.3342 86.704 84.6956C86.815 85.2819 86.9228 85.8452 87.0306 86.4052L86.0212 86.2939C83.3587 86.0089 81.1928 85.8616 81.183 85.9664C81.1732 86.0712 83.3228 86.3725 85.9852 86.6541L86.9653 86.7557C86.1649 88.3933 85.4789 89.8278 85.0052 90.8693C84.5315 91.9108 84.2146 92.6182 84.2538 92.6379C84.6124 92.106 84.9302 91.5476 85.2045 90.9675C85.7566 89.9195 86.5112 88.4424 87.3639 86.7459C89.3011 86.0155 90.6732 85.4653 90.647 85.3867Z" fill="#C4F89B"/>
</g>
<defs>
<linearGradient id="paint0_linear_7912_10744" x1="86.6452" y1="104.189" x2="94.5678" y2="28.7863" gradientUnits="userSpaceOnUse">
<stop offset="0.34" stop-color="#FFFF8B"/>
<stop offset="0.4" stop-color="#F5F586"/>
<stop offset="0.49" stop-color="#DBDB78"/>
<stop offset="0.61" stop-color="#B1B160"/>
<stop offset="0.75" stop-color="#767640"/>
<stop offset="0.91" stop-color="#2C2C18"/>
<stop offset="1"/>
</linearGradient>
</defs>
</svg>
