<svg width="25" height="24" viewBox="0 0 25 24" fill="none" xmlns="http://www.w3.org/2000/svg">
<path d="M19.5701 19.07C23.4801 15.16 23.4801 8.82999 19.5701 4.92999" stroke="#C6C6C6" stroke-width="1.5" stroke-linecap="round" stroke-linejoin="round"/>
<path d="M5.43006 4.92999C1.52006 8.83999 1.52006 15.17 5.43006 19.07" stroke="#C6C6C6" stroke-width="1.5" stroke-linecap="round" stroke-linejoin="round"/>
<path d="M9.19995 21.41C10.27 21.78 11.3799 21.96 12.4999 21.96C13.6199 21.95 14.7299 21.78 15.7999 21.41" stroke="#C6C6C6" stroke-width="1.5" stroke-linecap="round" stroke-linejoin="round"/>
<path d="M9.19995 2.59003C10.27 2.22003 11.3799 2.03998 12.4999 2.03998C13.6199 2.03998 14.7299 2.22003 15.7999 2.59003" stroke="#C6C6C6" stroke-width="1.5" stroke-linecap="round" stroke-linejoin="round"/>
<path d="M9.23999 12V10.33C9.23999 8.25003 10.71 7.40002 12.51 8.44002L13.96 9.28005L15.41 10.12C17.21 11.16 17.21 12.86 15.41 13.9L13.96 14.74L12.51 15.58C10.71 16.62 9.23999 15.77 9.23999 13.69V12Z" stroke="#C6C6C6" stroke-width="1.5" stroke-miterlimit="10" stroke-linecap="round" stroke-linejoin="round"/>
</svg>
