<svg width="25" height="24" viewBox="0 0 25 24" fill="none" xmlns="http://www.w3.org/2000/svg">
<path d="M18.5 16.75C18.34 16.75 18.19 16.7 18.05 16.6C17.72 16.35 17.65 15.88 17.9 15.55C19.47 13.46 19.47 10.54 17.9 8.45C17.65 8.12 17.72 7.65 18.05 7.4C18.38 7.15 18.85 7.22 19.1 7.55C21.06 10.17 21.06 13.83 19.1 16.45C18.95 16.65 18.73 16.75 18.5 16.75Z" fill="#F0F1F3"/>
<path d="M20.33 19.25C20.17 19.25 20.02 19.2 19.88 19.1C19.55 18.85 19.48 18.38 19.73 18.05C22.4 14.49 22.4 9.51 19.73 5.95C19.48 5.62 19.55 5.15 19.88 4.9C20.21 4.65 20.68 4.72 20.93 5.05C24 9.14 24 14.86 20.93 18.95C20.79 19.15 20.56 19.25 20.33 19.25Z" fill="#F0F1F3"/>
<path d="M14.52 3.78C13.4 3.16 11.97 3.32 10.51 4.23L7.59 6.06C7.39 6.18 7.16 6.25 6.93 6.25H6H5.5C3.08 6.25 1.75 7.58 1.75 10V14C1.75 16.42 3.08 17.75 5.5 17.75H6H6.93C7.16 17.75 7.39 17.82 7.59 17.94L10.51 19.77C11.39 20.32 12.25 20.59 13.05 20.59C13.57 20.59 14.07 20.47 14.52 20.22C15.63 19.6 16.25 18.31 16.25 16.59V7.41C16.25 5.69 15.63 4.4 14.52 3.78Z" fill="#F0F1F3"/>
</svg>
