<svg width="16" height="16" viewBox="0 0 16 16" fill="none" xmlns="http://www.w3.org/2000/svg">
<path d="M9.34659 2.52014C8.59992 2.10681 7.64659 2.21347 6.67325 2.82014L4.72659 4.04014C4.59325 4.12014 4.43992 4.16681 4.28659 4.16681H3.66659H3.33325C1.71992 4.16681 0.833252 5.05347 0.833252 6.66681V9.33347C0.833252 10.9468 1.71992 11.8335 3.33325 11.8335H3.66659H4.28659C4.43992 11.8335 4.59325 11.8801 4.72659 11.9601L6.67325 13.1801C7.25992 13.5468 7.83325 13.7268 8.36659 13.7268C8.71325 13.7268 9.04659 13.6468 9.34659 13.4801C10.0866 13.0668 10.4999 12.2068 10.4999 11.0601V4.94014C10.4999 3.79347 10.0866 2.93347 9.34659 2.52014Z" fill="white"/>
</svg>
