<svg width="119" height="119" viewBox="0 0 119 119" fill="none" xmlns="http://www.w3.org/2000/svg">
<g clip-path="url(#clip0_543_19492)">
<path d="M58.9791 54.3797L55.7175 53.0187C55.6521 52.9929 55.5933 52.9526 55.5457 52.9008C55.498 52.8491 55.4627 52.7872 55.4424 52.7198C55.4221 52.6525 55.4173 52.5814 55.4284 52.5119C55.4395 52.4424 55.4662 52.3763 55.5065 52.3187L56.4129 51.0241C56.5871 50.7755 56.9516 50.7582 57.1485 50.9906L59.5058 53.6457C59.8185 54.0137 59.4292 54.5567 58.9791 54.3797ZM58.0101 63.8633L54.6191 64.5317C54.5502 64.5454 54.4853 64.5745 54.4292 64.6169C54.3732 64.6593 54.3274 64.7139 54.2955 64.7765C54.2636 64.8391 54.2462 64.9081 54.2448 64.9784C54.2433 65.0486 54.2578 65.1183 54.2872 65.1822L54.9484 66.617C55.0762 66.8936 55.4302 66.9744 55.6658 66.7833L58.3956 64.68C58.7688 64.3727 58.485 63.7689 58.0101 63.8633ZM66.9338 68.2497L66.772 71.6952C66.7544 71.9953 67.021 72.2346 67.3174 72.1824L68.8738 71.9079C69.1743 71.8549 69.3419 71.5326 69.2161 71.2556L67.8214 68.0846C67.6197 67.6436 66.9639 67.7657 66.9338 68.2497ZM70.3944 52.3668L72.9939 49.9724C73.2193 49.7724 73.199 49.4148 72.9528 49.2424L71.6582 48.336C71.5999 48.2953 71.533 48.2686 71.4628 48.2577C71.3925 48.2469 71.3207 48.2524 71.2529 48.2736C71.185 48.2949 71.123 48.3314 71.0714 48.3803C71.0199 48.4293 70.9802 48.4894 70.9555 48.556L69.6486 51.8573C69.4805 52.31 70.0321 52.6872 70.3944 52.3668ZM74.5486 60.9471L77.9637 60.4154C78.0332 60.4047 78.1042 60.4099 78.1713 60.4306C78.2385 60.4512 78.3001 60.4868 78.3515 60.5347C78.403 60.5826 78.4429 60.6416 78.4683 60.7071C78.4936 60.7726 78.5038 60.8431 78.4981 60.9131L78.3675 62.4876C78.3616 62.5583 78.3395 62.6268 78.303 62.6878C78.2665 62.7487 78.2166 62.8005 78.1571 62.8393C78.0976 62.878 78.03 62.9026 77.9595 62.9113C77.889 62.9199 77.8174 62.9124 77.7503 62.8892L74.4657 61.8464C74.0099 61.6853 74.0701 61.0208 74.5486 60.9471Z" fill="#FFC107"/>
<path d="M64.4454 47.0979L68.3568 52.9685C68.504 53.1895 68.7077 53.3669 68.9468 53.4822C69.1859 53.5976 69.4516 53.6466 69.7161 53.6242L76.6193 53.0353C77.4079 53.0116 77.8809 53.9005 77.4192 54.5418L73.0584 59.7449C72.7053 60.1661 72.6132 60.7465 72.8203 61.2549L75.5366 67.9582C75.802 68.6999 75.103 69.4258 74.351 69.1844L67.807 66.7568C67.5602 66.6649 67.2933 66.6406 67.0339 66.6864C66.7745 66.7321 66.532 66.8462 66.3314 67.017L61.0121 71.5343C60.3896 72.0159 59.4828 71.5753 59.4786 70.7875L59.7384 63.5595C59.7571 63.0113 59.4741 62.497 58.9982 62.2219L53.1195 58.8286C52.4687 58.3856 52.6088 57.3865 53.3559 57.1394L60.0442 55.3318C60.3004 55.2623 60.5333 55.1254 60.7185 54.9352C60.9037 54.7451 61.0345 54.5087 61.0972 54.2507L62.7649 47.3963C62.9882 46.6389 63.9789 46.4642 64.4454 47.0979Z" fill="#FDD835"/>
<path d="M65.4321 53.8776L64.1329 49.2729C64.0682 49.0151 63.9354 48.5769 64.354 48.5031C64.6856 48.4446 64.9876 49.103 64.9876 49.103L67.0689 52.6167C67.8561 53.9545 67.723 54.4844 67.2581 54.8656C66.7239 55.3017 65.8036 55.1968 65.4321 53.8776Z" fill="#FFFF8D"/>
<path d="M72.4384 59.4239L75.9452 55.5339C76.1166 55.3306 76.4321 54.9993 76.0883 54.7458C75.8158 54.5459 75.2551 55.0016 75.2551 55.0016L71.9419 57.0197C70.9454 57.5737 70.3365 58.2409 70.3949 58.9358C70.4749 59.862 71.4174 60.4202 72.4384 59.4239Z" fill="#F4B400"/>
</g>
<g clip-path="url(#clip1_543_19492)">
<path d="M26.292 16.536L22.7645 15.2066C22.6937 15.1815 22.6296 15.1408 22.5768 15.0874C22.5241 15.034 22.4841 14.9693 22.46 14.8982C22.4358 14.8272 22.4281 14.7516 22.4373 14.6771C22.4466 14.6026 22.4726 14.5312 22.5134 14.4682L23.4315 13.0545C23.6079 12.7829 23.9958 12.7509 24.2144 12.9913L26.8261 15.734C27.1732 16.1146 26.7784 16.708 26.292 16.536ZM25.6121 26.6817L22.0221 27.5205C21.9491 27.5377 21.881 27.5712 21.8228 27.6185C21.7647 27.6658 21.7179 27.7256 21.6862 27.7935C21.6545 27.8614 21.6386 27.9357 21.6397 28.0106C21.6408 28.0856 21.6588 28.1593 21.6925 28.2263L22.4507 29.7312C22.5973 30.0214 22.9777 30.0943 23.2217 29.8818L26.0534 27.538C26.4398 27.1966 26.1147 26.5634 25.6121 26.6817ZM35.2882 31.0255L35.244 34.7045C35.2364 35.0251 35.5295 35.2703 35.8435 35.2036L37.4925 34.8531C37.8108 34.7854 37.9774 34.4356 37.8331 34.145L36.2283 30.8165C35.9968 30.354 35.3022 30.5085 35.2882 31.0255ZM38.386 13.9653L41.0679 11.3161C41.3008 11.0945 41.2658 10.7141 40.9969 10.5394L39.5832 9.62133C39.5195 9.58016 39.4472 9.55412 39.3719 9.54521C39.2966 9.5363 39.2203 9.54476 39.1487 9.56993C39.0772 9.59511 39.0124 9.63633 38.9593 9.69044C38.9061 9.74455 38.8661 9.81011 38.8422 9.88209L37.5719 13.4499C37.4096 13.9388 38.0116 14.3203 38.386 13.9653ZM43.1338 22.9574L46.7546 22.2635C46.8282 22.2495 46.9041 22.2524 46.9765 22.2719C47.0488 22.2914 47.1159 22.3271 47.1725 22.3763C47.2291 22.4254 47.2738 22.4867 47.3033 22.5557C47.3328 22.6246 47.3463 22.6993 47.3428 22.7742L47.2622 24.4574C47.2585 24.5331 47.2375 24.6069 47.2009 24.6732C47.1643 24.7395 47.113 24.7966 47.051 24.8402C46.9889 24.8837 46.9178 24.9124 46.843 24.9243C46.7681 24.9361 46.6916 24.9307 46.6191 24.9085L43.0789 23.9191C42.5871 23.7644 42.6265 23.0537 43.1338 22.9574Z" fill="#FFC107"/>
<path d="M31.8483 8.56608L36.2366 14.6787C36.4017 14.9088 36.6255 15.0903 36.8847 15.2044C37.1438 15.3184 37.4289 15.3608 37.71 15.3271L45.047 14.4423C45.8868 14.3877 46.4241 15.3177 45.9557 16.0185L41.5008 21.7274C41.14 22.1896 41.0634 22.8117 41.3032 23.346L44.4484 30.3907C44.7589 31.1715 44.0408 31.9713 43.2301 31.742L36.1638 29.3977C35.8972 29.309 35.6118 29.293 35.337 29.3514C35.0621 29.4098 34.8079 29.5405 34.6004 29.73L29.0981 34.7436C28.4525 35.2801 27.4694 34.8442 27.4355 34.0046L27.4434 26.2897C27.443 25.7046 27.1222 25.1669 26.6046 24.8914L20.2115 21.4929C19.5012 21.0449 19.6134 19.9746 20.4006 19.6833L27.4631 17.5074C27.7337 17.4239 27.9768 17.2692 28.1672 17.0596C28.3576 16.85 28.4882 16.5931 28.5455 16.3158L30.0681 8.94678C30.278 8.13108 31.3275 7.908 31.8483 8.56608Z" fill="#FDD835"/>
<path d="M33.1524 15.7568L31.5961 10.8965C31.5175 10.624 31.3596 10.1619 31.8031 10.0676C32.1544 9.99293 32.5009 10.6835 32.5009 10.6835L34.8503 14.3517C35.7393 15.7485 35.6172 16.3184 35.1358 16.742C34.5825 17.2268 33.5975 17.1493 33.1524 15.7568Z" fill="#FFFF8D"/>
<path d="M40.8275 21.4083L44.421 17.131C44.5962 16.9079 44.9202 16.543 44.5442 16.2855C44.2463 16.0826 43.6656 16.5893 43.6656 16.5893L40.2087 18.864C39.1671 19.4916 38.5428 20.2256 38.631 20.9642C38.7507 21.9485 39.7762 22.5085 40.8275 21.4083Z" fill="#F4B400"/>
</g>
<g clip-path="url(#clip2_543_19492)">
<path d="M99.5622 33.4945L97.2423 31.2029C97.1952 31.1582 97.1588 31.1034 97.136 31.0426C97.1131 30.9819 97.1043 30.9167 97.1102 30.8521C97.1161 30.7874 97.1366 30.725 97.1701 30.6694C97.2036 30.6138 97.2493 30.5665 97.3037 30.5311L98.5266 29.7369C98.7615 29.5843 99.0793 29.6956 99.1675 29.9624L100.266 33.0487C100.407 33.4716 99.886 33.8016 99.5622 33.4945ZM95.4552 41.2728L92.3232 40.6726C92.2595 40.6605 92.1939 40.663 92.1313 40.6799C92.0686 40.6968 92.0107 40.7276 91.9617 40.7701C91.9128 40.8127 91.8741 40.8657 91.8485 40.9253C91.823 40.9849 91.8114 41.0496 91.8144 41.1143L91.8841 42.5704C91.8978 42.8512 92.1728 43.0427 92.4403 42.9606L95.5027 42.1048C95.9282 41.9709 95.8941 41.3562 95.4552 41.2728ZM101.573 48.1098L100.244 51.0015C100.125 51.2522 100.271 51.5491 100.542 51.6068L101.969 51.91C102.244 51.9686 102.499 51.7508 102.487 51.4703L102.39 48.2754C102.37 47.8285 101.766 47.7062 101.573 48.1098ZM110.024 35.7182L113.075 34.5683C113.337 34.4751 113.443 34.1621 113.292 33.9295L112.498 32.7066C112.462 32.6517 112.414 32.6057 112.358 32.5721C112.302 32.5386 112.238 32.5184 112.173 32.5132C112.108 32.5079 112.042 32.5177 111.981 32.5417C111.92 32.5658 111.865 32.6035 111.821 32.652L109.562 35.0245C109.261 35.3537 109.603 35.867 110.024 35.7182ZM110.612 44.4945L113.717 45.2201C113.78 45.2349 113.839 45.2639 113.89 45.3048C113.94 45.3457 113.98 45.3974 114.008 45.4562C114.035 45.5149 114.049 45.5791 114.048 45.644C114.047 45.7088 114.032 45.7726 114.002 45.8305L113.347 47.1323C113.317 47.1908 113.274 47.2418 113.222 47.2813C113.17 47.3208 113.109 47.3479 113.045 47.3605C112.981 47.373 112.914 47.3708 112.851 47.3538C112.788 47.3368 112.729 47.3056 112.68 47.2626L110.23 45.2352C109.896 44.9398 110.177 44.3921 110.612 44.4945Z" fill="#FFC107"/>
<path d="M106.756 29.1525L108.073 35.5269C108.123 35.7668 108.236 35.989 108.401 36.1703C108.565 36.3516 108.776 36.4854 109.01 36.5577L115.119 38.4399C115.802 38.6922 115.899 39.6162 115.283 40.0052L109.753 42.9491C109.306 43.1875 109.026 43.6521 109.028 44.1587L109.035 50.8322C109.005 51.5585 108.157 51.9379 107.597 51.4714L102.837 47.1327C102.658 46.9688 102.438 46.8558 102.2 46.8052C101.962 46.7547 101.716 46.7685 101.485 46.8453L95.3729 48.8712C94.674 49.0681 94.0505 48.3777 94.3191 47.7023L97.0397 41.6085C97.2452 41.146 97.1809 40.6082 96.8688 40.2084L93.0125 35.2735C92.6088 34.6696 93.074 33.8632 93.7986 33.9101L100.145 34.6754C100.388 34.7046 100.635 34.6679 100.859 34.5693C101.083 34.4706 101.277 34.3136 101.42 34.1146L105.216 28.827C105.668 28.2563 106.576 28.4493 106.756 29.1525Z" fill="#FDD835"/>
<path d="M105.257 35.2904L105.737 30.9021C105.771 30.6591 105.809 30.2384 106.193 30.3199C106.497 30.3845 106.527 31.0521 106.527 31.0521L107.093 34.7774C107.304 36.194 107.007 36.6014 106.478 36.7668C105.87 36.9552 105.119 36.5474 105.257 35.2904Z" fill="#FFFF8D"/>
<path d="M109.334 42.4605L113.678 40.3447C113.895 40.23 114.28 40.0556 114.073 39.7199C113.909 39.4548 113.272 39.6508 113.272 39.6508L109.74 40.2321C108.696 40.3616 107.944 40.722 107.754 41.3366C107.503 42.1566 108.116 42.9599 109.334 42.4605Z" fill="#F4B400"/>
</g>
<g clip-path="url(#clip3_543_19492)">
<path d="M70.6422 6.93261L68.966 5.27683C68.932 5.24454 68.9058 5.20496 68.8892 5.16106C68.8727 5.11716 68.8663 5.07009 68.8706 5.02338C68.8749 4.97666 68.8897 4.93152 68.9139 4.89135C68.9381 4.85118 68.9711 4.81701 69.0104 4.79142L69.894 4.21761C70.0637 4.10739 70.2934 4.18775 70.3571 4.38059L71.151 6.61047C71.2525 6.91602 70.8762 7.15446 70.6422 6.93261ZM67.6748 12.5526L65.4119 12.119C65.3658 12.1102 65.3184 12.112 65.2732 12.1242C65.2279 12.1364 65.1861 12.1587 65.1507 12.1894C65.1153 12.2202 65.0874 12.2585 65.0689 12.3016C65.0505 12.3446 65.042 12.3913 65.0442 12.4381L65.0946 13.4902C65.1045 13.6931 65.3032 13.8314 65.4965 13.7721L67.7091 13.1537C68.0166 13.057 67.9919 12.6129 67.6748 12.5526ZM72.0953 17.4926L71.1349 19.5819C71.049 19.763 71.154 19.9775 71.3503 20.0193L72.3809 20.2383C72.5799 20.2806 72.7639 20.1232 72.7554 19.9206L72.6852 17.6122C72.6707 17.2893 72.2348 17.2009 72.0953 17.4926ZM78.201 8.53927L80.4057 7.70841C80.595 7.64107 80.6717 7.41498 80.5626 7.24692L79.9888 6.36332C79.9629 6.32363 79.9283 6.29039 79.8875 6.26616C79.8468 6.24193 79.801 6.22735 79.7538 6.22354C79.7066 6.21973 79.6591 6.22679 79.615 6.24418C79.5709 6.26157 79.5314 6.28883 79.4995 6.32386L77.8672 8.03803C77.6502 8.27591 77.897 8.64678 78.201 8.53927ZM78.6259 14.8804L80.8697 15.4046C80.9153 15.4154 80.9579 15.4363 80.9942 15.4658C81.0306 15.4954 81.0598 15.5328 81.0796 15.5752C81.0994 15.6177 81.1094 15.6641 81.1087 15.7109C81.108 15.7578 81.0967 15.8039 81.0757 15.8457L80.6018 16.7863C80.5804 16.8286 80.5497 16.8654 80.5119 16.8939C80.4741 16.9225 80.4303 16.9421 80.3839 16.9511C80.3374 16.9602 80.2895 16.9586 80.2437 16.9463C80.198 16.934 80.1556 16.9115 80.1199 16.8804L78.3501 15.4156C78.1086 15.2021 78.3118 14.8064 78.6259 14.8804Z" fill="#FFC107"/>
<path d="M75.8403 3.79492L76.7919 8.40056C76.8277 8.57388 76.9093 8.73442 77.0283 8.86543C77.1473 8.99643 77.2993 9.0931 77.4684 9.14533L81.8824 10.5053C82.3758 10.6876 82.4462 11.3552 82.0006 11.6362L78.0057 13.7633C77.6823 13.9355 77.4804 14.2713 77.4815 14.6373L77.4864 19.4591C77.4652 19.9838 76.8519 20.2579 76.4473 19.9209L73.0086 16.7861C72.879 16.6677 72.7201 16.586 72.5483 16.5495C72.3765 16.513 72.1981 16.523 72.0315 16.5784L67.6154 18.0422C67.1104 18.1844 66.6599 17.6856 66.854 17.1976L68.8197 12.7947C68.9682 12.4605 68.9217 12.072 68.6962 11.7831L65.9099 8.21748C65.6182 7.78113 65.9544 7.19853 66.4779 7.23235L71.0635 7.78536C71.2392 7.80642 71.4173 7.77992 71.5793 7.70864C71.7413 7.63736 71.8812 7.52391 71.9844 7.38012L74.727 3.55972C75.0542 3.14734 75.7102 3.28677 75.8403 3.79492Z" fill="#FDD835"/>
<path d="M74.7571 8.23168L75.104 5.06098C75.1284 4.88544 75.1558 4.58144 75.433 4.64036C75.6526 4.68703 75.6748 5.16939 75.6748 5.16939L76.0838 7.86104C76.2363 8.88457 76.0217 9.1789 75.6391 9.29839C75.2 9.43453 74.6573 9.1399 74.7571 8.23168Z" fill="#FFFF8D"/>
<path d="M77.7024 13.4113L80.8415 11.8825C80.9982 11.7997 81.276 11.6737 81.1268 11.4311C81.0083 11.2396 80.5479 11.3812 80.5479 11.3812L77.9959 11.8012C77.2416 11.8948 76.6986 12.1551 76.5612 12.5993C76.3793 13.1917 76.8225 13.7721 77.7024 13.4113Z" fill="#F4B400"/>
</g>
<g clip-path="url(#clip4_543_19492)">
<path d="M17.1582 63.7293L15.1468 61.7424C15.1059 61.7036 15.0744 61.6561 15.0546 61.6034C15.0347 61.5508 15.0271 61.4943 15.0322 61.4382C15.0373 61.3822 15.0551 61.328 15.0842 61.2798C15.1132 61.2316 15.1528 61.1906 15.2 61.1599L16.2603 60.4713C16.464 60.339 16.7395 60.4355 16.816 60.6669L17.7687 63.3427C17.8905 63.7094 17.4389 63.9955 17.1582 63.7293ZM13.5973 70.4733L10.8817 69.9529C10.8265 69.9424 10.7696 69.9446 10.7153 69.9592C10.661 69.9739 10.6108 70.0006 10.5683 70.0375C10.5259 70.0743 10.4923 70.1204 10.4702 70.172C10.4481 70.2237 10.438 70.2798 10.4406 70.3359L10.501 71.5983C10.5129 71.8418 10.7513 72.0078 10.9833 71.9367L13.6385 71.1947C14.0074 71.0786 13.9778 70.5456 13.5973 70.4733ZM18.9019 76.4012L17.7493 78.9084C17.6463 79.1258 17.7723 79.3832 18.0078 79.4333L19.2446 79.6961C19.4834 79.7469 19.7042 79.558 19.6939 79.3149L19.6098 76.5448C19.5923 76.1573 19.0692 76.0513 18.9019 76.4012ZM26.2287 65.6573L28.8743 64.6602C29.1015 64.5794 29.1936 64.3081 29.0626 64.1065L28.374 63.0461C28.343 62.9985 28.3014 62.9586 28.2525 62.9296C28.2036 62.9005 28.1488 62.883 28.0921 62.8784C28.0354 62.8738 27.9784 62.8823 27.9255 62.9032C27.8726 62.924 27.8252 62.9568 27.7869 62.9988L25.8281 65.0558C25.5678 65.3412 25.8639 65.7863 26.2287 65.6573ZM26.7386 73.2666L29.4311 73.8957C29.4858 73.9086 29.5369 73.9337 29.5806 73.9691C29.6242 74.0046 29.6592 74.0495 29.683 74.1004C29.7068 74.1514 29.7187 74.2071 29.7179 74.2633C29.7171 74.3195 29.7036 74.3748 29.6783 74.425L29.1097 75.5537C29.084 75.6044 29.0471 75.6486 29.0018 75.6829C28.9565 75.7172 28.9039 75.7406 28.8481 75.7515C28.7924 75.7624 28.7349 75.7604 28.68 75.7457C28.6251 75.731 28.5743 75.704 28.5314 75.6666L26.4076 73.9088C26.1178 73.6527 26.3616 73.1779 26.7386 73.2666Z" fill="#FFC107"/>
<path d="M23.396 59.9641L24.538 65.4908C24.5809 65.6988 24.6789 65.8915 24.8217 66.0487C24.9644 66.2059 25.1468 66.3219 25.3497 66.3845L30.6466 68.0165C31.2387 68.2353 31.3231 69.0363 30.7884 69.3736L25.9946 71.9261C25.6064 72.1328 25.3641 72.5357 25.3654 72.9749L25.3714 78.761C25.346 79.3907 24.6099 79.7197 24.1245 79.3153L19.998 75.5535C19.8424 75.4114 19.6518 75.3133 19.4456 75.2695C19.2395 75.2257 19.0255 75.2377 18.8255 75.3042L13.5261 77.0608C12.9201 77.2315 12.3795 76.6329 12.6124 76.0473L14.9713 70.7638C15.1495 70.3628 15.0937 69.8965 14.8231 69.5499L11.4796 65.2711C11.1296 64.7475 11.5329 64.0484 12.1611 64.089L17.6638 64.7526C17.8747 64.7779 18.0885 64.7461 18.2829 64.6605C18.4773 64.575 18.6451 64.4388 18.7689 64.2663L22.0601 59.6818C22.4527 59.187 23.2399 59.3543 23.396 59.9641Z" fill="#FDD835"/>
<path d="M22.0962 65.2882L22.5125 61.4833C22.5418 61.2727 22.5746 60.9079 22.9073 60.9786C23.1708 61.0346 23.1975 61.6134 23.1975 61.6134L23.6882 64.8434C23.8712 66.0716 23.6137 66.4248 23.1546 66.5682C22.6276 66.7316 21.9765 66.378 22.0962 65.2882Z" fill="#FFFF8D"/>
<path d="M25.6306 71.5021L29.3975 69.6677C29.5856 69.5682 29.9189 69.417 29.7398 69.126C29.5976 68.8961 29.0451 69.0661 29.0451 69.0661L25.9827 69.5701C25.0776 69.6823 24.426 69.9948 24.2611 70.5277C24.0428 71.2386 24.5747 71.9352 25.6306 71.5021Z" fill="#F4B400"/>
</g>
<g clip-path="url(#clip5_543_19492)">
<path d="M-18.8002 98.7156L-22.0618 97.3546C-22.1272 97.3288 -22.186 97.2886 -22.2336 97.2368C-22.2813 97.185 -22.3166 97.1231 -22.3369 97.0558C-22.3572 96.9884 -22.362 96.9173 -22.3509 96.8478C-22.3398 96.7783 -22.3131 96.7123 -22.2728 96.6546L-21.3664 95.3601C-21.1922 95.1114 -20.8277 95.0941 -20.6308 95.3265L-18.2735 97.9817C-17.9608 98.3496 -18.3501 98.8927 -18.8002 98.7156ZM-19.7692 108.199L-23.1602 108.868C-23.2291 108.881 -23.294 108.91 -23.3501 108.953C-23.4061 108.995 -23.4519 109.05 -23.4838 109.112C-23.5157 109.175 -23.5331 109.244 -23.5345 109.314C-23.536 109.385 -23.5215 109.454 -23.4921 109.518L-22.8309 110.953C-22.7031 111.23 -22.3491 111.31 -22.1135 111.119L-19.3837 109.016C-19.0105 108.709 -19.2943 108.105 -19.7692 108.199ZM-10.8455 112.586L-11.0073 116.031C-11.0249 116.331 -10.7583 116.571 -10.4619 116.518L-8.90546 116.244C-8.60495 116.191 -8.4374 115.869 -8.56317 115.592L-9.95785 112.421C-10.1596 111.98 -10.8154 112.102 -10.8455 112.586ZM-7.38486 96.7028L-4.78544 94.3084C-4.56 94.1083 -4.58031 93.7508 -4.82654 93.5784L-6.12108 92.6719C-6.1794 92.6313 -6.24625 92.6045 -6.31652 92.5937C-6.38678 92.5829 -6.45859 92.5883 -6.52643 92.6095C-6.59427 92.6308 -6.65634 92.6673 -6.70789 92.7163C-6.75943 92.7652 -6.79908 92.8253 -6.82379 92.892L-8.13074 96.1932C-8.2988 96.6459 -7.74721 97.0231 -7.38486 96.7028ZM-3.23068 105.283L0.184415 104.751C0.253873 104.741 0.324856 104.746 0.392028 104.766C0.459201 104.787 0.520815 104.823 0.572244 104.871C0.623673 104.919 0.663577 104.978 0.688959 105.043C0.714341 105.109 0.724541 105.179 0.718793 105.249L0.588252 106.823C0.582259 106.894 0.560184 106.963 0.52371 107.024C0.487239 107.085 0.437332 107.136 0.377792 107.175C0.318255 107.214 0.250657 107.239 0.180157 107.247C0.109655 107.256 0.0381092 107.248 -0.0290252 107.225L-3.31358 106.182C-3.76938 106.021 -3.70918 105.357 -3.23068 105.283Z" fill="#FFC107"/>
<path d="M-13.3339 91.4338L-9.42247 97.3045C-9.27532 97.5254 -9.07156 97.7028 -8.83246 97.8182C-8.59336 97.9335 -8.32768 97.9825 -8.06316 97.9602L-1.16001 97.3712C-0.371381 97.3476 0.101621 98.2365 -0.360135 98.8778L-4.72092 104.081C-5.07402 104.502 -5.16615 105.082 -4.95897 105.591L-2.24269 112.294C-1.97727 113.036 -2.67628 113.762 -3.4283 113.52L-9.97225 111.093C-10.2191 111.001 -10.486 110.977 -10.7454 111.022C-11.0048 111.068 -11.2473 111.182 -11.4479 111.353L-16.7672 115.87C-17.3896 116.352 -18.2965 115.911 -18.3007 115.123L-18.0409 107.895C-18.0222 107.347 -18.3052 106.833 -18.7811 106.558L-24.6598 103.165C-25.3106 102.722 -25.1705 101.722 -24.4234 101.475L-17.7351 99.6677C-17.4789 99.5983 -17.246 99.4613 -17.0608 99.2712C-16.8756 99.081 -16.7448 98.8446 -16.6821 98.5867L-15.0144 91.7322C-14.791 90.9749 -13.8004 90.8002 -13.3339 91.4338Z" fill="#FDD835"/>
</g>
<g clip-path="url(#clip6_543_19492)">
<path d="M47.2245 92.2208L44.397 89.6162C44.3396 89.5655 44.2946 89.5025 44.2651 89.4318C44.2356 89.3612 44.2226 89.2848 44.2269 89.2084C44.2312 89.1319 44.2527 89.0575 44.2899 88.9906C44.3271 88.9237 44.379 88.8661 44.4417 88.8222L45.8498 87.8362C46.1203 87.6468 46.4993 87.7647 46.6142 88.0755L48.0359 91.6665C48.2187 92.159 47.6187 92.5692 47.2245 92.2208ZM42.7057 101.554L38.9909 100.976C38.9153 100.964 38.8381 100.97 38.7651 100.992C38.692 101.015 38.625 101.054 38.569 101.106C38.5131 101.158 38.4697 101.222 38.4421 101.293C38.4145 101.364 38.4034 101.441 38.4096 101.517L38.5516 103.23C38.5794 103.56 38.9112 103.774 39.2231 103.667L42.7959 102.532C43.2917 102.357 43.2262 101.634 42.7057 101.554ZM50.1954 109.358L48.7482 112.819C48.6185 113.12 48.802 113.464 49.1243 113.52L50.8174 113.819C51.1443 113.877 51.4354 113.609 51.4099 113.279L51.1641 109.519C51.122 108.993 50.4061 108.874 50.1954 109.358ZM59.6418 94.4103L63.1896 92.9299C63.4945 92.8093 63.6067 92.4363 63.4192 92.1684L62.4332 90.7603C62.3887 90.697 62.3303 90.6448 62.2625 90.6076C62.1947 90.5704 62.1193 90.5492 62.0421 90.5457C61.9648 90.5422 61.8878 90.5564 61.8169 90.5873C61.746 90.6181 61.6831 90.6648 61.633 90.7238L59.0689 93.6119C58.7287 94.0122 59.1522 94.6029 59.6418 94.4103ZM60.6958 104.726L64.3845 105.453C64.4594 105.468 64.5301 105.5 64.591 105.546C64.652 105.592 64.7017 105.652 64.7365 105.72C64.7712 105.788 64.7901 105.863 64.7917 105.939C64.7932 106.016 64.7775 106.091 64.7455 106.161L64.0263 107.722C63.9939 107.792 63.9458 107.854 63.8859 107.902C63.8259 107.951 63.7556 107.985 63.6804 108.003C63.6051 108.02 63.5268 108.02 63.4515 108.003C63.3763 107.986 63.3059 107.951 63.246 107.903L60.2765 105.615C59.8706 105.28 60.1793 104.624 60.6958 104.726Z" fill="#FFC107"/>
<path d="M55.5223 86.8074L57.3364 94.2635C57.4046 94.5441 57.5469 94.8012 57.7484 95.0081C57.9499 95.2149 58.2032 95.3639 58.4819 95.4394L65.7572 97.4057C66.5721 97.6749 66.7249 98.7595 66.0143 99.2432L59.6211 102.939C59.1035 103.238 58.7934 103.797 58.816 104.394L59.0986 112.257C59.094 113.114 58.1094 113.595 57.4305 113.069L51.6447 108.153C51.4265 107.967 51.1627 107.843 50.8806 107.793C50.5984 107.744 50.3081 107.77 50.0395 107.87L42.9216 110.508C42.1062 110.769 41.3432 109.981 41.6319 109.174L44.5866 101.883C44.8097 101.329 44.7118 100.698 44.3277 100.24L39.5811 94.5846C39.0807 93.8897 39.5956 92.9205 40.4512 92.9459L47.9602 93.5865C48.248 93.6108 48.537 93.5575 48.797 93.432C49.0571 93.3066 49.2788 93.1136 49.4388 92.8733L53.6936 86.4873C54.2037 85.7962 55.2813 85.9862 55.5223 86.8074Z" fill="#FDD835"/>
<path d="M54.008 94.1042L54.3931 88.9141C54.4229 88.6265 54.4502 88.1292 54.9056 88.2095C55.2663 88.2731 55.33 89.0584 55.33 89.0584L56.1502 93.4243C56.4571 95.0846 56.1239 95.5768 55.5069 95.7934C54.7986 96.0404 53.8969 95.5909 54.008 94.1042Z" fill="#FFFF8D"/>
<path d="M59.106 102.378L64.1377 99.7064C64.3886 99.5624 64.8344 99.3411 64.5772 98.9541C64.3731 98.6484 63.6304 98.9057 63.6304 98.9057L59.4928 99.7358C58.2682 99.9313 57.3976 100.387 57.1988 101.119C56.9359 102.095 57.6917 103.017 59.106 102.378Z" fill="#F4B400"/>
</g>
<g clip-path="url(#clip7_543_19492)">
<path d="M96.9772 93.4089L94.2256 92.5861C94.1705 92.5708 94.1195 92.5432 94.0766 92.5054C94.0337 92.4676 93.9999 92.4206 93.9778 92.3679C93.9556 92.3152 93.9457 92.2581 93.9488 92.201C93.9519 92.1439 93.9679 92.0883 93.9955 92.0382L94.6182 90.915C94.7378 90.6992 95.0309 90.6543 95.2098 90.8254L97.3405 92.771C97.6245 93.0419 97.356 93.5138 96.9772 93.4089ZM96.9996 101.156L94.3158 101.984C94.2613 102.001 94.2113 102.03 94.1696 102.069C94.1279 102.108 94.0955 102.156 94.075 102.21C94.0545 102.263 94.0464 102.32 94.0512 102.377C94.056 102.434 94.0736 102.489 94.1028 102.538L94.759 103.642C94.8858 103.854 95.1788 103.889 95.353 103.715L97.3805 101.783C97.6561 101.503 97.3754 101.039 96.9996 101.156ZM104.584 103.943L104.746 106.741C104.758 106.985 104.993 107.156 105.228 107.089L106.463 106.735C106.701 106.666 106.809 106.392 106.684 106.179L105.288 103.734C105.087 103.395 104.568 103.549 104.584 103.943ZM106.032 90.8125L107.93 88.6565C108.095 88.4757 108.048 88.1884 107.834 88.07L106.711 87.4474C106.661 87.4195 106.604 87.4035 106.546 87.4008C106.489 87.398 106.431 87.4085 106.378 87.4314C106.325 87.4544 106.278 87.4891 106.241 87.5331C106.203 87.577 106.176 87.629 106.162 87.6849L105.386 90.464C105.289 90.8442 105.766 91.1022 106.032 90.8125ZM110.118 97.3942L112.833 96.6744C112.889 96.6599 112.946 96.658 113.002 96.669C113.058 96.68 113.111 96.7036 113.157 96.7379C113.203 96.7722 113.24 96.8165 113.266 96.8673C113.292 96.9181 113.306 96.9742 113.307 97.0313L113.336 98.3148C113.337 98.3725 113.325 98.4297 113.301 98.4821C113.276 98.5345 113.24 98.5806 113.195 98.6169C113.151 98.6533 113.098 98.6789 113.042 98.6919C112.986 98.7049 112.927 98.7049 112.871 98.6918L110.128 98.1281C109.746 98.0366 109.738 97.4944 110.118 97.3942Z" fill="#FFC107"/>
<path d="M100.776 87.0577L104.436 91.4701C104.574 91.6362 104.753 91.7623 104.956 91.8352C105.16 91.9081 105.378 91.9251 105.59 91.8846L111.119 90.8222C111.755 90.7361 112.213 91.4143 111.894 91.9718L108.811 96.5474C108.562 96.9179 108.537 97.3948 108.747 97.788L111.512 102.975C111.79 103.552 111.286 104.198 110.658 104.067L105.163 102.661C104.956 102.607 104.738 102.61 104.532 102.669C104.326 102.728 104.14 102.841 103.992 102.996L100.077 107.099C99.6149 107.541 98.8446 107.262 98.7742 106.626L98.3702 100.762C98.3388 100.317 98.0664 99.9256 97.6584 99.7437L92.619 97.5006C92.0553 97.1979 92.0837 96.3785 92.6665 96.1153L97.9184 94.0862C98.1196 94.0083 98.2962 93.8779 98.4298 93.7085C98.5633 93.539 98.6489 93.3369 98.6777 93.1231L99.4433 87.4416C99.5594 86.8105 100.345 86.5852 100.776 87.0577Z" fill="#FDD835"/>
<path d="M102.149 92.4517L100.708 88.8406C100.634 88.6377 100.489 88.2948 100.821 88.1996C101.084 88.1242 101.384 88.6306 101.384 88.6306L103.365 91.2936C104.115 92.3079 104.052 92.7475 103.709 93.0951C103.314 93.4929 102.561 93.4864 102.149 92.4517Z" fill="#FFFF8D"/>
<path d="M108.283 96.3397L110.787 92.8979C110.908 92.719 111.135 92.4245 110.835 92.2488C110.598 92.1104 110.184 92.5264 110.184 92.5264L107.677 94.4389C106.919 94.9712 106.484 95.5622 106.59 96.1188C106.733 96.8606 107.542 97.2317 108.283 96.3397Z" fill="#F4B400"/>
</g>
<defs>
<clipPath id="clip0_543_19492">
<rect width="26.9372" height="26.9372" fill="white" transform="translate(49.7793 48.0078) rotate(-10)"/>
</clipPath>
<clipPath id="clip1_543_19492">
<rect width="28.733" height="28.733" fill="white" transform="translate(16.248 10.082) rotate(-12)"/>
</clipPath>
<clipPath id="clip2_543_19492">
<rect width="24.8546" height="24.8546" fill="white" transform="translate(93.8955 24.8594) rotate(12)"/>
</clipPath>
<clipPath id="clip3_543_19492">
<rect width="17.9581" height="17.9581" fill="white" transform="translate(66.5479 0.695312) rotate(12)"/>
</clipPath>
<clipPath id="clip4_543_19492">
<rect width="21.5497" height="21.5497" fill="white" transform="translate(12.2451 56.2422) rotate(12)"/>
</clipPath>
<clipPath id="clip5_543_19492">
<rect width="26.9372" height="26.9372" fill="white" transform="translate(-28 92.3438) rotate(-10)"/>
</clipPath>
<clipPath id="clip6_543_19492">
<rect width="29.3015" height="29.3015" fill="white" transform="translate(40.1924 82.2812) rotate(10)"/>
</clipPath>
<clipPath id="clip7_543_19492">
<rect width="21.8906" height="21.8906" fill="white" transform="translate(89 89.0352) rotate(-16)"/>
</clipPath>
</defs>
</svg>
