<svg width="19" height="18" viewBox="0 0 19 18" fill="none" xmlns="http://www.w3.org/2000/svg">
<g clip-path="url(#clip0_2487_14398)">
<path d="M3.36809 3.7007C3.49655 2.912 4.25136 2.29374 4.97347 2.02178C5.44055 1.84578 5.94385 1.76345 6.44286 1.76042C8.25868 1.7567 10.0746 1.7567 11.8904 1.76042C13.1846 1.7683 14.6187 2.31814 14.9346 3.55164C14.9466 3.5986 14.9564 3.64614 14.9642 3.69402C15.8002 3.9496 16.5125 4.46893 16.7239 5.29447C16.7549 5.41534 16.7714 5.53979 16.774 5.66453C17.5359 6.09772 18.0892 6.91496 18.098 7.8511C18.104 9.80874 18.104 11.7665 18.098 13.7242C18.0857 15.0342 16.9473 16.2269 15.5825 16.2396C11.3052 16.2532 7.028 16.2532 2.75075 16.2396C1.44617 16.2275 0.248115 15.1051 0.235248 13.7241C0.229201 11.7665 0.229201 9.80874 0.235248 7.8511C0.243615 6.95399 0.777357 6.10686 1.55923 5.66129C1.5605 5.59084 1.56275 5.57319 1.56739 5.52826C1.65352 4.69921 2.43638 4.04621 3.18408 3.76461C3.24483 3.74169 3.30615 3.72039 3.36809 3.7007ZM15.666 6.18259C11.3346 6.17289 7.00318 6.17289 2.67179 6.18259C1.83535 6.23701 1.08729 6.96587 1.079 7.85631C1.07295 9.81402 1.06086 11.7718 1.07907 13.7294C1.09243 14.5908 1.83345 15.3816 2.74547 15.3958C7.02603 15.4354 11.3072 15.4354 15.5878 15.3958C16.4544 15.3823 17.24 14.6389 17.2542 13.7294C17.2726 11.7683 17.2726 9.80692 17.2542 7.84583C17.2412 7.00616 16.5393 6.23898 15.666 6.18259ZM13.6855 4.34701C10.6812 4.33639 7.67698 4.34694 4.67267 4.34694C4.40063 4.34792 4.12965 4.37753 3.86457 4.43842C3.86457 4.43842 3.84987 4.44102 3.82688 4.4432C3.48741 4.52511 3.16531 4.66356 2.8887 4.87442C2.7286 4.99642 2.58544 5.14674 2.49376 5.32696L2.48743 5.33968H2.63143C2.67094 5.33736 2.71074 5.33596 2.75075 5.3356C7.028 5.32232 11.3052 5.32232 15.5825 5.3356C15.6217 5.33596 15.6608 5.33736 15.6998 5.33968H15.8458C15.6127 4.86247 15.0947 4.57412 14.5024 4.43919C14.4751 4.43743 14.4474 4.43349 14.4192 4.42724C14.3115 4.40417 14.3013 4.40333 14.2485 4.39461C14.0632 4.36403 13.8757 4.34905 13.6881 4.34708L13.6855 4.34701ZM13.9939 3.51571C14.006 3.51648 14.013 3.5169 14.013 3.5169C13.623 2.87087 12.7259 2.60931 11.8869 2.60417C10.0684 2.60045 8.24982 2.59314 6.43126 2.60424C5.61141 2.61261 4.71823 2.86925 4.32287 3.51254C4.32287 3.51254 4.45344 3.50692 4.57655 3.50431C4.58858 3.5041 4.6006 3.50382 4.61255 3.50368H4.61375L4.6257 3.50347L4.63006 3.5034H4.63048L4.63983 3.50333L4.64799 3.50326H4.65347L4.67401 3.50319C5.93098 3.49883 7.18796 3.49813 8.44494 3.49876C10.1835 3.4982 11.922 3.49967 13.6605 3.50319L13.6798 3.50326C13.6889 3.50326 13.6981 3.5034 13.7073 3.50347L13.7254 3.50368C13.7333 3.50375 13.7414 3.50396 13.7497 3.50417C13.8307 3.50593 13.9122 3.50973 13.9939 3.51571Z" fill="white"/>
<path d="M7.17538 7.26372C7.23838 7.27166 7.29863 7.29093 7.3553 7.32201L12.6042 10.4634C12.6923 10.5208 12.71 10.547 12.742 10.5967C12.8525 10.7679 12.8158 11.0183 12.6567 11.1502C12.6346 11.1685 12.6282 11.1718 12.6042 11.1874L7.3553 14.3288C7.26432 14.3786 7.23338 14.3819 7.17538 14.387C6.96535 14.4054 6.75406 14.244 6.72158 14.0301C6.71729 14.0021 6.71785 13.9949 6.7168 13.9667V7.68404C6.72045 7.58638 6.72995 7.57035 6.7464 7.52879C6.81228 7.36229 6.98638 7.25436 7.17538 7.26372ZM7.56055 13.2226L11.566 10.8254L7.56055 8.42816C7.56055 10.0263 7.56055 11.6245 7.56055 13.2226Z" fill="white"/>
</g>
<defs>
<clipPath id="clip0_2487_14398">
<rect width="18" height="18" fill="white" transform="translate(0.166626)"/>
</clipPath>
</defs>
</svg>
